<svg width="1980" height="1980" viewBox="0 0 1980 1980" fill="none" xmlns="http://www.w3.org/2000/svg">
<rect width="1980" height="1980" rx="990" fill="url(#paint0_linear)"/>
<path d="M1118.2 306.1C1109.9 310.2 1103.1 320.6 1092.5 345C1076.8 381.5 1041.3 443 1011.4 485.6C975.2 537.2 933.5 581.8 884.7 620.7C837.4 658.6 776.3 695.3 696.8 733.6C640.8 760.5 581 786.7 449.5 842C423.1 853.1 398.6 863.7 394.9 865.6C379.3 873.8 365.9 887.6 358 903.5C350.9 917.8 349.5 923.7 349.5 940.5V954.6L340.5 957.9C310.7 968.8 294.6 980.8 285.2 998.7C279.3 1010.1 277.7 1017.8 278.3 1032C279 1047.9 281.2 1055 300.7 1104.5C309.8 1127.6 321.2 1156.7 326 1169.1C336.2 1195.1 340.4 1204.3 346 1212.7C354.6 1225.7 370.7 1237.1 385.1 1240.5C393.8 1242.5 407.6 1242.4 418.5 1240.1C426.3 1238.5 438.5 1234.4 456.2 1227.4L460.9 1225.6L463.2 1228.6C468 1234.8 479.8 1246.4 485.6 1250.6C498.5 1259.8 513.8 1265 528.3 1265C531.7 1265 538.8 1264.3 544.2 1263.4C549.6 1262.5 554.2 1261.9 554.4 1262.1C554.5 1262.3 561.3 1278.2 569.4 1297.5C577.5 1316.7 584.8 1333.5 585.6 1334.8C587.9 1338.4 593 1341 597.7 1341C600.4 1341 607.1 1338.9 617.1 1335C625.5 1331.7 632.5 1329.1 632.6 1329.3C632.7 1329.4 645 1358.5 660 1394C715.1 1524.5 733.7 1565.2 744.4 1578.1C755.1 1591.1 772 1601.8 788.5 1606.1C800.3 1609.2 817.3 1609 830 1605.7C858.5 1598.2 881.9 1581.7 892.8 1561.3C899.1 1549.3 901.3 1540.1 901.3 1525C901.3 1511.4 899.9 1503.5 895 1488.8C892.8 1482.3 817.2 1294.6 805.5 1266.7C804.1 1263.2 804.1 1262.9 805.7 1262.3C813.1 1259.8 824.6 1253.5 828.6 1249.9C834.7 1244.2 837 1239.2 837 1231.1C837 1223.4 834.8 1216.5 820.4 1180.6C814.7 1166.3 810.1 1154.6 810.3 1154.5C811.1 1153.9 854.3 1139.1 869 1134.5C1017.4 1087.3 1128.2 1078.1 1266.5 1101.6C1311 1109.1 1380.6 1124.7 1405 1132.6C1432.8 1141.5 1446.3 1143.2 1455 1138.8C1462 1135.2 1463.5 1132.3 1463.4 1122.7V1114.5L1414.7 993.6C1387.9 927 1366 872.3 1366 871.9C1366 871.6 1369.5 869.2 1373.8 866.7C1413.8 843.5 1442.7 802.7 1453.2 754.7C1455.2 745.8 1455.4 741.6 1455.4 721.5C1455.4 701.5 1455.1 697.2 1453.2 688.4C1440.5 630.2 1398.7 583.8 1342.1 565C1310.8 554.6 1280.2 553.3 1247.3 561.1C1244.4 561.8 1241.8 562.2 1241.6 561.9C1241.4 561.7 1219.3 506.8 1192.6 440C1165.8 373.2 1142.9 316.7 1141.7 314.5C1138.8 309.3 1131 304 1126.1 304C1124.1 304 1120.6 305 1118.2 306.1ZM1233 622.7C1395.9 1029 1426 1104.4 1426 1105.2C1426 1105.6 1424.8 1105.5 1423.4 1105C1416.3 1102.3 1350.7 1086.8 1317.7 1080.1C1266.9 1069.7 1217.3 1062.7 1175.5 1060C1154.9 1058.7 1102.5 1058.7 1082.8 1060C1009.9 1064.9 941.3 1078.8 859 1105.5C846.1 1109.7 834.9 1113.2 834.1 1113.3C833.2 1113.4 809.5 1058.9 760.9 944.5C721.3 851.5 688.7 774.5 688.4 773.2C688 771.8 688.2 771 689.1 771C689.8 771 707 762.7 727.4 752.6C781 726 817.9 705 854.6 680.4C955 613.3 1025.3 534.2 1092.2 413.5C1106.1 388.4 1123 355.5 1123 353.6C1123 352.7 1123.3 352 1123.8 352C1124.2 352 1173.3 473.8 1233 622.7ZM1317.2 590C1343.7 595.6 1365.8 607.2 1384.9 625.5C1404.7 644.6 1417.5 667.8 1423.6 696C1426.2 707.9 1426.2 735.1 1423.6 747C1418.2 772.2 1407 794.3 1389.9 814.1C1380.2 825.2 1356.3 843.4 1354.9 840.8C1354.5 840.1 1331.8 784.1 1304.5 716.5C1277.2 648.8 1254.6 593 1254.3 592.3C1253.8 591.2 1258.6 589.9 1270.5 588C1280.2 586.5 1306.1 587.6 1317.2 590ZM731.6 953.5C770.9 1045.9 803.1 1122.1 803.2 1122.9C803.4 1123.9 798.9 1126.1 788 1130.2C722.8 1154.7 627.9 1194.7 575 1220C548.8 1232.5 542.6 1234.5 529.4 1234.5C519.8 1234.5 519.1 1234.3 511.6 1230.6C501.9 1225.8 491.2 1215.9 483.5 1204.6C476.5 1194.3 470.7 1181.3 451 1131.5C442.2 1109.5 424.1 1063.8 410.7 1030C397.2 996.1 385 964.6 383.5 960C380 948.7 379.1 935.9 381.4 927C384.1 916.6 386.8 912 395.4 903.4C405.5 893.4 412.1 890.1 460.5 870.2C518.5 846.3 624.3 801 652 788.1C655.6 786.5 658.9 785.2 659.4 785.3C659.8 785.5 692.3 861.2 731.6 953.5ZM363.3 994C365.5 999.2 384.9 1047.5 406.5 1101.2L445.6 1198.9L440.8 1201C438.2 1202.1 431.2 1204.7 425.3 1206.7C416.4 1209.7 412.7 1210.4 404 1210.8C395 1211.1 392.7 1210.9 387.8 1209C372.8 1203.4 364.7 1189.9 347.7 1142C344.7 1133.5 336.1 1111.4 328.7 1093C309.3 1044.7 308.6 1042.5 308.6 1031C308.6 1023.3 309 1020.6 310.7 1016.8C314.5 1008.6 324.4 999.5 336 993.5C341.5 990.6 357.4 984.1 358.3 984.4C358.8 984.5 361 988.8 363.3 994ZM789.8 1187.4C798.5 1209.8 805.3 1229 804.7 1229.6C803.6 1230.7 643.2 1292 641.4 1292C640.2 1292 636.7 1293.4 633.6 1295C625.2 1299.5 606.9 1306.4 606.1 1305.4C605 1304.1 582.7 1251 583.1 1250.7C585.5 1249 629 1228.9 651.9 1218.8C702.6 1196.6 776.5 1166.1 780 1166C781 1166 784.1 1172.6 789.8 1187.4ZM803.5 1342.2C846.8 1448.4 865.6 1495.8 867.9 1504.9C870.5 1515.3 870.7 1529.2 868.4 1537.1C863.2 1554.9 851.2 1566.2 830 1573.2C821.4 1576.1 819.3 1576.4 808.5 1576.4C798.9 1576.3 795.4 1575.9 790.9 1574.3C780.1 1570.3 771.4 1563.4 764.8 1553.7C759.6 1546.1 754.2 1534 723.5 1462.5C709.5 1430 689.8 1384.4 679.7 1361C669.5 1337.6 661.3 1318.3 661.6 1318.1C662 1317.7 774.1 1274.2 775 1274.1C775.3 1274 788.1 1304.7 803.5 1342.2Z" fill="white"/>
<path d="M603.5 893.7C601.1 894.3 493 940.5 487.7 943.2C483.5 945.3 480 950.2 480 953.9C480 958.2 484 965 488.2 967.8C495.8 972.8 495.6 972.9 557 946.5C587.5 933.5 614.2 921.9 616.3 920.8C620.5 918.7 624 913.8 624 910.1C624 905.9 620 899 616.1 896.5C612.3 894 606.9 892.8 603.5 893.7Z" fill="white"/>
<path d="M635.5 977.7C633.1 978.3 525 1024.5 519.7 1027.2C515.5 1029.3 512 1034.2 512 1037.9C512 1042.2 516 1049 520.2 1051.8C527.8 1056.8 527.6 1056.9 589 1030.5C619.5 1017.5 646.2 1005.9 648.3 1004.8C652.5 1002.7 656 997.8 656 994.1C656 989.9 652 983 648.1 980.5C644.3 978 638.9 976.8 635.5 977.7Z" fill="white"/>
<path d="M667.5 1061.7C665.1 1062.3 557 1108.5 551.7 1111.2C547.5 1113.3 544 1118.2 544 1121.9C544 1126.2 548 1133 552.2 1135.8C559.8 1140.8 559.6 1140.9 621 1114.5C651.5 1101.5 678.2 1089.9 680.3 1088.8C684.5 1086.7 688 1081.8 688 1078.1C688 1073.9 684 1067 680.1 1064.5C676.3 1062 670.9 1060.8 667.5 1061.7Z" fill="white"/>
<path d="M1406.5 364.2C1404.3 366.4 1392.9 385.6 1374 419.5C1348 466 1345 471.9 1345 475.9C1345 484.3 1352.3 491 1361.4 491C1365.2 491 1366.6 490.4 1369.5 487.7C1371.7 485.6 1383.1 466.4 1402 432.5C1428 386 1431 380.1 1431 376.1C1431 367.7 1423.7 361 1414.6 361C1410.8 361 1409.4 361.6 1406.5 364.2Z" fill="white"/>
<path d="M1549.3 495.8C1493.3 536.1 1464.8 557.5 1463.5 560C1461.4 564 1461.6 571.8 1463.9 576C1466.3 580.7 1471.4 584 1476.1 584C1480.3 584 1476.8 586.4 1538.3 541.6C1562.2 524.2 1575.5 513.9 1576.5 512C1578.6 508 1578.4 500.2 1576.1 496C1573.7 491.3 1568.6 488 1563.9 488C1560.8 488 1558.3 489.4 1549.3 495.8Z" fill="white"/>
<path d="M1583.6 691.5C1542.8 699.2 1528 702.3 1526.1 703.8C1522.2 706.7 1520.9 709.9 1521.3 715.7C1521.9 724.2 1528.6 731 1536.2 731C1542.5 730.9 1651 710.2 1653.5 708.6C1659.7 704.5 1660.7 694.3 1655.6 687.5C1652.1 683 1648.1 681 1642.8 681.1C1640.4 681.2 1613.8 685.9 1583.6 691.5Z" fill="white"/>
<path d="M1509.1 845.8C1503.9 848.6 1501.8 853.2 1502.2 860.8C1502.9 871.7 1501.2 870.8 1564.2 895C1594.3 906.5 1619.9 916 1621.2 916C1624.9 916 1630.2 912.6 1632.2 908.9C1633.7 906.3 1634 904 1633.8 899.2C1633.1 888.3 1634.8 889.2 1571.8 865C1541.7 853.5 1516.1 844 1514.8 844C1513.5 844 1510.9 844.8 1509.1 845.8Z" fill="white"/>
<defs>
<linearGradient id="paint0_linear" x1="990" y1="0" x2="990" y2="1980" gradientUnits="userSpaceOnUse">
<stop stop-color="#771CD1"/>
<stop offset="0.510417" stop-color="#CD48E9"/>
<stop offset="0.833333" stop-color="#F45CF4"/>
<stop offset="1" stop-color="#F4A1F4"/>
</linearGradient>
</defs>
</svg>
