<svg width="1980" height="1980" viewBox="0 0 1980 1980" fill="none" xmlns="http://www.w3.org/2000/svg">
<rect width="1980" height="1980" rx="990" fill="url(#paint0_linear)"/>
<path d="M1033.5 433C1010.5 435.5 989.5 454.3 984 477.5C983.2 480.9 982.6 503.6 982 548.5C981.2 619.2 980.8 624.7 975.4 648.9C956.3 734.4 891.6 805.9 808.7 833.1C791.7 838.7 789.7 839.7 787 844.3C783.2 850.5 785.8 861.1 792.2 865C796.7 867.7 801.9 867.5 813.1 864.2C868.5 847.4 921 810 957.5 761.5C984.3 725.8 999.4 690.2 1006.5 645.7C1010.4 621.6 1011.1 607.7 1012 548C1012.9 483.2 1013.1 480.9 1018.8 472.5C1028.1 458.8 1051.2 461.5 1079 479.5C1097.5 491.4 1108.5 505.9 1114.3 526C1119.3 543.3 1119.4 543.6 1119.4 653.7L1119.5 756.9L1122.5 759.9C1128.3 766.1 1138.5 766.3 1144.9 760.5L1148.5 757.2L1149.1 672.3C1149.4 625.7 1150 584.3 1150.4 580.5C1151.4 571.7 1149.6 541.2 1147.5 530C1142.7 504.7 1134.3 488.5 1116.4 470C1091.5 444.3 1059.9 430.2 1033.5 433Z" fill="white"/>
<path d="M1063.5 744.4C1061.8 745.1 1059.1 747.3 1057.6 749.1L1054.7 752.5L1055.3 764C1056.9 795.7 1070.4 821 1091.4 831.7C1102.2 837.2 1097.8 837 1215.5 836.8C1378.9 836.4 1370.5 836.3 1378 838.4C1406.7 846.3 1426 877.8 1418.1 903.8C1415.8 911.5 1410.7 919.1 1404.5 924C1397.2 929.8 1392.6 931.5 1375.6 934.5C1360.8 937.2 1354.3 941.5 1352 950.1C1350.6 955.3 1351.9 959.6 1356.3 963.7C1360.6 967.8 1362.3 968.6 1374.3 972.1C1392.8 977.6 1405.7 985.6 1413.7 996.3C1430.3 1018.8 1420.6 1049.7 1392.9 1063C1380.5 1068.9 1371 1071 1354.1 1071.7C1340.8 1072.3 1339.6 1072.5 1336.9 1074.8C1332.8 1078.2 1331 1082.1 1331 1087.6C1331 1094.2 1333.8 1098.1 1341.6 1102.5C1374.7 1121 1389.5 1140.8 1384.6 1160C1383.7 1163.3 1382.2 1167.7 1381.1 1169.8C1375.9 1180.1 1364.2 1190.7 1352.2 1196.2C1340.7 1201.4 1335.7 1202.2 1306.2 1202.9L1278.8 1203.5L1275.5 1207.1C1269.7 1213.5 1269.9 1223.7 1276 1229.5L1279.1 1232.5L1298.5 1232.8L1317.9 1233.1L1319 1238.3C1321.1 1247.6 1321.4 1267.7 1319.6 1275.3C1316.6 1288.2 1311 1295.8 1301.5 1300.2L1296.5 1302.5L1153 1302.8C998.4 1303.1 993.1 1303 973.6 1298.1C955.9 1293.6 948.1 1290.4 921.4 1276.9C884.4 1258.2 860.9 1249.7 828.2 1243.1C806.2 1238.6 802 1238.3 796.8 1240.9C791.5 1243.5 787.9 1248.5 787.3 1254.5C786.6 1259.8 788.3 1264.3 791.6 1266.5C793 1267.4 799.5 1269 806.2 1270.1C830.1 1274 854.8 1280.8 876.2 1289.6C882 1291.9 897.8 1299.5 911.2 1306.3C938 1320 954.7 1326.2 975 1330.1C986.5 1332.4 986.7 1332.4 1137 1333C1227 1333.4 1290.5 1333.3 1295 1332.8C1324.1 1329.2 1343 1311.3 1349.1 1281.5C1350.9 1272.8 1351.1 1269.2 1350.6 1254C1350.3 1244.4 1349.7 1234.9 1349.3 1233.1L1348.4 1229.6L1357.5 1226.6C1380.6 1218.8 1399.3 1202.3 1409.5 1180.9C1421.6 1155.4 1416.5 1127.9 1395.4 1105.2C1391.8 1101.2 1388.9 1097.8 1389.1 1097.6C1389.3 1097.5 1392.9 1096.1 1397.1 1094.6C1414.2 1088.5 1433.2 1073.2 1441.8 1058.5C1452.6 1040.1 1455.3 1016.9 1449 998.4C1444.2 984.5 1430.1 967.3 1416.7 959C1413.6 957.1 1411.1 955.3 1411.1 955C1411.1 954.7 1413.6 953 1416.6 951.1C1430.4 942.8 1442.8 927.3 1447.6 912.6C1449.9 905.7 1450.3 902.7 1450.3 892.5C1450.4 879.5 1449 872.5 1444.3 861C1433 833.6 1409.1 814 1380.2 808.4C1374.1 807.2 1350.6 807 1243.4 807C1115.8 807 1114 807 1108.6 805C1094.3 799.6 1087.3 786.6 1085.4 762.3C1084.6 751.3 1082.8 747.7 1076.7 745C1071.8 742.7 1067.7 742.6 1063.5 744.4Z" fill="white"/>
<path d="M458.2 809C456.4 810.1 454.1 812.4 453 814.2C451 817.5 451 819.8 451 1070C451 1320.2 451 1322.5 453 1325.8C454.1 1327.6 456.4 1329.9 458.2 1331C461.5 1333 463.2 1333 599.2 1332.8L737 1332.5L740.7 1328.7L744.5 1325L744.7 1071.2C745 819.4 745 817.5 743 814.2C741.9 812.4 739.6 810.1 737.8 809C734.5 807 732.4 807 598 807C463.6 807 461.5 807 458.2 809ZM715 1070V1303H598H481V1070V837H598H715V1070Z" fill="white"/>
<path d="M587.6 1185.4C579.8 1188.3 571 1197.7 568.9 1205.3C567.4 1210.8 568.2 1222.6 570.4 1226.8C573 1231.8 578.8 1237.8 583.9 1240.8C588 1243.2 589.5 1243.5 598 1243.5C606.5 1243.5 608 1243.2 612.1 1240.8C617.2 1237.8 622.9 1231.9 625.7 1226.8C627.1 1224.3 627.5 1221.3 627.5 1214C627.5 1203.4 626.6 1200.9 620.3 1193.9C614.1 1187.1 608.9 1184.7 599.6 1184.3C594.3 1184.1 590.2 1184.5 587.6 1185.4Z" fill="white"/>
<defs>
<linearGradient id="paint0_linear" x1="990" y1="0" x2="990" y2="1980" gradientUnits="userSpaceOnUse">
<stop stop-color="#771CD1"/>
<stop offset="0.510417" stop-color="#CD48E9"/>
<stop offset="0.833333" stop-color="#F45CF4"/>
<stop offset="1" stop-color="#F4A1F4"/>
</linearGradient>
</defs>
</svg>
