<svg width="1980" height="1980" viewBox="0 0 1980 1980" fill="none" xmlns="http://www.w3.org/2000/svg">
<rect width="1980" height="1980" rx="990" fill="url(#paint0_linear)"/>
<path d="M968.5 495.1C945.9 498.6 925.1 514.1 914.3 535.5C910.3 543.3 900.2 575.2 885 627.5C873.7 666.5 828.4 817.3 827.1 820.6L826.2 822.7L703.8 822.2C571.9 821.8 550.6 822.3 538.5 826C512 834.3 491.4 854.8 483 881.5C479.6 892.2 479.1 910.9 481.9 921.9C484.6 932.8 489.8 943.1 496.6 951.4C505.3 961.9 527.7 979.8 576.5 1015C595.7 1028.9 724.1 1124.2 727.3 1127.1C727.8 1127.5 710.5 1186.4 689 1258.1C667.4 1329.8 648.9 1392.3 647.8 1397C644.8 1409.8 645.6 1426.4 649.7 1438.3C658 1462.1 676.1 1479.8 700 1487.2C706.1 1489.1 709.7 1489.5 719.5 1489.5C742.2 1489.4 757.6 1482.8 792.5 1458.1C800.7 1452.3 835.6 1428.1 869.9 1404.4C916.5 1372.4 933 1360.5 934.4 1358C940.4 1347.7 931.9 1332.8 920.9 1334.3C917.9 1334.7 902.1 1345.1 849.8 1381.1C812.8 1406.5 774.6 1432.9 764.9 1439.7C745.5 1453.2 737.4 1457.5 728 1459.2C715.3 1461.6 700.7 1456.8 690.9 1447.1C677 1433.1 673.7 1414.8 681 1391.5C698.9 1334.3 761 1124.8 761 1121.7C761 1119.4 760.1 1116.3 758.9 1114.4C757.6 1112.2 719.4 1083.1 644.7 1027.3C572.2 973.2 530 941 525.4 936.4C515.5 926.5 511 917.4 510.3 905.7C509.6 895.8 510.9 889.1 515.2 880.3C519.2 872.1 528.8 862.9 537.3 859C551.1 852.8 544.9 853 700.8 853H842.7L846 850.7C847.9 849.5 850.2 847.1 851.1 845.5C852 843.8 871.7 779.7 894.9 703C918 626.3 937.8 560.9 938.9 557.7C944.1 542.7 951.2 533.7 961.8 528.7C967.9 525.8 969.4 525.5 978.5 525.5C987.2 525.5 989.2 525.8 994.2 528.2C1001.1 531.4 1008.2 537.8 1012.7 544.8C1017.2 551.7 1022.2 567.1 1053.9 670C1097.5 811.4 1107.6 843.8 1109.4 846.4C1110.3 847.8 1112.2 849.8 1113.7 850.7C1116.2 852.4 1125 852.5 1259.5 853L1402.5 853.5L1410 855.8C1420.5 859.1 1426.6 862.6 1433.1 869.2C1441.9 877.9 1448 892.6 1448 904.5C1447.9 917.2 1441.5 932.3 1432.1 941.8C1424.7 949.2 1401.4 967.2 1359.5 997.8C1291.4 1047.5 1206.5 1111.6 1204.8 1114.7C1203.8 1116.4 1203 1119.6 1203 1121.7C1203 1123.9 1215 1166.7 1230.1 1218.1C1283.2 1399.8 1285.1 1406.5 1285.7 1416.6C1287.2 1442.3 1273.8 1460.1 1250.1 1463.9C1238.4 1465.8 1226.6 1461.5 1209 1449.1C1203.8 1445.4 1140.9 1401.9 1069.2 1352.6C966.4 1281.7 938.1 1262.7 935.1 1262.3C924.1 1260.8 915.6 1275.7 921.6 1286C923.1 1288.6 956.7 1312.3 1060.9 1384.1C1136.4 1436.1 1201.8 1480.9 1206.1 1483.5C1227.9 1496.7 1252.2 1498.5 1273.8 1488.4C1293.5 1479.3 1307.6 1463.8 1314.7 1443.5C1317.2 1436.3 1317.4 1434.2 1317.4 1422C1317.4 1407.3 1316.7 1403.9 1309 1379C1304.3 1364 1236 1129.1 1236 1128.2C1236 1127.8 1251.8 1115.8 1271.2 1101.5C1359 1036.5 1446 970.8 1451.6 965.3C1466.8 950.3 1475.5 930.9 1476.7 909C1479 867.5 1453.6 833.1 1414.8 824.9C1405.8 823 1400.9 823 1269.5 823L1133.5 823.1L1105.6 732.3C1042.8 527.8 1043.8 530.8 1028.2 515C1021.1 507.9 1017.9 505.5 1011 502.2C1006.3 499.9 999.9 497.4 996.7 496.6C989 494.6 975.9 493.9 968.5 495.1Z" fill="white"/>
<defs>
<linearGradient id="paint0_linear" x1="990" y1="0" x2="990" y2="1980" gradientUnits="userSpaceOnUse">
<stop stop-color="#771CD1"/>
<stop offset="0.510417" stop-color="#CD48E9"/>
<stop offset="0.833333" stop-color="#F45CF4"/>
<stop offset="1" stop-color="#F4A1F4"/>
</linearGradient>
</defs>
</svg>
