<svg width="200" height="200" viewBox="0 0 200 200" fill="none" xmlns="http://www.w3.org/2000/svg">
<path d="M59.8521 22.0566C59.8588 22.0589 59.8656 22.0623 59.8723 22.0645" stroke="black" stroke-width="0.51574" stroke-miterlimit="10"/>
<path d="M62.2278 36.7192L62.2345 36.7158" stroke="black" stroke-width="0.70997" stroke-miterlimit="10"/>
<path d="M67.5403 20.3342C67.547 20.3365 67.5538 20.3399 67.5606 20.3421" stroke="black" stroke-width="0.51574" stroke-miterlimit="10"/>
<path d="M136.546 82.8756C138.601 82.7202 140.637 82.3823 142.632 81.8659C145.89 81.0372 149.653 79.059 151.034 75.7791C152.325 72.7119 151.34 69.1299 148.854 66.976C148.839 66.9629 148.824 66.9499 148.809 66.9368C148.561 66.7293 148.274 66.5737 147.965 66.4792C147.656 66.3847 147.331 66.3533 147.009 66.3868C146.688 66.4203 146.376 66.5181 146.093 66.6743C145.81 66.8306 145.562 67.0421 145.362 67.2963C144.349 68.5952 144.924 70.5087 144.676 72.0115C144.441 73.4339 143.711 74.8206 142.876 75.9778C140.89 78.7281 137.843 80.575 134.651 81.5974C133.399 81.9763 132.119 82.2542 130.823 82.4285C130.72 82.4446 134.589 83.0263 136.546 82.8756Z" fill="#8ECEDB"/>
<path d="M130.823 82.4286C131.798 82.5395 132.78 82.5948 133.762 82.5941C135.509 82.5975 137.252 82.4197 138.962 82.0637C145.697 80.6513 150.566 76.5674 150.566 71.7492C150.566 70.0361 149.951 68.4165 148.854 66.976C148.839 66.963 148.824 66.9499 148.809 66.9369C147.566 65.8719 145.443 66.0962 144.802 67.7202C144.341 68.8862 144.707 70.2048 144.594 71.4169C144.471 72.8522 144.005 74.2371 143.236 75.4554C141.202 78.6264 137.789 80.6738 134.236 81.7246C133.646 81.8991 133.049 82.047 132.445 82.1683C131.966 82.2642 131.309 82.4843 130.823 82.4286Z" fill="url(#paint0_linear_13_207)"/>
<path d="M136.029 105.024C138.084 105.179 140.12 105.517 142.115 106.033C145.373 106.862 149.136 108.84 150.517 112.12C151.808 115.187 150.823 118.769 148.337 120.923C148.322 120.936 148.307 120.949 148.292 120.962C148.044 121.17 147.757 121.326 147.448 121.42C147.139 121.515 146.814 121.546 146.493 121.513C146.171 121.479 145.86 121.381 145.577 121.225C145.294 121.069 145.045 120.857 144.845 120.603C143.832 119.304 144.407 117.391 144.159 115.888C143.925 114.465 143.194 113.079 142.359 111.922C140.373 109.171 137.326 107.324 134.134 106.302C132.882 105.923 131.602 105.645 130.306 105.471C130.203 105.455 134.072 104.873 136.029 105.024Z" fill="#8ECEDB"/>
<path d="M130.306 105.471C131.282 105.36 132.263 105.305 133.245 105.305C134.992 105.302 136.735 105.48 138.445 105.836C145.18 107.248 150.049 111.332 150.049 116.15C150.049 117.863 149.434 119.483 148.337 120.923C148.322 120.936 148.307 120.949 148.292 120.962C147.049 122.028 144.926 121.803 144.285 120.179C143.825 119.013 144.19 117.695 144.077 116.482C143.954 115.047 143.488 113.662 142.719 112.444C140.686 109.273 137.273 107.226 133.719 106.175C133.129 106 132.532 105.852 131.928 105.731C131.45 105.635 130.793 105.415 130.306 105.471Z" fill="url(#paint1_linear_13_207)"/>
<path d="M52.151 35.994C52.1498 35.9421 52.1487 36.0458 52.151 35.994V35.994Z" fill="#205F88"/>
<path d="M37.2326 53.274C39.3804 55.78 45.7698 57.8692 41.2669 48.5087C41.2667 48.5087 41.2666 48.5087 41.2665 48.5086C41.2663 48.5086 41.2662 48.5085 41.2661 48.5084C41.266 48.5083 41.2659 48.5082 41.2658 48.508C41.2658 48.5079 41.2658 48.5077 41.2658 48.5076C40.071 45.9454 39.5333 43.1259 39.7014 40.3038C40.1429 32.7566 44.8293 29.2899 45.433 32.8185C45.7898 35.0636 46.4328 37.2537 47.3466 39.3352C50.4033 46.0782 51.4383 41.3636 52.3348 35.6522L52.336 35.8088C52.4813 32.9525 55.9626 27.5487 60.4373 27.5487C62.4916 27.2277 64.5989 28.2481 66.5496 29.9645C69.2178 32.3106 71.5931 35.9575 73.1395 39.2575C69.4408 30.2078 63.4906 21.7427 57.6689 19.4316C54.5307 17.9341 51.0042 17.451 47.5789 18.0492C44.1536 18.6474 40.9996 20.2973 38.5548 22.7698C38.3768 22.9827 38.2034 23.199 38.0333 23.4163C36.7911 25.0612 35.703 26.817 34.7829 28.6614C30.681 36.6051 32.0077 47.1775 37.2326 53.274Z" fill="url(#paint2_linear_13_207)"/>
<path d="M67.9852 27.3723C77.8852 41.4553 78.9025 57.0019 76.3816 62.1529C73.7465 67.5375 63.0017 58.596 65.0258 65.9454C67.8882 76.3351 77.9183 82.4535 87.3814 86.0722C97.2022 89.8276 108.374 92.2268 118.92 92.2268H118.942C134.874 91.9723 148.053 84.9376 151.091 75.6538C150.342 77.9432 147.649 79.742 145.627 80.7018C139.38 83.6668 130.78 82.9258 124.334 81.0375C117.113 78.922 110.938 74.2029 107.167 67.7043C104.977 63.9324 102.88 59.0647 100.654 53.8567C98.2371 48.2006 95.6681 42.1446 92.6631 36.6562C90.7994 32.7491 88.3597 29.1439 85.4257 25.961C72.5737 12.0042 54.4316 7.45627 40.6797 20.4986L39.5703 21.608C44.8131 16.8731 57.8115 12.8962 67.9852 27.3723Z" fill="url(#paint3_linear_13_207)"/>
<path d="M38.5383 22.7698C40.9831 20.2973 44.1372 18.6474 47.5624 18.0491C50.9877 17.4509 54.5143 17.934 57.6524 19.4315C63.4742 21.7426 69.4243 30.2077 73.123 39.2574C73.819 40.6941 74.3659 42.1984 74.755 43.7467C76.7958 50.1586 77.2401 57.071 76.1893 60.8573C75.5721 63.0809 74.7348 63.83 73.758 63.9435C75.1622 64.0354 76.0434 63.1266 76.5503 61.9677C79.4223 55.4003 78.0539 41.27 68.1539 27.187C57.9802 12.711 44.9818 16.6879 39.7389 21.4227C39.7378 21.4239 39.7356 21.425 39.7344 21.4272C39.3188 21.8665 38.9201 22.314 38.5383 22.7698Z" fill="#65C2D2"/>
<path d="M128.781 77.5167C132.812 77.5167 136.081 74.2484 136.081 70.2168C136.081 66.1852 132.812 62.917 128.781 62.917C124.749 62.917 121.481 66.1852 121.481 70.2168C121.481 74.2484 124.749 77.5167 128.781 77.5167Z" fill="url(#paint4_linear_13_207)"/>
<path d="M95.9341 78.2002C95.9343 78.2002 95.9346 78.2002 95.9348 78.2001C95.935 78.2 95.9352 78.1999 95.9354 78.1997C95.9356 78.1995 95.9357 78.1993 95.9358 78.1991C95.9359 78.1989 95.9359 78.1986 95.9359 78.1984C95.9359 78.1981 95.936 78.1979 95.9361 78.1977C95.9362 78.1974 95.9363 78.1972 95.9365 78.1971C95.9366 78.1969 95.9369 78.1968 95.9371 78.1967C95.9373 78.1966 95.9375 78.1965 95.9378 78.1965" stroke="black" stroke-miterlimit="10"/>
<path d="M150.973 113.135C149.808 109.195 144.83 106.66 141.25 106.173C128.781 104.479 117.543 105.253 109.695 113.528C105.205 118.262 101.513 127.14 98.9439 133.969C95.9776 141.854 89.9727 150.478 88.1579 142.248C82.3759 116.052 78.8537 155.43 62.2345 170.172C48.3155 182.519 26.6826 172.296 33.304 150.178C33.3576 149.999 33.4202 149.822 33.482 149.645C39.9597 131.06 56.7116 117.134 74.2468 107.402C78.594 104.993 83.1571 102.995 87.8764 101.436C93.0894 99.7114 99.3208 97.8244 102.66 97.1929C107.193 96.3162 111.798 95.8636 116.415 95.8411H116.432C133.808 96.1022 148.121 103.487 150.973 113.135Z" fill="url(#paint5_linear_13_207)"/>
<defs>
<linearGradient id="paint0_linear_13_207" x1="130.823" y1="74.4394" x2="150.566" y2="74.4394" gradientUnits="userSpaceOnUse">
<stop stop-color="#0C4C82"/>
<stop offset="0.21543" stop-color="#105E8E"/>
<stop offset="0.64345" stop-color="#1C8BAD"/>
<stop offset="1" stop-color="#26B6CA"/>
</linearGradient>
<linearGradient id="paint1_linear_13_207" x1="130.306" y1="113.46" x2="150.049" y2="113.46" gradientUnits="userSpaceOnUse">
<stop stop-color="#0C4C82"/>
<stop offset="0.21543" stop-color="#105E8E"/>
<stop offset="0.64345" stop-color="#1C8BAD"/>
<stop offset="1" stop-color="#26B6CA"/>
</linearGradient>
<linearGradient id="paint2_linear_13_207" x1="15.2032" y1="36.5998" x2="92.4156" y2="36.5998" gradientUnits="userSpaceOnUse">
<stop stop-color="#26B6CA"/>
<stop offset="0.35655" stop-color="#1C8BAD"/>
<stop offset="0.78457" stop-color="#105E8E"/>
<stop offset="1" stop-color="#0C4C82"/>
</linearGradient>
<linearGradient id="paint3_linear_13_207" x1="39.5703" y1="52.4951" x2="151.091" y2="52.4951" gradientUnits="userSpaceOnUse">
<stop offset="0.49069" stop-color="#26B6CA"/>
<stop offset="0.56019" stop-color="#30B9C7"/>
<stop offset="0.68036" stop-color="#4DBFBE"/>
<stop offset="0.83676" stop-color="#7ACBAF"/>
<stop offset="1" stop-color="#B1D89E"/>
</linearGradient>
<linearGradient id="paint4_linear_13_207" x1="116.131" y1="70.2168" x2="135.545" y2="70.2168" gradientUnits="userSpaceOnUse">
<stop stop-color="#0C4C82"/>
<stop offset="0.00921" stop-color="#0D4F84"/>
<stop offset="0.18681" stop-color="#187BA2"/>
<stop offset="0.34558" stop-color="#1F9BB8"/>
<stop offset="0.47837" stop-color="#24AFC5"/>
<stop offset="0.5689" stop-color="#26B6CA"/>
<stop offset="0.62773" stop-color="#30B9C7"/>
<stop offset="0.72945" stop-color="#4DBFBE"/>
<stop offset="0.86182" stop-color="#7ACBAF"/>
<stop offset="1" stop-color="#B1D89E"/>
</linearGradient>
<linearGradient id="paint5_linear_13_207" x1="16.0169" y1="135.661" x2="144.465" y2="135.661" gradientUnits="userSpaceOnUse">
<stop stop-color="#0C4C82"/>
<stop offset="0.00851" stop-color="#0D4F84"/>
<stop offset="0.17261" stop-color="#187BA2"/>
<stop offset="0.31931" stop-color="#1F9BB8"/>
<stop offset="0.442" stop-color="#24AFC5"/>
<stop offset="0.52565" stop-color="#26B6CA"/>
<stop offset="0.59038" stop-color="#30B9C7"/>
<stop offset="0.7023" stop-color="#4DBFBE"/>
<stop offset="0.84796" stop-color="#7ACBAF"/>
<stop offset="1" stop-color="#B1D89E"/>
</linearGradient>
</defs>
</svg>
