<svg width="910" height="843" viewBox="0 0 910 843" fill="none" xmlns="http://www.w3.org/2000/svg">
<path d="M449.5 1.66272C444.9 3.26272 393.5 24.1627 386.5 27.2627C384.9 27.9627 376.1 31.5627 367 35.2627C357.9 38.9627 349.1 42.5627 347.5 43.2627C345.8 44.0627 338.2 47.1627 330.5 50.2627C322.8 53.3627 315.2 56.4627 313.5 57.2627C311.9 57.9627 303.1 61.5627 294 65.2627C284.9 68.9627 276.2 72.5627 274.5 73.2627C272.9 73.9627 269 75.5627 266 76.7627C263 77.8627 259.2 79.4627 257.5 80.2627C255.9 80.9627 252 82.5627 249 83.7627C246 84.8627 242.2 86.4627 240.5 87.2627C238.9 87.9627 230.1 91.5627 221 95.2627C211.9 98.8627 203.2 102.463 201.5 103.263C199.9 103.963 196 105.563 193 106.763C190 107.863 186.2 109.463 184.5 110.163C182.9 110.963 177.9 112.963 173.5 114.763C169.1 116.563 164.1 118.563 162.5 119.263C160.8 120.063 153.2 123.163 145.5 126.263C137.8 129.363 130.2 132.463 128.5 133.263C126.9 133.963 123 135.563 120 136.763C117 137.863 113.2 139.463 111.5 140.163C109.9 140.963 104.9 142.963 100.5 144.763C96.1 146.563 91.2 148.563 89.5 149.263C87.9 149.963 80.2 153.163 72.5 156.263C64.8 159.363 57.2 162.463 55.5 163.263C53.9 163.963 50 165.563 47 166.763C44 167.863 40.2 169.463 38.5 170.263C36.9 170.963 31.9 172.963 27.5 174.763C23.1 176.463 17.6 178.763 15.3 179.763C12.9 180.863 10.6 181.763 10.1 181.763C7.9 181.763 3.1 187.163 1.7 191.063C0.299999 195.263 0.5 196.463 3.3 202.563C4.5 205.163 8.5 207.663 15.5 210.263C18.3 211.263 21 212.363 21.5 212.763C22.1 213.163 25.2 214.463 28.5 215.763C31.8 217.063 36.3 218.863 38.5 219.763C40.7 220.763 46.1 222.963 50.5 224.763C54.9 226.563 59.9 228.563 61.5 229.263C63.2 229.963 67 231.563 70 232.763C73 233.963 76.9 235.563 78.5 236.263C80.2 237.063 84 238.563 87 239.763C90 240.863 93.9 242.463 95.5 243.263C97.2 243.963 101 245.563 104 246.763C107 247.863 110.9 249.463 112.5 250.263C114.2 250.963 119.1 252.963 123.5 254.763C127.9 256.463 132.9 258.463 134.5 259.263C136.2 259.963 140 261.563 143 262.763C146 263.863 149.9 265.463 151.5 266.263C153.2 266.963 157 268.563 160 269.663C165.7 271.863 166.3 272.163 174.2 275.663C176.8 276.863 179.3 277.763 179.6 277.763C179.9 277.763 181.7 278.463 183.6 279.263C191.9 282.963 193.8 283.763 199 285.763C202 286.863 205.9 288.463 207.5 289.263C209.2 289.963 213 291.563 216 292.763C219 293.863 222.9 295.463 224.5 296.263C226.2 296.963 230 298.563 233 299.663C236 300.863 239.4 302.163 240.5 302.663C245.7 304.963 250 306.763 255 308.763C258 309.963 261.9 311.563 263.5 312.263C265.2 313.063 269 314.563 272 315.763C275 316.863 278.9 318.463 280.5 319.263C282.2 319.963 286 321.563 289 322.663C292 323.863 295.4 325.163 296.5 325.663C297.6 326.163 300.5 327.463 303 328.563C305.5 329.663 308.6 330.863 310 331.263C311.4 331.663 314.8 333.063 317.5 334.363C320.3 335.563 325 337.563 328 338.763C331 339.863 334.9 341.463 336.5 342.263C338.2 342.963 342 344.563 345 345.663C350.7 347.863 351.3 348.163 359.2 351.663C361.8 352.863 364.3 353.763 364.6 353.763C365.2 353.763 366.1 354.163 376 358.563C378.5 359.563 381.6 360.863 383 361.263C384.4 361.663 387.8 363.063 390.5 364.363C393.3 365.563 398 367.563 401 368.763C404 369.863 407.9 371.463 409.5 372.263C411.2 372.963 415 374.563 418 375.663C423.7 377.863 424.3 378.163 432.2 381.663C434.8 382.863 437.3 383.763 437.6 383.763C438.2 383.763 443.3 385.863 447.8 388.063C450.8 389.563 460.2 389.563 463.2 388.063C467.7 385.863 472.8 383.763 473.4 383.763C473.7 383.763 476.2 382.763 478.8 381.663C488 377.563 489.8 376.763 490.4 376.763C490.7 376.763 492.9 375.963 495.3 374.863C506.6 369.863 508.7 368.963 511 368.263C512.4 367.863 516.2 366.263 519.5 364.763C522.8 363.263 526.6 361.663 528 361.263C529.4 360.863 532.5 359.563 535 358.563C544.9 354.163 545.8 353.763 546.4 353.763C546.7 353.763 549 352.863 551.5 351.763C554 350.663 558 348.863 560.5 347.763C563 346.663 565.3 345.763 565.6 345.763C566.2 345.763 568 344.963 577.2 340.863C579.8 339.763 582.3 338.763 582.6 338.763C582.9 338.763 584.7 338.063 586.6 337.263C588.5 336.463 591.6 335.063 593.5 334.263C595.4 333.363 598.8 332.063 601 331.263C603.2 330.463 606.5 329.163 608.3 328.363C610 327.563 614.5 325.563 618.2 323.963C625 320.863 626.9 318.763 628.4 312.563C629.3 308.863 626.4 302.263 622.9 299.663C617.9 296.163 614.4 296.263 603.5 300.263C598 302.363 593.1 304.363 592.5 304.663C592 305.063 589.3 306.263 586.5 307.263C583.8 308.263 579.7 309.863 577.5 310.863C573.8 312.463 468.4 355.663 459.4 359.263L455.4 360.863L401.4 338.663C371.8 326.563 346.2 315.963 344.5 315.163C342.9 314.463 339 312.863 336 311.763C333 310.563 329.2 308.963 327.5 308.263C325.9 307.463 322 305.863 319 304.763C316 303.563 312.2 301.963 310.5 301.263C308.9 300.463 305 298.863 302 297.763C299 296.563 294.9 294.963 293 294.063C291.1 293.263 288.6 292.163 287.5 291.663C286.4 291.163 283.1 289.863 280.1 288.763C277.1 287.563 272.7 285.763 270.4 284.663C268 283.663 265.9 282.763 265.5 282.763C265.2 282.763 262.8 281.863 260.2 280.663C252.3 277.163 251.7 276.863 246 274.763C243 273.563 238.3 271.563 235.5 270.363C232.8 269.063 229.4 267.663 228 267.263C226.6 266.863 223.5 265.663 221 264.563C218.5 263.463 215.6 262.163 214.5 261.663C213.4 261.163 210.1 259.863 207.1 258.763C204.1 257.563 199.7 255.763 197.4 254.663C195 253.663 192.9 252.763 192.5 252.763C192.2 252.763 189.8 251.763 187.2 250.663C178.5 246.763 176.5 245.963 170.5 243.663C167.2 242.463 164.1 241.163 163.5 240.763C163 240.363 159.1 238.763 155 237.263C150.9 235.763 147.1 234.163 146.5 233.763C146 233.363 142.1 231.763 138 230.263C133.9 228.663 127.7 226.163 124.2 224.563C120.8 223.063 117.7 221.763 117.4 221.763C116.8 221.763 115.7 221.263 107 217.463C105.1 216.563 100.8 214.963 97.5 213.663C94.2 212.463 91.1 211.163 90.5 210.763C90 210.363 86.8 209.063 83.5 207.763C80.2 206.463 75.3 204.463 72.5 203.263C69.8 202.063 64.7 199.963 61.2 198.763C57.1 197.263 55 195.963 55.2 195.063C55.4 194.163 98.6 175.963 162.5 149.663C221.4 125.563 270.4 105.363 271.5 104.763C272.6 104.263 276 102.863 279 101.663C282 100.563 285.9 98.9627 287.5 98.2627C289.2 97.4627 293 95.8627 296 94.7627C299 93.5627 302.9 92.0627 304.5 91.2627C306.2 90.5627 310 88.9627 313 87.7627C318.7 85.4627 322.5 83.8627 328.4 81.2627C330.3 80.4627 332.1 79.7627 332.4 79.7627C332.7 79.7627 335.2 78.8627 337.8 77.6627C345.7 74.1627 346.3 73.8627 352 71.6627C355 70.5627 358.9 68.9627 360.5 68.2627C362.2 67.4627 366 65.8627 369 64.7627C372 63.5627 376.7 61.5627 379.5 60.3627C382.2 59.0627 385.6 57.6627 387 57.2627C388.4 56.8627 391.5 55.5627 394 54.5627C403.9 50.1627 404.8 49.7627 405.4 49.7627C405.7 49.7627 408.2 48.7627 410.8 47.6627C416.7 44.9627 420 43.6627 427.5 40.7627C430.8 39.4627 434 38.1627 434.5 37.7627C435.1 37.3627 438.9 35.7627 443 34.2627C447.1 32.7627 450.9 31.0627 451.4 30.6627C452 30.1627 453.8 29.7627 455.5 29.7627C457.2 29.7627 459 30.1627 459.6 30.6627C460.1 31.0627 463.9 32.7627 468 34.2627C472.1 35.7627 476 37.3627 476.5 37.7627C477.1 38.1627 480.2 39.4627 483.5 40.6627C489.4 42.8627 490.8 43.4627 500 47.5627C502.5 48.5627 505.6 49.8627 507 50.2627C508.4 50.6627 512.2 52.2627 515.5 53.7627C518.8 55.2627 522.6 56.8627 524 57.2627C525.4 57.6627 528.5 58.9627 531 59.9627C540.9 64.3627 541.8 64.7627 542.4 64.7627C542.7 64.7627 545 65.6627 547.5 66.7627C550 67.8627 554 69.6627 556.5 70.7627C559 71.8627 561.3 72.7627 561.6 72.7627C562.2 72.7627 563.1 73.1627 573 77.5627C575.5 78.5627 578.6 79.8627 580 80.2627C581.4 80.6627 585.2 82.2627 588.5 83.7627C591.8 85.2627 595.6 86.8627 597 87.2627C598.4 87.6627 601.5 88.9627 604 89.9627C613.9 94.3627 614.8 94.7627 615.4 94.7627C615.7 94.7627 618.2 95.7627 620.8 96.8627C630.2 101.163 632 101.863 636 103.263C638.2 104.063 641.6 105.363 643.5 106.263C645.4 107.063 648.5 108.463 650.4 109.263C652.3 110.063 654.1 110.763 654.4 110.763C654.7 110.763 657.2 111.663 659.8 112.863C667.7 116.363 668.3 116.663 674 118.863C677 119.963 680.9 121.563 682.5 122.263C684.2 123.063 688 124.663 691 125.763C694 126.963 698.7 128.963 701.5 130.163C704.2 131.463 707.6 132.863 709 133.263C710.4 133.663 713.5 134.963 716 135.963C725.9 140.363 726.8 140.763 727.4 140.763C727.7 140.763 730.2 141.663 732.8 142.863C740.7 146.363 741.3 146.663 747 148.763C750 149.963 754.7 151.963 757.5 153.163C760.2 154.463 763.6 155.863 765 156.263C766.4 156.663 769.5 157.963 772 158.963C781.9 163.363 782.8 163.763 783.4 163.763C783.7 163.763 786.2 164.663 788.8 165.863C796.7 169.363 797.3 169.663 803 171.863C806 172.963 809.9 174.563 811.5 175.263C813.2 176.063 817 177.663 820 178.763C823 179.963 827.1 181.563 829 182.463C833.6 184.463 837.7 186.163 842 187.763C843.9 188.463 846 189.363 846.5 189.763C847.1 190.063 849.4 190.963 851.8 191.763C855.2 192.863 856 193.563 856 195.463C856 197.263 855.5 197.763 853.6 197.763C852.2 197.763 850.9 198.163 850.6 198.663C850.3 199.163 848.8 199.863 847.4 200.163C846 200.563 842.7 201.763 840.1 202.863C832.3 206.363 831.7 206.663 826 208.863C820.8 210.763 819 211.563 810.6 215.263C808.7 216.063 806.9 216.763 806.6 216.763C806.3 216.763 803.8 217.763 801.2 218.863C792 222.963 790.2 223.763 789.6 223.763C789.3 223.763 786.8 224.663 784.2 225.863C776.3 229.363 775.7 229.663 770 231.863C767 232.963 763.2 234.463 761.5 235.263C759.9 235.963 756 237.563 753 238.763C748 240.763 743.7 242.563 738.5 244.863C737.4 245.363 734 246.663 731 247.863C728 248.963 724.2 250.563 722.5 251.263C720.9 252.063 717 253.663 714 254.763C711 255.963 707.2 257.563 705.5 258.263C703.9 259.063 700.1 260.663 697.1 261.763C694.1 262.963 689.6 264.763 687.1 265.963C682.6 267.963 682.5 267.963 677 266.163C674 265.163 670.8 264.063 670 263.663C669.2 263.263 665.1 261.663 661 260.263C656.9 258.763 652.6 257.263 651.5 256.763C650.4 256.363 645 254.263 639.5 252.263C634 250.263 628.6 248.263 627.5 247.763C626.4 247.363 622.1 245.763 618 244.263C613.9 242.863 609.6 241.263 608.5 240.763C607.4 240.263 603.1 238.763 599 237.263C594.9 235.763 590.6 234.263 589.5 233.763C588.4 233.363 583 231.263 577.5 229.263C572 227.263 566.6 225.263 565.5 224.763C564.4 224.363 560.1 222.763 556 221.263C551.9 219.863 547.6 218.263 546.5 217.763C544.4 216.863 529.5 211.363 520 207.963L514.5 205.963L514.4 196.663C514.3 183.563 511.9 177.663 503.1 168.863C491.1 156.763 477.1 151.763 455.5 151.763C434.3 151.763 420 156.763 408.2 168.463C385.3 190.963 396.4 223.963 430.5 234.763C434.4 235.963 438.9 237.363 440.6 237.863C444.8 239.063 465.4 238.963 470.4 237.663C480.5 235.063 482.9 234.263 488.4 231.463C495.2 228.163 494.9 228.063 511.5 234.363C518.1 236.863 527.6 240.363 532.5 242.163C537.5 244.063 545.8 247.163 551 249.063C556.2 251.063 565 254.263 570.5 256.263C576 258.263 581.4 260.263 582.5 260.663C583.6 261.163 587.9 262.763 592 264.263C596.1 265.663 600.4 267.263 601.5 267.763C604.1 268.863 619.8 274.663 632.5 279.263C638 281.263 643.4 283.263 644.5 283.663C645.6 284.163 649.9 285.763 654 287.163C658.1 288.663 662.3 290.263 663.2 290.863C664.2 291.363 665.6 291.763 666.5 291.763C667.3 291.763 668.4 292.663 669 293.663C669.7 294.963 670 354.863 670 480.063C670 654.463 669.9 664.563 668.3 665.863C667.3 666.663 664.7 668.263 662.5 669.263C657.7 671.663 646 683.063 644.1 687.263C643.4 688.863 642.4 690.963 641.9 691.963C641.5 692.863 640.6 696.563 639.9 700.263C638.4 708.763 640 719.763 643.7 727.463C649.6 739.563 663.1 749.063 676.6 750.763C692.2 752.763 703.9 748.963 714.1 738.763C723.3 729.663 727 720.763 727 707.763C727 690.763 719 677.463 703.7 669.363L697.5 666.063L697.3 622.663L697 579.263L705.3 572.563C713 566.163 720.4 558.563 731.2 545.763C737.3 538.463 745.5 525.363 752.1 512.063L757.5 501.263V385.863L753.5 381.763C750 378.163 749.1 377.763 744.7 377.763C738.6 377.763 734.4 380.163 731.9 384.963C730.1 388.463 730 391.563 730 441.863V495.063L725.1 504.163C717.5 518.663 701.6 539.763 698.5 539.763C697.2 539.763 697 528.563 697.2 445.563L697.5 351.363L707 347.563C712.2 345.463 717.6 343.263 718.9 342.763C720.2 342.163 724.7 340.363 728.9 338.663C733.1 336.963 737.9 334.963 739.5 334.263C741.2 333.563 745 331.963 748 330.763C751 329.563 754.9 327.963 756.5 327.263C758.2 326.463 762 324.963 765 323.863C770.7 321.663 771.3 321.363 779.2 317.863C781.8 316.663 784.3 315.763 784.6 315.763C784.9 315.763 786.8 315.063 788.8 314.163C790.9 313.263 793.4 312.163 794.5 311.763C795.6 311.363 798.1 310.263 800.2 309.363C802.2 308.463 804.1 307.763 804.4 307.763C804.7 307.763 807 306.863 809.5 305.763C812 304.663 816 302.863 818.5 301.763C821 300.663 823.3 299.763 823.6 299.763C823.9 299.763 825.8 299.063 827.8 298.163C829.9 297.263 832.4 296.163 833.5 295.763C834.6 295.363 837.1 294.263 839.2 293.363C841.2 292.463 843.1 291.763 843.4 291.763C843.7 291.763 846.2 290.763 848.8 289.663C858 285.563 859.8 284.763 860.4 284.763C860.7 284.763 863.2 283.763 865.8 282.663C875.2 278.363 877 277.663 881 276.263C883.2 275.463 886.6 274.163 888.5 273.263C890.4 272.463 893.7 271.063 895.8 270.163C907.8 265.163 910 261.663 910 247.663C910 233.863 905.5 227.363 895.9 227.363C887.2 227.363 883.2 231.163 882.3 240.463L881.7 245.963L876.1 248.463C873 249.763 869.6 251.263 868.5 251.663C867.4 252.163 860.7 254.963 853.5 257.763C846.4 260.663 839.2 263.563 837.5 264.263C835.9 265.063 832 266.563 829 267.663C823.5 269.863 822.8 270.063 815.8 273.163C813.7 274.063 810.2 275.463 808 276.263C805.8 277.063 802.4 278.363 800.5 279.263C798.6 280.063 795.5 281.463 793.6 282.263C791.7 283.063 789.9 283.763 789.6 283.763C789.3 283.763 786.8 284.763 784.2 285.863C774.8 290.163 773 290.863 769 292.263C765.2 293.663 763.5 294.263 754.8 298.163C752.8 299.063 750.9 299.763 750.6 299.763C750.3 299.763 747.8 300.663 745.2 301.863C737.3 305.363 736.7 305.663 731 307.863C728 308.963 724.2 310.563 722.5 311.263C715.4 314.363 699 320.763 698.1 320.763C697.4 320.763 697 315.863 697 306.463C697 292.563 697.1 292.063 699.3 291.063C704.3 288.663 711 285.763 711.6 285.763C711.9 285.763 713.7 285.063 715.6 284.263C723.9 280.563 725.8 279.763 731 277.763C734 276.663 737.9 275.063 739.5 274.263C741.2 273.563 745 271.963 748 270.763C751 269.663 754.9 268.063 756.5 267.363C758.2 266.563 772.3 260.663 788 254.263C803.7 247.863 817.9 241.963 819.5 241.263C821.2 240.563 825 238.963 828 237.763C831 236.563 834.9 234.963 836.5 234.263C838.2 233.563 842 231.963 845 230.763C850.7 228.463 854.5 226.863 860.4 224.263C862.3 223.463 864.1 222.763 864.4 222.763C864.7 222.763 867.2 221.863 869.8 220.663C877.7 217.163 878.3 216.863 883.9 214.763C890.8 212.063 897.6 209.163 902 206.963C906.5 204.763 910.3 197.663 909.4 193.263C907.9 186.063 904.5 183.363 890 177.763C884.6 175.663 882.2 174.663 874.8 171.363C872.8 170.463 870.9 169.763 870.6 169.763C870.3 169.763 867.8 168.763 865.2 167.663C856 163.563 854.2 162.763 853.6 162.763C853.3 162.763 850.8 161.763 848.2 160.663C836.8 155.563 835 154.763 834.4 154.763C834.1 154.763 832.3 154.063 830.4 153.263C828.5 152.463 825.4 151.063 823.5 150.263C821.6 149.363 818.2 148.063 816 147.263C813.8 146.463 810.4 145.163 808.5 144.263C806.6 143.463 803.5 142.063 801.6 141.263C799.7 140.463 797.9 139.763 797.6 139.763C797.3 139.763 794.8 138.763 792.2 137.663C780.8 132.563 779 131.763 778.4 131.763C777.8 131.763 776 130.963 766.8 126.863C764.2 125.763 761.7 124.763 761.4 124.763C760.8 124.763 759.2 124.063 750.8 120.363C748.7 119.463 745.2 118.063 743 117.263C739 115.863 737.2 115.163 727.8 110.863C725.2 109.763 722.7 108.763 722.4 108.763C721.8 108.763 720 107.963 710.8 103.863C708.2 102.763 705.7 101.763 705.4 101.763C704.8 101.763 703 100.963 693.8 96.8627C691.2 95.7627 688.7 94.7627 688.4 94.7627C688.1 94.7627 686.3 94.0627 684.4 93.2627C676 89.5627 674.2 88.7627 669 86.8627C663.3 84.6627 662.7 84.3627 654.8 80.8627C652.2 79.6627 649.8 78.7627 649.5 78.7627C649.1 78.7627 647 77.9627 644.7 76.8627C642.4 75.8627 636.9 73.5627 632.5 71.7627C628.1 69.9627 623.2 67.9627 621.5 67.2627C619.9 66.5627 616 64.9627 613 63.7627C610 62.5627 606.2 60.9627 604.5 60.2627C590.3 54.1627 465.3 2.96272 461.1 1.56272C454.8 -0.537282 455.8 -0.537282 449.5 1.66272ZM469.9 180.763C470.8 181.163 473.7 182.563 476.3 183.863C482 186.563 487 191.863 487 195.263C487 200.363 473.5 209.763 466.2 209.763C464.7 209.763 461.9 210.263 460 210.763C456.4 211.863 448 210.863 439.6 208.463C431.6 206.163 424 199.263 424 194.363C424 190.563 431 185.063 441.5 180.663C445.9 178.863 466.2 178.863 469.9 180.763ZM688.1 692.763C696.1 694.963 701.2 704.063 698.8 711.963C695.2 724.263 681 727.763 672 718.763C665.5 712.263 665.5 703.263 672.1 696.663C676.8 691.963 681.2 690.863 688.1 692.763Z" fill="url(#paint0_linear)"/>
<path d="M449.5 1.66272C444.9 3.26272 393.5 24.1627 386.5 27.2627C384.9 27.9627 376.1 31.5627 367 35.2627C357.9 38.9627 349.1 42.5627 347.5 43.2627C345.8 44.0627 338.2 47.1627 330.5 50.2627C322.8 53.3627 315.2 56.4627 313.5 57.2627C311.9 57.9627 303.1 61.5627 294 65.2627C284.9 68.9627 276.2 72.5627 274.5 73.2627C272.9 73.9627 269 75.5627 266 76.7627C263 77.8627 259.2 79.4627 257.5 80.2627C255.9 80.9627 252 82.5627 249 83.7627C246 84.8627 242.2 86.4627 240.5 87.2627C238.9 87.9627 230.1 91.5627 221 95.2627C211.9 98.8627 203.2 102.463 201.5 103.263C199.9 103.963 196 105.563 193 106.763C190 107.863 186.2 109.463 184.5 110.163C182.9 110.963 177.9 112.963 173.5 114.763C169.1 116.563 164.1 118.563 162.5 119.263C160.8 120.063 153.2 123.163 145.5 126.263C137.8 129.363 130.2 132.463 128.5 133.263C126.9 133.963 123 135.563 120 136.763C117 137.863 113.2 139.463 111.5 140.163C109.9 140.963 104.9 142.963 100.5 144.763C96.1 146.563 91.2 148.563 89.5 149.263C87.9 149.963 80.2 153.163 72.5 156.263C64.8 159.363 57.2 162.463 55.5 163.263C53.9 163.963 50 165.563 47 166.763C44 167.863 40.2 169.463 38.5 170.263C36.9 170.963 31.9 172.963 27.5 174.763C23.1 176.463 17.6 178.763 15.3 179.763C12.9 180.863 10.6 181.763 10.1 181.763C7.9 181.763 3.1 187.163 1.7 191.063C0.299999 195.263 0.5 196.463 3.3 202.563C4.5 205.163 8.5 207.663 15.5 210.263C18.3 211.263 21 212.363 21.5 212.763C22.1 213.163 25.2 214.463 28.5 215.763C31.8 217.063 36.3 218.863 38.5 219.763C40.7 220.763 46.1 222.963 50.5 224.763C54.9 226.563 59.9 228.563 61.5 229.263C63.2 229.963 67 231.563 70 232.763C73 233.963 76.9 235.563 78.5 236.263C80.2 237.063 84 238.563 87 239.763C90 240.863 93.9 242.463 95.5 243.263C97.2 243.963 101 245.563 104 246.763C107 247.863 110.9 249.463 112.5 250.263C114.2 250.963 119.1 252.963 123.5 254.763C127.9 256.463 132.9 258.463 134.5 259.263C136.2 259.963 140 261.563 143 262.763C146 263.863 149.9 265.463 151.5 266.263C153.2 266.963 157 268.563 160 269.663C165.7 271.863 166.3 272.163 174.2 275.663C176.8 276.863 179.3 277.763 179.6 277.763C179.9 277.763 181.7 278.463 183.6 279.263C191.9 282.963 193.8 283.763 199 285.763C202 286.863 205.9 288.463 207.5 289.263C209.2 289.963 213 291.563 216 292.763C219 293.863 222.9 295.463 224.5 296.263C226.2 296.963 230 298.563 233 299.663C236 300.863 239.4 302.163 240.5 302.663C245.7 304.963 250 306.763 255 308.763C258 309.963 261.9 311.563 263.5 312.263C265.2 313.063 269 314.563 272 315.763C275 316.863 278.9 318.463 280.5 319.263C282.2 319.963 286 321.563 289 322.663C292 323.863 295.4 325.163 296.5 325.663C297.6 326.163 300.5 327.463 303 328.563C305.5 329.663 308.6 330.863 310 331.263C311.4 331.663 314.8 333.063 317.5 334.363C320.3 335.563 325 337.563 328 338.763C331 339.863 334.9 341.463 336.5 342.263C338.2 342.963 342 344.563 345 345.663C350.7 347.863 351.3 348.163 359.2 351.663C361.8 352.863 364.3 353.763 364.6 353.763C365.2 353.763 366.1 354.163 376 358.563C378.5 359.563 381.6 360.863 383 361.263C384.4 361.663 387.8 363.063 390.5 364.363C393.3 365.563 398 367.563 401 368.763C404 369.863 407.9 371.463 409.5 372.263C411.2 372.963 415 374.563 418 375.663C423.7 377.863 424.3 378.163 432.2 381.663C434.8 382.863 437.3 383.763 437.6 383.763C438.2 383.763 443.3 385.863 447.8 388.063C450.8 389.563 460.2 389.563 463.2 388.063C467.7 385.863 472.8 383.763 473.4 383.763C473.7 383.763 476.2 382.763 478.8 381.663C488 377.563 489.8 376.763 490.4 376.763C490.7 376.763 492.9 375.963 495.3 374.863C506.6 369.863 508.7 368.963 511 368.263C512.4 367.863 516.2 366.263 519.5 364.763C522.8 363.263 526.6 361.663 528 361.263C529.4 360.863 532.5 359.563 535 358.563C544.9 354.163 545.8 353.763 546.4 353.763C546.7 353.763 549 352.863 551.5 351.763C554 350.663 558 348.863 560.5 347.763C563 346.663 565.3 345.763 565.6 345.763C566.2 345.763 568 344.963 577.2 340.863C579.8 339.763 582.3 338.763 582.6 338.763C582.9 338.763 584.7 338.063 586.6 337.263C588.5 336.463 591.6 335.063 593.5 334.263C595.4 333.363 598.8 332.063 601 331.263C603.2 330.463 606.5 329.163 608.3 328.363C610 327.563 614.5 325.563 618.2 323.963C625 320.863 626.9 318.763 628.4 312.563C629.3 308.863 626.4 302.263 622.9 299.663C617.9 296.163 614.4 296.263 603.5 300.263C598 302.363 593.1 304.363 592.5 304.663C592 305.063 589.3 306.263 586.5 307.263C583.8 308.263 579.7 309.863 577.5 310.863C573.8 312.463 468.4 355.663 459.4 359.263L455.4 360.863L401.4 338.663C371.8 326.563 346.2 315.963 344.5 315.163C342.9 314.463 339 312.863 336 311.763C333 310.563 329.2 308.963 327.5 308.263C325.9 307.463 322 305.863 319 304.763C316 303.563 312.2 301.963 310.5 301.263C308.9 300.463 305 298.863 302 297.763C299 296.563 294.9 294.963 293 294.063C291.1 293.263 288.6 292.163 287.5 291.663C286.4 291.163 283.1 289.863 280.1 288.763C277.1 287.563 272.7 285.763 270.4 284.663C268 283.663 265.9 282.763 265.5 282.763C265.2 282.763 262.8 281.863 260.2 280.663C252.3 277.163 251.7 276.863 246 274.763C243 273.563 238.3 271.563 235.5 270.363C232.8 269.063 229.4 267.663 228 267.263C226.6 266.863 223.5 265.663 221 264.563C218.5 263.463 215.6 262.163 214.5 261.663C213.4 261.163 210.1 259.863 207.1 258.763C204.1 257.563 199.7 255.763 197.4 254.663C195 253.663 192.9 252.763 192.5 252.763C192.2 252.763 189.8 251.763 187.2 250.663C178.5 246.763 176.5 245.963 170.5 243.663C167.2 242.463 164.1 241.163 163.5 240.763C163 240.363 159.1 238.763 155 237.263C150.9 235.763 147.1 234.163 146.5 233.763C146 233.363 142.1 231.763 138 230.263C133.9 228.663 127.7 226.163 124.2 224.563C120.8 223.063 117.7 221.763 117.4 221.763C116.8 221.763 115.7 221.263 107 217.463C105.1 216.563 100.8 214.963 97.5 213.663C94.2 212.463 91.1 211.163 90.5 210.763C90 210.363 86.8 209.063 83.5 207.763C80.2 206.463 75.3 204.463 72.5 203.263C69.8 202.063 64.7 199.963 61.2 198.763C57.1 197.263 55 195.963 55.2 195.063C55.4 194.163 98.6 175.963 162.5 149.663C221.4 125.563 270.4 105.363 271.5 104.763C272.6 104.263 276 102.863 279 101.663C282 100.563 285.9 98.9627 287.5 98.2627C289.2 97.4627 293 95.8627 296 94.7627C299 93.5627 302.9 92.0627 304.5 91.2627C306.2 90.5627 310 88.9627 313 87.7627C318.7 85.4627 322.5 83.8627 328.4 81.2627C330.3 80.4627 332.1 79.7627 332.4 79.7627C332.7 79.7627 335.2 78.8627 337.8 77.6627C345.7 74.1627 346.3 73.8627 352 71.6627C355 70.5627 358.9 68.9627 360.5 68.2627C362.2 67.4627 366 65.8627 369 64.7627C372 63.5627 376.7 61.5627 379.5 60.3627C382.2 59.0627 385.6 57.6627 387 57.2627C388.4 56.8627 391.5 55.5627 394 54.5627C403.9 50.1627 404.8 49.7627 405.4 49.7627C405.7 49.7627 408.2 48.7627 410.8 47.6627C416.7 44.9627 420 43.6627 427.5 40.7627C430.8 39.4627 434 38.1627 434.5 37.7627C435.1 37.3627 438.9 35.7627 443 34.2627C447.1 32.7627 450.9 31.0627 451.4 30.6627C452 30.1627 453.8 29.7627 455.5 29.7627C457.2 29.7627 459 30.1627 459.6 30.6627C460.1 31.0627 463.9 32.7627 468 34.2627C472.1 35.7627 476 37.3627 476.5 37.7627C477.1 38.1627 480.2 39.4627 483.5 40.6627C489.4 42.8627 490.8 43.4627 500 47.5627C502.5 48.5627 505.6 49.8627 507 50.2627C508.4 50.6627 512.2 52.2627 515.5 53.7627C518.8 55.2627 522.6 56.8627 524 57.2627C525.4 57.6627 528.5 58.9627 531 59.9627C540.9 64.3627 541.8 64.7627 542.4 64.7627C542.7 64.7627 545 65.6627 547.5 66.7627C550 67.8627 554 69.6627 556.5 70.7627C559 71.8627 561.3 72.7627 561.6 72.7627C562.2 72.7627 563.1 73.1627 573 77.5627C575.5 78.5627 578.6 79.8627 580 80.2627C581.4 80.6627 585.2 82.2627 588.5 83.7627C591.8 85.2627 595.6 86.8627 597 87.2627C598.4 87.6627 601.5 88.9627 604 89.9627C613.9 94.3627 614.8 94.7627 615.4 94.7627C615.7 94.7627 618.2 95.7627 620.8 96.8627C630.2 101.163 632 101.863 636 103.263C638.2 104.063 641.6 105.363 643.5 106.263C645.4 107.063 648.5 108.463 650.4 109.263C652.3 110.063 654.1 110.763 654.4 110.763C654.7 110.763 657.2 111.663 659.8 112.863C667.7 116.363 668.3 116.663 674 118.863C677 119.963 680.9 121.563 682.5 122.263C684.2 123.063 688 124.663 691 125.763C694 126.963 698.7 128.963 701.5 130.163C704.2 131.463 707.6 132.863 709 133.263C710.4 133.663 713.5 134.963 716 135.963C725.9 140.363 726.8 140.763 727.4 140.763C727.7 140.763 730.2 141.663 732.8 142.863C740.7 146.363 741.3 146.663 747 148.763C750 149.963 754.7 151.963 757.5 153.163C760.2 154.463 763.6 155.863 765 156.263C766.4 156.663 769.5 157.963 772 158.963C781.9 163.363 782.8 163.763 783.4 163.763C783.7 163.763 786.2 164.663 788.8 165.863C796.7 169.363 797.3 169.663 803 171.863C806 172.963 809.9 174.563 811.5 175.263C813.2 176.063 817 177.663 820 178.763C823 179.963 827.1 181.563 829 182.463C833.6 184.463 837.7 186.163 842 187.763C843.9 188.463 846 189.363 846.5 189.763C847.1 190.063 849.4 190.963 851.8 191.763C855.2 192.863 856 193.563 856 195.463C856 197.263 855.5 197.763 853.6 197.763C852.2 197.763 850.9 198.163 850.6 198.663C850.3 199.163 848.8 199.863 847.4 200.163C846 200.563 842.7 201.763 840.1 202.863C832.3 206.363 831.7 206.663 826 208.863C820.8 210.763 819 211.563 810.6 215.263C808.7 216.063 806.9 216.763 806.6 216.763C806.3 216.763 803.8 217.763 801.2 218.863C792 222.963 790.2 223.763 789.6 223.763C789.3 223.763 786.8 224.663 784.2 225.863C776.3 229.363 775.7 229.663 770 231.863C767 232.963 763.2 234.463 761.5 235.263C759.9 235.963 756 237.563 753 238.763C748 240.763 743.7 242.563 738.5 244.863C737.4 245.363 734 246.663 731 247.863C728 248.963 724.2 250.563 722.5 251.263C720.9 252.063 717 253.663 714 254.763C711 255.963 707.2 257.563 705.5 258.263C703.9 259.063 700.1 260.663 697.1 261.763C694.1 262.963 689.6 264.763 687.1 265.963C682.6 267.963 682.5 267.963 677 266.163C674 265.163 670.8 264.063 670 263.663C669.2 263.263 665.1 261.663 661 260.263C656.9 258.763 652.6 257.263 651.5 256.763C650.4 256.363 645 254.263 639.5 252.263C634 250.263 628.6 248.263 627.5 247.763C626.4 247.363 622.1 245.763 618 244.263C613.9 242.863 609.6 241.263 608.5 240.763C607.4 240.263 603.1 238.763 599 237.263C594.9 235.763 590.6 234.263 589.5 233.763C588.4 233.363 583 231.263 577.5 229.263C572 227.263 566.6 225.263 565.5 224.763C564.4 224.363 560.1 222.763 556 221.263C551.9 219.863 547.6 218.263 546.5 217.763C544.4 216.863 529.5 211.363 520 207.963L514.5 205.963L514.4 196.663C514.3 183.563 511.9 177.663 503.1 168.863C491.1 156.763 477.1 151.763 455.5 151.763C434.3 151.763 420 156.763 408.2 168.463C385.3 190.963 396.4 223.963 430.5 234.763C434.4 235.963 438.9 237.363 440.6 237.863C444.8 239.063 465.4 238.963 470.4 237.663C480.5 235.063 482.9 234.263 488.4 231.463C495.2 228.163 494.9 228.063 511.5 234.363C518.1 236.863 527.6 240.363 532.5 242.163C537.5 244.063 545.8 247.163 551 249.063C556.2 251.063 565 254.263 570.5 256.263C576 258.263 581.4 260.263 582.5 260.663C583.6 261.163 587.9 262.763 592 264.263C596.1 265.663 600.4 267.263 601.5 267.763C604.1 268.863 619.8 274.663 632.5 279.263C638 281.263 643.4 283.263 644.5 283.663C645.6 284.163 649.9 285.763 654 287.163C658.1 288.663 662.3 290.263 663.2 290.863C664.2 291.363 665.6 291.763 666.5 291.763C667.3 291.763 668.4 292.663 669 293.663C669.7 294.963 670 354.863 670 480.063C670 654.463 669.9 664.563 668.3 665.863C667.3 666.663 664.7 668.263 662.5 669.263C657.7 671.663 646 683.063 644.1 687.263C643.4 688.863 642.4 690.963 641.9 691.963C641.5 692.863 640.6 696.563 639.9 700.263C638.4 708.763 640 719.763 643.7 727.463C649.6 739.563 663.1 749.063 676.6 750.763C692.2 752.763 703.9 748.963 714.1 738.763C723.3 729.663 727 720.763 727 707.763C727 690.763 719 677.463 703.7 669.363L697.5 666.063L697.3 622.663L697 579.263L705.3 572.563C713 566.163 720.4 558.563 731.2 545.763C737.3 538.463 745.5 525.363 752.1 512.063L757.5 501.263V385.863L753.5 381.763C750 378.163 749.1 377.763 744.7 377.763C738.6 377.763 734.4 380.163 731.9 384.963C730.1 388.463 730 391.563 730 441.863V495.063L725.1 504.163C717.5 518.663 701.6 539.763 698.5 539.763C697.2 539.763 697 528.563 697.2 445.563L697.5 351.363L707 347.563C712.2 345.463 717.6 343.263 718.9 342.763C720.2 342.163 724.7 340.363 728.9 338.663C733.1 336.963 737.9 334.963 739.5 334.263C741.2 333.563 745 331.963 748 330.763C751 329.563 754.9 327.963 756.5 327.263C758.2 326.463 762 324.963 765 323.863C770.7 321.663 771.3 321.363 779.2 317.863C781.8 316.663 784.3 315.763 784.6 315.763C784.9 315.763 786.8 315.063 788.8 314.163C790.9 313.263 793.4 312.163 794.5 311.763C795.6 311.363 798.1 310.263 800.2 309.363C802.2 308.463 804.1 307.763 804.4 307.763C804.7 307.763 807 306.863 809.5 305.763C812 304.663 816 302.863 818.5 301.763C821 300.663 823.3 299.763 823.6 299.763C823.9 299.763 825.8 299.063 827.8 298.163C829.9 297.263 832.4 296.163 833.5 295.763C834.6 295.363 837.1 294.263 839.2 293.363C841.2 292.463 843.1 291.763 843.4 291.763C843.7 291.763 846.2 290.763 848.8 289.663C858 285.563 859.8 284.763 860.4 284.763C860.7 284.763 863.2 283.763 865.8 282.663C875.2 278.363 877 277.663 881 276.263C883.2 275.463 886.6 274.163 888.5 273.263C890.4 272.463 893.7 271.063 895.8 270.163C907.8 265.163 910 261.663 910 247.663C910 233.863 905.5 227.363 895.9 227.363C887.2 227.363 883.2 231.163 882.3 240.463L881.7 245.963L876.1 248.463C873 249.763 869.6 251.263 868.5 251.663C867.4 252.163 860.7 254.963 853.5 257.763C846.4 260.663 839.2 263.563 837.5 264.263C835.9 265.063 832 266.563 829 267.663C823.5 269.863 822.8 270.063 815.8 273.163C813.7 274.063 810.2 275.463 808 276.263C805.8 277.063 802.4 278.363 800.5 279.263C798.6 280.063 795.5 281.463 793.6 282.263C791.7 283.063 789.9 283.763 789.6 283.763C789.3 283.763 786.8 284.763 784.2 285.863C774.8 290.163 773 290.863 769 292.263C765.2 293.663 763.5 294.263 754.8 298.163C752.8 299.063 750.9 299.763 750.6 299.763C750.3 299.763 747.8 300.663 745.2 301.863C737.3 305.363 736.7 305.663 731 307.863C728 308.963 724.2 310.563 722.5 311.263C715.4 314.363 699 320.763 698.1 320.763C697.4 320.763 697 315.863 697 306.463C697 292.563 697.1 292.063 699.3 291.063C704.3 288.663 711 285.763 711.6 285.763C711.9 285.763 713.7 285.063 715.6 284.263C723.9 280.563 725.8 279.763 731 277.763C734 276.663 737.9 275.063 739.5 274.263C741.2 273.563 745 271.963 748 270.763C751 269.663 754.9 268.063 756.5 267.363C758.2 266.563 772.3 260.663 788 254.263C803.7 247.863 817.9 241.963 819.5 241.263C821.2 240.563 825 238.963 828 237.763C831 236.563 834.9 234.963 836.5 234.263C838.2 233.563 842 231.963 845 230.763C850.7 228.463 854.5 226.863 860.4 224.263C862.3 223.463 864.1 222.763 864.4 222.763C864.7 222.763 867.2 221.863 869.8 220.663C877.7 217.163 878.3 216.863 883.9 214.763C890.8 212.063 897.6 209.163 902 206.963C906.5 204.763 910.3 197.663 909.4 193.263C907.9 186.063 904.5 183.363 890 177.763C884.6 175.663 882.2 174.663 874.8 171.363C872.8 170.463 870.9 169.763 870.6 169.763C870.3 169.763 867.8 168.763 865.2 167.663C856 163.563 854.2 162.763 853.6 162.763C853.3 162.763 850.8 161.763 848.2 160.663C836.8 155.563 835 154.763 834.4 154.763C834.1 154.763 832.3 154.063 830.4 153.263C828.5 152.463 825.4 151.063 823.5 150.263C821.6 149.363 818.2 148.063 816 147.263C813.8 146.463 810.4 145.163 808.5 144.263C806.6 143.463 803.5 142.063 801.6 141.263C799.7 140.463 797.9 139.763 797.6 139.763C797.3 139.763 794.8 138.763 792.2 137.663C780.8 132.563 779 131.763 778.4 131.763C777.8 131.763 776 130.963 766.8 126.863C764.2 125.763 761.7 124.763 761.4 124.763C760.8 124.763 759.2 124.063 750.8 120.363C748.7 119.463 745.2 118.063 743 117.263C739 115.863 737.2 115.163 727.8 110.863C725.2 109.763 722.7 108.763 722.4 108.763C721.8 108.763 720 107.963 710.8 103.863C708.2 102.763 705.7 101.763 705.4 101.763C704.8 101.763 703 100.963 693.8 96.8627C691.2 95.7627 688.7 94.7627 688.4 94.7627C688.1 94.7627 686.3 94.0627 684.4 93.2627C676 89.5627 674.2 88.7627 669 86.8627C663.3 84.6627 662.7 84.3627 654.8 80.8627C652.2 79.6627 649.8 78.7627 649.5 78.7627C649.1 78.7627 647 77.9627 644.7 76.8627C642.4 75.8627 636.9 73.5627 632.5 71.7627C628.1 69.9627 623.2 67.9627 621.5 67.2627C619.9 66.5627 616 64.9627 613 63.7627C610 62.5627 606.2 60.9627 604.5 60.2627C590.3 54.1627 465.3 2.96272 461.1 1.56272C454.8 -0.537282 455.8 -0.537282 449.5 1.66272ZM469.9 180.763C470.8 181.163 473.7 182.563 476.3 183.863C482 186.563 487 191.863 487 195.263C487 200.363 473.5 209.763 466.2 209.763C464.7 209.763 461.9 210.263 460 210.763C456.4 211.863 448 210.863 439.6 208.463C431.6 206.163 424 199.263 424 194.363C424 190.563 431 185.063 441.5 180.663C445.9 178.863 466.2 178.863 469.9 180.763ZM688.1 692.763C696.1 694.963 701.2 704.063 698.8 711.963C695.2 724.263 681 727.763 672 718.763C665.5 712.263 665.5 703.263 672.1 696.663C676.8 691.963 681.2 690.863 688.1 692.763Z" fill="url(#paint1_linear)"/>
<path d="M11.1 227.063C3.9 229.363 0 236.563 0 247.663C0 259.563 4.1 266.663 12.5 269.663C14.7 270.363 18.3 271.863 20.5 272.763C22.7 273.763 28.1 275.963 32.5 277.763C36.9 279.463 41.9 281.463 43.5 282.263C45.2 282.963 49 284.563 52 285.763C55 286.863 58.9 288.463 60.5 289.263C62.2 289.963 66 291.563 69 292.763C72 293.863 75.9 295.463 77.5 296.263C79.2 296.963 83 298.563 86 299.663C89 300.863 92.4 302.163 93.5 302.663C94.6 303.163 97.1 304.263 99 305.063C100.9 305.963 105 307.563 108 308.763C111 309.863 114.9 311.463 116.5 312.263C118.2 312.963 122 314.563 125 315.763C128 316.863 131.9 318.463 133.5 319.263C135.2 319.963 139 321.563 142 322.663C145 323.863 148.4 325.163 149.5 325.663C150.6 326.163 153.5 327.463 156 328.563C158.5 329.663 161.6 330.863 163 331.263C164.4 331.663 167.8 333.063 170.5 334.363C173.3 335.563 178 337.563 181 338.763C186.7 340.863 187.3 341.163 195.2 344.663C197.8 345.863 200.3 346.763 200.6 346.763C201.2 346.763 202.1 347.163 212 351.563C214.5 352.563 217.6 353.863 219 354.263C220.4 354.663 223.8 356.063 226.5 357.363C229.3 358.563 234 360.563 237 361.763C240 362.863 243.9 364.463 245.5 365.263C247.2 365.963 251 367.563 254 368.663C257 369.863 260.4 371.163 261.5 371.663C262.6 372.163 265.5 373.463 268 374.563C270.5 375.663 273.6 376.863 275 377.263C276.4 377.663 280.2 379.263 283.5 380.763C286.8 382.263 290.6 383.863 292 384.263C293.4 384.663 296.8 386.063 299.5 387.363C302.3 388.563 307 390.563 310 391.763C315.7 393.863 316.3 394.163 324.2 397.663C326.8 398.863 329.3 399.763 329.6 399.763C329.9 399.763 331.8 400.463 333.8 401.363C342.5 405.263 344.2 405.863 348 407.263C351.8 408.663 353.5 409.263 362.2 413.163C364.2 414.063 366.1 414.763 366.4 414.763C366.7 414.763 369 415.663 371.5 416.763C374 417.863 378 419.663 380.5 420.763C383 421.863 385.3 422.763 385.6 422.763C386.2 422.763 387.1 423.163 397 427.563C399.5 428.563 402.6 429.863 404 430.263C405.4 430.663 409.2 432.263 412.5 433.763C415.8 435.263 419.6 436.863 421 437.263C422.4 437.663 425.5 438.963 428 439.963C437.9 444.363 438.8 444.763 439.4 444.763C439.7 444.763 441.9 445.563 444.3 446.563C455 451.263 455.9 451.263 466.7 446.563C469.1 445.563 471.3 444.763 471.6 444.763C472.2 444.763 474 443.963 483.2 439.863C485.8 438.763 488.3 437.763 488.6 437.763C489.2 437.763 490.1 437.363 500 432.963C502.5 431.963 505.6 430.663 507 430.263C508.4 429.863 511.8 428.463 514.5 427.163C517.3 425.963 522 423.963 525 422.763C530.7 420.663 531.3 420.363 539.2 416.863C541.8 415.663 544.3 414.763 544.6 414.763C545.2 414.763 546.1 414.363 556 409.963C558.5 408.963 561.6 407.663 563 407.263C564.4 406.863 567.8 405.463 570.5 404.263C573.3 402.963 578 400.963 581 399.763C584 398.563 587.9 396.963 589.5 396.263C591.2 395.463 595 393.963 598 392.763C601 391.663 605.3 389.863 607.5 388.863C609.7 387.863 613.8 386.263 616.5 385.263C619.3 384.263 621.9 383.063 622.5 382.563C623 382.163 624 381.763 624.7 381.763C626.9 381.763 632.7 377.463 634.4 374.663C636.6 370.963 636.4 363.963 634.1 360.463C631.2 355.963 628.3 354.463 622.6 354.563C618.2 354.563 605.8 359.363 537.1 387.663C492.9 405.863 456.2 420.763 455.5 420.763C454.5 420.763 398.7 398.263 387.5 393.263C385.9 392.563 377.1 388.963 368 385.263C358.9 381.563 350.2 377.963 348.5 377.163C346.9 376.463 343 374.863 340 373.763C337 372.563 332.9 370.963 331 370.063C329.1 369.263 326.1 367.863 324.3 367.163C322.6 366.363 320.9 365.763 320.6 365.763C320.3 365.763 317.8 364.863 315.2 363.663C307.3 360.163 306.7 359.863 301 357.663C298 356.563 294.2 354.963 292.5 354.263C290.9 353.463 287 351.863 284 350.763C281 349.563 276.3 347.563 273.5 346.363C270.8 345.063 267.4 343.663 266 343.263C264.6 342.863 261.5 341.563 259 340.563C249.1 336.163 248.2 335.763 247.6 335.763C247.3 335.763 244.8 334.863 242.2 333.663C234.3 330.163 233.7 329.863 228 327.763C225 326.563 220.3 324.563 217.5 323.363C214.8 322.063 211.4 320.663 210 320.263C208.6 319.863 204.8 318.263 201.5 316.763C198.2 315.263 194.4 313.663 193 313.263C191.6 312.863 188.2 311.463 185.5 310.163C182.7 308.963 178 306.963 175 305.763C169.3 303.663 168.7 303.363 160.8 299.863C158.2 298.663 155.7 297.763 155.4 297.763C154.8 297.763 153.9 297.363 144 292.963C141.5 291.963 138.4 290.663 137 290.263C135.6 289.863 131.8 288.263 128.5 286.763C125.2 285.263 121.4 283.663 120 283.263C118.6 282.863 115.2 281.463 112.5 280.163C109.7 278.963 105 276.963 102 275.763C99 274.663 95.2 273.063 93.5 272.263C91.9 271.563 88 269.963 85 268.863C82 267.663 78.6 266.363 77.5 265.863C76.4 265.363 73.9 264.263 72 263.463C70.1 262.563 66 260.963 63 259.763C60 258.663 56.2 257.063 54.5 256.263C52.9 255.563 49 253.963 46 252.763C43 251.663 38.6 249.763 36.3 248.763C33.9 247.663 31.6 246.763 31 246.763C30.5 246.763 30 245.963 29.9 244.963C29.5 236.763 26.6 230.763 22 228.563C16.8 226.163 14.9 225.863 11.1 227.063Z" fill="url(#paint2_linear)"/>
<path d="M11.1 227.063C3.9 229.363 0 236.563 0 247.663C0 259.563 4.1 266.663 12.5 269.663C14.7 270.363 18.3 271.863 20.5 272.763C22.7 273.763 28.1 275.963 32.5 277.763C36.9 279.463 41.9 281.463 43.5 282.263C45.2 282.963 49 284.563 52 285.763C55 286.863 58.9 288.463 60.5 289.263C62.2 289.963 66 291.563 69 292.763C72 293.863 75.9 295.463 77.5 296.263C79.2 296.963 83 298.563 86 299.663C89 300.863 92.4 302.163 93.5 302.663C94.6 303.163 97.1 304.263 99 305.063C100.9 305.963 105 307.563 108 308.763C111 309.863 114.9 311.463 116.5 312.263C118.2 312.963 122 314.563 125 315.763C128 316.863 131.9 318.463 133.5 319.263C135.2 319.963 139 321.563 142 322.663C145 323.863 148.4 325.163 149.5 325.663C150.6 326.163 153.5 327.463 156 328.563C158.5 329.663 161.6 330.863 163 331.263C164.4 331.663 167.8 333.063 170.5 334.363C173.3 335.563 178 337.563 181 338.763C186.7 340.863 187.3 341.163 195.2 344.663C197.8 345.863 200.3 346.763 200.6 346.763C201.2 346.763 202.1 347.163 212 351.563C214.5 352.563 217.6 353.863 219 354.263C220.4 354.663 223.8 356.063 226.5 357.363C229.3 358.563 234 360.563 237 361.763C240 362.863 243.9 364.463 245.5 365.263C247.2 365.963 251 367.563 254 368.663C257 369.863 260.4 371.163 261.5 371.663C262.6 372.163 265.5 373.463 268 374.563C270.5 375.663 273.6 376.863 275 377.263C276.4 377.663 280.2 379.263 283.5 380.763C286.8 382.263 290.6 383.863 292 384.263C293.4 384.663 296.8 386.063 299.5 387.363C302.3 388.563 307 390.563 310 391.763C315.7 393.863 316.3 394.163 324.2 397.663C326.8 398.863 329.3 399.763 329.6 399.763C329.9 399.763 331.8 400.463 333.8 401.363C342.5 405.263 344.2 405.863 348 407.263C351.8 408.663 353.5 409.263 362.2 413.163C364.2 414.063 366.1 414.763 366.4 414.763C366.7 414.763 369 415.663 371.5 416.763C374 417.863 378 419.663 380.5 420.763C383 421.863 385.3 422.763 385.6 422.763C386.2 422.763 387.1 423.163 397 427.563C399.5 428.563 402.6 429.863 404 430.263C405.4 430.663 409.2 432.263 412.5 433.763C415.8 435.263 419.6 436.863 421 437.263C422.4 437.663 425.5 438.963 428 439.963C437.9 444.363 438.8 444.763 439.4 444.763C439.7 444.763 441.9 445.563 444.3 446.563C455 451.263 455.9 451.263 466.7 446.563C469.1 445.563 471.3 444.763 471.6 444.763C472.2 444.763 474 443.963 483.2 439.863C485.8 438.763 488.3 437.763 488.6 437.763C489.2 437.763 490.1 437.363 500 432.963C502.5 431.963 505.6 430.663 507 430.263C508.4 429.863 511.8 428.463 514.5 427.163C517.3 425.963 522 423.963 525 422.763C530.7 420.663 531.3 420.363 539.2 416.863C541.8 415.663 544.3 414.763 544.6 414.763C545.2 414.763 546.1 414.363 556 409.963C558.5 408.963 561.6 407.663 563 407.263C564.4 406.863 567.8 405.463 570.5 404.263C573.3 402.963 578 400.963 581 399.763C584 398.563 587.9 396.963 589.5 396.263C591.2 395.463 595 393.963 598 392.763C601 391.663 605.3 389.863 607.5 388.863C609.7 387.863 613.8 386.263 616.5 385.263C619.3 384.263 621.9 383.063 622.5 382.563C623 382.163 624 381.763 624.7 381.763C626.9 381.763 632.7 377.463 634.4 374.663C636.6 370.963 636.4 363.963 634.1 360.463C631.2 355.963 628.3 354.463 622.6 354.563C618.2 354.563 605.8 359.363 537.1 387.663C492.9 405.863 456.2 420.763 455.5 420.763C454.5 420.763 398.7 398.263 387.5 393.263C385.9 392.563 377.1 388.963 368 385.263C358.9 381.563 350.2 377.963 348.5 377.163C346.9 376.463 343 374.863 340 373.763C337 372.563 332.9 370.963 331 370.063C329.1 369.263 326.1 367.863 324.3 367.163C322.6 366.363 320.9 365.763 320.6 365.763C320.3 365.763 317.8 364.863 315.2 363.663C307.3 360.163 306.7 359.863 301 357.663C298 356.563 294.2 354.963 292.5 354.263C290.9 353.463 287 351.863 284 350.763C281 349.563 276.3 347.563 273.5 346.363C270.8 345.063 267.4 343.663 266 343.263C264.6 342.863 261.5 341.563 259 340.563C249.1 336.163 248.2 335.763 247.6 335.763C247.3 335.763 244.8 334.863 242.2 333.663C234.3 330.163 233.7 329.863 228 327.763C225 326.563 220.3 324.563 217.5 323.363C214.8 322.063 211.4 320.663 210 320.263C208.6 319.863 204.8 318.263 201.5 316.763C198.2 315.263 194.4 313.663 193 313.263C191.6 312.863 188.2 311.463 185.5 310.163C182.7 308.963 178 306.963 175 305.763C169.3 303.663 168.7 303.363 160.8 299.863C158.2 298.663 155.7 297.763 155.4 297.763C154.8 297.763 153.9 297.363 144 292.963C141.5 291.963 138.4 290.663 137 290.263C135.6 289.863 131.8 288.263 128.5 286.763C125.2 285.263 121.4 283.663 120 283.263C118.6 282.863 115.2 281.463 112.5 280.163C109.7 278.963 105 276.963 102 275.763C99 274.663 95.2 273.063 93.5 272.263C91.9 271.563 88 269.963 85 268.863C82 267.663 78.6 266.363 77.5 265.863C76.4 265.363 73.9 264.263 72 263.463C70.1 262.563 66 260.963 63 259.763C60 258.663 56.2 257.063 54.5 256.263C52.9 255.563 49 253.963 46 252.763C43 251.663 38.6 249.763 36.3 248.763C33.9 247.663 31.6 246.763 31 246.763C30.5 246.763 30 245.963 29.9 244.963C29.5 236.763 26.6 230.763 22 228.563C16.8 226.163 14.9 225.863 11.1 227.063Z" fill="url(#paint3_linear)"/>
<path d="M157.6 381.263C155.1 383.663 154 385.963 153.5 388.963C153.2 391.363 153 417.763 153.2 447.763L153.5 502.263L156.1 507.263C160.7 515.863 168 527.963 172.8 534.763C194.4 565.563 228.9 596.663 261.2 614.563C269.2 618.963 287.1 628.063 290.5 629.463C292.2 630.163 296.9 632.063 301 633.763C308.8 637.063 316.8 639.763 331 644.163C344 648.163 345.7 648.563 357 650.863C362.8 652.063 369.3 653.463 371.5 653.963C376.3 655.063 382.7 655.863 406.5 658.663C420.9 660.263 430.6 660.763 454.9 660.763C471.6 660.763 489.1 660.363 493.9 659.763C498.6 659.263 507 658.263 512.5 657.663C529.2 655.863 533.5 655.063 554 650.863C565.1 648.463 570.4 647.063 573.2 645.663C574.2 645.163 575.5 644.763 576.2 644.763C579.8 644.763 608.5 634.363 620.7 628.763C624.2 627.063 627.5 625.763 628 625.763C628.4 625.763 630.4 623.963 632.4 621.763C635.3 618.563 636 616.963 636 613.663C636 605.663 630.1 598.763 623.1 598.763C620.6 598.763 613.2 601.363 604.5 605.263C602.9 605.963 599.5 607.463 597 608.563C588.5 612.363 566 619.463 555 621.963C552.5 622.463 548.7 623.363 546.5 623.863C542.1 624.963 527.5 627.563 519 628.763C506.8 630.663 481.5 632.863 475.7 632.563L469.5 632.263L469.2 561.663L469 491.063L465.6 487.563C459.9 481.663 451.2 481.663 445.4 487.563L442 491.063L441.8 561.663L441.5 632.263L432 632.063C422.1 631.963 403.5 630.363 394 628.863C391 628.363 385 627.463 380.8 626.863C345.9 621.963 299 604.763 268 585.463C232.2 563.163 200.8 530.863 184.1 499.363L181 493.363V440.563C181 382.663 181.1 384.163 175.1 379.863C173 378.363 170.7 377.763 166.6 377.763C161.6 377.763 160.7 378.063 157.6 381.263Z" fill="url(#paint4_linear)"/>
<path d="M157.6 381.263C155.1 383.663 154 385.963 153.5 388.963C153.2 391.363 153 417.763 153.2 447.763L153.5 502.263L156.1 507.263C160.7 515.863 168 527.963 172.8 534.763C194.4 565.563 228.9 596.663 261.2 614.563C269.2 618.963 287.1 628.063 290.5 629.463C292.2 630.163 296.9 632.063 301 633.763C308.8 637.063 316.8 639.763 331 644.163C344 648.163 345.7 648.563 357 650.863C362.8 652.063 369.3 653.463 371.5 653.963C376.3 655.063 382.7 655.863 406.5 658.663C420.9 660.263 430.6 660.763 454.9 660.763C471.6 660.763 489.1 660.363 493.9 659.763C498.6 659.263 507 658.263 512.5 657.663C529.2 655.863 533.5 655.063 554 650.863C565.1 648.463 570.4 647.063 573.2 645.663C574.2 645.163 575.5 644.763 576.2 644.763C579.8 644.763 608.5 634.363 620.7 628.763C624.2 627.063 627.5 625.763 628 625.763C628.4 625.763 630.4 623.963 632.4 621.763C635.3 618.563 636 616.963 636 613.663C636 605.663 630.1 598.763 623.1 598.763C620.6 598.763 613.2 601.363 604.5 605.263C602.9 605.963 599.5 607.463 597 608.563C588.5 612.363 566 619.463 555 621.963C552.5 622.463 548.7 623.363 546.5 623.863C542.1 624.963 527.5 627.563 519 628.763C506.8 630.663 481.5 632.863 475.7 632.563L469.5 632.263L469.2 561.663L469 491.063L465.6 487.563C459.9 481.663 451.2 481.663 445.4 487.563L442 491.063L441.8 561.663L441.5 632.263L432 632.063C422.1 631.963 403.5 630.363 394 628.863C391 628.363 385 627.463 380.8 626.863C345.9 621.963 299 604.763 268 585.463C232.2 563.163 200.8 530.863 184.1 499.363L181 493.363V440.563C181 382.663 181.1 384.163 175.1 379.863C173 378.363 170.7 377.763 166.6 377.763C161.6 377.763 160.7 378.063 157.6 381.263Z" fill="url(#paint5_linear)"/>
<path d="M630 756.963C626.5 759.363 623.8 764.863 622 773.263C621.5 775.463 619.1 785.363 616.5 795.263C613.9 805.163 611.4 815.063 610.8 817.263C610.2 819.463 609.6 823.863 609.3 826.963C608.7 834.063 611.1 838.063 617.6 840.963C621.4 842.563 622.5 842.663 625.9 841.663C630.9 840.163 634.5 836.463 636 831.263C637.4 826.363 645.9 793.563 647 788.763C647.4 786.863 648.5 782.063 649.5 778.263C653 763.763 649.4 755.863 638.8 754.963C634.4 754.663 632.9 754.963 630 756.963Z" fill="url(#paint6_linear)"/>
<path d="M630 756.963C626.5 759.363 623.8 764.863 622 773.263C621.5 775.463 619.1 785.363 616.5 795.263C613.9 805.163 611.4 815.063 610.8 817.263C610.2 819.463 609.6 823.863 609.3 826.963C608.7 834.063 611.1 838.063 617.6 840.963C621.4 842.563 622.5 842.663 625.9 841.663C630.9 840.163 634.5 836.463 636 831.263C637.4 826.363 645.9 793.563 647 788.763C647.4 786.863 648.5 782.063 649.5 778.263C653 763.763 649.4 755.863 638.8 754.963C634.4 754.663 632.9 754.963 630 756.963Z" fill="url(#paint7_linear)"/>
<path d="M722.3 755.963C721.1 756.663 719.1 758.563 717.8 760.263C714.5 764.463 715 771.063 720 790.263C724.2 806.263 725.2 810.463 726.9 817.463C731.5 837.263 732.5 838.963 741.1 841.663C744 842.563 745.4 842.463 748.6 841.163C754.8 838.663 756.9 835.363 757 828.363C757 825.063 756.5 821.063 756 819.363C755.1 816.663 754.1 812.663 750 795.763C749.5 793.863 748 787.563 746.5 781.763C745 775.963 743.6 770.163 743.3 768.763C742.5 764.563 740.3 760.363 737.6 757.863C734.5 754.963 725.8 753.963 722.3 755.963Z" fill="url(#paint8_linear)"/>
<path d="M722.3 755.963C721.1 756.663 719.1 758.563 717.8 760.263C714.5 764.463 715 771.063 720 790.263C724.2 806.263 725.2 810.463 726.9 817.463C731.5 837.263 732.5 838.963 741.1 841.663C744 842.563 745.4 842.463 748.6 841.163C754.8 838.663 756.9 835.363 757 828.363C757 825.063 756.5 821.063 756 819.363C755.1 816.663 754.1 812.663 750 795.763C749.5 793.863 748 787.563 746.5 781.763C745 775.963 743.6 770.163 743.3 768.763C742.5 764.563 740.3 760.363 737.6 757.863C734.5 754.963 725.8 753.963 722.3 755.963Z" fill="url(#paint9_linear)"/>
<path d="M677.4 771.163C675.7 771.963 673.4 773.763 672.2 775.263C670.1 777.963 670 778.863 670 805.463C670 829.563 670.2 833.263 671.7 835.863C673.5 838.863 678.2 841.663 682.2 841.963C686.3 842.263 692 839.663 694.5 836.363L697 833.063V779.363L694.4 775.563C690.6 770.163 683.8 768.363 677.4 771.163Z" fill="url(#paint10_linear)"/>
<path d="M677.4 771.163C675.7 771.963 673.4 773.763 672.2 775.263C670.1 777.963 670 778.863 670 805.463C670 829.563 670.2 833.263 671.7 835.863C673.5 838.863 678.2 841.663 682.2 841.963C686.3 842.263 692 839.663 694.5 836.363L697 833.063V779.363L694.4 775.563C690.6 770.163 683.8 768.363 677.4 771.163Z" fill="url(#paint11_linear)"/>
<defs>
<linearGradient id="paint0_linear" x1="455" y1="0" x2="455" y2="842.311" gradientUnits="userSpaceOnUse">
<stop stop-color="#771CD1"/>
<stop offset="1" stop-color="#771CD1" stop-opacity="0"/>
</linearGradient>
<linearGradient id="paint1_linear" x1="455" y1="0" x2="455" y2="842.311" gradientUnits="userSpaceOnUse">
<stop stop-color="#8E06C2"/>
<stop offset="0.833333" stop-color="#4B44AD"/>
</linearGradient>
<linearGradient id="paint2_linear" x1="455" y1="0" x2="455" y2="842.311" gradientUnits="userSpaceOnUse">
<stop stop-color="#771CD1"/>
<stop offset="1" stop-color="#771CD1" stop-opacity="0"/>
</linearGradient>
<linearGradient id="paint3_linear" x1="455" y1="0" x2="455" y2="842.311" gradientUnits="userSpaceOnUse">
<stop stop-color="#8E06C2"/>
<stop offset="0.833333" stop-color="#4B44AD"/>
</linearGradient>
<linearGradient id="paint4_linear" x1="455" y1="0" x2="455" y2="842.311" gradientUnits="userSpaceOnUse">
<stop stop-color="#771CD1"/>
<stop offset="1" stop-color="#771CD1" stop-opacity="0"/>
</linearGradient>
<linearGradient id="paint5_linear" x1="455" y1="0" x2="455" y2="842.311" gradientUnits="userSpaceOnUse">
<stop stop-color="#8E06C2"/>
<stop offset="0.833333" stop-color="#4B44AD"/>
</linearGradient>
<linearGradient id="paint6_linear" x1="455" y1="0" x2="455" y2="842.311" gradientUnits="userSpaceOnUse">
<stop stop-color="#771CD1"/>
<stop offset="1" stop-color="#771CD1" stop-opacity="0"/>
</linearGradient>
<linearGradient id="paint7_linear" x1="455" y1="0" x2="455" y2="842.311" gradientUnits="userSpaceOnUse">
<stop stop-color="#8E06C2"/>
<stop offset="0.833333" stop-color="#4B44AD"/>
</linearGradient>
<linearGradient id="paint8_linear" x1="455" y1="0" x2="455" y2="842.311" gradientUnits="userSpaceOnUse">
<stop stop-color="#771CD1"/>
<stop offset="1" stop-color="#771CD1" stop-opacity="0"/>
</linearGradient>
<linearGradient id="paint9_linear" x1="455" y1="0" x2="455" y2="842.311" gradientUnits="userSpaceOnUse">
<stop stop-color="#8E06C2"/>
<stop offset="0.833333" stop-color="#4B44AD"/>
</linearGradient>
<linearGradient id="paint10_linear" x1="455" y1="0" x2="455" y2="842.311" gradientUnits="userSpaceOnUse">
<stop stop-color="#771CD1"/>
<stop offset="1" stop-color="#771CD1" stop-opacity="0"/>
</linearGradient>
<linearGradient id="paint11_linear" x1="455" y1="0" x2="455" y2="842.311" gradientUnits="userSpaceOnUse">
<stop stop-color="#8E06C2"/>
<stop offset="0.833333" stop-color="#4B44AD"/>
</linearGradient>
</defs>
</svg>
