<svg width="894" height="894" viewBox="0 0 894 894" fill="none" xmlns="http://www.w3.org/2000/svg">
<path d="M399.7 0.53826C399 1.13826 393.3 2.23826 384 3.43826C381.5 3.73826 378.6 4.33826 377.5 4.83826C376.4 5.33826 374.2 5.93826 372.5 6.23826C365.3 7.43826 358.4 8.93826 356.5 9.73826C355.4 10.2383 349.2 12.3383 342.7 14.3383C336.2 16.4383 330.7 18.5383 330.4 19.0383C330.1 19.4383 329.2 19.8383 328.4 19.8383C326.5 19.8383 301.6 31.8383 301.2 33.0383C301 33.4383 300.4 33.8383 299.9 33.8383C298.6 33.8383 282.6 44.0383 282.2 45.0383C282 45.5383 281.2 45.8383 280.5 45.8383C279.8 45.8383 279 46.1383 278.8 46.5383C278.7 47.0383 275.1 50.0383 271 53.2383C259 62.8383 243 79.2383 233.3 92.0383C227 100.338 218.9 112.738 215.5 119.138C214.4 121.138 213.3 122.838 213 122.838C212.7 122.838 211.9 124.338 211.1 126.038C210.4 127.838 207.6 133.938 204.9 139.638C202.2 145.338 200 150.638 200 151.338C200 152.138 199.6 153.038 199 153.338C198.5 153.638 198 154.838 198 155.938C198 156.938 197.6 157.838 197 157.838C196.5 157.838 196 158.838 196 160.038C196 161.338 195.3 163.638 194.5 165.238C193.7 166.738 193 168.938 193 169.938C193 171.038 192.6 171.838 192 171.838C191.5 171.838 191 172.938 191 174.338C191 175.738 190.6 177.638 190 178.638C189.1 180.338 187.3 187.538 186.3 193.638C186 195.438 185.4 197.138 184.9 197.438C184.4 197.738 184 199.238 184 200.838C184 202.438 183.6 204.738 183 206.038C182.5 207.338 181.5 212.638 180.9 217.838C180.3 223.038 179.4 230.238 178.9 233.838C176.6 249.638 176.6 254.738 179 259.838C180.9 263.838 182.2 265.138 186.6 267.238C189.5 268.638 192.9 269.838 194.2 269.838C197.4 269.738 205.1 265.638 206.4 263.338C207 262.238 207.7 261.138 208 260.838C209.4 259.638 211 251.538 211.1 245.738C211.1 237.338 213.4 219.838 215.9 208.838C216.4 206.338 217.4 201.838 218 198.838C218.6 195.838 219.4 192.438 219.9 191.338C221.3 187.938 223 182.238 223 180.938C223 180.238 223.7 178.038 224.6 176.038C225.5 173.938 226.7 171.238 227.2 169.838C227.8 168.438 228.6 166.538 229.1 165.638C229.6 164.638 230 163.338 230 162.638C230 161.938 232.3 156.738 235 151.138C237.8 145.538 240 140.438 240 139.938C240 139.338 240.3 138.838 240.8 138.838C241.2 138.838 242.8 136.438 244.4 133.538C246 130.738 247.6 128.138 247.9 127.838C248.2 127.538 249.4 125.738 250.4 123.838C252 120.938 258 112.838 260 110.838C260.3 110.538 261.8 108.538 263.4 106.338C267.4 100.838 284.2 84.3383 292 78.1383C304.6 68.3383 323.1 57.4383 337.5 51.3383C339.7 50.4383 342.2 49.3383 343 48.9383C343.8 48.5383 347.2 47.4383 350.5 46.4383C353.8 45.4383 357.3 44.2383 358.2 43.7383C359.2 43.2383 360.9 42.8383 361.9 42.8383C363 42.8383 364.1 42.4383 364.4 41.9383C364.7 41.5383 366.4 40.8383 368.2 40.4383C370 40.1383 374.9 39.1383 379 38.2383C399.5 34.0383 420.1 31.8383 443 31.6383C461.8 31.5383 482.4 33.1383 484.5 34.9383C485 35.4383 487 35.8383 489 35.8383C491 35.8383 493 36.2383 493.5 36.6383C494.1 37.1383 496.6 38.2383 499.1 39.2383C504.1 41.0383 509.9 46.2383 508.1 47.2383C507.5 47.6383 507 49.0383 507 50.3383C507 51.6383 506.6 53.0383 506 53.3383C504.6 54.2383 504.8 63.4383 506.3 66.0383C510.2 72.9383 515.2 75.4383 526.5 76.2383C542.2 77.4383 560.4 80.2383 565.5 82.2383C569.1 83.6383 571.4 84.6383 575.2 86.2383C577.2 87.1383 579.3 87.8383 579.9 87.8383C580.5 87.8383 584.1 89.8383 587.9 92.3383C591.7 94.8383 595.3 96.8383 595.8 96.8383C596.4 96.8383 597 97.1383 597.2 97.6383C597.4 98.0383 598.9 99.4383 600.5 100.638C608.9 107.138 618.9 118.038 625.8 128.138C628.6 132.338 631 136.438 631 137.238C631 138.038 631.3 138.838 631.8 139.038C632.2 139.138 633.8 142.038 635.3 145.338C636.9 148.638 638.6 152.138 639.1 153.038C639.6 154.038 640 155.538 640 156.338C640 157.138 640.4 157.838 640.9 157.838C641.4 157.838 642.1 159.738 642.5 162.038C642.9 164.438 643.5 166.738 643.9 167.338C645.4 169.438 650 187.938 650 191.938C650 193.338 650.4 194.838 650.9 195.338C652.6 197.138 653.2 209.338 653.8 263.338C654.4 311.938 654.7 317.638 656.2 320.538C658.5 324.638 663.1 327.838 667.7 328.438C673.1 329.238 677.1 330.938 680 333.538L682.5 335.838L682.8 371.338C683 403.238 682.9 407.038 681.4 409.338C679.3 412.438 675.8 414.438 670.5 415.338C668.3 415.738 665.1 416.638 663.5 417.338C658.8 419.438 654 425.738 654 429.838C654 430.938 653.6 431.838 653 431.838C652.5 431.838 652 432.938 652 434.238C652 435.638 651.6 437.038 651 437.338C650.5 437.638 650 438.838 650 439.838C650 441.738 645.9 453.338 644 456.938C643.5 457.838 642.8 460.238 642.5 462.238C642.1 464.238 641.4 466.138 640.9 466.438C640.4 466.738 640 467.838 640 468.938C640 469.938 639.6 471.738 639 472.838C636.6 477.738 636.2 478.638 635.5 481.838C635.1 483.738 634.4 485.938 634 486.838C633.6 487.638 632.7 489.638 632 491.338C631.3 492.938 630.4 495.038 630 495.838C629.6 496.738 628.9 498.938 628.5 500.838C628.1 502.738 627.4 504.938 627 505.838C625.5 508.738 622 516.838 622 517.438C622 518.138 619.4 524.338 617.9 527.038C617.4 528.038 617 529.538 617 530.338C617 531.138 616.6 531.838 616 531.838C615.5 531.838 614.8 533.438 614.4 535.338C614.1 537.238 613.4 539.138 612.9 539.438C612.4 539.738 612 540.838 612 541.938C612 542.938 611.7 543.838 611.2 543.838C610.8 543.838 609.6 545.838 608.5 548.338C607.4 550.838 606.2 552.838 605.8 552.838C605.3 552.838 605 553.238 605 553.838C605 554.338 601.7 559.338 597.8 564.838C593.8 570.438 589.8 576.038 589 577.238C587 580.338 574.8 594.038 568 600.838C561.8 607.038 544.3 621.838 543.2 621.838C542.7 621.838 541.5 622.638 540.4 623.638C538.6 625.338 534.2 628.138 527.5 632.038C522.1 635.238 508.3 641.738 505.6 642.438C504.2 642.738 502.7 643.438 502.4 643.938C502.1 644.438 500.9 644.838 499.6 644.838C498.4 644.838 497 645.138 496.6 645.538C495.7 646.438 488.3 648.538 481.5 649.838C478.8 650.338 473.6 651.338 470 652.038C461.6 653.638 432.4 653.638 424 652.038C420.4 651.338 415.3 650.338 412.5 649.838C405.7 648.538 398.3 646.438 397.4 645.538C397 645.138 395.6 644.838 394.4 644.838C393.1 644.838 391.9 644.438 391.6 643.938C391.3 643.438 389.8 642.738 388.4 642.438C385.7 641.738 371.9 635.238 366.5 632.038C359.8 628.138 355.4 625.338 353.6 623.638C352.5 622.638 351.3 621.838 350.8 621.838C349.7 621.838 332.2 607.038 326 600.838C319.2 594.038 307 580.338 305 577.238C304.2 576.038 300.2 570.438 296.3 564.838C292.3 559.338 289 554.338 289 553.838C289 553.238 288.7 552.838 288.3 552.838C287.8 552.838 286.6 550.838 285.5 548.338C284.4 545.838 283.2 543.838 282.8 543.838C282.3 543.838 282 542.938 282 541.938C282 540.838 281.6 539.738 281.1 539.438C280.6 539.138 279.9 537.238 279.6 535.338C279.2 533.438 278.5 531.838 278 531.838C277.4 531.838 277 531.138 277 530.338C277 529.538 276.6 528.038 276.1 527.038C274.6 524.338 272 518.138 272 517.438C272 516.838 268.5 508.738 267 505.838C266.6 504.938 265.9 502.738 265.5 500.838C265.1 498.938 264.4 496.738 264 495.838C263.6 495.038 262.7 492.938 262 491.338C261.3 489.638 260.4 487.638 260 486.838C259.6 485.938 258.9 483.738 258.5 481.838C257.8 478.638 257.4 477.738 255 472.838C254.5 471.738 254 469.938 254 468.938C254 467.838 253.6 466.738 253.1 466.438C252.6 466.138 251.9 464.238 251.5 462.238C251.2 460.238 250.5 457.838 250 456.938C248.1 453.338 244 441.738 244 439.838C244 438.838 243.6 437.638 243 437.338C242.4 437.038 242 435.638 242 434.238C242 432.938 241.6 431.838 241 431.838C240.5 431.838 240 430.938 240 429.838C240 424.338 231.6 415.838 226.1 415.838C222.1 415.838 216.4 413.338 213.8 410.638L211 407.638L211.1 372.938C211.1 353.938 211.5 337.438 211.9 336.438C212.5 334.838 213 335.138 215.2 338.938C220.1 347.238 233.2 356.838 239.6 356.838C240.9 356.838 242.2 357.238 242.5 357.838C243.4 359.338 256.3 359.038 259.3 357.538C263.8 355.238 268 351.338 268 349.538C268 348.638 268.3 347.838 268.8 347.838C269.6 347.838 273 340.538 273 338.838C273 338.238 273.5 337.838 274 337.838C274.6 337.838 275 336.938 275 335.838C275 334.738 275.3 333.838 275.8 333.838C276.5 333.838 278.7 329.338 281.1 322.538C281.8 320.538 282.8 318.838 283.2 318.838C283.6 318.838 284 318.238 284 317.438C284 316.738 284.7 314.738 285.5 313.238C286.3 311.638 287 309.538 287 308.638C287 307.738 287.5 306.638 288 306.338C288.6 306.038 289 304.638 289 303.238C289 301.938 289.5 300.838 290 300.838C290.6 300.838 291 299.838 291 298.538C291 297.238 291.4 295.838 291.9 295.238C292.8 294.238 294.4 288.038 297.6 272.638C298.3 269.338 300 268.938 315.5 267.738C332.9 266.538 354.1 263.738 368.5 260.938C371.3 260.438 377.3 259.338 382 258.438C386.7 257.638 392.4 256.438 394.8 255.838C413.8 251.238 420.6 249.638 423.8 249.138C425.6 248.838 427.3 248.238 427.6 247.738C427.9 247.238 428.9 246.838 429.9 246.838C430.8 246.838 436.3 245.338 442.1 243.438C447.8 241.638 455 239.338 458 238.438C463.4 236.838 466.7 235.538 470.2 233.738C471.2 233.238 472.5 232.838 473.1 232.838C473.7 232.838 475.8 232.138 477.8 231.238C479.9 230.338 482.4 229.338 483.5 228.838C495.9 224.138 531.7 205.738 534 202.838C534.9 201.738 539.4 198.838 540.3 198.838C540.7 198.838 540.9 199.238 540.5 199.738C540.2 200.238 540.4 200.938 541 201.338C541.5 201.638 542 203.038 542 204.438C542 205.738 542.4 206.838 542.9 206.838C543.3 206.838 544 208.338 544.3 210.138C544.9 213.838 549 223.138 550.2 223.638C550.6 223.838 551 224.538 551 225.138C551 226.438 556.1 237.038 557.1 237.838C557.4 238.138 558.5 239.838 559.4 241.638C561.7 246.038 572 261.938 573.6 263.638C574.4 264.338 575 265.238 575 265.638C575 266.038 576.5 268.038 578.3 270.038C580 272.038 583.5 276.238 586 279.438C599.2 296.138 607.1 301.438 615 298.838C617.2 298.138 619 297.138 619 296.638C619 296.238 619.5 295.838 620.1 295.838C621.5 295.838 624 293.338 624 291.938C624 291.338 624.4 290.838 624.8 290.838C625.2 290.838 626.2 288.738 626.9 286.238C627.9 282.838 628 281.438 627.1 280.538C626.5 279.938 626 278.638 626 277.638C626 275.538 625.8 275.238 617.5 265.838C610.7 258.238 607.2 253.838 601.5 245.838C599.3 242.838 597.3 240.138 596.9 239.838C596.4 239.338 593.8 235.338 587.7 225.038C584.3 219.238 575.9 202.038 575.5 199.938C575.3 199.038 574.5 196.338 573.6 193.838C572.7 191.338 572 188.538 572 187.538C572 186.638 571.6 185.838 571.1 185.838C570.7 185.838 569.5 179.238 568.6 171.238C566.7 154.938 565.5 152.538 557.6 148.738C550.2 145.138 544.5 147.038 537.3 155.438C534.7 158.638 530.7 163.038 528.5 165.438C518.6 175.838 486.6 193.538 463.5 201.338C460.8 202.238 457.6 203.338 456.5 203.838C455.4 204.338 450.9 205.838 446.5 207.338C442.1 208.738 437.6 210.338 436.5 210.738C434.2 211.738 428.3 213.438 422.5 214.738C418.5 215.738 413.5 217.038 407 218.938C401.8 220.538 391 222.938 387 223.438C385.1 223.738 382.6 224.338 381.5 224.838C380.4 225.338 377.9 225.938 376 226.238C374.1 226.538 368.7 227.438 364 228.338C359.3 229.138 352.1 230.338 348 230.938C343.9 231.438 337.4 232.338 333.5 232.938C322.9 234.438 305.7 235.638 294 235.738C288 235.838 281.8 236.438 279.5 237.238C274.5 238.938 268 244.638 268 247.338C268 248.538 267.6 249.838 267.1 250.438C266.6 250.938 266 254.738 265.7 258.838C265.3 267.338 263.2 278.838 261.9 280.238C261.4 280.838 261 282.438 261 283.938C261 285.438 260.7 286.838 260.3 287.038C259.5 287.338 255.1 298.638 254.3 302.538C254 303.838 253.4 304.838 252.9 304.838C252.4 304.838 252 305.338 252 305.938C252 306.538 250.4 310.338 248.5 314.438C246.6 318.438 245 322.238 245 322.838C245 324.838 243 322.738 241.5 319.138C240.7 317.238 240 314.238 240 312.638C240 309.338 237.1 303.138 234.3 300.638C233.3 299.638 230.4 298.238 228 297.338C223.9 295.938 222.8 295.938 215 297.438C210.3 298.338 205.4 299.838 204 300.738C202.6 301.638 200.3 303.038 198.8 303.738C193.4 306.438 185.4 315.138 182.7 321.338C179.8 327.638 179.3 329.038 178.1 333.438C176.7 338.838 176.6 409.438 178 410.338C178.6 410.638 179 412.438 179 414.338C179 416.238 179.4 417.938 179.9 418.338C180.4 418.638 181.1 420.238 181.5 421.838C181.9 423.538 182.5 424.838 182.9 424.838C183.3 424.838 184.3 426.038 185.2 427.638C188 432.138 197 440.838 199 440.838C199.6 440.838 200 441.238 200 441.738C200 442.638 200.8 443.038 207.5 445.238C210.5 446.138 211.6 447.138 211.8 448.938C212 450.238 212.5 451.738 213 452.338C213.6 453.238 215.2 458.038 215.4 460.038C215.5 460.338 215.8 461.038 216.3 461.438C216.7 461.838 217 463.238 217 464.538C217 465.738 217.5 466.838 218 466.838C218.6 466.838 219 467.738 219 468.838C219 469.938 219.4 471.638 219.9 472.638C220.4 473.538 222.1 477.938 223.5 482.338C224.9 486.738 226.5 491.238 227 492.338C227.5 493.438 229 497.738 230.5 501.838C231.9 505.938 233.5 510.138 234.1 511.038C234.6 512.038 235 513.338 235 513.938C235 514.538 235.7 516.638 236.6 518.638C238.2 522.438 239.3 525.038 240.9 529.038C241.3 530.338 242.5 533.038 243.4 535.138C244.3 537.238 245 539.538 245 540.338C245 541.138 245.5 541.838 246 541.838C246.6 541.838 247 542.438 247 543.138C247 543.838 248.1 546.838 249.5 549.638C250.9 552.538 252 555.538 252 556.338C252 557.138 252.3 557.838 252.8 557.838C253.2 557.838 254.2 559.338 254.9 561.138C255.7 562.838 257 564.938 257.7 565.638C258.4 566.338 259 567.638 259 568.438C259 569.238 259.3 569.838 259.8 569.838C260.2 569.838 261.1 571.338 261.9 573.138C263.2 575.938 267.5 582.438 269 583.838C269.4 584.138 270.7 586.138 272 588.238C278.2 598.538 301.8 624.538 314.2 634.838C315.9 636.238 318.1 638.038 319.1 638.938C320.1 639.738 322.1 641.338 323.6 642.438C325 643.438 327.4 645.238 328.9 646.438C337.3 653.138 370.1 671.838 373.5 671.838C374.2 671.838 380.3 674.438 383.2 675.938C384.2 676.438 385.8 676.838 386.8 676.838C387.8 676.838 389 677.238 389.5 677.738C390.1 678.238 392.8 679.138 395.5 679.738C398.3 680.238 401.9 681.038 403.5 681.338C405.2 681.738 407.4 682.338 408.5 682.838C410.8 683.838 414.1 684.238 433.2 685.938C444.1 686.938 449.9 686.938 460.7 685.938C479.9 684.238 483.2 683.838 485.5 682.838C486.6 682.338 488.9 681.738 490.5 681.338C492.2 681.038 495.8 680.238 498.5 679.738C501.3 679.138 503.9 678.238 504.5 677.738C505 677.238 506.2 676.838 507.2 676.838C508.2 676.838 509.8 676.438 510.8 675.938C513.7 674.438 519.8 671.838 520.5 671.838C521.9 671.838 540.6 662.438 545.7 659.138C548.6 657.338 551.4 655.838 552 655.838C552.5 655.838 553 655.438 553 655.038C553 654.538 554.7 653.238 556.8 652.038C558.9 650.938 562.2 648.638 564.2 647.138C566.2 645.638 568.9 643.538 570.2 642.638C574.5 639.538 579.3 635.338 585.7 629.438C589.2 626.238 592.8 622.838 593.8 621.938C596 619.938 608.1 606.038 614.1 598.838C620.1 591.538 631 576.038 631 574.838C631 574.238 631.4 573.838 631.8 573.838C632.2 573.838 633.4 571.838 634.4 569.338C635.5 566.838 636.6 564.838 637 564.838C637.3 564.838 638.2 563.238 639 561.338C639.8 559.438 640.7 557.838 641.2 557.838C641.6 557.838 642 557.138 642 556.338C642 555.538 643.1 552.538 644.5 549.638C645.9 546.838 647 543.838 647 543.138C647 542.438 647.5 541.838 648 541.838C648.6 541.838 649 541.138 649 540.338C649 539.538 649.7 537.238 650.6 535.138C651.5 533.038 652.7 530.338 653.1 529.038C654.7 525.038 655.8 522.438 657.4 518.638C658.3 516.638 659 514.538 659 513.938C659 513.338 659.4 512.038 659.9 511.038C660.5 510.138 662.1 505.938 663.5 501.838C665 497.738 666.5 493.438 667 492.338C667.5 491.238 669.1 486.738 670.5 482.338C671.9 477.938 673.6 473.538 674.1 472.638C674.6 471.638 675 469.938 675 468.838C675 467.738 675.5 466.838 676 466.838C676.6 466.838 677 465.738 677 464.538C677 463.238 677.3 461.838 677.8 461.438C678.2 461.038 678.5 460.338 678.6 460.038C678.8 458.038 680.4 453.238 681 452.338C681.5 451.738 682 450.238 682.2 448.938C682.4 447.138 683.5 446.138 686.5 445.238C693.2 443.038 694 442.638 694 441.738C694 441.238 694.4 440.838 695 440.838C697 440.838 706 432.138 708.8 427.538C709.7 426.038 710.7 424.838 711.1 424.838C711.5 424.838 712.1 423.538 712.5 421.838C712.9 420.238 713.6 418.638 714.1 418.338C714.6 417.938 715 416.238 715 414.438C715 412.738 715.5 410.738 716 410.238C716.7 409.538 716.9 396.438 716.7 371.738C716.3 335.538 715.8 326.838 713.9 326.838C713.4 326.838 713 326.338 713 325.738C713 323.838 709.6 317.438 707.3 314.838C706 313.438 705 312.038 705 311.638C705 310.738 695.6 303.638 691 301.138L687.5 299.138L687 248.738C686.7 221.038 686.1 197.838 685.7 197.138C685.3 196.438 684.5 193.138 684 189.638C683.5 186.138 682.6 181.338 682 178.838C681.4 176.338 680.5 172.538 679.9 170.338C679.4 168.138 678.8 165.838 678.6 165.338C678.5 164.738 678 162.938 677.6 161.338C676.9 158.438 676.4 156.938 674.2 151.838C673.7 150.438 672.6 147.738 672 145.838C670.1 140.538 660.7 121.338 659.8 121.038C659.4 120.838 659 120.238 659 119.738C659 118.738 653 108.938 650.9 106.538C650.4 105.838 647.7 102.438 644.9 98.8383C638.8 91.1383 628.6 80.9383 621 75.1383C618 72.7383 614.4 69.9383 613 68.8383C611.6 67.7383 609.9 66.8383 609.3 66.8383C608.6 66.8383 608 66.4383 608 66.0383C608 65.6383 606.8 64.7383 605.3 64.1383C603.7 63.4383 600.7 61.8383 598.5 60.5383C596.2 59.2383 593.3 57.7383 592 57.3383C590.6 56.9383 587 55.4383 584 54.0383C581 52.6383 576 50.9383 573 50.2383C570 49.5383 565.7 48.4383 563.5 47.8383C561.3 47.1383 557 46.2383 554 45.7383C540.5 43.6383 541.3 44.0383 540.7 39.9383C539 27.0383 525.6 13.5383 508.5 7.43826C505.8 6.43826 502.6 5.33826 501.5 4.83826C500.4 4.33826 498.2 3.73826 496.5 3.33826C494.9 3.03826 491.7 2.23826 489.5 1.63826C485 0.33826 400.9 -0.66174 399.7 0.53826Z" fill="url(#paint0_linear)"/>
<path d="M399.7 0.53826C399 1.13826 393.3 2.23826 384 3.43826C381.5 3.73826 378.6 4.33826 377.5 4.83826C376.4 5.33826 374.2 5.93826 372.5 6.23826C365.3 7.43826 358.4 8.93826 356.5 9.73826C355.4 10.2383 349.2 12.3383 342.7 14.3383C336.2 16.4383 330.7 18.5383 330.4 19.0383C330.1 19.4383 329.2 19.8383 328.4 19.8383C326.5 19.8383 301.6 31.8383 301.2 33.0383C301 33.4383 300.4 33.8383 299.9 33.8383C298.6 33.8383 282.6 44.0383 282.2 45.0383C282 45.5383 281.2 45.8383 280.5 45.8383C279.8 45.8383 279 46.1383 278.8 46.5383C278.7 47.0383 275.1 50.0383 271 53.2383C259 62.8383 243 79.2383 233.3 92.0383C227 100.338 218.9 112.738 215.5 119.138C214.4 121.138 213.3 122.838 213 122.838C212.7 122.838 211.9 124.338 211.1 126.038C210.4 127.838 207.6 133.938 204.9 139.638C202.2 145.338 200 150.638 200 151.338C200 152.138 199.6 153.038 199 153.338C198.5 153.638 198 154.838 198 155.938C198 156.938 197.6 157.838 197 157.838C196.5 157.838 196 158.838 196 160.038C196 161.338 195.3 163.638 194.5 165.238C193.7 166.738 193 168.938 193 169.938C193 171.038 192.6 171.838 192 171.838C191.5 171.838 191 172.938 191 174.338C191 175.738 190.6 177.638 190 178.638C189.1 180.338 187.3 187.538 186.3 193.638C186 195.438 185.4 197.138 184.9 197.438C184.4 197.738 184 199.238 184 200.838C184 202.438 183.6 204.738 183 206.038C182.5 207.338 181.5 212.638 180.9 217.838C180.3 223.038 179.4 230.238 178.9 233.838C176.6 249.638 176.6 254.738 179 259.838C180.9 263.838 182.2 265.138 186.6 267.238C189.5 268.638 192.9 269.838 194.2 269.838C197.4 269.738 205.1 265.638 206.4 263.338C207 262.238 207.7 261.138 208 260.838C209.4 259.638 211 251.538 211.1 245.738C211.1 237.338 213.4 219.838 215.9 208.838C216.4 206.338 217.4 201.838 218 198.838C218.6 195.838 219.4 192.438 219.9 191.338C221.3 187.938 223 182.238 223 180.938C223 180.238 223.7 178.038 224.6 176.038C225.5 173.938 226.7 171.238 227.2 169.838C227.8 168.438 228.6 166.538 229.1 165.638C229.6 164.638 230 163.338 230 162.638C230 161.938 232.3 156.738 235 151.138C237.8 145.538 240 140.438 240 139.938C240 139.338 240.3 138.838 240.8 138.838C241.2 138.838 242.8 136.438 244.4 133.538C246 130.738 247.6 128.138 247.9 127.838C248.2 127.538 249.4 125.738 250.4 123.838C252 120.938 258 112.838 260 110.838C260.3 110.538 261.8 108.538 263.4 106.338C267.4 100.838 284.2 84.3383 292 78.1383C304.6 68.3383 323.1 57.4383 337.5 51.3383C339.7 50.4383 342.2 49.3383 343 48.9383C343.8 48.5383 347.2 47.4383 350.5 46.4383C353.8 45.4383 357.3 44.2383 358.2 43.7383C359.2 43.2383 360.9 42.8383 361.9 42.8383C363 42.8383 364.1 42.4383 364.4 41.9383C364.7 41.5383 366.4 40.8383 368.2 40.4383C370 40.1383 374.9 39.1383 379 38.2383C399.5 34.0383 420.1 31.8383 443 31.6383C461.8 31.5383 482.4 33.1383 484.5 34.9383C485 35.4383 487 35.8383 489 35.8383C491 35.8383 493 36.2383 493.5 36.6383C494.1 37.1383 496.6 38.2383 499.1 39.2383C504.1 41.0383 509.9 46.2383 508.1 47.2383C507.5 47.6383 507 49.0383 507 50.3383C507 51.6383 506.6 53.0383 506 53.3383C504.6 54.2383 504.8 63.4383 506.3 66.0383C510.2 72.9383 515.2 75.4383 526.5 76.2383C542.2 77.4383 560.4 80.2383 565.5 82.2383C569.1 83.6383 571.4 84.6383 575.2 86.2383C577.2 87.1383 579.3 87.8383 579.9 87.8383C580.5 87.8383 584.1 89.8383 587.9 92.3383C591.7 94.8383 595.3 96.8383 595.8 96.8383C596.4 96.8383 597 97.1383 597.2 97.6383C597.4 98.0383 598.9 99.4383 600.5 100.638C608.9 107.138 618.9 118.038 625.8 128.138C628.6 132.338 631 136.438 631 137.238C631 138.038 631.3 138.838 631.8 139.038C632.2 139.138 633.8 142.038 635.3 145.338C636.9 148.638 638.6 152.138 639.1 153.038C639.6 154.038 640 155.538 640 156.338C640 157.138 640.4 157.838 640.9 157.838C641.4 157.838 642.1 159.738 642.5 162.038C642.9 164.438 643.5 166.738 643.9 167.338C645.4 169.438 650 187.938 650 191.938C650 193.338 650.4 194.838 650.9 195.338C652.6 197.138 653.2 209.338 653.8 263.338C654.4 311.938 654.7 317.638 656.2 320.538C658.5 324.638 663.1 327.838 667.7 328.438C673.1 329.238 677.1 330.938 680 333.538L682.5 335.838L682.8 371.338C683 403.238 682.9 407.038 681.4 409.338C679.3 412.438 675.8 414.438 670.5 415.338C668.3 415.738 665.1 416.638 663.5 417.338C658.8 419.438 654 425.738 654 429.838C654 430.938 653.6 431.838 653 431.838C652.5 431.838 652 432.938 652 434.238C652 435.638 651.6 437.038 651 437.338C650.5 437.638 650 438.838 650 439.838C650 441.738 645.9 453.338 644 456.938C643.5 457.838 642.8 460.238 642.5 462.238C642.1 464.238 641.4 466.138 640.9 466.438C640.4 466.738 640 467.838 640 468.938C640 469.938 639.6 471.738 639 472.838C636.6 477.738 636.2 478.638 635.5 481.838C635.1 483.738 634.4 485.938 634 486.838C633.6 487.638 632.7 489.638 632 491.338C631.3 492.938 630.4 495.038 630 495.838C629.6 496.738 628.9 498.938 628.5 500.838C628.1 502.738 627.4 504.938 627 505.838C625.5 508.738 622 516.838 622 517.438C622 518.138 619.4 524.338 617.9 527.038C617.4 528.038 617 529.538 617 530.338C617 531.138 616.6 531.838 616 531.838C615.5 531.838 614.8 533.438 614.4 535.338C614.1 537.238 613.4 539.138 612.9 539.438C612.4 539.738 612 540.838 612 541.938C612 542.938 611.7 543.838 611.2 543.838C610.8 543.838 609.6 545.838 608.5 548.338C607.4 550.838 606.2 552.838 605.8 552.838C605.3 552.838 605 553.238 605 553.838C605 554.338 601.7 559.338 597.8 564.838C593.8 570.438 589.8 576.038 589 577.238C587 580.338 574.8 594.038 568 600.838C561.8 607.038 544.3 621.838 543.2 621.838C542.7 621.838 541.5 622.638 540.4 623.638C538.6 625.338 534.2 628.138 527.5 632.038C522.1 635.238 508.3 641.738 505.6 642.438C504.2 642.738 502.7 643.438 502.4 643.938C502.1 644.438 500.9 644.838 499.6 644.838C498.4 644.838 497 645.138 496.6 645.538C495.7 646.438 488.3 648.538 481.5 649.838C478.8 650.338 473.6 651.338 470 652.038C461.6 653.638 432.4 653.638 424 652.038C420.4 651.338 415.3 650.338 412.5 649.838C405.7 648.538 398.3 646.438 397.4 645.538C397 645.138 395.6 644.838 394.4 644.838C393.1 644.838 391.9 644.438 391.6 643.938C391.3 643.438 389.8 642.738 388.4 642.438C385.7 641.738 371.9 635.238 366.5 632.038C359.8 628.138 355.4 625.338 353.6 623.638C352.5 622.638 351.3 621.838 350.8 621.838C349.7 621.838 332.2 607.038 326 600.838C319.2 594.038 307 580.338 305 577.238C304.2 576.038 300.2 570.438 296.3 564.838C292.3 559.338 289 554.338 289 553.838C289 553.238 288.7 552.838 288.3 552.838C287.8 552.838 286.6 550.838 285.5 548.338C284.4 545.838 283.2 543.838 282.8 543.838C282.3 543.838 282 542.938 282 541.938C282 540.838 281.6 539.738 281.1 539.438C280.6 539.138 279.9 537.238 279.6 535.338C279.2 533.438 278.5 531.838 278 531.838C277.4 531.838 277 531.138 277 530.338C277 529.538 276.6 528.038 276.1 527.038C274.6 524.338 272 518.138 272 517.438C272 516.838 268.5 508.738 267 505.838C266.6 504.938 265.9 502.738 265.5 500.838C265.1 498.938 264.4 496.738 264 495.838C263.6 495.038 262.7 492.938 262 491.338C261.3 489.638 260.4 487.638 260 486.838C259.6 485.938 258.9 483.738 258.5 481.838C257.8 478.638 257.4 477.738 255 472.838C254.5 471.738 254 469.938 254 468.938C254 467.838 253.6 466.738 253.1 466.438C252.6 466.138 251.9 464.238 251.5 462.238C251.2 460.238 250.5 457.838 250 456.938C248.1 453.338 244 441.738 244 439.838C244 438.838 243.6 437.638 243 437.338C242.4 437.038 242 435.638 242 434.238C242 432.938 241.6 431.838 241 431.838C240.5 431.838 240 430.938 240 429.838C240 424.338 231.6 415.838 226.1 415.838C222.1 415.838 216.4 413.338 213.8 410.638L211 407.638L211.1 372.938C211.1 353.938 211.5 337.438 211.9 336.438C212.5 334.838 213 335.138 215.2 338.938C220.1 347.238 233.2 356.838 239.6 356.838C240.9 356.838 242.2 357.238 242.5 357.838C243.4 359.338 256.3 359.038 259.3 357.538C263.8 355.238 268 351.338 268 349.538C268 348.638 268.3 347.838 268.8 347.838C269.6 347.838 273 340.538 273 338.838C273 338.238 273.5 337.838 274 337.838C274.6 337.838 275 336.938 275 335.838C275 334.738 275.3 333.838 275.8 333.838C276.5 333.838 278.7 329.338 281.1 322.538C281.8 320.538 282.8 318.838 283.2 318.838C283.6 318.838 284 318.238 284 317.438C284 316.738 284.7 314.738 285.5 313.238C286.3 311.638 287 309.538 287 308.638C287 307.738 287.5 306.638 288 306.338C288.6 306.038 289 304.638 289 303.238C289 301.938 289.5 300.838 290 300.838C290.6 300.838 291 299.838 291 298.538C291 297.238 291.4 295.838 291.9 295.238C292.8 294.238 294.4 288.038 297.6 272.638C298.3 269.338 300 268.938 315.5 267.738C332.9 266.538 354.1 263.738 368.5 260.938C371.3 260.438 377.3 259.338 382 258.438C386.7 257.638 392.4 256.438 394.8 255.838C413.8 251.238 420.6 249.638 423.8 249.138C425.6 248.838 427.3 248.238 427.6 247.738C427.9 247.238 428.9 246.838 429.9 246.838C430.8 246.838 436.3 245.338 442.1 243.438C447.8 241.638 455 239.338 458 238.438C463.4 236.838 466.7 235.538 470.2 233.738C471.2 233.238 472.5 232.838 473.1 232.838C473.7 232.838 475.8 232.138 477.8 231.238C479.9 230.338 482.4 229.338 483.5 228.838C495.9 224.138 531.7 205.738 534 202.838C534.9 201.738 539.4 198.838 540.3 198.838C540.7 198.838 540.9 199.238 540.5 199.738C540.2 200.238 540.4 200.938 541 201.338C541.5 201.638 542 203.038 542 204.438C542 205.738 542.4 206.838 542.9 206.838C543.3 206.838 544 208.338 544.3 210.138C544.9 213.838 549 223.138 550.2 223.638C550.6 223.838 551 224.538 551 225.138C551 226.438 556.1 237.038 557.1 237.838C557.4 238.138 558.5 239.838 559.4 241.638C561.7 246.038 572 261.938 573.6 263.638C574.4 264.338 575 265.238 575 265.638C575 266.038 576.5 268.038 578.3 270.038C580 272.038 583.5 276.238 586 279.438C599.2 296.138 607.1 301.438 615 298.838C617.2 298.138 619 297.138 619 296.638C619 296.238 619.5 295.838 620.1 295.838C621.5 295.838 624 293.338 624 291.938C624 291.338 624.4 290.838 624.8 290.838C625.2 290.838 626.2 288.738 626.9 286.238C627.9 282.838 628 281.438 627.1 280.538C626.5 279.938 626 278.638 626 277.638C626 275.538 625.8 275.238 617.5 265.838C610.7 258.238 607.2 253.838 601.5 245.838C599.3 242.838 597.3 240.138 596.9 239.838C596.4 239.338 593.8 235.338 587.7 225.038C584.3 219.238 575.9 202.038 575.5 199.938C575.3 199.038 574.5 196.338 573.6 193.838C572.7 191.338 572 188.538 572 187.538C572 186.638 571.6 185.838 571.1 185.838C570.7 185.838 569.5 179.238 568.6 171.238C566.7 154.938 565.5 152.538 557.6 148.738C550.2 145.138 544.5 147.038 537.3 155.438C534.7 158.638 530.7 163.038 528.5 165.438C518.6 175.838 486.6 193.538 463.5 201.338C460.8 202.238 457.6 203.338 456.5 203.838C455.4 204.338 450.9 205.838 446.5 207.338C442.1 208.738 437.6 210.338 436.5 210.738C434.2 211.738 428.3 213.438 422.5 214.738C418.5 215.738 413.5 217.038 407 218.938C401.8 220.538 391 222.938 387 223.438C385.1 223.738 382.6 224.338 381.5 224.838C380.4 225.338 377.9 225.938 376 226.238C374.1 226.538 368.7 227.438 364 228.338C359.3 229.138 352.1 230.338 348 230.938C343.9 231.438 337.4 232.338 333.5 232.938C322.9 234.438 305.7 235.638 294 235.738C288 235.838 281.8 236.438 279.5 237.238C274.5 238.938 268 244.638 268 247.338C268 248.538 267.6 249.838 267.1 250.438C266.6 250.938 266 254.738 265.7 258.838C265.3 267.338 263.2 278.838 261.9 280.238C261.4 280.838 261 282.438 261 283.938C261 285.438 260.7 286.838 260.3 287.038C259.5 287.338 255.1 298.638 254.3 302.538C254 303.838 253.4 304.838 252.9 304.838C252.4 304.838 252 305.338 252 305.938C252 306.538 250.4 310.338 248.5 314.438C246.6 318.438 245 322.238 245 322.838C245 324.838 243 322.738 241.5 319.138C240.7 317.238 240 314.238 240 312.638C240 309.338 237.1 303.138 234.3 300.638C233.3 299.638 230.4 298.238 228 297.338C223.9 295.938 222.8 295.938 215 297.438C210.3 298.338 205.4 299.838 204 300.738C202.6 301.638 200.3 303.038 198.8 303.738C193.4 306.438 185.4 315.138 182.7 321.338C179.8 327.638 179.3 329.038 178.1 333.438C176.7 338.838 176.6 409.438 178 410.338C178.6 410.638 179 412.438 179 414.338C179 416.238 179.4 417.938 179.9 418.338C180.4 418.638 181.1 420.238 181.5 421.838C181.9 423.538 182.5 424.838 182.9 424.838C183.3 424.838 184.3 426.038 185.2 427.638C188 432.138 197 440.838 199 440.838C199.6 440.838 200 441.238 200 441.738C200 442.638 200.8 443.038 207.5 445.238C210.5 446.138 211.6 447.138 211.8 448.938C212 450.238 212.5 451.738 213 452.338C213.6 453.238 215.2 458.038 215.4 460.038C215.5 460.338 215.8 461.038 216.3 461.438C216.7 461.838 217 463.238 217 464.538C217 465.738 217.5 466.838 218 466.838C218.6 466.838 219 467.738 219 468.838C219 469.938 219.4 471.638 219.9 472.638C220.4 473.538 222.1 477.938 223.5 482.338C224.9 486.738 226.5 491.238 227 492.338C227.5 493.438 229 497.738 230.5 501.838C231.9 505.938 233.5 510.138 234.1 511.038C234.6 512.038 235 513.338 235 513.938C235 514.538 235.7 516.638 236.6 518.638C238.2 522.438 239.3 525.038 240.9 529.038C241.3 530.338 242.5 533.038 243.4 535.138C244.3 537.238 245 539.538 245 540.338C245 541.138 245.5 541.838 246 541.838C246.6 541.838 247 542.438 247 543.138C247 543.838 248.1 546.838 249.5 549.638C250.9 552.538 252 555.538 252 556.338C252 557.138 252.3 557.838 252.8 557.838C253.2 557.838 254.2 559.338 254.9 561.138C255.7 562.838 257 564.938 257.7 565.638C258.4 566.338 259 567.638 259 568.438C259 569.238 259.3 569.838 259.8 569.838C260.2 569.838 261.1 571.338 261.9 573.138C263.2 575.938 267.5 582.438 269 583.838C269.4 584.138 270.7 586.138 272 588.238C278.2 598.538 301.8 624.538 314.2 634.838C315.9 636.238 318.1 638.038 319.1 638.938C320.1 639.738 322.1 641.338 323.6 642.438C325 643.438 327.4 645.238 328.9 646.438C337.3 653.138 370.1 671.838 373.5 671.838C374.2 671.838 380.3 674.438 383.2 675.938C384.2 676.438 385.8 676.838 386.8 676.838C387.8 676.838 389 677.238 389.5 677.738C390.1 678.238 392.8 679.138 395.5 679.738C398.3 680.238 401.9 681.038 403.5 681.338C405.2 681.738 407.4 682.338 408.5 682.838C410.8 683.838 414.1 684.238 433.2 685.938C444.1 686.938 449.9 686.938 460.7 685.938C479.9 684.238 483.2 683.838 485.5 682.838C486.6 682.338 488.9 681.738 490.5 681.338C492.2 681.038 495.8 680.238 498.5 679.738C501.3 679.138 503.9 678.238 504.5 677.738C505 677.238 506.2 676.838 507.2 676.838C508.2 676.838 509.8 676.438 510.8 675.938C513.7 674.438 519.8 671.838 520.5 671.838C521.9 671.838 540.6 662.438 545.7 659.138C548.6 657.338 551.4 655.838 552 655.838C552.5 655.838 553 655.438 553 655.038C553 654.538 554.7 653.238 556.8 652.038C558.9 650.938 562.2 648.638 564.2 647.138C566.2 645.638 568.9 643.538 570.2 642.638C574.5 639.538 579.3 635.338 585.7 629.438C589.2 626.238 592.8 622.838 593.8 621.938C596 619.938 608.1 606.038 614.1 598.838C620.1 591.538 631 576.038 631 574.838C631 574.238 631.4 573.838 631.8 573.838C632.2 573.838 633.4 571.838 634.4 569.338C635.5 566.838 636.6 564.838 637 564.838C637.3 564.838 638.2 563.238 639 561.338C639.8 559.438 640.7 557.838 641.2 557.838C641.6 557.838 642 557.138 642 556.338C642 555.538 643.1 552.538 644.5 549.638C645.9 546.838 647 543.838 647 543.138C647 542.438 647.5 541.838 648 541.838C648.6 541.838 649 541.138 649 540.338C649 539.538 649.7 537.238 650.6 535.138C651.5 533.038 652.7 530.338 653.1 529.038C654.7 525.038 655.8 522.438 657.4 518.638C658.3 516.638 659 514.538 659 513.938C659 513.338 659.4 512.038 659.9 511.038C660.5 510.138 662.1 505.938 663.5 501.838C665 497.738 666.5 493.438 667 492.338C667.5 491.238 669.1 486.738 670.5 482.338C671.9 477.938 673.6 473.538 674.1 472.638C674.6 471.638 675 469.938 675 468.838C675 467.738 675.5 466.838 676 466.838C676.6 466.838 677 465.738 677 464.538C677 463.238 677.3 461.838 677.8 461.438C678.2 461.038 678.5 460.338 678.6 460.038C678.8 458.038 680.4 453.238 681 452.338C681.5 451.738 682 450.238 682.2 448.938C682.4 447.138 683.5 446.138 686.5 445.238C693.2 443.038 694 442.638 694 441.738C694 441.238 694.4 440.838 695 440.838C697 440.838 706 432.138 708.8 427.538C709.7 426.038 710.7 424.838 711.1 424.838C711.5 424.838 712.1 423.538 712.5 421.838C712.9 420.238 713.6 418.638 714.1 418.338C714.6 417.938 715 416.238 715 414.438C715 412.738 715.5 410.738 716 410.238C716.7 409.538 716.9 396.438 716.7 371.738C716.3 335.538 715.8 326.838 713.9 326.838C713.4 326.838 713 326.338 713 325.738C713 323.838 709.6 317.438 707.3 314.838C706 313.438 705 312.038 705 311.638C705 310.738 695.6 303.638 691 301.138L687.5 299.138L687 248.738C686.7 221.038 686.1 197.838 685.7 197.138C685.3 196.438 684.5 193.138 684 189.638C683.5 186.138 682.6 181.338 682 178.838C681.4 176.338 680.5 172.538 679.9 170.338C679.4 168.138 678.8 165.838 678.6 165.338C678.5 164.738 678 162.938 677.6 161.338C676.9 158.438 676.4 156.938 674.2 151.838C673.7 150.438 672.6 147.738 672 145.838C670.1 140.538 660.7 121.338 659.8 121.038C659.4 120.838 659 120.238 659 119.738C659 118.738 653 108.938 650.9 106.538C650.4 105.838 647.7 102.438 644.9 98.8383C638.8 91.1383 628.6 80.9383 621 75.1383C618 72.7383 614.4 69.9383 613 68.8383C611.6 67.7383 609.9 66.8383 609.3 66.8383C608.6 66.8383 608 66.4383 608 66.0383C608 65.6383 606.8 64.7383 605.3 64.1383C603.7 63.4383 600.7 61.8383 598.5 60.5383C596.2 59.2383 593.3 57.7383 592 57.3383C590.6 56.9383 587 55.4383 584 54.0383C581 52.6383 576 50.9383 573 50.2383C570 49.5383 565.7 48.4383 563.5 47.8383C561.3 47.1383 557 46.2383 554 45.7383C540.5 43.6383 541.3 44.0383 540.7 39.9383C539 27.0383 525.6 13.5383 508.5 7.43826C505.8 6.43826 502.6 5.33826 501.5 4.83826C500.4 4.33826 498.2 3.73826 496.5 3.33826C494.9 3.03826 491.7 2.23826 489.5 1.63826C485 0.33826 400.9 -0.66174 399.7 0.53826Z" fill="url(#paint1_linear)"/>
<path d="M340 356.438C335.7 357.238 331.4 359.938 329 363.538C325.8 368.238 325.7 377.538 328.8 380.938C330 382.138 331 383.538 331 383.838C331 384.138 332.8 385.438 335.1 386.638C338.4 388.438 340.9 388.838 348.1 388.838H357V391.738C357 393.938 358.1 395.638 361.5 398.638C368.2 404.538 374.5 405.138 381.7 400.438C385.2 398.138 389.5 391.438 388.5 389.838C388.1 389.238 391.1 388.838 396.8 388.838C404.2 388.838 406.6 388.438 409.9 386.638C415.4 383.738 418 379.138 418 372.338C418 365.938 415.8 361.638 410.9 358.438C407.6 356.438 406.4 356.338 375 356.238C357.1 356.138 341.4 356.238 340 356.438Z" fill="url(#paint2_linear)"/>
<path d="M340 356.438C335.7 357.238 331.4 359.938 329 363.538C325.8 368.238 325.7 377.538 328.8 380.938C330 382.138 331 383.538 331 383.838C331 384.138 332.8 385.438 335.1 386.638C338.4 388.438 340.9 388.838 348.1 388.838H357V391.738C357 393.938 358.1 395.638 361.5 398.638C368.2 404.538 374.5 405.138 381.7 400.438C385.2 398.138 389.5 391.438 388.5 389.838C388.1 389.238 391.1 388.838 396.8 388.838C404.2 388.838 406.6 388.438 409.9 386.638C415.4 383.738 418 379.138 418 372.338C418 365.938 415.8 361.638 410.9 358.438C407.6 356.438 406.4 356.338 375 356.238C357.1 356.138 341.4 356.238 340 356.438Z" fill="url(#paint3_linear)"/>
<path d="M489 356.438C484.5 357.238 480 360.238 478 363.638C475.3 368.138 475.3 376.538 478 381.038C481.3 386.638 486.7 388.838 497.2 388.838C502.9 388.838 505.9 389.238 505.5 389.838C504.5 391.438 508.8 398.138 512.3 400.438C519.5 405.138 525.8 404.538 532.5 398.638C535.9 395.638 537 393.938 537 391.738V388.838H545.9C553.1 388.838 555.6 388.438 558.9 386.638C561.2 385.438 563 384.138 563 383.838C563 383.538 564 382.138 565.2 380.938C568.3 377.538 568.2 368.238 565 363.538C560.1 356.338 560.2 356.338 524 356.238C506.1 356.138 490.4 356.238 489 356.438Z" fill="url(#paint4_linear)"/>
<path d="M489 356.438C484.5 357.238 480 360.238 478 363.638C475.3 368.138 475.3 376.538 478 381.038C481.3 386.638 486.7 388.838 497.2 388.838C502.9 388.838 505.9 389.238 505.5 389.838C504.5 391.438 508.8 398.138 512.3 400.438C519.5 405.138 525.8 404.538 532.5 398.638C535.9 395.638 537 393.938 537 391.738V388.838H545.9C553.1 388.838 555.6 388.438 558.9 386.638C561.2 385.438 563 384.138 563 383.838C563 383.538 564 382.138 565.2 380.938C568.3 377.538 568.2 368.238 565 363.538C560.1 356.338 560.2 356.338 524 356.238C506.1 356.138 490.4 356.238 489 356.438Z" fill="url(#paint5_linear)"/>
<path d="M439 477.538C431.2 482.838 428.9 493.138 433.8 500.538C437.8 506.838 449.2 509.238 455.9 505.238C460.4 502.538 464 496.738 464 491.938C464 487.838 462.3 482.838 460.9 482.838C460.5 482.838 459.8 481.938 459.5 480.838C459.2 479.738 458.4 478.838 457.9 478.838C457.3 478.838 456.2 478.138 455.4 477.338C453.2 475.138 442.2 475.338 439 477.538Z" fill="url(#paint6_linear)"/>
<path d="M439 477.538C431.2 482.838 428.9 493.138 433.8 500.538C437.8 506.838 449.2 509.238 455.9 505.238C460.4 502.538 464 496.738 464 491.938C464 487.838 462.3 482.838 460.9 482.838C460.5 482.838 459.8 481.938 459.5 480.838C459.2 479.738 458.4 478.838 457.9 478.838C457.3 478.838 456.2 478.138 455.4 477.338C453.2 475.138 442.2 475.338 439 477.538Z" fill="url(#paint7_linear)"/>
<path d="M394.3 537.138C388.5 541.038 386.7 544.438 386.7 550.838C386.7 559.338 389.9 563.638 401 570.138C408.9 574.738 413.3 576.738 415.2 576.838C416.1 576.838 417.2 577.238 417.5 577.838C417.8 578.338 419.1 578.838 420.4 578.838C421.6 578.838 423 579.238 423.5 579.638C424.1 580.138 429.6 581.138 435.8 581.738C444.7 582.738 449.3 582.738 458.3 581.738C464.4 581.138 469.9 580.138 470.5 579.638C471 579.238 472.4 578.838 473.6 578.838C474.9 578.838 476.2 578.338 476.5 577.838C476.8 577.238 477.9 576.838 478.8 576.838C480.7 576.738 485.1 574.738 493 570.138C504.1 563.638 507.3 559.338 507.3 550.838C507.3 544.238 505.3 540.838 499.2 537.138C493.7 533.738 488.3 534.038 482.1 538.238C475.7 542.538 466.7 546.838 464.1 546.838C463 546.838 461.8 547.238 461.5 547.838C461.1 548.438 455.2 548.838 447 548.838C438.8 548.838 432.9 548.438 432.5 547.838C432.2 547.238 431 546.838 429.9 546.838C427.3 546.838 418.3 542.538 411.9 538.238C405.6 534.038 399.4 533.638 394.3 537.138Z" fill="url(#paint8_linear)"/>
<path d="M394.3 537.138C388.5 541.038 386.7 544.438 386.7 550.838C386.7 559.338 389.9 563.638 401 570.138C408.9 574.738 413.3 576.738 415.2 576.838C416.1 576.838 417.2 577.238 417.5 577.838C417.8 578.338 419.1 578.838 420.4 578.838C421.6 578.838 423 579.238 423.5 579.638C424.1 580.138 429.6 581.138 435.8 581.738C444.7 582.738 449.3 582.738 458.3 581.738C464.4 581.138 469.9 580.138 470.5 579.638C471 579.238 472.4 578.838 473.6 578.838C474.9 578.838 476.2 578.338 476.5 577.838C476.8 577.238 477.9 576.838 478.8 576.838C480.7 576.738 485.1 574.738 493 570.138C504.1 563.638 507.3 559.338 507.3 550.838C507.3 544.238 505.3 540.838 499.2 537.138C493.7 533.738 488.3 534.038 482.1 538.238C475.7 542.538 466.7 546.838 464.1 546.838C463 546.838 461.8 547.238 461.5 547.838C461.1 548.438 455.2 548.838 447 548.838C438.8 548.838 432.9 548.438 432.5 547.838C432.2 547.238 431 546.838 429.9 546.838C427.3 546.838 418.3 542.538 411.9 538.238C405.6 534.038 399.4 533.638 394.3 537.138Z" fill="url(#paint9_linear)"/>
<path d="M340.9 683.938C340.1 684.438 338.6 684.838 337.5 684.838C336.4 684.938 333.6 686.838 331.2 689.138L326.9 693.438L326.3 703.038C325.8 710.638 325.4 712.838 324.1 713.438C323.2 713.838 308.3 714.438 291 714.838C259.4 715.638 226 717.238 218.5 718.438C216.3 718.738 210.7 719.438 206 719.938C185.1 722.138 162.3 725.538 147.5 728.838C144.8 729.438 139.5 730.438 135.8 731.138C132.2 731.838 128.8 732.638 128.4 733.038C128 733.538 126.6 733.838 125.3 733.838C124 733.838 122.2 734.238 121.2 734.738C118.9 735.938 109.1 738.838 107.4 738.838C106.6 738.838 105.2 739.238 104.2 739.738C101.5 741.138 97.9 742.538 92.5 744.438C89.8 745.338 84.2 747.638 80.3 749.438C76.3 751.338 72.6 752.838 72 752.838C71.5 752.838 71 753.238 71 753.738C71 754.238 70.2 754.838 69.3 755.138C66.7 755.938 57 761.638 53.9 764.138C52.4 765.338 49.7 767.438 47.8 768.838C35.9 777.738 20.7 796.938 16.5 808.338C15.5 811.038 14.3 813.738 14 814.338C13.6 814.838 13 816.638 12.7 818.338C12.4 819.938 11.6 823.338 11 825.838C10.4 828.338 9.3 832.838 8.6 835.838C7.9 838.838 7.1 842.038 6.8 842.838C6.4 843.638 5.9 845.438 5.7 846.838C4.6 852.438 1.8 862.438 0.9 864.038C0.4 865.038 0 870.438 0 876.138C0 886.138 0.1 886.438 3.1 890.138L6.1 893.838H14.5C22.2 893.838 23 893.638 25.6 891.038C30 886.938 32.3 880.938 33.7 870.538C34 868.538 34.6 866.838 35.1 866.838C35.6 866.838 36 865.338 36 863.438C36 861.538 36.4 859.738 36.9 859.438C37.4 859.138 38.1 856.138 38.5 852.838C38.9 849.538 39.6 846.538 40.1 846.238C40.6 845.938 41 844.238 41 842.338C41 840.438 41.4 838.738 41.9 838.438C42.4 838.138 43 836.438 43.3 834.638C44.2 829.038 46.1 822.338 47.1 821.338C47.6 820.838 48 819.838 48 819.138C48 815.238 58.9 801.738 68.2 794.138C75.6 788.038 94.7 778.038 106 774.238C109 773.238 111.9 772.038 112.4 771.638C113 771.238 114.4 770.838 115.5 770.838C116.7 770.838 118 770.538 118.4 770.138C118.8 769.638 121.5 768.738 124.3 768.038C134.9 765.338 136.6 764.938 140.5 763.838C144.1 762.838 147.9 762.038 166 758.738C177.8 756.638 204.6 753.138 220.5 751.738C248.2 749.338 256.1 748.838 279.5 747.938C316.3 746.538 327.6 746.538 327.8 748.038C328.2 751.438 330 759.738 331 763.338C331.6 765.538 332.2 767.838 332.3 768.538C332.5 769.238 332.9 770.138 333.3 770.438C333.7 770.838 334 772.038 334 773.038C334 774.038 334.4 775.638 334.9 776.638C335.4 777.538 338 782.838 340.7 788.338C343.3 793.838 345.8 798.738 346.2 799.338C346.7 799.838 348.7 802.738 350.8 805.638C354.6 810.838 363.5 820.338 368.1 824.338C375.3 830.538 388.8 838.538 397.5 841.838C404.4 844.538 408.8 845.838 410.6 845.838C411.7 845.838 413 846.238 413.5 846.738C414.7 847.838 419.6 848.538 435.2 849.938C449.4 851.238 477.9 849.238 480.5 846.738C481 846.238 482.3 845.838 483.4 845.838C485.2 845.838 489.6 844.538 496.5 841.838C505.3 838.538 518.9 830.638 524.9 825.338C535.7 815.938 546.7 802.738 550.1 795.038C550.9 793.238 551.8 791.838 552.2 791.838C552.7 791.838 553 791.238 553 790.438C553 789.738 554.1 787.038 555.4 784.538C557.5 780.638 560.6 772.838 561.4 769.338C561.6 768.738 562 766.938 562.4 765.338C562.8 763.638 563.5 761.438 564 760.338C564.8 758.638 565.6 754.338 566.2 748.738C566.4 747.238 568.5 747.138 587.5 747.438C599 747.738 611.7 748.138 615.5 748.438C619.4 748.738 628.4 749.338 635.5 749.938C659.5 751.638 688.7 754.838 700.3 756.838C703.4 757.338 708.4 758.238 711.3 758.738C725.5 761.238 739.5 764.138 745.5 765.838C747.7 766.438 752.1 767.538 755.2 768.138C758.3 768.838 761.2 769.638 761.6 770.138C762 770.538 763.4 770.838 764.6 770.838C765.9 770.838 767.2 771.238 767.5 771.838C767.8 772.338 769.2 772.838 770.5 772.838C771.8 772.838 773.1 773.238 773.4 773.738C773.7 774.238 775.6 774.938 777.6 775.338C779.6 775.638 782 776.338 782.9 776.838C783.8 777.238 785.6 778.038 787 778.538C789.4 779.538 792.1 780.638 798.5 783.338C808.3 787.338 823.7 796.138 829.8 801.138C840.7 810.038 847.7 819.438 848.7 826.338C849 828.838 849.7 831.138 850.1 831.438C850.6 831.738 851 833.538 851 835.438C851 837.338 851.5 838.838 852 838.838C852.6 838.838 853 840.338 853 842.238C853 844.138 853.4 845.938 853.9 846.238C854.4 846.538 855.1 849.538 855.5 852.838C855.9 856.138 856.6 859.138 857.1 859.438C857.6 859.738 858 861.538 858 863.438C858 865.338 858.4 866.838 858.9 866.838C859.4 866.838 860 868.538 860.3 870.638C861.4 878.138 863.4 885.838 864.2 885.838C864.6 885.838 865 886.438 865 887.138C865 887.838 866.4 889.638 868.1 891.138C870.9 893.638 871.9 893.838 879.5 893.838H887.9L890.9 890.138C893.9 886.438 894 886.138 894 876.138C894 870.438 893.6 865.038 893.1 864.038C892.6 863.138 891.7 860.338 891 857.838C890.4 855.338 889.4 851.938 888.9 850.238C888.4 848.538 888 846.338 888 845.138C888 844.038 887.7 842.838 887.3 842.438C886.6 841.738 884.6 833.738 883.3 826.038C883 824.238 882.4 822.538 881.9 822.238C881.4 821.938 881 820.438 881 818.938C881 817.438 879.9 813.838 878.5 811.038C877.1 808.138 876 805.638 876 805.338C876 803.438 867.2 792.238 860.9 786.138C852 777.538 847.7 773.938 838.8 768.138C833.1 764.438 828.9 762.038 817.2 755.938C813.3 753.838 803.9 749.838 803 749.838C802.4 749.838 801.2 749.438 800.2 748.938C797.3 747.438 793.7 746.138 788 744.238C785 743.238 782.1 742.038 781.5 741.638C781 741.238 779.6 740.838 778.4 740.838C777.1 740.838 775.9 740.438 775.6 739.938C775.3 739.538 773.1 738.838 770.8 738.438C766.6 737.738 761.7 736.438 757.5 734.738C755.4 733.938 754 733.638 742 731.238C737.9 730.438 732.5 729.338 730 728.738C724.1 727.438 716.8 726.138 704.5 724.238C679.9 720.538 665.1 718.938 644 717.838C633.8 717.238 622.5 716.338 618.7 715.838C615 715.238 602.1 714.838 590.1 714.838H568.3L567.7 704.138L567.2 693.438L562.8 689.338C557.6 684.238 553.7 683.038 547.5 684.438C543.1 685.438 540.1 687.738 537.4 692.038C535.1 695.638 535 696.438 535 715.838C535 726.838 534.6 737.738 534 740.038C533.5 742.438 532.6 746.838 532.1 749.838C530.8 757.238 529.6 761.738 527.7 765.838C521.3 779.938 519.8 782.638 514.1 789.938C509.6 795.638 498.9 804.438 493 807.138C490.5 808.238 488.3 809.538 488 809.838C487.5 810.438 479.5 812.938 472 814.838C455.3 819.038 436.4 818.638 417 813.638C410.6 811.938 397.9 806.038 393.5 802.638C387.6 798.138 378.3 788.238 374.9 782.838C371.5 777.538 368 770.638 368 769.438C368 769.138 367.2 766.938 366.2 764.538C361 752.838 359.9 744.638 359.3 716.838C358.9 695.438 358.9 695.338 356.2 691.538C352.6 686.338 343.9 682.038 340.9 683.938Z" fill="url(#paint10_linear)"/>
<path d="M340.9 683.938C340.1 684.438 338.6 684.838 337.5 684.838C336.4 684.938 333.6 686.838 331.2 689.138L326.9 693.438L326.3 703.038C325.8 710.638 325.4 712.838 324.1 713.438C323.2 713.838 308.3 714.438 291 714.838C259.4 715.638 226 717.238 218.5 718.438C216.3 718.738 210.7 719.438 206 719.938C185.1 722.138 162.3 725.538 147.5 728.838C144.8 729.438 139.5 730.438 135.8 731.138C132.2 731.838 128.8 732.638 128.4 733.038C128 733.538 126.6 733.838 125.3 733.838C124 733.838 122.2 734.238 121.2 734.738C118.9 735.938 109.1 738.838 107.4 738.838C106.6 738.838 105.2 739.238 104.2 739.738C101.5 741.138 97.9 742.538 92.5 744.438C89.8 745.338 84.2 747.638 80.3 749.438C76.3 751.338 72.6 752.838 72 752.838C71.5 752.838 71 753.238 71 753.738C71 754.238 70.2 754.838 69.3 755.138C66.7 755.938 57 761.638 53.9 764.138C52.4 765.338 49.7 767.438 47.8 768.838C35.9 777.738 20.7 796.938 16.5 808.338C15.5 811.038 14.3 813.738 14 814.338C13.6 814.838 13 816.638 12.7 818.338C12.4 819.938 11.6 823.338 11 825.838C10.4 828.338 9.3 832.838 8.6 835.838C7.9 838.838 7.1 842.038 6.8 842.838C6.4 843.638 5.9 845.438 5.7 846.838C4.6 852.438 1.8 862.438 0.9 864.038C0.4 865.038 0 870.438 0 876.138C0 886.138 0.1 886.438 3.1 890.138L6.1 893.838H14.5C22.2 893.838 23 893.638 25.6 891.038C30 886.938 32.3 880.938 33.7 870.538C34 868.538 34.6 866.838 35.1 866.838C35.6 866.838 36 865.338 36 863.438C36 861.538 36.4 859.738 36.9 859.438C37.4 859.138 38.1 856.138 38.5 852.838C38.9 849.538 39.6 846.538 40.1 846.238C40.6 845.938 41 844.238 41 842.338C41 840.438 41.4 838.738 41.9 838.438C42.4 838.138 43 836.438 43.3 834.638C44.2 829.038 46.1 822.338 47.1 821.338C47.6 820.838 48 819.838 48 819.138C48 815.238 58.9 801.738 68.2 794.138C75.6 788.038 94.7 778.038 106 774.238C109 773.238 111.9 772.038 112.4 771.638C113 771.238 114.4 770.838 115.5 770.838C116.7 770.838 118 770.538 118.4 770.138C118.8 769.638 121.5 768.738 124.3 768.038C134.9 765.338 136.6 764.938 140.5 763.838C144.1 762.838 147.9 762.038 166 758.738C177.8 756.638 204.6 753.138 220.5 751.738C248.2 749.338 256.1 748.838 279.5 747.938C316.3 746.538 327.6 746.538 327.8 748.038C328.2 751.438 330 759.738 331 763.338C331.6 765.538 332.2 767.838 332.3 768.538C332.5 769.238 332.9 770.138 333.3 770.438C333.7 770.838 334 772.038 334 773.038C334 774.038 334.4 775.638 334.9 776.638C335.4 777.538 338 782.838 340.7 788.338C343.3 793.838 345.8 798.738 346.2 799.338C346.7 799.838 348.7 802.738 350.8 805.638C354.6 810.838 363.5 820.338 368.1 824.338C375.3 830.538 388.8 838.538 397.5 841.838C404.4 844.538 408.8 845.838 410.6 845.838C411.7 845.838 413 846.238 413.5 846.738C414.7 847.838 419.6 848.538 435.2 849.938C449.4 851.238 477.9 849.238 480.5 846.738C481 846.238 482.3 845.838 483.4 845.838C485.2 845.838 489.6 844.538 496.5 841.838C505.3 838.538 518.9 830.638 524.9 825.338C535.7 815.938 546.7 802.738 550.1 795.038C550.9 793.238 551.8 791.838 552.2 791.838C552.7 791.838 553 791.238 553 790.438C553 789.738 554.1 787.038 555.4 784.538C557.5 780.638 560.6 772.838 561.4 769.338C561.6 768.738 562 766.938 562.4 765.338C562.8 763.638 563.5 761.438 564 760.338C564.8 758.638 565.6 754.338 566.2 748.738C566.4 747.238 568.5 747.138 587.5 747.438C599 747.738 611.7 748.138 615.5 748.438C619.4 748.738 628.4 749.338 635.5 749.938C659.5 751.638 688.7 754.838 700.3 756.838C703.4 757.338 708.4 758.238 711.3 758.738C725.5 761.238 739.5 764.138 745.5 765.838C747.7 766.438 752.1 767.538 755.2 768.138C758.3 768.838 761.2 769.638 761.6 770.138C762 770.538 763.4 770.838 764.6 770.838C765.9 770.838 767.2 771.238 767.5 771.838C767.8 772.338 769.2 772.838 770.5 772.838C771.8 772.838 773.1 773.238 773.4 773.738C773.7 774.238 775.6 774.938 777.6 775.338C779.6 775.638 782 776.338 782.9 776.838C783.8 777.238 785.6 778.038 787 778.538C789.4 779.538 792.1 780.638 798.5 783.338C808.3 787.338 823.7 796.138 829.8 801.138C840.7 810.038 847.7 819.438 848.7 826.338C849 828.838 849.7 831.138 850.1 831.438C850.6 831.738 851 833.538 851 835.438C851 837.338 851.5 838.838 852 838.838C852.6 838.838 853 840.338 853 842.238C853 844.138 853.4 845.938 853.9 846.238C854.4 846.538 855.1 849.538 855.5 852.838C855.9 856.138 856.6 859.138 857.1 859.438C857.6 859.738 858 861.538 858 863.438C858 865.338 858.4 866.838 858.9 866.838C859.4 866.838 860 868.538 860.3 870.638C861.4 878.138 863.4 885.838 864.2 885.838C864.6 885.838 865 886.438 865 887.138C865 887.838 866.4 889.638 868.1 891.138C870.9 893.638 871.9 893.838 879.5 893.838H887.9L890.9 890.138C893.9 886.438 894 886.138 894 876.138C894 870.438 893.6 865.038 893.1 864.038C892.6 863.138 891.7 860.338 891 857.838C890.4 855.338 889.4 851.938 888.9 850.238C888.4 848.538 888 846.338 888 845.138C888 844.038 887.7 842.838 887.3 842.438C886.6 841.738 884.6 833.738 883.3 826.038C883 824.238 882.4 822.538 881.9 822.238C881.4 821.938 881 820.438 881 818.938C881 817.438 879.9 813.838 878.5 811.038C877.1 808.138 876 805.638 876 805.338C876 803.438 867.2 792.238 860.9 786.138C852 777.538 847.7 773.938 838.8 768.138C833.1 764.438 828.9 762.038 817.2 755.938C813.3 753.838 803.9 749.838 803 749.838C802.4 749.838 801.2 749.438 800.2 748.938C797.3 747.438 793.7 746.138 788 744.238C785 743.238 782.1 742.038 781.5 741.638C781 741.238 779.6 740.838 778.4 740.838C777.1 740.838 775.9 740.438 775.6 739.938C775.3 739.538 773.1 738.838 770.8 738.438C766.6 737.738 761.7 736.438 757.5 734.738C755.4 733.938 754 733.638 742 731.238C737.9 730.438 732.5 729.338 730 728.738C724.1 727.438 716.8 726.138 704.5 724.238C679.9 720.538 665.1 718.938 644 717.838C633.8 717.238 622.5 716.338 618.7 715.838C615 715.238 602.1 714.838 590.1 714.838H568.3L567.7 704.138L567.2 693.438L562.8 689.338C557.6 684.238 553.7 683.038 547.5 684.438C543.1 685.438 540.1 687.738 537.4 692.038C535.1 695.638 535 696.438 535 715.838C535 726.838 534.6 737.738 534 740.038C533.5 742.438 532.6 746.838 532.1 749.838C530.8 757.238 529.6 761.738 527.7 765.838C521.3 779.938 519.8 782.638 514.1 789.938C509.6 795.638 498.9 804.438 493 807.138C490.5 808.238 488.3 809.538 488 809.838C487.5 810.438 479.5 812.938 472 814.838C455.3 819.038 436.4 818.638 417 813.638C410.6 811.938 397.9 806.038 393.5 802.638C387.6 798.138 378.3 788.238 374.9 782.838C371.5 777.538 368 770.638 368 769.438C368 769.138 367.2 766.938 366.2 764.538C361 752.838 359.9 744.638 359.3 716.838C358.9 695.438 358.9 695.338 356.2 691.538C352.6 686.338 343.9 682.038 340.9 683.938Z" fill="url(#paint11_linear)"/>
<defs>
<linearGradient id="paint0_linear" x1="447" y1="-0.000244141" x2="447" y2="893.838" gradientUnits="userSpaceOnUse">
<stop stop-color="#771CD1"/>
<stop offset="1" stop-color="#771CD1" stop-opacity="0"/>
</linearGradient>
<linearGradient id="paint1_linear" x1="447" y1="-0.000244141" x2="447" y2="893.838" gradientUnits="userSpaceOnUse">
<stop stop-color="#8E06C2"/>
<stop offset="0.833333" stop-color="#4B44AD"/>
</linearGradient>
<linearGradient id="paint2_linear" x1="447" y1="-0.000244141" x2="447" y2="893.838" gradientUnits="userSpaceOnUse">
<stop stop-color="#771CD1"/>
<stop offset="1" stop-color="#771CD1" stop-opacity="0"/>
</linearGradient>
<linearGradient id="paint3_linear" x1="447" y1="-0.000244141" x2="447" y2="893.838" gradientUnits="userSpaceOnUse">
<stop stop-color="#8E06C2"/>
<stop offset="0.833333" stop-color="#4B44AD"/>
</linearGradient>
<linearGradient id="paint4_linear" x1="447" y1="-0.000244141" x2="447" y2="893.838" gradientUnits="userSpaceOnUse">
<stop stop-color="#771CD1"/>
<stop offset="1" stop-color="#771CD1" stop-opacity="0"/>
</linearGradient>
<linearGradient id="paint5_linear" x1="447" y1="-0.000244141" x2="447" y2="893.838" gradientUnits="userSpaceOnUse">
<stop stop-color="#8E06C2"/>
<stop offset="0.833333" stop-color="#4B44AD"/>
</linearGradient>
<linearGradient id="paint6_linear" x1="447" y1="-0.000244141" x2="447" y2="893.838" gradientUnits="userSpaceOnUse">
<stop stop-color="#771CD1"/>
<stop offset="1" stop-color="#771CD1" stop-opacity="0"/>
</linearGradient>
<linearGradient id="paint7_linear" x1="447" y1="-0.000244141" x2="447" y2="893.838" gradientUnits="userSpaceOnUse">
<stop stop-color="#8E06C2"/>
<stop offset="0.833333" stop-color="#4B44AD"/>
</linearGradient>
<linearGradient id="paint8_linear" x1="447" y1="-0.000244141" x2="447" y2="893.838" gradientUnits="userSpaceOnUse">
<stop stop-color="#771CD1"/>
<stop offset="1" stop-color="#771CD1" stop-opacity="0"/>
</linearGradient>
<linearGradient id="paint9_linear" x1="447" y1="-0.000244141" x2="447" y2="893.838" gradientUnits="userSpaceOnUse">
<stop stop-color="#8E06C2"/>
<stop offset="0.833333" stop-color="#4B44AD"/>
</linearGradient>
<linearGradient id="paint10_linear" x1="447" y1="-0.000244141" x2="447" y2="893.838" gradientUnits="userSpaceOnUse">
<stop stop-color="#771CD1"/>
<stop offset="1" stop-color="#771CD1" stop-opacity="0"/>
</linearGradient>
<linearGradient id="paint11_linear" x1="447" y1="-0.000244141" x2="447" y2="893.838" gradientUnits="userSpaceOnUse">
<stop stop-color="#8E06C2"/>
<stop offset="0.833333" stop-color="#4B44AD"/>
</linearGradient>
</defs>
</svg>
