<svg width="841" height="731" viewBox="0 0 841 731" fill="none" xmlns="http://www.w3.org/2000/svg">
<g clip-path="url(#clip0_12_61)">
<path d="M5.7 1.85078C-0.4 5.95078 0.1 -8.54922 0 182.851C0 296.351 0.3 358.851 1 360.051C4.3 366.151 16.5 368.151 23.3 363.551C25.3 362.151 27 360.351 27 359.551C27 358.751 27.5 358.051 28 358.051C28.7 358.051 29 307.451 29 208.251V58.5508H812V623.551L815 627.151C820.5 633.851 831.8 634.351 838.3 628.251L841 625.651V316.651C840.9 26.0508 840.8 7.45078 839.2 5.55078C835.8 1.45078 832.7 0.0507812 827 0.0507812C823.4 0.0507812 820.6 0.650781 819 1.75078C815.5 4.15078 814 5.75078 814 6.95078C814 7.55078 813.6 8.05078 813 8.05078C812.4 8.05078 812 12.0508 812 18.0508V28.0508H29V18.0508C29 12.0508 28.6 8.05078 28 8.05078C27.5 8.05078 27 7.55078 27 6.95078C27 5.75078 25.5 4.15078 22 1.75078C18.6 -0.649219 9.4 -0.549219 5.7 1.85078Z" fill="url(#paint0_linear_12_61)"/>
<path d="M5.7 1.85078C-0.4 5.95078 0.1 -8.54922 0 182.851C0 296.351 0.3 358.851 1 360.051C4.3 366.151 16.5 368.151 23.3 363.551C25.3 362.151 27 360.351 27 359.551C27 358.751 27.5 358.051 28 358.051C28.7 358.051 29 307.451 29 208.251V58.5508H812V623.551L815 627.151C820.5 633.851 831.8 634.351 838.3 628.251L841 625.651V316.651C840.9 26.0508 840.8 7.45078 839.2 5.55078C835.8 1.45078 832.7 0.0507812 827 0.0507812C823.4 0.0507812 820.6 0.650781 819 1.75078C815.5 4.15078 814 5.75078 814 6.95078C814 7.55078 813.6 8.05078 813 8.05078C812.4 8.05078 812 12.0508 812 18.0508V28.0508H29V18.0508C29 12.0508 28.6 8.05078 28 8.05078C27.5 8.05078 27 7.55078 27 6.95078C27 5.75078 25.5 4.15078 22 1.75078C18.6 -0.649219 9.4 -0.549219 5.7 1.85078Z" fill="url(#paint1_linear_12_61)"/>
<path d="M232.5 84.5507C228.4 86.3507 224.9 90.2507 223.3 94.8507C222.3 97.8507 222 148.751 222 365.651C222 660.051 221.5 636.651 228.1 643.051C233.4 648.051 241.4 648.251 247.6 643.551C254.6 638.251 254 663.651 254 365.451C254 155.651 253.7 95.5507 252.8 93.3507C251.1 89.6507 247.6 86.3507 243.3 84.5507C239.1 82.7507 236.5 82.7507 232.5 84.5507Z" fill="url(#paint2_linear_12_61)"/>
<path d="M232.5 84.5507C228.4 86.3507 224.9 90.2507 223.3 94.8507C222.3 97.8507 222 148.751 222 365.651C222 660.051 221.5 636.651 228.1 643.051C233.4 648.051 241.4 648.251 247.6 643.551C254.6 638.251 254 663.651 254 365.451C254 155.651 253.7 95.5507 252.8 93.3507C251.1 89.6507 247.6 86.3507 243.3 84.5507C239.1 82.7507 236.5 82.7507 232.5 84.5507Z" fill="url(#paint3_linear_12_61)"/>
<path d="M596.6 85.0509C592.1 87.3509 590 89.3509 588.2 93.3509C587.3 95.5509 587 152.951 587 365.451C587 664.751 586.4 638.151 593.7 643.851C596.7 646.051 598.4 646.551 602.9 646.551C609.6 646.551 613.8 644.051 616.6 638.351C618.4 634.651 618.5 626.251 618.8 366.551C619 123.751 618.9 98.1509 617.4 94.5509C615.4 89.5509 612.4 86.2509 608.1 84.4509C603.7 82.6509 601.3 82.7509 596.6 85.0509Z" fill="url(#paint4_linear_12_61)"/>
<path d="M596.6 85.0509C592.1 87.3509 590 89.3509 588.2 93.3509C587.3 95.5509 587 152.951 587 365.451C587 664.751 586.4 638.151 593.7 643.851C596.7 646.051 598.4 646.551 602.9 646.551C609.6 646.551 613.8 644.051 616.6 638.351C618.4 634.651 618.5 626.251 618.8 366.551C619 123.751 618.9 98.1509 617.4 94.5509C615.4 89.5509 612.4 86.2509 608.1 84.4509C603.7 82.6509 601.3 82.7509 596.6 85.0509Z" fill="url(#paint5_linear_12_61)"/>
<path d="M94.5 140.051C94.2 140.551 93.1 141.051 92.1 141.051C91.1 141.051 88.6 142.851 86.6 145.051L83 149.051V244.951L86.1 248.451C91.8 255.051 92 255.051 126.1 255.051C156.7 255.051 157 255.051 161.2 252.651C163.7 251.251 166.4 248.651 167.7 246.451C170 242.551 170 242.351 170 197.051C170 151.751 170 151.551 167.7 147.651C166.4 145.451 163.7 142.851 161.2 141.451C157 139.051 156.7 139.051 126 139.051C106.5 139.051 94.9 139.451 94.5 140.051ZM139 223.051H114V171.051H139V223.051Z" fill="url(#paint6_linear_12_61)"/>
<path d="M94.5 140.051C94.2 140.551 93.1 141.051 92.1 141.051C91.1 141.051 88.6 142.851 86.6 145.051L83 149.051V244.951L86.1 248.451C91.8 255.051 92 255.051 126.1 255.051C156.7 255.051 157 255.051 161.2 252.651C163.7 251.251 166.4 248.651 167.7 246.451C170 242.551 170 242.351 170 197.051C170 151.751 170 151.551 167.7 147.651C166.4 145.451 163.7 142.851 161.2 141.451C157 139.051 156.7 139.051 126 139.051C106.5 139.051 94.9 139.451 94.5 140.051ZM139 223.051H114V171.051H139V223.051Z" fill="url(#paint7_linear_12_61)"/>
<path d="M315.6 141.451C306.3 146.851 306 148.451 306 197.051C306 239.851 306.3 243.051 310.7 248.851C315.2 254.751 317 255.051 350.6 255.051C379.6 255.051 381.1 254.951 384.7 252.951C388.9 250.651 391.2 248.451 392.9 245.351C394.6 242.151 394.5 151.851 392.8 148.851C390.7 145.251 388.7 143.351 384.7 141.151C381.1 139.151 379.7 139.051 350.2 139.151C320.1 139.151 319.4 139.251 315.6 141.451ZM363 223.051H338V171.051H363V223.051Z" fill="url(#paint8_linear_12_61)"/>
<path d="M315.6 141.451C306.3 146.851 306 148.451 306 197.051C306 239.851 306.3 243.051 310.7 248.851C315.2 254.751 317 255.051 350.6 255.051C379.6 255.051 381.1 254.951 384.7 252.951C388.9 250.651 391.2 248.451 392.9 245.351C394.6 242.151 394.5 151.851 392.8 148.851C390.7 145.251 388.7 143.351 384.7 141.151C381.1 139.151 379.7 139.051 350.2 139.151C320.1 139.151 319.4 139.251 315.6 141.451ZM363 223.051H338V171.051H363V223.051Z" fill="url(#paint9_linear_12_61)"/>
<path d="M456 141.251C452.2 143.451 450.2 145.351 448.3 148.851C446.5 151.851 446.4 242.151 448.1 245.351C449.8 248.451 452.1 250.651 456.3 252.951C459.9 254.951 461.4 255.051 490.4 255.051C524 255.051 525.8 254.751 530.3 248.851C534.7 243.051 535 239.851 535 197.051C535 148.251 534.7 146.451 525 141.251C520.9 139.151 520.1 139.051 490.2 139.151C461.2 139.151 459.3 139.351 456 141.251ZM503 223.051H478V171.051H503V223.051Z" fill="url(#paint10_linear_12_61)"/>
<path d="M456 141.251C452.2 143.451 450.2 145.351 448.3 148.851C446.5 151.851 446.4 242.151 448.1 245.351C449.8 248.451 452.1 250.651 456.3 252.951C459.9 254.951 461.4 255.051 490.4 255.051C524 255.051 525.8 254.751 530.3 248.851C534.7 243.051 535 239.851 535 197.051C535 148.251 534.7 146.451 525 141.251C520.9 139.151 520.1 139.051 490.2 139.151C461.2 139.151 459.3 139.351 456 141.251ZM503 223.051H478V171.051H503V223.051Z" fill="url(#paint11_linear_12_61)"/>
<path d="M679.5 141.451C677.3 142.751 674.5 145.551 673.3 147.651C671 151.551 671 151.751 671 197.051C671 242.351 671 242.551 673.3 246.451C674.6 248.651 677.3 251.251 679.8 252.651C684 255.051 684.3 255.051 714.9 255.051C749 255.051 749.2 255.051 754.9 248.451L758 244.951V149.051L754.4 145.051C752.4 142.851 749.9 141.051 748.9 141.051C747.9 141.051 746.8 140.551 746.5 140.051C746.1 139.451 734.5 139.051 714.7 139.151C684 139.151 683.4 139.251 679.5 141.451ZM727 223.051H702V171.051H727V223.051Z" fill="url(#paint12_linear_12_61)"/>
<path d="M679.5 141.451C677.3 142.751 674.5 145.551 673.3 147.651C671 151.551 671 151.751 671 197.051C671 242.351 671 242.551 673.3 246.451C674.6 248.651 677.3 251.251 679.8 252.651C684 255.051 684.3 255.051 714.9 255.051C749 255.051 749.2 255.051 754.9 248.451L758 244.951V149.051L754.4 145.051C752.4 142.851 749.9 141.051 748.9 141.051C747.9 141.051 746.8 140.551 746.5 140.051C746.1 139.451 734.5 139.051 714.7 139.151C684 139.151 683.4 139.251 679.5 141.451ZM727 223.051H702V171.051H727V223.051Z" fill="url(#paint13_linear_12_61)"/>
<path d="M96 307.951C91 308.951 88.5 310.551 85.5 314.451C83 317.751 83 317.851 83 337.151C83 354.451 83.2 356.851 84.9 359.451C88 364.051 91.8 366.051 98 366.051C109.4 366.051 114.8 358.451 113.9 343.351L113.6 338.551L138.9 337.951L139.2 375.751C139.5 411.751 139.6 413.651 141.5 416.251C144.6 420.351 148.3 422.051 154 422.051C160.6 422.051 165.3 419.351 168 413.951C169.9 410.351 170 407.951 170 365.751C170 318.051 169.9 317.051 164.8 312.451C159.6 307.651 159.1 307.551 128.5 307.351C112.6 307.251 97.9 307.551 96 307.951Z" fill="url(#paint14_linear_12_61)"/>
<path d="M96 307.951C91 308.951 88.5 310.551 85.5 314.451C83 317.751 83 317.851 83 337.151C83 354.451 83.2 356.851 84.9 359.451C88 364.051 91.8 366.051 98 366.051C109.4 366.051 114.8 358.451 113.9 343.351L113.6 338.551L138.9 337.951L139.2 375.751C139.5 411.751 139.6 413.651 141.5 416.251C144.6 420.351 148.3 422.051 154 422.051C160.6 422.051 165.3 419.351 168 413.951C169.9 410.351 170 407.951 170 365.751C170 318.051 169.9 317.051 164.8 312.451C159.6 307.651 159.1 307.551 128.5 307.351C112.6 307.251 97.9 307.551 96 307.951Z" fill="url(#paint15_linear_12_61)"/>
<path d="M318.7 308.451C312.9 310.051 308.9 314.251 307.2 320.451C306.4 323.751 306 336.851 306 365.851C306 411.551 306.2 413.451 312.6 419.051L316.1 422.051H384.8L388 419.451C394.1 414.251 394 415.451 394 365.651C394 317.951 393.9 316.951 389.5 312.551C384.8 307.851 383.1 307.551 352.5 307.351C331 307.151 322.3 307.451 318.7 308.451ZM363 392.051H337.5L338.1 338.051H363V392.051Z" fill="url(#paint16_linear_12_61)"/>
<path d="M318.7 308.451C312.9 310.051 308.9 314.251 307.2 320.451C306.4 323.751 306 336.851 306 365.851C306 411.551 306.2 413.451 312.6 419.051L316.1 422.051H384.8L388 419.451C394.1 414.251 394 415.451 394 365.651C394 317.951 393.9 316.951 389.5 312.551C384.8 307.851 383.1 307.551 352.5 307.351C331 307.151 322.3 307.451 318.7 308.451ZM363 392.051H337.5L338.1 338.051H363V392.051Z" fill="url(#paint17_linear_12_61)"/>
<path d="M461.5 307.751C455.2 309.151 451.1 311.951 448.3 316.851C447.3 318.451 447 330.051 447 365.051C447 415.551 446.9 414.251 453 419.451L456.2 422.051H525L528.8 418.651C531.3 416.351 532.9 413.751 533.8 410.651C535.5 404.051 535.5 326.951 533.8 320.351C532 313.851 527.5 309.551 521.1 308.151C516.1 307.151 466 306.751 461.5 307.751ZM503.5 392.051H478V338.051H502.9L503.5 392.051Z" fill="url(#paint18_linear_12_61)"/>
<path d="M461.5 307.751C455.2 309.151 451.1 311.951 448.3 316.851C447.3 318.451 447 330.051 447 365.051C447 415.551 446.9 414.251 453 419.451L456.2 422.051H525L528.8 418.651C531.3 416.351 532.9 413.751 533.8 410.651C535.5 404.051 535.5 326.951 533.8 320.351C532 313.851 527.5 309.551 521.1 308.151C516.1 307.151 466 306.751 461.5 307.751ZM503.5 392.051H478V338.051H502.9L503.5 392.051Z" fill="url(#paint19_linear_12_61)"/>
<path d="M686.5 307.551C686 307.751 684.3 308.151 682.8 308.451C681.4 308.751 678.8 310.251 677 311.651C671 316.751 671 316.951 671 365.751C671 416.251 670.8 414.651 679 420.351C681.2 421.851 685 422.051 715 422.051C752.2 422.051 751.9 422.051 756.1 415.151C757.9 412.151 758 409.551 758 364.851V317.751L755.4 314.351C750.3 307.651 749.7 307.551 717 307.351C700.8 307.251 687.1 307.251 686.5 307.551ZM727.5 392.051H702V337.951L727.1 338.551L727.5 392.051Z" fill="url(#paint20_linear_12_61)"/>
<path d="M686.5 307.551C686 307.751 684.3 308.151 682.8 308.451C681.4 308.751 678.8 310.251 677 311.651C671 316.751 671 316.951 671 365.751C671 416.251 670.8 414.651 679 420.351C681.2 421.851 685 422.051 715 422.051C752.2 422.051 751.9 422.051 756.1 415.151C757.9 412.151 758 409.551 758 364.851V317.751L755.4 314.351C750.3 307.651 749.7 307.551 717 307.351C700.8 307.251 687.1 307.251 686.5 307.551ZM727.5 392.051H702V337.951L727.1 338.551L727.5 392.051Z" fill="url(#paint21_linear_12_61)"/>
<path d="M60.0001 392.951C59.2001 393.351 55.9001 395.051 52.6001 396.551C45.6001 399.951 36.6001 408.451 31.2001 416.651C30.6001 417.651 29.7001 419.251 29.3001 420.051C28.9001 420.851 28.4001 421.751 28.0001 422.051C25.8001 423.751 15.6001 448.851 14.4001 455.551C14.0001 457.751 13.4001 459.751 13.0001 460.051C12.7001 460.351 11.8001 463.251 11.2001 466.551C10.5001 469.851 9.5001 474.551 8.9001 477.051C8.3001 479.551 7.3001 485.151 6.6001 489.551C5.9001 493.951 5.1001 498.251 4.8001 499.051C4.4001 499.851 3.9001 503.251 3.5001 506.551C3.2001 509.851 2.4001 515.651 1.8001 519.551C0.400097 529.351 -0.399903 596.051 1.0001 596.051C1.5001 596.051 2.0001 597.151 2.0001 598.551C2.0001 599.951 2.3001 601.051 2.8001 601.051C3.2001 601.051 4.3001 603.151 5.4001 605.651C8.1001 612.251 13.4001 619.751 20.1001 626.251C28.6001 634.651 39.2001 640.851 51.5001 644.651L54.5001 645.551L55.0001 683.651C55.5001 724.251 55.3001 722.451 60.7001 727.751C62.6001 729.751 64.0001 730.051 70.3001 730.051H77.7001L81.6001 725.851L85.5001 721.551L85.7001 683.551L86.0001 645.551L88.7001 644.651C90.3001 644.151 92.4001 643.451 93.5001 642.951C94.6001 642.551 97.1001 641.451 99.2001 640.651C111.6 635.751 128.3 620.251 133.1 609.251C133.9 607.551 134.8 606.051 135.2 606.051C135.5 606.051 136.2 604.651 136.5 602.851C136.9 601.051 137.6 598.951 138 598.051C141.5 591.051 142.4 578.451 141 555.551C139.8 535.851 138.8 525.251 136.6 508.551C134.5 492.951 131.2 475.051 129 467.551C128.4 465.351 127.4 461.551 126.9 459.051C126.3 456.551 125.5 453.651 125 452.551C124.5 451.451 123.4 448.251 122.5 445.551C121.6 442.751 120.1 438.651 119 436.451C118 434.151 116.8 431.051 116.4 429.651C116.1 428.251 115.4 427.051 114.9 427.051C114.4 427.051 114 426.651 114 426.151C114 423.651 105.8 411.851 99.9001 406.051C91.9001 398.051 92.0001 398.151 84.2001 394.751C79.0001 392.551 76.5001 392.051 69.7001 392.151C65.2001 392.151 60.8001 392.551 60.0001 392.951ZM79.0001 427.951C81.0001 430.051 83.4001 433.551 84.5001 435.651C85.6001 437.851 86.7001 439.751 87.1001 440.051C87.4001 440.351 88.4001 442.751 89.4001 445.551C90.5001 448.251 91.6001 450.951 92.0001 451.551C92.4001 452.051 93.1001 454.451 93.5001 456.751C93.9001 459.151 94.6001 461.251 95.1001 461.651C95.6001 461.951 96.0001 463.151 96.0001 464.451C96.0001 465.651 96.4001 467.051 96.9001 467.651C97.4001 468.151 98.3001 471.251 98.9001 474.551C100.3 481.451 101.5 487.451 102.4 491.051C104.1 497.651 107.6 524.751 109 541.551C111 564.851 111.3 578.051 110 582.351C106 595.551 103.7 599.751 97.0001 605.751C92.9001 609.551 84.7001 614.051 82.0001 614.051C80.9001 614.051 79.8001 614.451 79.5001 615.051C79.2001 615.551 74.9001 616.051 70.0001 616.051C65.1001 616.051 60.8001 615.551 60.5001 615.051C60.2001 614.451 59.1001 614.051 58.0001 614.051C54.4001 614.051 45.8001 608.651 40.9001 603.251C31.2001 592.651 28.5001 582.251 30.0001 561.251C30.5001 553.751 31.2001 542.151 31.5001 535.551C31.9001 528.951 32.6001 522.151 33.0001 520.551C33.5001 518.851 34.4001 513.751 34.9001 509.051C35.4001 504.351 36.4001 498.251 36.9001 495.551C37.5001 492.751 38.5001 487.351 39.3001 483.551C40.0001 479.651 40.9001 475.851 41.2001 475.051C42.3001 471.851 43.9001 466.451 44.5001 463.051C44.9001 461.151 45.6001 458.951 46.0001 458.051C46.4001 457.251 47.5001 454.151 48.5001 451.251C50.7001 444.651 57.1001 432.151 60.2001 428.551C65.8001 421.951 73.3001 421.751 79.0001 427.951Z" fill="url(#paint22_linear_12_61)"/>
<path d="M60.0001 392.951C59.2001 393.351 55.9001 395.051 52.6001 396.551C45.6001 399.951 36.6001 408.451 31.2001 416.651C30.6001 417.651 29.7001 419.251 29.3001 420.051C28.9001 420.851 28.4001 421.751 28.0001 422.051C25.8001 423.751 15.6001 448.851 14.4001 455.551C14.0001 457.751 13.4001 459.751 13.0001 460.051C12.7001 460.351 11.8001 463.251 11.2001 466.551C10.5001 469.851 9.5001 474.551 8.9001 477.051C8.3001 479.551 7.3001 485.151 6.6001 489.551C5.9001 493.951 5.1001 498.251 4.8001 499.051C4.4001 499.851 3.9001 503.251 3.5001 506.551C3.2001 509.851 2.4001 515.651 1.8001 519.551C0.400097 529.351 -0.399903 596.051 1.0001 596.051C1.5001 596.051 2.0001 597.151 2.0001 598.551C2.0001 599.951 2.3001 601.051 2.8001 601.051C3.2001 601.051 4.3001 603.151 5.4001 605.651C8.1001 612.251 13.4001 619.751 20.1001 626.251C28.6001 634.651 39.2001 640.851 51.5001 644.651L54.5001 645.551L55.0001 683.651C55.5001 724.251 55.3001 722.451 60.7001 727.751C62.6001 729.751 64.0001 730.051 70.3001 730.051H77.7001L81.6001 725.851L85.5001 721.551L85.7001 683.551L86.0001 645.551L88.7001 644.651C90.3001 644.151 92.4001 643.451 93.5001 642.951C94.6001 642.551 97.1001 641.451 99.2001 640.651C111.6 635.751 128.3 620.251 133.1 609.251C133.9 607.551 134.8 606.051 135.2 606.051C135.5 606.051 136.2 604.651 136.5 602.851C136.9 601.051 137.6 598.951 138 598.051C141.5 591.051 142.4 578.451 141 555.551C139.8 535.851 138.8 525.251 136.6 508.551C134.5 492.951 131.2 475.051 129 467.551C128.4 465.351 127.4 461.551 126.9 459.051C126.3 456.551 125.5 453.651 125 452.551C124.5 451.451 123.4 448.251 122.5 445.551C121.6 442.751 120.1 438.651 119 436.451C118 434.151 116.8 431.051 116.4 429.651C116.1 428.251 115.4 427.051 114.9 427.051C114.4 427.051 114 426.651 114 426.151C114 423.651 105.8 411.851 99.9001 406.051C91.9001 398.051 92.0001 398.151 84.2001 394.751C79.0001 392.551 76.5001 392.051 69.7001 392.151C65.2001 392.151 60.8001 392.551 60.0001 392.951ZM79.0001 427.951C81.0001 430.051 83.4001 433.551 84.5001 435.651C85.6001 437.851 86.7001 439.751 87.1001 440.051C87.4001 440.351 88.4001 442.751 89.4001 445.551C90.5001 448.251 91.6001 450.951 92.0001 451.551C92.4001 452.051 93.1001 454.451 93.5001 456.751C93.9001 459.151 94.6001 461.251 95.1001 461.651C95.6001 461.951 96.0001 463.151 96.0001 464.451C96.0001 465.651 96.4001 467.051 96.9001 467.651C97.4001 468.151 98.3001 471.251 98.9001 474.551C100.3 481.451 101.5 487.451 102.4 491.051C104.1 497.651 107.6 524.751 109 541.551C111 564.851 111.3 578.051 110 582.351C106 595.551 103.7 599.751 97.0001 605.751C92.9001 609.551 84.7001 614.051 82.0001 614.051C80.9001 614.051 79.8001 614.451 79.5001 615.051C79.2001 615.551 74.9001 616.051 70.0001 616.051C65.1001 616.051 60.8001 615.551 60.5001 615.051C60.2001 614.451 59.1001 614.051 58.0001 614.051C54.4001 614.051 45.8001 608.651 40.9001 603.251C31.2001 592.651 28.5001 582.251 30.0001 561.251C30.5001 553.751 31.2001 542.151 31.5001 535.551C31.9001 528.951 32.6001 522.151 33.0001 520.551C33.5001 518.851 34.4001 513.751 34.9001 509.051C35.4001 504.351 36.4001 498.251 36.9001 495.551C37.5001 492.751 38.5001 487.351 39.3001 483.551C40.0001 479.651 40.9001 475.851 41.2001 475.051C42.3001 471.851 43.9001 466.451 44.5001 463.051C44.9001 461.151 45.6001 458.951 46.0001 458.051C46.4001 457.251 47.5001 454.151 48.5001 451.251C50.7001 444.651 57.1001 432.151 60.2001 428.551C65.8001 421.951 73.3001 421.751 79.0001 427.951Z" fill="url(#paint23_linear_12_61)"/>
<path d="M287 477.851C277.3 484.251 276.1 495.551 284.4 502.651C288.5 506.251 291.5 507.051 300.4 507.051H306.5L306.2 567.251C305.9 630.651 306.1 635.651 310.3 641.251C314.1 646.351 323 648.651 328.3 645.951C331.5 644.251 336 639.851 336 638.351C336 637.651 336.5 637.051 337 637.051C337.7 637.051 338 614.751 338 572.051V507.051H405V559.651L401.7 560.851C399.9 561.451 396.9 563.651 395 565.551C391.8 568.851 391.6 569.451 391.7 575.651C391.7 582.051 391.9 582.451 395.6 586.051C397.8 588.051 400.7 590.051 402.3 590.451L405 591.051V613.151C405 636.651 405.4 639.051 410.4 643.451C416 648.351 425 648.351 430.6 643.451C435.6 639.051 436 636.651 436 613.151V591.051L438.8 590.451C440.3 590.051 443.2 588.051 445.4 586.051C449.1 582.451 449.3 582.051 449.3 575.651C449.4 569.451 449.2 568.851 446 565.551C444.1 563.651 441.1 561.451 439.3 560.851L436 559.651V507.051H503V572.051C503 614.751 503.3 637.051 504 637.051C504.6 637.051 505 637.651 505 638.351C505 639.051 506.5 641.151 508.3 642.851C514.2 648.551 523.6 648.451 529.4 642.651C535 637.051 535.1 634.651 534.8 567.251L534.5 507.051H540.6C549.5 507.051 552.5 506.251 556.6 502.651C564.9 495.451 563.6 483.951 553.8 477.751C551.3 476.151 542.1 476.051 420.3 476.151C300 476.151 289.3 476.251 287 477.851Z" fill="url(#paint24_linear_12_61)"/>
<path d="M287 477.851C277.3 484.251 276.1 495.551 284.4 502.651C288.5 506.251 291.5 507.051 300.4 507.051H306.5L306.2 567.251C305.9 630.651 306.1 635.651 310.3 641.251C314.1 646.351 323 648.651 328.3 645.951C331.5 644.251 336 639.851 336 638.351C336 637.651 336.5 637.051 337 637.051C337.7 637.051 338 614.751 338 572.051V507.051H405V559.651L401.7 560.851C399.9 561.451 396.9 563.651 395 565.551C391.8 568.851 391.6 569.451 391.7 575.651C391.7 582.051 391.9 582.451 395.6 586.051C397.8 588.051 400.7 590.051 402.3 590.451L405 591.051V613.151C405 636.651 405.4 639.051 410.4 643.451C416 648.351 425 648.351 430.6 643.451C435.6 639.051 436 636.651 436 613.151V591.051L438.8 590.451C440.3 590.051 443.2 588.051 445.4 586.051C449.1 582.451 449.3 582.051 449.3 575.651C449.4 569.451 449.2 568.851 446 565.551C444.1 563.651 441.1 561.451 439.3 560.851L436 559.651V507.051H503V572.051C503 614.751 503.3 637.051 504 637.051C504.6 637.051 505 637.651 505 638.351C505 639.051 506.5 641.151 508.3 642.851C514.2 648.551 523.6 648.451 529.4 642.651C535 637.051 535.1 634.651 534.8 567.251L534.5 507.051H540.6C549.5 507.051 552.5 506.251 556.6 502.651C564.9 495.451 563.6 483.951 553.8 477.751C551.3 476.151 542.1 476.051 420.3 476.151C300 476.151 289.3 476.251 287 477.851Z" fill="url(#paint25_linear_12_61)"/>
<path d="M680.3 477.451C679 478.151 677 479.551 675.9 480.651C671.1 484.851 671 486.151 671 533.551C671 575.951 671.1 578.351 673 582.051C674.1 584.151 676.4 586.951 678.2 588.251C681.5 590.551 681.9 590.551 711.5 590.851C728 591.051 743.3 590.951 745.5 590.551C749.7 589.951 754.9 586.251 756.9 582.351C757.7 580.851 758 566.051 758 533.451C758 488.251 757.9 486.651 756 483.451C754.8 481.651 752.3 479.251 750.4 478.151C747 476.151 745.6 476.051 714.7 476.151C691.1 476.251 681.9 476.551 680.3 477.451ZM727 560.051H702V507.051H727V560.051Z" fill="url(#paint26_linear_12_61)"/>
<path d="M680.3 477.451C679 478.151 677 479.551 675.9 480.651C671.1 484.851 671 486.151 671 533.551C671 575.951 671.1 578.351 673 582.051C674.1 584.151 676.4 586.951 678.2 588.251C681.5 590.551 681.9 590.551 711.5 590.851C728 591.051 743.3 590.951 745.5 590.551C749.7 589.951 754.9 586.251 756.9 582.351C757.7 580.851 758 566.051 758 533.451C758 488.251 757.9 486.651 756 483.451C754.8 481.651 752.3 479.251 750.4 478.151C747 476.151 745.6 476.051 714.7 476.151C691.1 476.251 681.9 476.551 680.3 477.451ZM727 560.051H702V507.051H727V560.051Z" fill="url(#paint27_linear_12_61)"/>
<path d="M733 616.651C731.1 616.951 728.6 617.451 727.5 617.951C726.4 618.451 723.5 619.651 721 620.651C713.7 623.651 706.8 628.451 701.5 634.351C695.2 641.351 694 642.751 694 643.751C694 644.151 690 644.551 685.2 644.651C677.2 644.651 675.7 645.051 668.8 648.351C661.8 651.751 650 661.751 650 664.351C650 664.851 649.1 666.551 648 668.051C642.6 675.651 642.2 695.551 647.2 706.051C651.1 714.051 659.6 722.451 668.2 726.951L674.3 730.051H811.9L816.7 727.451C826.8 721.851 833.7 715.151 838.9 705.751C840.8 702.451 841 700.351 841 687.051C841 678.751 840.7 672.051 840.2 672.051C839.8 672.051 838.7 670.151 837.7 667.951C836.7 665.651 833.4 661.151 830.4 658.051C825.4 652.851 822.5 650.951 811.3 645.751C810.1 645.251 805.2 644.651 800.6 644.651C793.1 644.551 792 644.351 791.2 642.551C789.4 638.851 781.8 631.051 775.5 626.551C772.1 624.051 768.9 622.051 768.5 622.051C768.1 622.051 766.4 621.451 764.7 620.651C762.9 619.951 760.2 618.751 758.6 618.151C755.5 616.851 738.9 615.951 733 616.651ZM749.5 648.051C749.8 648.551 750.9 649.051 751.8 649.051C752.7 649.051 755.6 650.551 758.2 652.251C763 655.551 767.1 661.751 768.5 667.851C769.4 671.951 773.8 676.551 778.8 678.551C783.4 680.451 785.9 680.151 792.4 676.951C794.6 675.951 797.3 675.051 798.5 675.051C803 675.051 809.9 679.951 810.8 683.851C812.4 690.751 809.1 697.351 803.2 699.051C800.9 699.651 778.4 700.051 742 700.051C689.2 700.051 684.2 699.951 681.1 698.251C672.3 693.851 672 681.951 680.6 676.951C684.7 674.451 688.8 674.651 694.8 677.551C697.7 678.951 700.9 680.051 702.1 680.051C705.8 680.051 713.5 675.151 715.2 671.751C717.9 666.351 720 661.251 720 660.251C720 658.351 730 649.951 733 649.351C734.7 649.051 736.3 648.351 736.6 647.951C737.3 646.751 748.7 646.851 749.5 648.051Z" fill="url(#paint28_linear_12_61)"/>
<path d="M733 616.651C731.1 616.951 728.6 617.451 727.5 617.951C726.4 618.451 723.5 619.651 721 620.651C713.7 623.651 706.8 628.451 701.5 634.351C695.2 641.351 694 642.751 694 643.751C694 644.151 690 644.551 685.2 644.651C677.2 644.651 675.7 645.051 668.8 648.351C661.8 651.751 650 661.751 650 664.351C650 664.851 649.1 666.551 648 668.051C642.6 675.651 642.2 695.551 647.2 706.051C651.1 714.051 659.6 722.451 668.2 726.951L674.3 730.051H811.9L816.7 727.451C826.8 721.851 833.7 715.151 838.9 705.751C840.8 702.451 841 700.351 841 687.051C841 678.751 840.7 672.051 840.2 672.051C839.8 672.051 838.7 670.151 837.7 667.951C836.7 665.651 833.4 661.151 830.4 658.051C825.4 652.851 822.5 650.951 811.3 645.751C810.1 645.251 805.2 644.651 800.6 644.651C793.1 644.551 792 644.351 791.2 642.551C789.4 638.851 781.8 631.051 775.5 626.551C772.1 624.051 768.9 622.051 768.5 622.051C768.1 622.051 766.4 621.451 764.7 620.651C762.9 619.951 760.2 618.751 758.6 618.151C755.5 616.851 738.9 615.951 733 616.651ZM749.5 648.051C749.8 648.551 750.9 649.051 751.8 649.051C752.7 649.051 755.6 650.551 758.2 652.251C763 655.551 767.1 661.751 768.5 667.851C769.4 671.951 773.8 676.551 778.8 678.551C783.4 680.451 785.9 680.151 792.4 676.951C794.6 675.951 797.3 675.051 798.5 675.051C803 675.051 809.9 679.951 810.8 683.851C812.4 690.751 809.1 697.351 803.2 699.051C800.9 699.651 778.4 700.051 742 700.051C689.2 700.051 684.2 699.951 681.1 698.251C672.3 693.851 672 681.951 680.6 676.951C684.7 674.451 688.8 674.651 694.8 677.551C697.7 678.951 700.9 680.051 702.1 680.051C705.8 680.051 713.5 675.151 715.2 671.751C717.9 666.351 720 661.251 720 660.251C720 658.351 730 649.951 733 649.351C734.7 649.051 736.3 648.351 736.6 647.951C737.3 646.751 748.7 646.851 749.5 648.051Z" fill="url(#paint29_linear_12_61)"/>
<path d="M206.5 672.851C202.1 674.351 197.9 677.651 196.3 681.051C194.9 683.751 194.4 687.751 194.2 699.351C193.7 716.951 194.7 721.951 199.5 726.751C202.6 729.851 203.1 730.051 210.2 730.051C217.3 730.051 217.7 729.951 220.6 726.751C224.9 722.151 226 718.951 226 710.551V703.051H416C590.6 703.051 606.4 702.951 609.3 701.451C616.3 697.851 619.8 690.351 617.8 683.651C616.4 679.151 610.3 673.551 605.8 672.651C601.7 671.851 209.1 672.051 206.5 672.851Z" fill="url(#paint30_linear_12_61)"/>
<path d="M206.5 672.851C202.1 674.351 197.9 677.651 196.3 681.051C194.9 683.751 194.4 687.751 194.2 699.351C193.7 716.951 194.7 721.951 199.5 726.751C202.6 729.851 203.1 730.051 210.2 730.051C217.3 730.051 217.7 729.951 220.6 726.751C224.9 722.151 226 718.951 226 710.551V703.051H416C590.6 703.051 606.4 702.951 609.3 701.451C616.3 697.851 619.8 690.351 617.8 683.651C616.4 679.151 610.3 673.551 605.8 672.651C601.7 671.851 209.1 672.051 206.5 672.851Z" fill="url(#paint31_linear_12_61)"/>
</g>
<defs>
<linearGradient id="paint0_linear_12_61" x1="-951.282" y1="-3430.79" x2="-951.282" y2="632.52" gradientUnits="userSpaceOnUse">
<stop stop-color="#26B6CA"/>
<stop offset="1" stop-color="#26B6CA" stop-opacity="0"/>
</linearGradient>
<linearGradient id="paint1_linear_12_61" x1="0" y1="0" x2="668.214" y2="780.456" gradientUnits="userSpaceOnUse">
<stop offset="0.49069" stop-color="#26B6CA"/>
<stop offset="0.56019" stop-color="#30B9C7"/>
<stop offset="0.68036" stop-color="#4DBFBE"/>
<stop offset="0.83676" stop-color="#7ACBAF"/>
<stop offset="1" stop-color="#B1D89E"/>
</linearGradient>
<linearGradient id="paint2_linear_12_61" x1="185.771" y1="-2974.54" x2="185.771" y2="646.943" gradientUnits="userSpaceOnUse">
<stop stop-color="#26B6CA"/>
<stop offset="1" stop-color="#26B6CA" stop-opacity="0"/>
</linearGradient>
<linearGradient id="paint3_linear_12_61" x1="221.991" y1="83.2007" x2="281.992" y2="86.1945" gradientUnits="userSpaceOnUse">
<stop offset="0.49069" stop-color="#26B6CA"/>
<stop offset="0.56019" stop-color="#30B9C7"/>
<stop offset="0.68036" stop-color="#4DBFBE"/>
<stop offset="0.83676" stop-color="#7ACBAF"/>
<stop offset="1" stop-color="#B1D89E"/>
</linearGradient>
<linearGradient id="paint4_linear_12_61" x1="550.918" y1="-2972.41" x2="550.918" y2="646.551" gradientUnits="userSpaceOnUse">
<stop stop-color="#26B6CA"/>
<stop offset="1" stop-color="#26B6CA" stop-opacity="0"/>
</linearGradient>
<linearGradient id="paint5_linear_12_61" x1="586.988" y1="83.2021" x2="646.742" y2="86.1734" gradientUnits="userSpaceOnUse">
<stop offset="0.49069" stop-color="#26B6CA"/>
<stop offset="0.56019" stop-color="#30B9C7"/>
<stop offset="0.68036" stop-color="#4DBFBE"/>
<stop offset="0.83676" stop-color="#7ACBAF"/>
<stop offset="1" stop-color="#B1D89E"/>
</linearGradient>
<linearGradient id="paint6_linear_12_61" x1="-15.4085" y1="-490.134" x2="-15.4085" y2="255.051" gradientUnits="userSpaceOnUse">
<stop stop-color="#26B6CA"/>
<stop offset="1" stop-color="#26B6CA" stop-opacity="0"/>
</linearGradient>
<linearGradient id="paint7_linear_12_61" x1="83" y1="139.051" x2="196.959" y2="214.131" gradientUnits="userSpaceOnUse">
<stop offset="0.49069" stop-color="#26B6CA"/>
<stop offset="0.56019" stop-color="#30B9C7"/>
<stop offset="0.68036" stop-color="#4DBFBE"/>
<stop offset="0.83676" stop-color="#7ACBAF"/>
<stop offset="1" stop-color="#B1D89E"/>
</linearGradient>
<linearGradient id="paint8_linear_12_61" x1="206.318" y1="-489.658" x2="206.318" y2="255.051" gradientUnits="userSpaceOnUse">
<stop stop-color="#26B6CA"/>
<stop offset="1" stop-color="#26B6CA" stop-opacity="0"/>
</linearGradient>
<linearGradient id="paint9_linear_12_61" x1="306" y1="139.125" x2="420.486" y2="215.577" gradientUnits="userSpaceOnUse">
<stop offset="0.49069" stop-color="#26B6CA"/>
<stop offset="0.56019" stop-color="#30B9C7"/>
<stop offset="0.68036" stop-color="#4DBFBE"/>
<stop offset="0.83676" stop-color="#7ACBAF"/>
<stop offset="1" stop-color="#B1D89E"/>
</linearGradient>
<linearGradient id="paint10_linear_12_61" x1="347.215" y1="-489.655" x2="347.215" y2="255.051" gradientUnits="userSpaceOnUse">
<stop stop-color="#26B6CA"/>
<stop offset="1" stop-color="#26B6CA" stop-opacity="0"/>
</linearGradient>
<linearGradient id="paint11_linear_12_61" x1="446.885" y1="139.125" x2="561.365" y2="215.564" gradientUnits="userSpaceOnUse">
<stop offset="0.49069" stop-color="#26B6CA"/>
<stop offset="0.56019" stop-color="#30B9C7"/>
<stop offset="0.68036" stop-color="#4DBFBE"/>
<stop offset="0.83676" stop-color="#7ACBAF"/>
<stop offset="1" stop-color="#B1D89E"/>
</linearGradient>
<linearGradient id="paint12_linear_12_61" x1="572.592" y1="-489.59" x2="572.592" y2="255.051" gradientUnits="userSpaceOnUse">
<stop stop-color="#26B6CA"/>
<stop offset="1" stop-color="#26B6CA" stop-opacity="0"/>
</linearGradient>
<linearGradient id="paint13_linear_12_61" x1="671" y1="139.136" x2="784.909" y2="214.237" gradientUnits="userSpaceOnUse">
<stop offset="0.49069" stop-color="#26B6CA"/>
<stop offset="0.56019" stop-color="#30B9C7"/>
<stop offset="0.68036" stop-color="#4DBFBE"/>
<stop offset="0.83676" stop-color="#7ACBAF"/>
<stop offset="1" stop-color="#B1D89E"/>
</linearGradient>
<linearGradient id="paint14_linear_12_61" x1="-15.4085" y1="-314.908" x2="-15.4085" y2="422.051" gradientUnits="userSpaceOnUse">
<stop stop-color="#26B6CA"/>
<stop offset="1" stop-color="#26B6CA" stop-opacity="0"/>
</linearGradient>
<linearGradient id="paint15_linear_12_61" x1="83" y1="307.332" x2="196.19" y2="382.737" gradientUnits="userSpaceOnUse">
<stop offset="0.49069" stop-color="#26B6CA"/>
<stop offset="0.56019" stop-color="#30B9C7"/>
<stop offset="0.68036" stop-color="#4DBFBE"/>
<stop offset="0.83676" stop-color="#7ACBAF"/>
<stop offset="1" stop-color="#B1D89E"/>
</linearGradient>
<linearGradient id="paint16_linear_12_61" x1="206.46" y1="-315.159" x2="206.46" y2="422.051" gradientUnits="userSpaceOnUse">
<stop stop-color="#26B6CA"/>
<stop offset="1" stop-color="#26B6CA" stop-opacity="0"/>
</linearGradient>
<linearGradient id="paint17_linear_12_61" x1="306" y1="307.292" x2="419.708" y2="383.887" gradientUnits="userSpaceOnUse">
<stop offset="0.49069" stop-color="#26B6CA"/>
<stop offset="0.56019" stop-color="#30B9C7"/>
<stop offset="0.68036" stop-color="#4DBFBE"/>
<stop offset="0.83676" stop-color="#7ACBAF"/>
<stop offset="1" stop-color="#B1D89E"/>
</linearGradient>
<linearGradient id="paint18_linear_12_61" x1="347.375" y1="-315.934" x2="347.375" y2="422.051" gradientUnits="userSpaceOnUse">
<stop stop-color="#26B6CA"/>
<stop offset="1" stop-color="#26B6CA" stop-opacity="0"/>
</linearGradient>
<linearGradient id="paint19_linear_12_61" x1="447" y1="307.172" x2="560.819" y2="383.826" gradientUnits="userSpaceOnUse">
<stop offset="0.49069" stop-color="#26B6CA"/>
<stop offset="0.56019" stop-color="#30B9C7"/>
<stop offset="0.68036" stop-color="#4DBFBE"/>
<stop offset="0.83676" stop-color="#7ACBAF"/>
<stop offset="1" stop-color="#B1D89E"/>
</linearGradient>
<linearGradient id="paint20_linear_12_61" x1="572.591" y1="-315.167" x2="572.591" y2="422.051" gradientUnits="userSpaceOnUse">
<stop stop-color="#26B6CA"/>
<stop offset="1" stop-color="#26B6CA" stop-opacity="0"/>
</linearGradient>
<linearGradient id="paint21_linear_12_61" x1="671" y1="307.291" x2="784.215" y2="382.687" gradientUnits="userSpaceOnUse">
<stop offset="0.49069" stop-color="#26B6CA"/>
<stop offset="0.56019" stop-color="#30B9C7"/>
<stop offset="0.68036" stop-color="#4DBFBE"/>
<stop offset="0.83676" stop-color="#7ACBAF"/>
<stop offset="1" stop-color="#B1D89E"/>
</linearGradient>
<linearGradient id="paint22_linear_12_61" x1="-159.631" y1="-1440.7" x2="-159.631" y2="730.051" gradientUnits="userSpaceOnUse">
<stop stop-color="#26B6CA"/>
<stop offset="1" stop-color="#26B6CA" stop-opacity="0"/>
</linearGradient>
<linearGradient id="paint23_linear_12_61" x1="0.268555" y1="392.139" x2="234.215" y2="478.112" gradientUnits="userSpaceOnUse">
<stop offset="0.49069" stop-color="#26B6CA"/>
<stop offset="0.56019" stop-color="#30B9C7"/>
<stop offset="0.68036" stop-color="#4DBFBE"/>
<stop offset="0.83676" stop-color="#7ACBAF"/>
<stop offset="1" stop-color="#B1D89E"/>
</linearGradient>
<linearGradient id="paint24_linear_12_61" x1="-41.4609" y1="-451.395" x2="-41.4609" y2="647.126" gradientUnits="userSpaceOnUse">
<stop stop-color="#26B6CA"/>
<stop offset="1" stop-color="#26B6CA" stop-opacity="0"/>
</linearGradient>
<linearGradient id="paint25_linear_12_61" x1="278.875" y1="476.124" x2="449.575" y2="724.456" gradientUnits="userSpaceOnUse">
<stop offset="0.49069" stop-color="#26B6CA"/>
<stop offset="0.56019" stop-color="#30B9C7"/>
<stop offset="0.68036" stop-color="#4DBFBE"/>
<stop offset="0.83676" stop-color="#7ACBAF"/>
<stop offset="1" stop-color="#B1D89E"/>
</linearGradient>
<linearGradient id="paint26_linear_12_61" x1="572.592" y1="-146.691" x2="572.592" y2="590.951" gradientUnits="userSpaceOnUse">
<stop stop-color="#26B6CA"/>
<stop offset="1" stop-color="#26B6CA" stop-opacity="0"/>
</linearGradient>
<linearGradient id="paint27_linear_12_61" x1="671" y1="476.125" x2="784.255" y2="551.504" gradientUnits="userSpaceOnUse">
<stop offset="0.49069" stop-color="#26B6CA"/>
<stop offset="0.56019" stop-color="#30B9C7"/>
<stop offset="0.68036" stop-color="#4DBFBE"/>
<stop offset="0.83676" stop-color="#7ACBAF"/>
<stop offset="1" stop-color="#B1D89E"/>
</linearGradient>
<linearGradient id="paint28_linear_12_61" x1="420.5" y1="-0.000256717" x2="420.5" y2="730.051" gradientUnits="userSpaceOnUse">
<stop stop-color="#26B6CA"/>
<stop offset="1" stop-color="#26B6CA" stop-opacity="0"/>
</linearGradient>
<linearGradient id="paint29_linear_12_61" x1="643.688" y1="616.407" x2="755.119" y2="786.36" gradientUnits="userSpaceOnUse">
<stop offset="0.49069" stop-color="#26B6CA"/>
<stop offset="0.56019" stop-color="#30B9C7"/>
<stop offset="0.68036" stop-color="#4DBFBE"/>
<stop offset="0.83676" stop-color="#7ACBAF"/>
<stop offset="1" stop-color="#B1D89E"/>
</linearGradient>
<linearGradient id="paint30_linear_12_61" x1="-285.826" y1="358.041" x2="-285.826" y2="730.051" gradientUnits="userSpaceOnUse">
<stop stop-color="#26B6CA"/>
<stop offset="1" stop-color="#26B6CA" stop-opacity="0"/>
</linearGradient>
<linearGradient id="paint31_linear_12_61" x1="194.084" y1="672.142" x2="212.871" y2="793.055" gradientUnits="userSpaceOnUse">
<stop offset="0.49069" stop-color="#26B6CA"/>
<stop offset="0.56019" stop-color="#30B9C7"/>
<stop offset="0.68036" stop-color="#4DBFBE"/>
<stop offset="0.83676" stop-color="#7ACBAF"/>
<stop offset="1" stop-color="#B1D89E"/>
</linearGradient>
<clipPath id="clip0_12_61">
<rect width="841" height="731" fill="white"/>
</clipPath>
</defs>
</svg>
