<svg width="841" height="731" viewBox="0 0 841 731" fill="none" xmlns="http://www.w3.org/2000/svg">
<path d="M5.7 1.85078C-0.4 5.95078 0.1 -8.54922 0 182.851C0 296.351 0.3 358.851 1 360.051C4.3 366.151 16.5 368.151 23.3 363.551C25.3 362.151 27 360.351 27 359.551C27 358.751 27.5 358.051 28 358.051C28.7 358.051 29 307.451 29 208.251V58.5508H812V623.551L815 627.151C820.5 633.851 831.8 634.351 838.3 628.251L841 625.651V316.651C840.9 26.0508 840.8 7.45078 839.2 5.55078C835.8 1.45078 832.7 0.050781 827 0.050781C823.4 0.050781 820.6 0.650781 819 1.75078C815.5 4.15078 814 5.75078 814 6.95078C814 7.55078 813.6 8.05078 813 8.05078C812.4 8.05078 812 12.0508 812 18.0508V28.0508H29V18.0508C29 12.0508 28.6 8.05078 28 8.05078C27.5 8.05078 27 7.55078 27 6.95078C27 5.75078 25.5 4.15078 22 1.75078C18.6 -0.649219 9.4 -0.549219 5.7 1.85078Z" fill="url(#paint0_linear)"/>
<path d="M5.7 1.85078C-0.4 5.95078 0.1 -8.54922 0 182.851C0 296.351 0.3 358.851 1 360.051C4.3 366.151 16.5 368.151 23.3 363.551C25.3 362.151 27 360.351 27 359.551C27 358.751 27.5 358.051 28 358.051C28.7 358.051 29 307.451 29 208.251V58.5508H812V623.551L815 627.151C820.5 633.851 831.8 634.351 838.3 628.251L841 625.651V316.651C840.9 26.0508 840.8 7.45078 839.2 5.55078C835.8 1.45078 832.7 0.050781 827 0.050781C823.4 0.050781 820.6 0.650781 819 1.75078C815.5 4.15078 814 5.75078 814 6.95078C814 7.55078 813.6 8.05078 813 8.05078C812.4 8.05078 812 12.0508 812 18.0508V28.0508H29V18.0508C29 12.0508 28.6 8.05078 28 8.05078C27.5 8.05078 27 7.55078 27 6.95078C27 5.75078 25.5 4.15078 22 1.75078C18.6 -0.649219 9.4 -0.549219 5.7 1.85078Z" fill="url(#paint1_linear)"/>
<path d="M232.5 84.5508C228.4 86.3508 224.9 90.2508 223.3 94.8508C222.3 97.8508 222 148.751 222 365.651C222 660.051 221.5 636.651 228.1 643.051C233.4 648.051 241.4 648.251 247.6 643.551C254.6 638.251 254 663.651 254 365.451C254 155.651 253.7 95.5508 252.8 93.3508C251.1 89.6508 247.6 86.3508 243.3 84.5508C239.1 82.7508 236.5 82.7508 232.5 84.5508Z" fill="url(#paint2_linear)"/>
<path d="M232.5 84.5508C228.4 86.3508 224.9 90.2508 223.3 94.8508C222.3 97.8508 222 148.751 222 365.651C222 660.051 221.5 636.651 228.1 643.051C233.4 648.051 241.4 648.251 247.6 643.551C254.6 638.251 254 663.651 254 365.451C254 155.651 253.7 95.5508 252.8 93.3508C251.1 89.6508 247.6 86.3508 243.3 84.5508C239.1 82.7508 236.5 82.7508 232.5 84.5508Z" fill="url(#paint3_linear)"/>
<path d="M596.6 85.0508C592.1 87.3508 590 89.3508 588.2 93.3508C587.3 95.5508 587 152.951 587 365.451C587 664.751 586.4 638.151 593.7 643.851C596.7 646.051 598.4 646.551 602.9 646.551C609.6 646.551 613.8 644.051 616.6 638.351C618.4 634.651 618.5 626.251 618.8 366.551C619 123.751 618.9 98.1508 617.4 94.5508C615.4 89.5508 612.4 86.2508 608.1 84.4508C603.7 82.6508 601.3 82.7508 596.6 85.0508Z" fill="url(#paint4_linear)"/>
<path d="M596.6 85.0508C592.1 87.3508 590 89.3508 588.2 93.3508C587.3 95.5508 587 152.951 587 365.451C587 664.751 586.4 638.151 593.7 643.851C596.7 646.051 598.4 646.551 602.9 646.551C609.6 646.551 613.8 644.051 616.6 638.351C618.4 634.651 618.5 626.251 618.8 366.551C619 123.751 618.9 98.1508 617.4 94.5508C615.4 89.5508 612.4 86.2508 608.1 84.4508C603.7 82.6508 601.3 82.7508 596.6 85.0508Z" fill="url(#paint5_linear)"/>
<path d="M94.5 140.051C94.2 140.551 93.1 141.051 92.1 141.051C91.1 141.051 88.6 142.851 86.6 145.051L83 149.051V244.951L86.1 248.451C91.8 255.051 92 255.051 126.1 255.051C156.7 255.051 157 255.051 161.2 252.651C163.7 251.251 166.4 248.651 167.7 246.451C170 242.551 170 242.351 170 197.051C170 151.751 170 151.551 167.7 147.651C166.4 145.451 163.7 142.851 161.2 141.451C157 139.051 156.7 139.051 126 139.051C106.5 139.051 94.9 139.451 94.5 140.051ZM139 223.051H114V171.051H139V223.051Z" fill="url(#paint6_linear)"/>
<path d="M94.5 140.051C94.2 140.551 93.1 141.051 92.1 141.051C91.1 141.051 88.6 142.851 86.6 145.051L83 149.051V244.951L86.1 248.451C91.8 255.051 92 255.051 126.1 255.051C156.7 255.051 157 255.051 161.2 252.651C163.7 251.251 166.4 248.651 167.7 246.451C170 242.551 170 242.351 170 197.051C170 151.751 170 151.551 167.7 147.651C166.4 145.451 163.7 142.851 161.2 141.451C157 139.051 156.7 139.051 126 139.051C106.5 139.051 94.9 139.451 94.5 140.051ZM139 223.051H114V171.051H139V223.051Z" fill="url(#paint7_linear)"/>
<path d="M315.6 141.451C306.3 146.851 306 148.451 306 197.051C306 239.851 306.3 243.051 310.7 248.851C315.2 254.751 317 255.051 350.6 255.051C379.6 255.051 381.1 254.951 384.7 252.951C388.9 250.651 391.2 248.451 392.9 245.351C394.6 242.151 394.5 151.851 392.8 148.851C390.7 145.251 388.7 143.351 384.7 141.151C381.1 139.151 379.7 139.051 350.2 139.151C320.1 139.151 319.4 139.251 315.6 141.451ZM363 223.051H338V171.051H363V223.051Z" fill="url(#paint8_linear)"/>
<path d="M315.6 141.451C306.3 146.851 306 148.451 306 197.051C306 239.851 306.3 243.051 310.7 248.851C315.2 254.751 317 255.051 350.6 255.051C379.6 255.051 381.1 254.951 384.7 252.951C388.9 250.651 391.2 248.451 392.9 245.351C394.6 242.151 394.5 151.851 392.8 148.851C390.7 145.251 388.7 143.351 384.7 141.151C381.1 139.151 379.7 139.051 350.2 139.151C320.1 139.151 319.4 139.251 315.6 141.451ZM363 223.051H338V171.051H363V223.051Z" fill="url(#paint9_linear)"/>
<path d="M456 141.251C452.2 143.451 450.2 145.351 448.3 148.851C446.5 151.851 446.4 242.151 448.1 245.351C449.8 248.451 452.1 250.651 456.3 252.951C459.9 254.951 461.4 255.051 490.4 255.051C524 255.051 525.8 254.751 530.3 248.851C534.7 243.051 535 239.851 535 197.051C535 148.251 534.7 146.451 525 141.251C520.9 139.151 520.1 139.051 490.2 139.151C461.2 139.151 459.3 139.351 456 141.251ZM503 223.051H478V171.051H503V223.051Z" fill="url(#paint10_linear)"/>
<path d="M456 141.251C452.2 143.451 450.2 145.351 448.3 148.851C446.5 151.851 446.4 242.151 448.1 245.351C449.8 248.451 452.1 250.651 456.3 252.951C459.9 254.951 461.4 255.051 490.4 255.051C524 255.051 525.8 254.751 530.3 248.851C534.7 243.051 535 239.851 535 197.051C535 148.251 534.7 146.451 525 141.251C520.9 139.151 520.1 139.051 490.2 139.151C461.2 139.151 459.3 139.351 456 141.251ZM503 223.051H478V171.051H503V223.051Z" fill="url(#paint11_linear)"/>
<path d="M679.5 141.451C677.3 142.751 674.5 145.551 673.3 147.651C671 151.551 671 151.751 671 197.051C671 242.351 671 242.551 673.3 246.451C674.6 248.651 677.3 251.251 679.8 252.651C684 255.051 684.3 255.051 714.9 255.051C749 255.051 749.2 255.051 754.9 248.451L758 244.951V149.051L754.4 145.051C752.4 142.851 749.9 141.051 748.9 141.051C747.9 141.051 746.8 140.551 746.5 140.051C746.1 139.451 734.5 139.051 714.7 139.151C684 139.151 683.4 139.251 679.5 141.451ZM727 223.051H702V171.051H727V223.051Z" fill="url(#paint12_linear)"/>
<path d="M679.5 141.451C677.3 142.751 674.5 145.551 673.3 147.651C671 151.551 671 151.751 671 197.051C671 242.351 671 242.551 673.3 246.451C674.6 248.651 677.3 251.251 679.8 252.651C684 255.051 684.3 255.051 714.9 255.051C749 255.051 749.2 255.051 754.9 248.451L758 244.951V149.051L754.4 145.051C752.4 142.851 749.9 141.051 748.9 141.051C747.9 141.051 746.8 140.551 746.5 140.051C746.1 139.451 734.5 139.051 714.7 139.151C684 139.151 683.4 139.251 679.5 141.451ZM727 223.051H702V171.051H727V223.051Z" fill="url(#paint13_linear)"/>
<path d="M96 307.951C91 308.951 88.5 310.551 85.5 314.451C83 317.751 83 317.851 83 337.151C83 354.451 83.2 356.851 84.9 359.451C88 364.051 91.8 366.051 98 366.051C109.4 366.051 114.8 358.451 113.9 343.351L113.6 338.551L138.9 337.951L139.2 375.751C139.5 411.751 139.6 413.651 141.5 416.251C144.6 420.351 148.3 422.051 154 422.051C160.6 422.051 165.3 419.351 168 413.951C169.9 410.351 170 407.951 170 365.751C170 318.051 169.9 317.051 164.8 312.451C159.6 307.651 159.1 307.551 128.5 307.351C112.6 307.251 97.9 307.551 96 307.951Z" fill="url(#paint14_linear)"/>
<path d="M96 307.951C91 308.951 88.5 310.551 85.5 314.451C83 317.751 83 317.851 83 337.151C83 354.451 83.2 356.851 84.9 359.451C88 364.051 91.8 366.051 98 366.051C109.4 366.051 114.8 358.451 113.9 343.351L113.6 338.551L138.9 337.951L139.2 375.751C139.5 411.751 139.6 413.651 141.5 416.251C144.6 420.351 148.3 422.051 154 422.051C160.6 422.051 165.3 419.351 168 413.951C169.9 410.351 170 407.951 170 365.751C170 318.051 169.9 317.051 164.8 312.451C159.6 307.651 159.1 307.551 128.5 307.351C112.6 307.251 97.9 307.551 96 307.951Z" fill="url(#paint15_linear)"/>
<path d="M318.7 308.451C312.9 310.051 308.9 314.251 307.2 320.451C306.4 323.751 306 336.851 306 365.851C306 411.551 306.2 413.451 312.6 419.051L316.1 422.051H384.8L388 419.451C394.1 414.251 394 415.451 394 365.651C394 317.951 393.9 316.951 389.5 312.551C384.8 307.851 383.1 307.551 352.5 307.351C331 307.151 322.3 307.451 318.7 308.451ZM363 392.051H337.5L338.1 338.051H363V392.051Z" fill="url(#paint16_linear)"/>
<path d="M318.7 308.451C312.9 310.051 308.9 314.251 307.2 320.451C306.4 323.751 306 336.851 306 365.851C306 411.551 306.2 413.451 312.6 419.051L316.1 422.051H384.8L388 419.451C394.1 414.251 394 415.451 394 365.651C394 317.951 393.9 316.951 389.5 312.551C384.8 307.851 383.1 307.551 352.5 307.351C331 307.151 322.3 307.451 318.7 308.451ZM363 392.051H337.5L338.1 338.051H363V392.051Z" fill="url(#paint17_linear)"/>
<path d="M461.5 307.751C455.2 309.151 451.1 311.951 448.3 316.851C447.3 318.451 447 330.051 447 365.051C447 415.551 446.9 414.251 453 419.451L456.2 422.051H525L528.8 418.651C531.3 416.351 532.9 413.751 533.8 410.651C535.5 404.051 535.5 326.951 533.8 320.351C532 313.851 527.5 309.551 521.1 308.151C516.1 307.151 466 306.751 461.5 307.751ZM503.5 392.051H478V338.051H502.9L503.5 392.051Z" fill="url(#paint18_linear)"/>
<path d="M461.5 307.751C455.2 309.151 451.1 311.951 448.3 316.851C447.3 318.451 447 330.051 447 365.051C447 415.551 446.9 414.251 453 419.451L456.2 422.051H525L528.8 418.651C531.3 416.351 532.9 413.751 533.8 410.651C535.5 404.051 535.5 326.951 533.8 320.351C532 313.851 527.5 309.551 521.1 308.151C516.1 307.151 466 306.751 461.5 307.751ZM503.5 392.051H478V338.051H502.9L503.5 392.051Z" fill="url(#paint19_linear)"/>
<path d="M686.5 307.551C686 307.751 684.3 308.151 682.8 308.451C681.4 308.751 678.8 310.251 677 311.651C671 316.751 671 316.951 671 365.751C671 416.251 670.8 414.651 679 420.351C681.2 421.851 685 422.051 715 422.051C752.2 422.051 751.9 422.051 756.1 415.151C757.9 412.151 758 409.551 758 364.851V317.751L755.4 314.351C750.3 307.651 749.7 307.551 717 307.351C700.8 307.251 687.1 307.251 686.5 307.551ZM727.5 392.051H702V337.951L727.1 338.551L727.5 392.051Z" fill="url(#paint20_linear)"/>
<path d="M686.5 307.551C686 307.751 684.3 308.151 682.8 308.451C681.4 308.751 678.8 310.251 677 311.651C671 316.751 671 316.951 671 365.751C671 416.251 670.8 414.651 679 420.351C681.2 421.851 685 422.051 715 422.051C752.2 422.051 751.9 422.051 756.1 415.151C757.9 412.151 758 409.551 758 364.851V317.751L755.4 314.351C750.3 307.651 749.7 307.551 717 307.351C700.8 307.251 687.1 307.251 686.5 307.551ZM727.5 392.051H702V337.951L727.1 338.551L727.5 392.051Z" fill="url(#paint21_linear)"/>
<path d="M60 392.951C59.2 393.351 55.9 395.051 52.6 396.551C45.6 399.951 36.6 408.451 31.2 416.651C30.6 417.651 29.7 419.251 29.3 420.051C28.9 420.851 28.4 421.751 28 422.051C25.8 423.751 15.6 448.851 14.4 455.551C14 457.751 13.4 459.751 13 460.051C12.7 460.351 11.8 463.251 11.2 466.551C10.5 469.851 9.5 474.551 8.9 477.051C8.3 479.551 7.3 485.151 6.6 489.551C5.9 493.951 5.1 498.251 4.8 499.051C4.4 499.851 3.9 503.251 3.5 506.551C3.2 509.851 2.4 515.651 1.8 519.551C0.399998 529.351 -0.400002 596.051 0.999998 596.051C1.5 596.051 2 597.151 2 598.551C2 599.951 2.3 601.051 2.8 601.051C3.2 601.051 4.3 603.151 5.4 605.651C8.1 612.251 13.4 619.751 20.1 626.251C28.6 634.651 39.2 640.851 51.5 644.651L54.5 645.551L55 683.651C55.5 724.251 55.3 722.451 60.7 727.751C62.6 729.751 64 730.051 70.3 730.051H77.7L81.6 725.851L85.5 721.551L85.7 683.551L86 645.551L88.7 644.651C90.3 644.151 92.4 643.451 93.5 642.951C94.6 642.551 97.1 641.451 99.2 640.651C111.6 635.751 128.3 620.251 133.1 609.251C133.9 607.551 134.8 606.051 135.2 606.051C135.5 606.051 136.2 604.651 136.5 602.851C136.9 601.051 137.6 598.951 138 598.051C141.5 591.051 142.4 578.451 141 555.551C139.8 535.851 138.8 525.251 136.6 508.551C134.5 492.951 131.2 475.051 129 467.551C128.4 465.351 127.4 461.551 126.9 459.051C126.3 456.551 125.5 453.651 125 452.551C124.5 451.451 123.4 448.251 122.5 445.551C121.6 442.751 120.1 438.651 119 436.451C118 434.151 116.8 431.051 116.4 429.651C116.1 428.251 115.4 427.051 114.9 427.051C114.4 427.051 114 426.651 114 426.151C114 423.651 105.8 411.851 99.9 406.051C91.9 398.051 92 398.151 84.2 394.751C79 392.551 76.5 392.051 69.7 392.151C65.2 392.151 60.8 392.551 60 392.951ZM79 427.951C81 430.051 83.4 433.551 84.5 435.651C85.6 437.851 86.7 439.751 87.1 440.051C87.4 440.351 88.4 442.751 89.4 445.551C90.5 448.251 91.6 450.951 92 451.551C92.4 452.051 93.1 454.451 93.5 456.751C93.9 459.151 94.6 461.251 95.1 461.651C95.6 461.951 96 463.151 96 464.451C96 465.651 96.4 467.051 96.9 467.651C97.4 468.151 98.3 471.251 98.9 474.551C100.3 481.451 101.5 487.451 102.4 491.051C104.1 497.651 107.6 524.751 109 541.551C111 564.851 111.3 578.051 110 582.351C106 595.551 103.7 599.751 97 605.751C92.9 609.551 84.7 614.051 82 614.051C80.9 614.051 79.8 614.451 79.5 615.051C79.2 615.551 74.9 616.051 70 616.051C65.1 616.051 60.8 615.551 60.5 615.051C60.2 614.451 59.1 614.051 58 614.051C54.4 614.051 45.8 608.651 40.9 603.251C31.2 592.651 28.5 582.251 30 561.251C30.5 553.751 31.2 542.151 31.5 535.551C31.9 528.951 32.6 522.151 33 520.551C33.5 518.851 34.4 513.751 34.9 509.051C35.4 504.351 36.4 498.251 36.9 495.551C37.5 492.751 38.5 487.351 39.3 483.551C40 479.651 40.9 475.851 41.2 475.051C42.3 471.851 43.9 466.451 44.5 463.051C44.9 461.151 45.6 458.951 46 458.051C46.4 457.251 47.5 454.151 48.5 451.251C50.7 444.651 57.1 432.151 60.2 428.551C65.8 421.951 73.3 421.751 79 427.951Z" fill="url(#paint22_linear)"/>
<path d="M60 392.951C59.2 393.351 55.9 395.051 52.6 396.551C45.6 399.951 36.6 408.451 31.2 416.651C30.6 417.651 29.7 419.251 29.3 420.051C28.9 420.851 28.4 421.751 28 422.051C25.8 423.751 15.6 448.851 14.4 455.551C14 457.751 13.4 459.751 13 460.051C12.7 460.351 11.8 463.251 11.2 466.551C10.5 469.851 9.5 474.551 8.9 477.051C8.3 479.551 7.3 485.151 6.6 489.551C5.9 493.951 5.1 498.251 4.8 499.051C4.4 499.851 3.9 503.251 3.5 506.551C3.2 509.851 2.4 515.651 1.8 519.551C0.399998 529.351 -0.400002 596.051 0.999998 596.051C1.5 596.051 2 597.151 2 598.551C2 599.951 2.3 601.051 2.8 601.051C3.2 601.051 4.3 603.151 5.4 605.651C8.1 612.251 13.4 619.751 20.1 626.251C28.6 634.651 39.2 640.851 51.5 644.651L54.5 645.551L55 683.651C55.5 724.251 55.3 722.451 60.7 727.751C62.6 729.751 64 730.051 70.3 730.051H77.7L81.6 725.851L85.5 721.551L85.7 683.551L86 645.551L88.7 644.651C90.3 644.151 92.4 643.451 93.5 642.951C94.6 642.551 97.1 641.451 99.2 640.651C111.6 635.751 128.3 620.251 133.1 609.251C133.9 607.551 134.8 606.051 135.2 606.051C135.5 606.051 136.2 604.651 136.5 602.851C136.9 601.051 137.6 598.951 138 598.051C141.5 591.051 142.4 578.451 141 555.551C139.8 535.851 138.8 525.251 136.6 508.551C134.5 492.951 131.2 475.051 129 467.551C128.4 465.351 127.4 461.551 126.9 459.051C126.3 456.551 125.5 453.651 125 452.551C124.5 451.451 123.4 448.251 122.5 445.551C121.6 442.751 120.1 438.651 119 436.451C118 434.151 116.8 431.051 116.4 429.651C116.1 428.251 115.4 427.051 114.9 427.051C114.4 427.051 114 426.651 114 426.151C114 423.651 105.8 411.851 99.9 406.051C91.9 398.051 92 398.151 84.2 394.751C79 392.551 76.5 392.051 69.7 392.151C65.2 392.151 60.8 392.551 60 392.951ZM79 427.951C81 430.051 83.4 433.551 84.5 435.651C85.6 437.851 86.7 439.751 87.1 440.051C87.4 440.351 88.4 442.751 89.4 445.551C90.5 448.251 91.6 450.951 92 451.551C92.4 452.051 93.1 454.451 93.5 456.751C93.9 459.151 94.6 461.251 95.1 461.651C95.6 461.951 96 463.151 96 464.451C96 465.651 96.4 467.051 96.9 467.651C97.4 468.151 98.3 471.251 98.9 474.551C100.3 481.451 101.5 487.451 102.4 491.051C104.1 497.651 107.6 524.751 109 541.551C111 564.851 111.3 578.051 110 582.351C106 595.551 103.7 599.751 97 605.751C92.9 609.551 84.7 614.051 82 614.051C80.9 614.051 79.8 614.451 79.5 615.051C79.2 615.551 74.9 616.051 70 616.051C65.1 616.051 60.8 615.551 60.5 615.051C60.2 614.451 59.1 614.051 58 614.051C54.4 614.051 45.8 608.651 40.9 603.251C31.2 592.651 28.5 582.251 30 561.251C30.5 553.751 31.2 542.151 31.5 535.551C31.9 528.951 32.6 522.151 33 520.551C33.5 518.851 34.4 513.751 34.9 509.051C35.4 504.351 36.4 498.251 36.9 495.551C37.5 492.751 38.5 487.351 39.3 483.551C40 479.651 40.9 475.851 41.2 475.051C42.3 471.851 43.9 466.451 44.5 463.051C44.9 461.151 45.6 458.951 46 458.051C46.4 457.251 47.5 454.151 48.5 451.251C50.7 444.651 57.1 432.151 60.2 428.551C65.8 421.951 73.3 421.751 79 427.951Z" fill="url(#paint23_linear)"/>
<path d="M287 477.851C277.3 484.251 276.1 495.551 284.4 502.651C288.5 506.251 291.5 507.051 300.4 507.051H306.5L306.2 567.251C305.9 630.651 306.1 635.651 310.3 641.251C314.1 646.351 323 648.651 328.3 645.951C331.5 644.251 336 639.851 336 638.351C336 637.651 336.5 637.051 337 637.051C337.7 637.051 338 614.751 338 572.051V507.051H405V559.651L401.7 560.851C399.9 561.451 396.9 563.651 395 565.551C391.8 568.851 391.6 569.451 391.7 575.651C391.7 582.051 391.9 582.451 395.6 586.051C397.8 588.051 400.7 590.051 402.3 590.451L405 591.051V613.151C405 636.651 405.4 639.051 410.4 643.451C416 648.351 425 648.351 430.6 643.451C435.6 639.051 436 636.651 436 613.151V591.051L438.8 590.451C440.3 590.051 443.2 588.051 445.4 586.051C449.1 582.451 449.3 582.051 449.3 575.651C449.4 569.451 449.2 568.851 446 565.551C444.1 563.651 441.1 561.451 439.3 560.851L436 559.651V507.051H503V572.051C503 614.751 503.3 637.051 504 637.051C504.6 637.051 505 637.651 505 638.351C505 639.051 506.5 641.151 508.3 642.851C514.2 648.551 523.6 648.451 529.4 642.651C535 637.051 535.1 634.651 534.8 567.251L534.5 507.051H540.6C549.5 507.051 552.5 506.251 556.6 502.651C564.9 495.451 563.6 483.951 553.8 477.751C551.3 476.151 542.1 476.051 420.3 476.151C300 476.151 289.3 476.251 287 477.851Z" fill="url(#paint24_linear)"/>
<path d="M287 477.851C277.3 484.251 276.1 495.551 284.4 502.651C288.5 506.251 291.5 507.051 300.4 507.051H306.5L306.2 567.251C305.9 630.651 306.1 635.651 310.3 641.251C314.1 646.351 323 648.651 328.3 645.951C331.5 644.251 336 639.851 336 638.351C336 637.651 336.5 637.051 337 637.051C337.7 637.051 338 614.751 338 572.051V507.051H405V559.651L401.7 560.851C399.9 561.451 396.9 563.651 395 565.551C391.8 568.851 391.6 569.451 391.7 575.651C391.7 582.051 391.9 582.451 395.6 586.051C397.8 588.051 400.7 590.051 402.3 590.451L405 591.051V613.151C405 636.651 405.4 639.051 410.4 643.451C416 648.351 425 648.351 430.6 643.451C435.6 639.051 436 636.651 436 613.151V591.051L438.8 590.451C440.3 590.051 443.2 588.051 445.4 586.051C449.1 582.451 449.3 582.051 449.3 575.651C449.4 569.451 449.2 568.851 446 565.551C444.1 563.651 441.1 561.451 439.3 560.851L436 559.651V507.051H503V572.051C503 614.751 503.3 637.051 504 637.051C504.6 637.051 505 637.651 505 638.351C505 639.051 506.5 641.151 508.3 642.851C514.2 648.551 523.6 648.451 529.4 642.651C535 637.051 535.1 634.651 534.8 567.251L534.5 507.051H540.6C549.5 507.051 552.5 506.251 556.6 502.651C564.9 495.451 563.6 483.951 553.8 477.751C551.3 476.151 542.1 476.051 420.3 476.151C300 476.151 289.3 476.251 287 477.851Z" fill="url(#paint25_linear)"/>
<path d="M680.3 477.451C679 478.151 677 479.551 675.9 480.651C671.1 484.851 671 486.151 671 533.551C671 575.951 671.1 578.351 673 582.051C674.1 584.151 676.4 586.951 678.2 588.251C681.5 590.551 681.9 590.551 711.5 590.851C728 591.051 743.3 590.951 745.5 590.551C749.7 589.951 754.9 586.251 756.9 582.351C757.7 580.851 758 566.051 758 533.451C758 488.251 757.9 486.651 756 483.451C754.8 481.651 752.3 479.251 750.4 478.151C747 476.151 745.6 476.051 714.7 476.151C691.1 476.251 681.9 476.551 680.3 477.451ZM727 560.051H702V507.051H727V560.051Z" fill="url(#paint26_linear)"/>
<path d="M680.3 477.451C679 478.151 677 479.551 675.9 480.651C671.1 484.851 671 486.151 671 533.551C671 575.951 671.1 578.351 673 582.051C674.1 584.151 676.4 586.951 678.2 588.251C681.5 590.551 681.9 590.551 711.5 590.851C728 591.051 743.3 590.951 745.5 590.551C749.7 589.951 754.9 586.251 756.9 582.351C757.7 580.851 758 566.051 758 533.451C758 488.251 757.9 486.651 756 483.451C754.8 481.651 752.3 479.251 750.4 478.151C747 476.151 745.6 476.051 714.7 476.151C691.1 476.251 681.9 476.551 680.3 477.451ZM727 560.051H702V507.051H727V560.051Z" fill="url(#paint27_linear)"/>
<path d="M733 616.651C731.1 616.951 728.6 617.451 727.5 617.951C726.4 618.451 723.5 619.651 721 620.651C713.7 623.651 706.8 628.451 701.5 634.351C695.2 641.351 694 642.751 694 643.751C694 644.151 690 644.551 685.2 644.651C677.2 644.651 675.7 645.051 668.8 648.351C661.8 651.751 650 661.751 650 664.351C650 664.851 649.1 666.551 648 668.051C642.6 675.651 642.2 695.551 647.2 706.051C651.1 714.051 659.6 722.451 668.2 726.951L674.3 730.051H811.9L816.7 727.451C826.8 721.851 833.7 715.151 838.9 705.751C840.8 702.451 841 700.351 841 687.051C841 678.751 840.7 672.051 840.2 672.051C839.8 672.051 838.7 670.151 837.7 667.951C836.7 665.651 833.4 661.151 830.4 658.051C825.4 652.851 822.5 650.951 811.3 645.751C810.1 645.251 805.2 644.651 800.6 644.651C793.1 644.551 792 644.351 791.2 642.551C789.4 638.851 781.8 631.051 775.5 626.551C772.1 624.051 768.9 622.051 768.5 622.051C768.1 622.051 766.4 621.451 764.7 620.651C762.9 619.951 760.2 618.751 758.6 618.151C755.5 616.851 738.9 615.951 733 616.651ZM749.5 648.051C749.8 648.551 750.9 649.051 751.8 649.051C752.7 649.051 755.6 650.551 758.2 652.251C763 655.551 767.1 661.751 768.5 667.851C769.4 671.951 773.8 676.551 778.8 678.551C783.4 680.451 785.9 680.151 792.4 676.951C794.6 675.951 797.3 675.051 798.5 675.051C803 675.051 809.9 679.951 810.8 683.851C812.4 690.751 809.1 697.351 803.2 699.051C800.9 699.651 778.4 700.051 742 700.051C689.2 700.051 684.2 699.951 681.1 698.251C672.3 693.851 672 681.951 680.6 676.951C684.7 674.451 688.8 674.651 694.8 677.551C697.7 678.951 700.9 680.051 702.1 680.051C705.8 680.051 713.5 675.151 715.2 671.751C717.9 666.351 720 661.251 720 660.251C720 658.351 730 649.951 733 649.351C734.7 649.051 736.3 648.351 736.6 647.951C737.3 646.751 748.7 646.851 749.5 648.051Z" fill="url(#paint28_linear)"/>
<path d="M733 616.651C731.1 616.951 728.6 617.451 727.5 617.951C726.4 618.451 723.5 619.651 721 620.651C713.7 623.651 706.8 628.451 701.5 634.351C695.2 641.351 694 642.751 694 643.751C694 644.151 690 644.551 685.2 644.651C677.2 644.651 675.7 645.051 668.8 648.351C661.8 651.751 650 661.751 650 664.351C650 664.851 649.1 666.551 648 668.051C642.6 675.651 642.2 695.551 647.2 706.051C651.1 714.051 659.6 722.451 668.2 726.951L674.3 730.051H811.9L816.7 727.451C826.8 721.851 833.7 715.151 838.9 705.751C840.8 702.451 841 700.351 841 687.051C841 678.751 840.7 672.051 840.2 672.051C839.8 672.051 838.7 670.151 837.7 667.951C836.7 665.651 833.4 661.151 830.4 658.051C825.4 652.851 822.5 650.951 811.3 645.751C810.1 645.251 805.2 644.651 800.6 644.651C793.1 644.551 792 644.351 791.2 642.551C789.4 638.851 781.8 631.051 775.5 626.551C772.1 624.051 768.9 622.051 768.5 622.051C768.1 622.051 766.4 621.451 764.7 620.651C762.9 619.951 760.2 618.751 758.6 618.151C755.5 616.851 738.9 615.951 733 616.651ZM749.5 648.051C749.8 648.551 750.9 649.051 751.8 649.051C752.7 649.051 755.6 650.551 758.2 652.251C763 655.551 767.1 661.751 768.5 667.851C769.4 671.951 773.8 676.551 778.8 678.551C783.4 680.451 785.9 680.151 792.4 676.951C794.6 675.951 797.3 675.051 798.5 675.051C803 675.051 809.9 679.951 810.8 683.851C812.4 690.751 809.1 697.351 803.2 699.051C800.9 699.651 778.4 700.051 742 700.051C689.2 700.051 684.2 699.951 681.1 698.251C672.3 693.851 672 681.951 680.6 676.951C684.7 674.451 688.8 674.651 694.8 677.551C697.7 678.951 700.9 680.051 702.1 680.051C705.8 680.051 713.5 675.151 715.2 671.751C717.9 666.351 720 661.251 720 660.251C720 658.351 730 649.951 733 649.351C734.7 649.051 736.3 648.351 736.6 647.951C737.3 646.751 748.7 646.851 749.5 648.051Z" fill="url(#paint29_linear)"/>
<path d="M206.5 672.851C202.1 674.351 197.9 677.651 196.3 681.051C194.9 683.751 194.4 687.751 194.2 699.351C193.7 716.951 194.7 721.951 199.5 726.751C202.6 729.851 203.1 730.051 210.2 730.051C217.3 730.051 217.7 729.951 220.6 726.751C224.9 722.151 226 718.951 226 710.551V703.051H416C590.6 703.051 606.4 702.951 609.3 701.451C616.3 697.851 619.8 690.351 617.8 683.651C616.4 679.151 610.3 673.551 605.8 672.651C601.7 671.851 209.1 672.051 206.5 672.851Z" fill="url(#paint30_linear)"/>
<path d="M206.5 672.851C202.1 674.351 197.9 677.651 196.3 681.051C194.9 683.751 194.4 687.751 194.2 699.351C193.7 716.951 194.7 721.951 199.5 726.751C202.6 729.851 203.1 730.051 210.2 730.051C217.3 730.051 217.7 729.951 220.6 726.751C224.9 722.151 226 718.951 226 710.551V703.051H416C590.6 703.051 606.4 702.951 609.3 701.451C616.3 697.851 619.8 690.351 617.8 683.651C616.4 679.151 610.3 673.551 605.8 672.651C601.7 671.851 209.1 672.051 206.5 672.851Z" fill="url(#paint31_linear)"/>
<defs>
<linearGradient id="paint0_linear" x1="420.5" y1="0" x2="420.5" y2="730.051" gradientUnits="userSpaceOnUse">
<stop stop-color="#771CD1"/>
<stop offset="1" stop-color="#771CD1" stop-opacity="0"/>
</linearGradient>
<linearGradient id="paint1_linear" x1="420.5" y1="0" x2="420.5" y2="730.051" gradientUnits="userSpaceOnUse">
<stop stop-color="#8E06C2"/>
<stop offset="0.833333" stop-color="#4B44AD"/>
</linearGradient>
<linearGradient id="paint2_linear" x1="420.5" y1="0" x2="420.5" y2="730.051" gradientUnits="userSpaceOnUse">
<stop stop-color="#771CD1"/>
<stop offset="1" stop-color="#771CD1" stop-opacity="0"/>
</linearGradient>
<linearGradient id="paint3_linear" x1="420.5" y1="0" x2="420.5" y2="730.051" gradientUnits="userSpaceOnUse">
<stop stop-color="#8E06C2"/>
<stop offset="0.833333" stop-color="#4B44AD"/>
</linearGradient>
<linearGradient id="paint4_linear" x1="420.5" y1="0" x2="420.5" y2="730.051" gradientUnits="userSpaceOnUse">
<stop stop-color="#771CD1"/>
<stop offset="1" stop-color="#771CD1" stop-opacity="0"/>
</linearGradient>
<linearGradient id="paint5_linear" x1="420.5" y1="0" x2="420.5" y2="730.051" gradientUnits="userSpaceOnUse">
<stop stop-color="#8E06C2"/>
<stop offset="0.833333" stop-color="#4B44AD"/>
</linearGradient>
<linearGradient id="paint6_linear" x1="420.5" y1="0" x2="420.5" y2="730.051" gradientUnits="userSpaceOnUse">
<stop stop-color="#771CD1"/>
<stop offset="1" stop-color="#771CD1" stop-opacity="0"/>
</linearGradient>
<linearGradient id="paint7_linear" x1="420.5" y1="0" x2="420.5" y2="730.051" gradientUnits="userSpaceOnUse">
<stop stop-color="#8E06C2"/>
<stop offset="0.833333" stop-color="#4B44AD"/>
</linearGradient>
<linearGradient id="paint8_linear" x1="420.5" y1="0" x2="420.5" y2="730.051" gradientUnits="userSpaceOnUse">
<stop stop-color="#771CD1"/>
<stop offset="1" stop-color="#771CD1" stop-opacity="0"/>
</linearGradient>
<linearGradient id="paint9_linear" x1="420.5" y1="0" x2="420.5" y2="730.051" gradientUnits="userSpaceOnUse">
<stop stop-color="#8E06C2"/>
<stop offset="0.833333" stop-color="#4B44AD"/>
</linearGradient>
<linearGradient id="paint10_linear" x1="420.5" y1="0" x2="420.5" y2="730.051" gradientUnits="userSpaceOnUse">
<stop stop-color="#771CD1"/>
<stop offset="1" stop-color="#771CD1" stop-opacity="0"/>
</linearGradient>
<linearGradient id="paint11_linear" x1="420.5" y1="0" x2="420.5" y2="730.051" gradientUnits="userSpaceOnUse">
<stop stop-color="#8E06C2"/>
<stop offset="0.833333" stop-color="#4B44AD"/>
</linearGradient>
<linearGradient id="paint12_linear" x1="420.5" y1="0" x2="420.5" y2="730.051" gradientUnits="userSpaceOnUse">
<stop stop-color="#771CD1"/>
<stop offset="1" stop-color="#771CD1" stop-opacity="0"/>
</linearGradient>
<linearGradient id="paint13_linear" x1="420.5" y1="0" x2="420.5" y2="730.051" gradientUnits="userSpaceOnUse">
<stop stop-color="#8E06C2"/>
<stop offset="0.833333" stop-color="#4B44AD"/>
</linearGradient>
<linearGradient id="paint14_linear" x1="420.5" y1="0" x2="420.5" y2="730.051" gradientUnits="userSpaceOnUse">
<stop stop-color="#771CD1"/>
<stop offset="1" stop-color="#771CD1" stop-opacity="0"/>
</linearGradient>
<linearGradient id="paint15_linear" x1="420.5" y1="0" x2="420.5" y2="730.051" gradientUnits="userSpaceOnUse">
<stop stop-color="#8E06C2"/>
<stop offset="0.833333" stop-color="#4B44AD"/>
</linearGradient>
<linearGradient id="paint16_linear" x1="420.5" y1="0" x2="420.5" y2="730.051" gradientUnits="userSpaceOnUse">
<stop stop-color="#771CD1"/>
<stop offset="1" stop-color="#771CD1" stop-opacity="0"/>
</linearGradient>
<linearGradient id="paint17_linear" x1="420.5" y1="0" x2="420.5" y2="730.051" gradientUnits="userSpaceOnUse">
<stop stop-color="#8E06C2"/>
<stop offset="0.833333" stop-color="#4B44AD"/>
</linearGradient>
<linearGradient id="paint18_linear" x1="420.5" y1="0" x2="420.5" y2="730.051" gradientUnits="userSpaceOnUse">
<stop stop-color="#771CD1"/>
<stop offset="1" stop-color="#771CD1" stop-opacity="0"/>
</linearGradient>
<linearGradient id="paint19_linear" x1="420.5" y1="0" x2="420.5" y2="730.051" gradientUnits="userSpaceOnUse">
<stop stop-color="#8E06C2"/>
<stop offset="0.833333" stop-color="#4B44AD"/>
</linearGradient>
<linearGradient id="paint20_linear" x1="420.5" y1="0" x2="420.5" y2="730.051" gradientUnits="userSpaceOnUse">
<stop stop-color="#771CD1"/>
<stop offset="1" stop-color="#771CD1" stop-opacity="0"/>
</linearGradient>
<linearGradient id="paint21_linear" x1="420.5" y1="0" x2="420.5" y2="730.051" gradientUnits="userSpaceOnUse">
<stop stop-color="#8E06C2"/>
<stop offset="0.833333" stop-color="#4B44AD"/>
</linearGradient>
<linearGradient id="paint22_linear" x1="420.5" y1="0" x2="420.5" y2="730.051" gradientUnits="userSpaceOnUse">
<stop stop-color="#771CD1"/>
<stop offset="1" stop-color="#771CD1" stop-opacity="0"/>
</linearGradient>
<linearGradient id="paint23_linear" x1="420.5" y1="0" x2="420.5" y2="730.051" gradientUnits="userSpaceOnUse">
<stop stop-color="#8E06C2"/>
<stop offset="0.833333" stop-color="#4B44AD"/>
</linearGradient>
<linearGradient id="paint24_linear" x1="420.5" y1="0" x2="420.5" y2="730.051" gradientUnits="userSpaceOnUse">
<stop stop-color="#771CD1"/>
<stop offset="1" stop-color="#771CD1" stop-opacity="0"/>
</linearGradient>
<linearGradient id="paint25_linear" x1="420.5" y1="0" x2="420.5" y2="730.051" gradientUnits="userSpaceOnUse">
<stop stop-color="#8E06C2"/>
<stop offset="0.833333" stop-color="#4B44AD"/>
</linearGradient>
<linearGradient id="paint26_linear" x1="420.5" y1="0" x2="420.5" y2="730.051" gradientUnits="userSpaceOnUse">
<stop stop-color="#771CD1"/>
<stop offset="1" stop-color="#771CD1" stop-opacity="0"/>
</linearGradient>
<linearGradient id="paint27_linear" x1="420.5" y1="0" x2="420.5" y2="730.051" gradientUnits="userSpaceOnUse">
<stop stop-color="#8E06C2"/>
<stop offset="0.833333" stop-color="#4B44AD"/>
</linearGradient>
<linearGradient id="paint28_linear" x1="420.5" y1="0" x2="420.5" y2="730.051" gradientUnits="userSpaceOnUse">
<stop stop-color="#771CD1"/>
<stop offset="1" stop-color="#771CD1" stop-opacity="0"/>
</linearGradient>
<linearGradient id="paint29_linear" x1="420.5" y1="0" x2="420.5" y2="730.051" gradientUnits="userSpaceOnUse">
<stop stop-color="#8E06C2"/>
<stop offset="0.833333" stop-color="#4B44AD"/>
</linearGradient>
<linearGradient id="paint30_linear" x1="420.5" y1="0" x2="420.5" y2="730.051" gradientUnits="userSpaceOnUse">
<stop stop-color="#771CD1"/>
<stop offset="1" stop-color="#771CD1" stop-opacity="0"/>
</linearGradient>
<linearGradient id="paint31_linear" x1="420.5" y1="0" x2="420.5" y2="730.051" gradientUnits="userSpaceOnUse">
<stop stop-color="#8E06C2"/>
<stop offset="0.833333" stop-color="#4B44AD"/>
</linearGradient>
</defs>
</svg>
