<svg width="1080" height="1080" viewBox="0 0 1080 1080" fill="none" xmlns="http://www.w3.org/2000/svg">
<path d="M323.201 119.105C323.238 119.118 323.274 119.136 323.311 119.148" stroke="black" stroke-width="0.51574" stroke-miterlimit="10"/>
<path d="M336.029 198.284L336.066 198.266" stroke="black" stroke-width="0.70997" stroke-miterlimit="10"/>
<path d="M364.718 109.805C364.754 109.817 364.791 109.835 364.827 109.847" stroke="black" stroke-width="0.51574" stroke-miterlimit="10"/>
<path d="M737.347 447.528C748.443 446.689 759.441 444.864 770.213 442.076C787.803 437.601 808.127 426.918 815.581 409.207C822.552 392.644 817.237 373.302 803.813 361.67C803.731 361.6 803.65 361.529 803.568 361.459C802.229 360.338 800.68 359.498 799.01 358.988C797.341 358.477 795.586 358.308 793.85 358.489C792.114 358.67 790.432 359.198 788.904 360.042C787.376 360.885 786.033 362.027 784.955 363.4C779.484 370.414 782.589 380.747 781.251 388.862C779.984 396.543 776.04 404.031 771.529 410.28C760.807 425.132 744.35 435.105 727.113 440.626C720.354 442.672 713.441 444.173 706.441 445.114C705.889 445.201 726.78 448.342 737.347 447.528Z" fill="#8ECEDB"/>
<path d="M706.441 445.114C711.711 445.713 717.011 446.012 722.315 446.008C731.749 446.026 741.159 445.066 750.395 443.144C786.765 435.517 813.057 413.464 813.057 387.445C813.057 378.195 809.737 369.449 803.813 361.67C803.731 361.6 803.65 361.529 803.567 361.459C796.855 355.708 785.39 356.919 781.929 365.689C779.444 371.985 781.415 379.105 780.808 385.651C780.143 393.402 777.628 400.88 773.476 407.459C762.493 424.583 744.063 435.638 724.874 441.313C721.688 442.255 718.464 443.053 715.204 443.708C712.619 444.227 709.071 445.415 706.441 445.114Z" fill="url(#paint0_linear_13_207)"/>
<path d="M734.556 567.128C745.652 567.968 756.65 569.792 767.422 572.58C785.012 577.055 805.336 587.738 812.79 605.45C819.761 622.012 814.446 641.355 801.022 652.986C800.94 653.057 800.858 653.127 800.776 653.198C799.438 654.318 797.889 655.159 796.219 655.669C794.55 656.179 792.795 656.349 791.059 656.168C789.323 655.987 787.641 655.459 786.113 654.615C784.585 653.771 783.242 652.629 782.164 651.256C776.693 644.242 779.798 633.91 778.46 625.794C777.193 618.114 773.249 610.626 768.738 604.376C758.016 589.525 741.559 579.552 724.322 574.031C717.563 571.985 710.65 570.484 703.65 569.542C703.098 569.456 723.989 566.314 734.556 567.128Z" fill="#8ECEDB"/>
<path d="M703.65 569.543C708.92 568.944 714.22 568.645 719.524 568.649C728.958 568.631 738.368 569.591 747.604 571.513C783.974 579.14 810.266 601.193 810.266 627.211C810.266 636.462 806.946 645.208 801.022 652.987C800.94 653.057 800.859 653.128 800.776 653.198C794.064 658.949 782.599 657.737 779.138 648.968C776.653 642.672 778.624 635.551 778.017 629.006C777.352 621.255 774.837 613.777 770.685 607.198C759.702 590.074 741.272 579.019 722.083 573.344C718.896 572.402 715.673 571.603 712.413 570.948C709.828 570.43 706.28 569.242 703.65 569.543Z" fill="url(#paint1_linear_13_207)"/>
<path d="M281.614 194.367C281.608 194.088 281.602 194.647 281.614 194.367V194.367Z" fill="#205F88"/>
<path d="M201.056 287.68C212.655 301.212 247.157 312.494 222.842 261.947C222.841 261.947 222.84 261.947 222.84 261.947C222.839 261.946 222.838 261.946 222.838 261.945C222.837 261.945 222.837 261.944 222.836 261.943C222.836 261.943 222.836 261.942 222.836 261.941C216.384 248.105 213.481 232.88 214.388 217.64C216.772 176.886 242.079 158.165 245.339 177.22C247.265 189.343 250.738 201.17 255.672 212.41C272.178 248.822 277.768 223.364 282.609 192.522L282.615 193.368C283.399 177.944 302.199 148.763 326.362 148.763C337.455 147.029 348.835 152.54 359.369 161.808C373.777 174.477 386.603 194.17 394.954 211.99C374.981 163.122 342.85 117.411 311.413 104.93C294.467 96.8443 275.423 94.2353 256.927 97.4658C238.43 100.696 221.399 109.606 208.197 122.957C207.236 124.107 206.299 125.274 205.381 126.448C198.673 135.33 192.797 144.812 187.828 154.772C165.678 197.667 172.842 254.758 201.056 287.68Z" fill="url(#paint2_linear_13_207)"/>
<path d="M367.12 147.811C420.58 223.859 426.074 307.811 412.461 335.626C398.231 364.703 340.209 316.419 351.139 356.106C366.596 412.21 420.759 445.249 471.859 464.79C524.892 485.069 585.221 498.025 642.169 498.025H642.284C728.318 496.651 799.489 458.664 815.892 408.531C811.847 420.894 797.303 430.607 786.384 435.79C752.654 451.801 706.21 447.8 671.403 437.603C632.409 426.179 599.064 400.696 578.704 365.604C566.875 345.236 555.55 318.949 543.532 290.827C530.48 260.283 516.608 227.581 500.381 197.944C490.317 176.845 477.142 157.377 461.299 140.19C391.898 64.823 293.931 40.2642 219.67 110.693L213.68 116.683C241.991 91.1151 312.182 69.6398 367.12 147.811Z" fill="url(#paint3_linear_13_207)"/>
<path d="M208.107 122.957C221.309 109.606 238.341 100.696 256.838 97.4658C275.334 94.2354 294.377 96.8443 311.324 104.93C342.761 117.411 374.892 163.122 394.865 211.99C398.623 219.749 401.576 227.872 403.677 236.233C414.698 270.857 417.097 308.184 411.423 328.63C408.09 340.637 403.569 344.683 398.294 345.296C405.876 345.791 410.635 340.884 413.372 334.626C428.881 299.162 421.491 222.859 368.031 146.811C313.093 68.6397 242.902 90.1149 214.591 115.683C214.585 115.689 214.572 115.695 214.566 115.708C212.322 118.08 210.169 120.496 208.107 122.957Z" fill="#65C2D2"/>
<path d="M695.416 418.59C717.187 418.59 734.836 400.941 734.836 379.171C734.836 357.4 717.187 339.751 695.416 339.751C673.646 339.751 655.997 357.4 655.997 379.171C655.997 400.941 673.646 418.59 695.416 418.59Z" fill="url(#paint4_linear_13_207)"/>
<path d="M518.043 422.282C518.044 422.282 518.046 422.282 518.047 422.281C518.048 422.281 518.049 422.28 518.05 422.279C518.051 422.278 518.052 422.277 518.052 422.276C518.053 422.274 518.053 422.273 518.053 422.272C518.053 422.27 518.053 422.269 518.054 422.268C518.054 422.267 518.055 422.266 518.056 422.265C518.057 422.264 518.058 422.263 518.059 422.262C518.06 422.262 518.062 422.262 518.063 422.262" stroke="black" stroke-miterlimit="10"/>
<path d="M815.252 610.931C808.961 589.652 782.083 575.962 762.752 573.335C695.416 564.185 634.733 568.368 592.352 613.052C568.109 638.613 548.17 686.556 534.297 723.435C518.279 766.013 485.852 812.582 476.052 768.142C444.83 626.681 425.81 839.321 336.066 918.928C260.903 985.601 144.086 930.397 179.841 810.959C180.131 809.993 180.469 809.039 180.802 808.082C215.782 707.722 306.242 632.522 400.932 579.972C424.407 566.96 449.048 556.173 474.532 547.752C502.682 538.442 536.332 528.252 554.362 524.842C578.842 520.108 603.709 517.664 628.642 517.542H628.732C722.562 518.952 799.852 558.832 815.252 610.931Z" fill="url(#paint5_linear_13_207)"/>
<defs>
<linearGradient id="paint0_linear_13_207" x1="706.441" y1="401.973" x2="813.057" y2="401.973" gradientUnits="userSpaceOnUse">
<stop stop-color="#0C4C82"/>
<stop offset="0.21543" stop-color="#105E8E"/>
<stop offset="0.64345" stop-color="#1C8BAD"/>
<stop offset="1" stop-color="#26B6CA"/>
</linearGradient>
<linearGradient id="paint1_linear_13_207" x1="703.65" y1="612.684" x2="810.266" y2="612.684" gradientUnits="userSpaceOnUse">
<stop stop-color="#0C4C82"/>
<stop offset="0.21543" stop-color="#105E8E"/>
<stop offset="0.64345" stop-color="#1C8BAD"/>
<stop offset="1" stop-color="#26B6CA"/>
</linearGradient>
<linearGradient id="paint2_linear_13_207" x1="82.0979" y1="197.639" x2="499.045" y2="197.639" gradientUnits="userSpaceOnUse">
<stop stop-color="#26B6CA"/>
<stop offset="0.35655" stop-color="#1C8BAD"/>
<stop offset="0.78457" stop-color="#105E8E"/>
<stop offset="1" stop-color="#0C4C82"/>
</linearGradient>
<linearGradient id="paint3_linear_13_207" x1="213.68" y1="283.474" x2="815.892" y2="283.474" gradientUnits="userSpaceOnUse">
<stop offset="0.49069" stop-color="#26B6CA"/>
<stop offset="0.56019" stop-color="#30B9C7"/>
<stop offset="0.68036" stop-color="#4DBFBE"/>
<stop offset="0.83676" stop-color="#7ACBAF"/>
<stop offset="1" stop-color="#B1D89E"/>
</linearGradient>
<linearGradient id="paint4_linear_13_207" x1="627.106" y1="379.171" x2="731.945" y2="379.171" gradientUnits="userSpaceOnUse">
<stop stop-color="#0C4C82"/>
<stop offset="0.00921" stop-color="#0D4F84"/>
<stop offset="0.18681" stop-color="#187BA2"/>
<stop offset="0.34558" stop-color="#1F9BB8"/>
<stop offset="0.47837" stop-color="#24AFC5"/>
<stop offset="0.5689" stop-color="#26B6CA"/>
<stop offset="0.62773" stop-color="#30B9C7"/>
<stop offset="0.72945" stop-color="#4DBFBE"/>
<stop offset="0.86182" stop-color="#7ACBAF"/>
<stop offset="1" stop-color="#B1D89E"/>
</linearGradient>
<linearGradient id="paint5_linear_13_207" x1="86.4911" y1="732.568" x2="780.108" y2="732.568" gradientUnits="userSpaceOnUse">
<stop stop-color="#0C4C82"/>
<stop offset="0.00851" stop-color="#0D4F84"/>
<stop offset="0.17261" stop-color="#187BA2"/>
<stop offset="0.31931" stop-color="#1F9BB8"/>
<stop offset="0.442" stop-color="#24AFC5"/>
<stop offset="0.52565" stop-color="#26B6CA"/>
<stop offset="0.59038" stop-color="#30B9C7"/>
<stop offset="0.7023" stop-color="#4DBFBE"/>
<stop offset="0.84796" stop-color="#7ACBAF"/>
<stop offset="1" stop-color="#B1D89E"/>
</linearGradient>
</defs>
</svg>
