<svg width="873" height="934" viewBox="0 0 873 934" fill="none" xmlns="http://www.w3.org/2000/svg">
<path d="M335.163 0.681287C322.263 1.88129 304.063 4.48129 296.163 6.28129C286.263 8.48129 281.963 9.78129 282.363 10.1813C282.563 10.4813 289.463 11.3813 297.763 12.1813C368.563 19.4813 429.063 42.3813 496.163 86.9813C527.463 107.781 547.563 124.381 578.663 154.581C646.063 220.381 661.863 236.981 835.163 425.081C844.163 434.881 851.763 442.481 851.863 441.981C852.263 440.781 840.363 412.781 835.163 402.681C832.063 396.881 808.863 367.481 739.363 281.581C637.663 155.681 634.463 151.781 611.663 126.181C572.563 82.3813 541.263 55.1813 504.163 32.8813C478.963 17.6813 447.963 5.78129 424.163 2.08129C411.963 0.181287 351.063 -0.718713 335.163 0.681287Z" fill="url(#paint0_linear)"/>
<path d="M335.163 0.681287C322.263 1.88129 304.063 4.48129 296.163 6.28129C286.263 8.48129 281.963 9.78129 282.363 10.1813C282.563 10.4813 289.463 11.3813 297.763 12.1813C368.563 19.4813 429.063 42.3813 496.163 86.9813C527.463 107.781 547.563 124.381 578.663 154.581C646.063 220.381 661.863 236.981 835.163 425.081C844.163 434.881 851.763 442.481 851.863 441.981C852.263 440.781 840.363 412.781 835.163 402.681C832.063 396.881 808.863 367.481 739.363 281.581C637.663 155.681 634.463 151.781 611.663 126.181C572.563 82.3813 541.263 55.1813 504.163 32.8813C478.963 17.6813 447.963 5.78129 424.163 2.08129C411.963 0.181287 351.063 -0.718713 335.163 0.681287Z" fill="url(#paint1_linear)"/>
<path d="M237.863 47.6812C206.163 50.3812 173.463 58.5812 145.163 70.9812C132.963 76.2812 132.563 76.4812 133.263 76.9812C133.463 77.1812 141.563 76.9812 151.163 76.5812C183.263 75.2812 233.563 77.9812 264.763 82.6812C280.363 85.0812 323.463 95.5812 344.663 102.181C399.363 119.181 448.763 145.981 510.163 192.281C517.563 197.881 600.163 269.781 694.163 352.581C812.563 456.781 864.763 502.181 865.063 501.081C865.563 498.381 863.163 487.681 860.563 481.181C855.563 468.781 850.763 463.581 796.363 410.581C767.363 382.281 721.163 336.881 693.663 309.681C584.963 202.081 533.763 155.581 487.163 122.181C431.463 82.2812 370.863 58.0812 305.163 49.5812C287.263 47.2812 254.163 46.3812 237.863 47.6812Z" fill="url(#paint2_linear)"/>
<path d="M237.863 47.6812C206.163 50.3812 173.463 58.5812 145.163 70.9812C132.963 76.2812 132.563 76.4812 133.263 76.9812C133.463 77.1812 141.563 76.9812 151.163 76.5812C183.263 75.2812 233.563 77.9812 264.763 82.6812C280.363 85.0812 323.463 95.5812 344.663 102.181C399.363 119.181 448.763 145.981 510.163 192.281C517.563 197.881 600.163 269.781 694.163 352.581C812.563 456.781 864.763 502.181 865.063 501.081C865.563 498.381 863.163 487.681 860.563 481.181C855.563 468.781 850.763 463.581 796.363 410.581C767.363 382.281 721.163 336.881 693.663 309.681C584.963 202.081 533.763 155.581 487.163 122.181C431.463 82.2812 370.863 58.0812 305.163 49.5812C287.263 47.2812 254.163 46.3812 237.863 47.6812Z" fill="url(#paint3_linear)"/>
<path d="M189.163 114.281C141.763 118.281 105.363 127.981 72.5626 145.181C61.8626 150.781 48.8626 158.681 49.3626 159.281C49.5626 159.481 57.3626 158.781 66.6626 157.681C96.7626 154.381 119.063 153.381 148.163 153.981C229.763 155.681 303.763 172.181 373.163 204.181C406.863 219.581 460.663 250.181 508.663 281.181C545.663 305.081 707.663 428.581 835.463 530.381L872.163 559.681V555.881C872.163 546.281 863.963 526.581 855.963 517.081C852.263 512.581 795.063 463.481 770.663 443.681C766.263 440.181 742.663 420.781 718.163 400.681C546.363 259.481 485.563 213.981 417.063 175.381C360.563 143.481 299.863 122.281 247.663 116.181C235.063 114.681 198.363 113.481 189.163 114.281Z" fill="url(#paint4_linear)"/>
<path d="M189.163 114.281C141.763 118.281 105.363 127.981 72.5626 145.181C61.8626 150.781 48.8626 158.681 49.3626 159.281C49.5626 159.481 57.3626 158.781 66.6626 157.681C96.7626 154.381 119.063 153.381 148.163 153.981C229.763 155.681 303.763 172.181 373.163 204.181C406.863 219.581 460.663 250.181 508.663 281.181C545.663 305.081 707.663 428.581 835.463 530.381L872.163 559.681V555.881C872.163 546.281 863.963 526.581 855.963 517.081C852.263 512.581 795.063 463.481 770.663 443.681C766.263 440.181 742.663 420.781 718.163 400.681C546.363 259.481 485.563 213.981 417.063 175.381C360.563 143.481 299.863 122.281 247.663 116.181C235.063 114.681 198.363 113.481 189.163 114.281Z" fill="url(#paint5_linear)"/>
<path d="M806.163 136.681C806.163 137.481 807.563 142.381 809.163 147.481C815.863 168.881 818.663 189.981 817.863 213.181C816.563 249.081 805.063 278.881 783.563 301.581C780.063 305.381 777.163 308.881 777.163 309.481C777.163 310.081 781.263 315.381 786.363 321.181L795.563 331.881L798.363 328.581C812.563 311.781 825.363 283.381 831.263 255.681C833.263 246.681 833.563 242.081 833.563 224.181C833.563 200.881 832.163 191.381 826.063 173.981C821.263 160.381 806.263 132.181 806.163 136.681Z" fill="url(#paint6_linear)"/>
<path d="M806.163 136.681C806.163 137.481 807.563 142.381 809.163 147.481C815.863 168.881 818.663 189.981 817.863 213.181C816.563 249.081 805.063 278.881 783.563 301.581C780.063 305.381 777.163 308.881 777.163 309.481C777.163 310.081 781.263 315.381 786.363 321.181L795.563 331.881L798.363 328.581C812.563 311.781 825.363 283.381 831.263 255.681C833.263 246.681 833.563 242.081 833.563 224.181C833.563 200.881 832.163 191.381 826.063 173.981C821.263 160.381 806.263 132.181 806.163 136.681Z" fill="url(#paint7_linear)"/>
<path d="M836.163 167.081C836.163 167.281 837.663 172.881 839.563 179.381C855.663 235.381 847.763 292.281 817.663 336.781C811.163 346.281 810.363 348.081 811.463 349.581C812.063 350.581 815.963 355.181 820.063 359.981C826.163 367.081 827.763 368.481 828.963 367.481C834.263 362.981 846.463 339.581 852.463 322.081C860.563 298.581 864.163 277.581 864.163 253.381C864.163 221.781 857.563 197.781 842.663 174.581C838.863 168.681 836.163 165.581 836.163 167.081Z" fill="url(#paint8_linear)"/>
<path d="M836.163 167.081C836.163 167.281 837.663 172.881 839.563 179.381C855.663 235.381 847.763 292.281 817.663 336.781C811.163 346.281 810.363 348.081 811.463 349.581C812.063 350.581 815.963 355.181 820.063 359.981C826.163 367.081 827.763 368.481 828.963 367.481C834.263 362.981 846.463 339.581 852.463 322.081C860.563 298.581 864.163 277.581 864.163 253.381C864.163 221.781 857.563 197.781 842.663 174.581C838.863 168.681 836.163 165.581 836.163 167.081Z" fill="url(#paint9_linear)"/>
<path d="M758.263 197.681C747.463 199.981 738.063 207.481 733.363 217.481C731.063 222.381 730.663 224.481 730.663 232.181C730.663 240.381 730.963 241.881 733.963 247.881C746.663 273.781 783.663 273.981 796.863 248.281C805.863 230.581 798.063 208.381 779.863 200.181C773.863 197.481 764.563 196.381 758.263 197.681Z" fill="url(#paint10_linear)"/>
<path d="M758.263 197.681C747.463 199.981 738.063 207.481 733.363 217.481C731.063 222.381 730.663 224.481 730.663 232.181C730.663 240.381 730.963 241.881 733.963 247.881C746.663 273.781 783.663 273.981 796.863 248.281C805.863 230.581 798.063 208.381 779.863 200.181C773.863 197.481 764.563 196.381 758.263 197.681Z" fill="url(#paint11_linear)"/>
<path d="M656.163 426.981C578.263 499.981 545.463 529.381 484.163 580.781C444.263 614.281 386.363 658.281 354.663 679.181C267.963 736.381 178.263 778.081 91.6626 801.581C64.7626 808.881 11.5626 819.681 2.66263 819.681C-9.23737 819.681 21.0626 829.181 47.7626 833.881C59.2626 835.881 63.9626 836.181 91.1626 836.081C117.463 836.081 123.563 835.781 135.163 833.981C179.663 826.981 213.363 815.581 263.163 790.681C342.063 751.381 402.963 705.081 522.163 593.781C589.963 530.481 679.163 441.281 679.163 436.781C679.163 435.881 662.563 422.681 661.463 422.681C660.963 422.681 658.663 424.581 656.163 426.981Z" fill="url(#paint12_linear)"/>
<path d="M656.163 426.981C578.263 499.981 545.463 529.381 484.163 580.781C444.263 614.281 386.363 658.281 354.663 679.181C267.963 736.381 178.263 778.081 91.6626 801.581C64.7626 808.881 11.5626 819.681 2.66263 819.681C-9.23737 819.681 21.0626 829.181 47.7626 833.881C59.2626 835.881 63.9626 836.181 91.1626 836.081C117.463 836.081 123.563 835.781 135.163 833.981C179.663 826.981 213.363 815.581 263.163 790.681C342.063 751.381 402.963 705.081 522.163 593.781C589.963 530.481 679.163 441.281 679.163 436.781C679.163 435.881 662.563 422.681 661.463 422.681C660.963 422.681 658.663 424.581 656.163 426.981Z" fill="url(#paint13_linear)"/>
<path d="M692.563 451.381C675.163 472.981 651.963 498.481 613.163 538.681C597.463 554.981 577.663 575.681 569.163 584.681C511.963 645.681 484.363 672.081 436.163 712.281C384.663 755.081 351.063 779.581 316.663 799.181C289.363 814.781 227.263 843.881 201.763 853.081C172.663 863.681 128.863 875.481 102.063 880.181C93.5626 881.581 84.8626 883.081 82.6626 883.581L78.6626 884.281L87.1626 886.981C109.163 893.881 132.263 897.581 157.163 898.381C203.863 899.781 242.163 890.281 296.763 863.781C332.663 846.281 364.263 826.781 394.863 803.181C408.863 792.481 454.563 754.881 465.163 745.381C483.563 728.981 512.963 700.281 532.563 679.681C586.263 623.281 617.063 587.181 680.163 506.681C699.363 482.081 704.863 475.381 711.863 467.281C714.263 464.681 716.163 462.081 716.163 461.581C716.163 460.881 697.763 446.681 696.763 446.681C696.563 446.681 694.663 448.781 692.563 451.381Z" fill="url(#paint14_linear)"/>
<path d="M692.563 451.381C675.163 472.981 651.963 498.481 613.163 538.681C597.463 554.981 577.663 575.681 569.163 584.681C511.963 645.681 484.363 672.081 436.163 712.281C384.663 755.081 351.063 779.581 316.663 799.181C289.363 814.781 227.263 843.881 201.763 853.081C172.663 863.681 128.863 875.481 102.063 880.181C93.5626 881.581 84.8626 883.081 82.6626 883.581L78.6626 884.281L87.1626 886.981C109.163 893.881 132.263 897.581 157.163 898.381C203.863 899.781 242.163 890.281 296.763 863.781C332.663 846.281 364.263 826.781 394.863 803.181C408.863 792.481 454.563 754.881 465.163 745.381C483.563 728.981 512.963 700.281 532.563 679.681C586.263 623.281 617.063 587.181 680.163 506.681C699.363 482.081 704.863 475.381 711.863 467.281C714.263 464.681 716.163 462.081 716.163 461.581C716.163 460.881 697.763 446.681 696.763 446.681C696.563 446.681 694.663 448.781 692.563 451.381Z" fill="url(#paint15_linear)"/>
<path d="M726.663 479.881C710.263 504.781 685.963 537.581 644.863 590.481C575.363 679.881 503.363 756.881 430.763 819.381C373.463 868.681 307.663 907.281 247.163 927.181C240.863 929.281 235.263 931.281 234.763 931.681C231.563 934.681 291.263 934.081 311.863 930.881C336.963 926.981 348.963 923.281 377.163 910.681C429.563 887.381 445.163 876.781 485.263 836.681C517.163 804.781 530.463 789.481 580.163 727.181C612.263 686.781 634.063 658.181 654.163 629.681C663.063 617.081 746.363 493.581 750.763 486.481C751.163 485.781 733.563 472.681 732.163 472.681C731.763 472.681 729.263 475.981 726.663 479.881Z" fill="url(#paint16_linear)"/>
<path d="M726.663 479.881C710.263 504.781 685.963 537.581 644.863 590.481C575.363 679.881 503.363 756.881 430.763 819.381C373.463 868.681 307.663 907.281 247.163 927.181C240.863 929.281 235.263 931.281 234.763 931.681C231.563 934.681 291.263 934.081 311.863 930.881C336.963 926.981 348.963 923.281 377.163 910.681C429.563 887.381 445.163 876.781 485.263 836.681C517.163 804.781 530.463 789.481 580.163 727.181C612.263 686.781 634.063 658.181 654.163 629.681C663.063 617.081 746.363 493.581 750.763 486.481C751.163 485.781 733.563 472.681 732.163 472.681C731.763 472.681 729.263 475.981 726.663 479.881Z" fill="url(#paint17_linear)"/>
<path d="M806.563 532.281C809.263 539.081 813.363 552.981 814.863 560.381C816.163 566.881 816.563 573.881 816.563 587.181C816.563 608.281 814.863 617.981 807.563 639.581C805.063 646.881 803.263 653.081 803.463 653.381C804.263 654.081 811.063 645.181 816.063 636.781C828.263 616.481 833.963 588.481 831.663 559.681L830.963 550.181L819.563 540.681C807.363 530.481 805.363 529.281 806.563 532.281Z" fill="url(#paint18_linear)"/>
<path d="M806.563 532.281C809.263 539.081 813.363 552.981 814.863 560.381C816.163 566.881 816.563 573.881 816.563 587.181C816.563 608.281 814.863 617.981 807.563 639.581C805.063 646.881 803.263 653.081 803.463 653.381C804.263 654.081 811.063 645.181 816.063 636.781C828.263 616.481 833.963 588.481 831.663 559.681L830.963 550.181L819.563 540.681C807.363 530.481 805.363 529.281 806.563 532.281Z" fill="url(#paint19_linear)"/>
<path d="M844.763 564.381C845.063 567.581 845.463 571.281 845.663 572.681C846.263 577.481 844.163 594.081 841.663 603.581C834.163 631.581 811.563 664.081 782.363 688.981C777.763 692.881 774.363 696.281 774.863 696.381C776.063 696.781 790.763 690.581 796.963 686.981C814.163 677.081 830.263 662.981 841.763 647.781C853.663 631.881 864.563 607.481 868.563 587.481C869.463 583.281 870.163 579.181 870.163 578.381C870.163 577.381 848.063 560.181 845.063 558.881C844.663 558.681 844.463 561.181 844.763 564.381Z" fill="url(#paint20_linear)"/>
<path d="M844.763 564.381C845.063 567.581 845.463 571.281 845.663 572.681C846.263 577.481 844.163 594.081 841.663 603.581C834.163 631.581 811.563 664.081 782.363 688.981C777.763 692.881 774.363 696.281 774.863 696.381C776.063 696.781 790.763 690.581 796.963 686.981C814.163 677.081 830.263 662.981 841.763 647.781C853.663 631.881 864.563 607.481 868.563 587.481C869.463 583.281 870.163 579.181 870.163 578.381C870.163 577.381 848.063 560.181 845.063 558.881C844.663 558.681 844.463 561.181 844.763 564.381Z" fill="url(#paint21_linear)"/>
<defs>
<linearGradient id="paint0_linear" x1="436.081" y1="-0.000244141" x2="436.081" y2="933.636" gradientUnits="userSpaceOnUse">
<stop stop-color="#771CD1"/>
<stop offset="1" stop-color="#771CD1" stop-opacity="0"/>
</linearGradient>
<linearGradient id="paint1_linear" x1="436.081" y1="-0.000244141" x2="436.081" y2="933.636" gradientUnits="userSpaceOnUse">
<stop stop-color="#8E06C2"/>
<stop offset="0.833333" stop-color="#4B44AD"/>
</linearGradient>
<linearGradient id="paint2_linear" x1="436.081" y1="-0.000244141" x2="436.081" y2="933.636" gradientUnits="userSpaceOnUse">
<stop stop-color="#771CD1"/>
<stop offset="1" stop-color="#771CD1" stop-opacity="0"/>
</linearGradient>
<linearGradient id="paint3_linear" x1="436.081" y1="-0.000244141" x2="436.081" y2="933.636" gradientUnits="userSpaceOnUse">
<stop stop-color="#8E06C2"/>
<stop offset="0.833333" stop-color="#4B44AD"/>
</linearGradient>
<linearGradient id="paint4_linear" x1="436.081" y1="-0.000244141" x2="436.081" y2="933.636" gradientUnits="userSpaceOnUse">
<stop stop-color="#771CD1"/>
<stop offset="1" stop-color="#771CD1" stop-opacity="0"/>
</linearGradient>
<linearGradient id="paint5_linear" x1="436.081" y1="-0.000244141" x2="436.081" y2="933.636" gradientUnits="userSpaceOnUse">
<stop stop-color="#8E06C2"/>
<stop offset="0.833333" stop-color="#4B44AD"/>
</linearGradient>
<linearGradient id="paint6_linear" x1="436.081" y1="-0.000244141" x2="436.081" y2="933.636" gradientUnits="userSpaceOnUse">
<stop stop-color="#771CD1"/>
<stop offset="1" stop-color="#771CD1" stop-opacity="0"/>
</linearGradient>
<linearGradient id="paint7_linear" x1="436.081" y1="-0.000244141" x2="436.081" y2="933.636" gradientUnits="userSpaceOnUse">
<stop stop-color="#8E06C2"/>
<stop offset="0.833333" stop-color="#4B44AD"/>
</linearGradient>
<linearGradient id="paint8_linear" x1="436.081" y1="-0.000244141" x2="436.081" y2="933.636" gradientUnits="userSpaceOnUse">
<stop stop-color="#771CD1"/>
<stop offset="1" stop-color="#771CD1" stop-opacity="0"/>
</linearGradient>
<linearGradient id="paint9_linear" x1="436.081" y1="-0.000244141" x2="436.081" y2="933.636" gradientUnits="userSpaceOnUse">
<stop stop-color="#8E06C2"/>
<stop offset="0.833333" stop-color="#4B44AD"/>
</linearGradient>
<linearGradient id="paint10_linear" x1="436.081" y1="-0.000244141" x2="436.081" y2="933.636" gradientUnits="userSpaceOnUse">
<stop stop-color="#771CD1"/>
<stop offset="1" stop-color="#771CD1" stop-opacity="0"/>
</linearGradient>
<linearGradient id="paint11_linear" x1="436.081" y1="-0.000244141" x2="436.081" y2="933.636" gradientUnits="userSpaceOnUse">
<stop stop-color="#8E06C2"/>
<stop offset="0.833333" stop-color="#4B44AD"/>
</linearGradient>
<linearGradient id="paint12_linear" x1="436.081" y1="-0.000244141" x2="436.081" y2="933.636" gradientUnits="userSpaceOnUse">
<stop stop-color="#771CD1"/>
<stop offset="1" stop-color="#771CD1" stop-opacity="0"/>
</linearGradient>
<linearGradient id="paint13_linear" x1="436.081" y1="-0.000244141" x2="436.081" y2="933.636" gradientUnits="userSpaceOnUse">
<stop stop-color="#8E06C2"/>
<stop offset="0.833333" stop-color="#4B44AD"/>
</linearGradient>
<linearGradient id="paint14_linear" x1="436.081" y1="-0.000244141" x2="436.081" y2="933.636" gradientUnits="userSpaceOnUse">
<stop stop-color="#771CD1"/>
<stop offset="1" stop-color="#771CD1" stop-opacity="0"/>
</linearGradient>
<linearGradient id="paint15_linear" x1="436.081" y1="-0.000244141" x2="436.081" y2="933.636" gradientUnits="userSpaceOnUse">
<stop stop-color="#8E06C2"/>
<stop offset="0.833333" stop-color="#4B44AD"/>
</linearGradient>
<linearGradient id="paint16_linear" x1="436.081" y1="-0.000244141" x2="436.081" y2="933.636" gradientUnits="userSpaceOnUse">
<stop stop-color="#771CD1"/>
<stop offset="1" stop-color="#771CD1" stop-opacity="0"/>
</linearGradient>
<linearGradient id="paint17_linear" x1="436.081" y1="-0.000244141" x2="436.081" y2="933.636" gradientUnits="userSpaceOnUse">
<stop stop-color="#8E06C2"/>
<stop offset="0.833333" stop-color="#4B44AD"/>
</linearGradient>
<linearGradient id="paint18_linear" x1="436.081" y1="-0.000244141" x2="436.081" y2="933.636" gradientUnits="userSpaceOnUse">
<stop stop-color="#771CD1"/>
<stop offset="1" stop-color="#771CD1" stop-opacity="0"/>
</linearGradient>
<linearGradient id="paint19_linear" x1="436.081" y1="-0.000244141" x2="436.081" y2="933.636" gradientUnits="userSpaceOnUse">
<stop stop-color="#8E06C2"/>
<stop offset="0.833333" stop-color="#4B44AD"/>
</linearGradient>
<linearGradient id="paint20_linear" x1="436.081" y1="-0.000244141" x2="436.081" y2="933.636" gradientUnits="userSpaceOnUse">
<stop stop-color="#771CD1"/>
<stop offset="1" stop-color="#771CD1" stop-opacity="0"/>
</linearGradient>
<linearGradient id="paint21_linear" x1="436.081" y1="-0.000244141" x2="436.081" y2="933.636" gradientUnits="userSpaceOnUse">
<stop stop-color="#8E06C2"/>
<stop offset="0.833333" stop-color="#4B44AD"/>
</linearGradient>
</defs>
</svg>
