<svg width="912" height="912" viewBox="0 0 912 912" fill="none" xmlns="http://www.w3.org/2000/svg">
<path d="M411 0.657775C410.2 1.05777 405.9 2.05777 401.5 2.65777C397.1 3.35777 391.8 4.25777 389.8 4.85777C387.7 5.35777 384.3 6.15777 382.3 6.65777C363.3 11.3578 339.4 19.3578 336.6 21.9578C336 22.3578 334.8 22.7578 333.9 22.7578C332.9 22.7578 332 23.0578 331.8 23.5578C331.7 23.9578 324.3 27.8578 315.5 32.2578C297.7 41.1578 286.2 48.1578 279.6 54.3578C279 54.8578 277.8 55.6578 276.9 55.9578C276 56.3578 269.7 61.0578 262.9 66.5578C251.8 75.5578 235.3 91.5578 223.1 105.258C217.4 111.558 203 130.458 202.2 132.658C201.4 134.758 196.8 141.958 195.4 143.258C192.2 146.058 177.4 175.258 173.6 186.258C172.6 188.958 171.4 192.258 170.9 193.458C170.4 194.758 169.6 196.858 169 198.258C168.5 199.658 167.6 201.858 167 203.258C166.5 204.658 165.6 206.758 165.1 207.958C162.3 214.958 158.9 226.858 157 236.258C156.4 239.558 155.5 244.058 155 246.258C153.8 251.758 152.3 262.358 150.9 274.258C149.6 285.558 150.3 335.458 151.9 350.258C154.6 375.058 160 403.258 163.1 408.958C163.6 409.958 164 411.858 164 413.158C164 414.558 164.5 415.958 165 416.258C165.6 416.558 166 417.758 166 418.858C166 419.858 166.5 421.658 167 422.758C167.6 423.858 168.5 425.658 169 426.758C169.5 427.858 170 429.558 170 430.558C170 431.558 170.4 432.758 170.8 433.258C171.2 433.858 172.4 436.758 173.4 439.758C175.3 445.458 176.6 449.058 178.1 451.958C178.6 452.958 179 454.458 179 455.258C179 456.058 179.4 456.758 179.9 456.758C180.4 456.758 181.1 457.958 181.5 459.458C182.7 464.558 192.7 483.458 196 486.958C197.1 488.158 198 489.458 198 489.858C198 491.958 216.1 519.058 221.7 525.458C223.2 527.158 227.7 532.358 231.5 536.858C245.3 553.058 269.7 576.558 285.9 589.058C302.6 602.058 303.1 602.458 310.7 607.858C320.6 614.858 324.2 619.858 328.6 632.658C330.7 638.658 330.7 639.258 329.2 640.458C328.3 641.158 327 641.758 326.3 641.758C324.2 641.758 308 658.558 308 660.658C308 661.258 307.6 661.758 307.2 661.758C306.7 661.758 305.4 664.658 304.2 668.158C299.5 681.758 302.1 700.958 309.7 709.558C313.6 713.958 313.7 714.758 310.6 717.658C308.4 719.658 305.8 724.358 303.1 731.058C301.6 734.758 301.7 752.958 303.2 758.158C303.8 760.358 305.2 763.458 306.2 764.958C307.2 766.358 308 767.858 308 768.158C308 768.458 309.1 769.858 310.5 771.358C313.5 774.658 313.6 774.758 310.8 777.758C308.1 780.558 305 786.558 303.1 792.258C301.1 798.358 302 817.058 304.4 822.258C307.6 828.858 314.7 838.458 319.3 842.058C331.4 851.858 347.8 855.458 357.8 850.658C363.9 847.658 366 843.858 366 835.558C366 829.358 365.7 828.458 362.8 825.058C358.1 819.658 357.1 819.058 352 818.558C344.7 817.858 340 815.058 337.8 810.058C336 805.858 335.9 805.458 337.6 801.258C341.3 791.358 337 791.758 428.3 791.758H507.2L510.3 789.558C516.9 784.958 518 782.858 518 775.058V767.958L513.2 762.858L508.3 757.758H429.7C346.9 757.758 343.9 757.558 340.2 753.258C339.2 752.158 337.9 749.658 337.2 747.658C335.4 742.358 338.3 735.858 343.6 733.158C347.3 731.358 351.3 731.258 428 730.758C490.3 730.358 509 729.958 510.7 728.958C511.9 728.258 514.1 726.258 515.5 724.358C517.6 721.558 518 720.058 518 714.258C518 708.458 517.6 706.958 515.4 704.058C509.8 696.758 516.6 697.358 426.4 696.758C346.4 696.258 345.1 696.258 342.4 694.158C340.9 693.058 339.3 691.458 338.9 690.658C335.8 684.258 335.7 683.858 337 680.558C337.7 678.758 339 676.458 339.9 675.358C343.8 670.758 343.2 670.758 427.2 670.758C503.5 670.758 506.6 670.658 509.6 668.858C511.4 667.758 513.9 665.358 515.4 663.458C517.6 660.558 518 659.058 518 653.258C518 647.458 517.6 645.958 515.4 643.058C510.4 636.458 514.4 636.758 436.5 636.758H366L365 634.158C364.4 632.758 364 630.558 364 629.358C364 626.658 360.8 616.358 358.3 610.958C352.7 598.658 340.3 585.358 324.9 575.158C319.2 571.358 312.8 566.458 310.5 564.358C308.3 562.158 302.2 557.058 297 552.958C283.3 542.058 256.7 514.358 246.9 500.658C242.3 494.358 238.2 489.058 237.8 488.958C237.4 488.758 237 488.058 237 487.358C237 486.758 236.1 485.558 235 484.758C233.9 483.958 233 482.758 233 482.058C233 481.358 232.6 480.758 232 480.758C231.5 480.758 231 480.058 231 479.258C231 478.458 230.6 477.758 230 477.758C229.5 477.758 229 477.358 229 476.958C229 476.458 226.8 472.158 224.1 467.258C219.3 458.658 211.8 442.558 205.8 427.758C205.2 426.358 204.4 424.458 203.9 423.558C203.4 422.558 203 420.958 203 419.858C203 418.758 202.6 417.758 202 417.558C201.5 417.358 200.4 414.558 199.5 411.258C198.6 407.958 197.4 403.658 196.8 401.758C194.8 394.558 193.8 390.058 192.4 382.258C191.6 377.858 190.5 371.558 189.9 368.258C187.9 356.758 187 347.058 185.9 324.558C184.5 296.858 185.8 273.958 189.8 252.258C192.3 239.058 193.2 235.058 193.9 232.758C194.4 231.358 195.3 228.258 196 225.758C196.7 223.258 197.6 220.358 198 219.258C198.4 218.158 199.3 215.358 200 212.958C200.7 210.658 201.7 208.758 202.2 208.758C202.6 208.758 203 207.658 203 206.258C203 204.858 203.5 203.758 204 203.758C204.6 203.758 205 203.058 205 202.258C205 201.458 207.4 195.758 210.3 189.558C213.3 183.358 216.3 176.758 217.1 174.958C217.8 173.258 218.8 171.758 219.2 171.758C219.7 171.758 220 171.358 220 170.758C220 169.758 230.7 151.558 231.8 150.758C232.2 150.458 234.3 147.758 236.5 144.758C241.1 138.258 257.4 118.258 261.1 114.758C262.5 113.358 267.1 109.058 271.4 105.258C275.7 101.358 281 96.5578 283.3 94.4578C290.6 87.8578 310 74.5578 320.5 69.1578C324.4 67.1578 327.7 65.0578 327.8 64.6578C328 64.1578 329 63.7578 330.1 63.7578C331.1 63.7578 332 63.2578 332 62.7578C332 62.1578 332.6 61.7578 333.4 61.7578C334.2 61.7578 335 61.3578 335.2 60.9578C335.5 60.0578 344.6 55.7578 350 53.7578C354.6 52.1578 357 51.2578 360 49.9578C367.1 46.8578 391.6 40.1578 404.5 37.6578C417.7 35.1578 423.4 34.5578 434.5 34.0578C441.1 33.8578 446.9 33.2578 447.5 32.6578C448 32.1578 451.8 31.7578 456 31.7578C460.2 31.7578 464 32.1578 464.6 32.6578C465.1 33.2578 470.9 33.8578 477.5 34.0578C490.5 34.5578 504.4 36.5578 516.5 39.6578C518.7 40.2578 522.3 41.0578 524.5 41.6578C530.3 42.9578 538.8 45.3578 544.5 47.2578C549.3 48.7578 550.3 49.1578 556 51.5578C557.4 52.0578 560.1 53.1578 562 53.7578C566.2 55.2578 576.3 59.9578 577 60.7578C577.3 61.0578 578.9 61.9578 580.5 62.7578C582.2 63.5578 583.7 64.4578 584 64.7578C584.3 65.0578 586.3 66.2578 588.5 67.4578C597.6 72.3578 600.8 74.1578 609.9 80.2578C615.2 83.7578 621.7 88.5578 624.5 90.9578C633 98.3578 648.4 112.158 651 114.758C654.7 118.358 671 138.358 675.5 144.758C677.7 147.758 679.8 150.458 680.2 150.758C681.3 151.558 692 169.758 692 170.758C692 171.358 692.3 171.758 692.8 171.758C693.2 171.758 694.1 173.258 694.9 174.958C697.3 180.458 703.1 193.058 705.1 196.858C706.2 198.858 707 201.258 707 202.158C707 203.058 707.5 203.758 708 203.758C708.6 203.758 709 204.858 709 206.258C709 207.658 709.4 208.758 709.8 208.758C710.3 208.758 711.3 210.658 712 212.958C712.7 215.358 713.6 218.158 714 219.258C714.4 220.358 715.3 223.258 716 225.758C716.7 228.258 717.6 231.158 718 232.258C718.5 233.358 719.4 237.158 720 240.758C720.7 244.358 721.6 249.458 722.2 252.258C726.2 273.358 727.5 297.658 726.1 324.858C725 347.158 724.1 356.858 722.1 368.258C721.5 371.558 720.4 377.858 719.6 382.258C718.2 390.058 717.2 394.558 715.2 401.758C714.6 403.658 713.4 407.958 712.5 411.258C711.6 414.558 710.5 417.358 710 417.558C709.4 417.758 709 418.758 709 419.858C709 420.958 708.6 422.558 708.1 423.558C707.1 425.358 706.9 425.858 699.5 443.258C696.9 449.258 692.6 458.558 689.8 463.758C682.9 476.558 682.8 476.858 680.8 479.158C679.8 480.258 679 481.658 679 482.258C679 482.858 678.1 483.958 677 484.758C675.9 485.558 675 486.758 675 487.358C675 488.058 674.6 488.758 674.2 488.958C673.8 489.058 669.7 494.458 665.1 500.758C655.3 514.458 628.9 541.858 615 552.858C609.8 557.058 603.7 562.158 601.4 564.358C599.2 566.458 592.1 571.758 585.7 576.158C578.5 580.958 572 586.258 568.8 589.958C565.9 593.258 563 596.458 562.5 597.058C558.4 601.658 551 615.158 551 618.058C551 618.758 550.6 619.758 550.1 620.258C548.4 622.058 546.7 634.058 546.3 647.058C545.9 659.658 545.9 659.758 548.7 663.758C551.8 668.058 556.2 670.358 562.9 671.158C567.3 671.658 571.7 674.058 573.1 676.858C576.7 684.158 576.7 683.358 573.1 690.658C571.7 693.458 567.3 695.858 562.9 696.358C556.2 697.158 551.8 699.458 548.8 703.758C546.4 707.058 546 708.558 546 714.658C546 721.658 546.1 721.758 550.3 726.058C553.9 729.858 555.2 730.558 559.7 731.058C567.9 731.958 571.9 734.358 574.1 739.558C575.8 743.358 575.9 744.558 574.8 747.658C574.1 749.658 572.8 752.158 571.8 753.258C570.1 755.258 563 757.758 558.9 757.758C555.7 757.758 551.8 760.458 548.8 764.758C546.4 768.058 546 769.558 546 775.358C546 781.058 546.4 782.558 548.6 785.458C551.5 789.358 555.8 791.758 559.7 791.758C562.5 791.758 568.4 793.558 570.8 795.158C571.6 795.558 573 797.958 574.1 800.458C577.4 808.258 574 815.158 565.4 817.558C562.4 818.458 539.6 818.758 482.5 818.758H403.7L398.9 823.458L394.1 828.258L394 853.058C394 866.658 394.4 878.558 394.9 879.558C395.4 880.458 397.3 884.358 399.1 888.258C403.3 897.058 410.4 904.258 419.1 908.458L425.6 911.758H486.4L492.9 908.458C496.5 906.758 501.8 902.958 504.5 900.258C509.5 895.258 516 884.158 516 880.658C516 879.558 516.5 878.758 517 878.758C517.6 878.758 518 873.758 518 865.758V852.758H543.8C571.4 852.758 575.5 852.158 585.5 847.358C590 845.058 596.6 839.058 602.1 832.158C603 831.058 605 827.458 606.6 824.158C609.2 818.858 609.5 817.058 609.8 806.958C610.1 799.658 609.7 794.458 609 792.458C606.7 786.558 602.9 778.758 602.2 778.758C601.8 778.758 600.9 777.858 600.2 776.658C599.1 774.858 599.3 774.058 602.6 769.658C608.4 761.658 610 756.358 610 744.258C610 738.558 609.5 732.558 608.9 731.058C606 723.858 603.3 719.058 601.3 717.458C598.4 715.058 598.4 713.558 601.5 710.658C602.8 709.358 604 707.658 604 706.958C604 706.358 604.4 705.758 604.8 705.758C605.3 705.758 606.6 702.958 607.8 699.558C610.9 690.858 610.9 677.058 607.8 668.158C606.6 664.658 605.3 661.758 604.8 661.758C604.4 661.758 604 661.258 604 660.658C604 658.558 587.8 641.758 585.7 641.758C585 641.758 583.7 641.158 582.8 640.458C581.3 639.258 581.3 638.658 583.4 632.658C587.8 619.758 592.1 613.858 601.6 607.658C605.2 605.358 609.4 602.258 610.9 600.858C612.4 599.458 614.9 597.358 616.5 596.258C624.9 590.358 638.4 579.358 645.8 572.358C662.3 556.658 672.7 546.258 674.9 543.258C676.2 541.558 679.6 537.558 682.5 534.258C685.4 530.958 689 526.858 690.4 525.258C696 518.858 714 491.958 714 489.958C714 489.558 715.2 487.858 716.6 486.258C719.4 482.958 731 460.458 731 458.158C731 457.358 731.5 456.758 732 456.758C732.6 456.758 733 456.058 733 455.258C733 454.458 733.9 451.858 734.9 449.458C735.9 447.158 738 441.658 739.5 437.258C742.1 429.258 743.5 425.758 745.1 422.558C745.6 421.558 746 419.858 746 418.858C746 417.758 746.4 416.558 747 416.258C747.6 415.958 748 414.558 748 413.158C748 411.858 748.4 409.958 748.9 408.958C750.1 406.758 752.8 396.458 754.2 388.958C756.6 375.458 757.1 372.958 758 366.758C761.6 342.358 762.9 287.958 760.3 267.758C758.8 256.958 757.3 247.158 756.6 244.258C756.4 243.158 755.6 239.558 755 236.258C754.3 232.958 753.4 229.158 753 227.758C752.6 226.358 751.7 223.258 751 220.758C749.6 215.558 748.2 211.158 746.9 207.958C746.4 206.758 745.6 204.658 745 203.258C744.5 201.858 743.6 199.658 743 198.258C742.5 196.858 741.6 194.758 741.1 193.458C740.6 192.258 738.9 187.858 737.4 183.758C734.4 175.458 721.9 150.458 719.5 147.758C718.7 146.858 718 145.558 718 144.958C718 144.358 717.4 143.458 716.7 143.058C715.9 142.658 713.2 138.658 710.5 134.258C707.9 129.858 704.5 124.658 703.1 122.758C685.9 99.4578 655.5 69.6578 634.6 55.5578C631.3 53.2578 628.3 51.0578 628 50.7578C626.6 48.7578 608.9 38.2578 597.5 32.6578C590.4 29.1578 584.4 25.9578 584.2 25.5578C584 25.1578 583 24.7578 581.9 24.7578C580.9 24.7578 580 24.2578 580 23.7578C580 23.1578 579.4 22.7578 578.7 22.7578C577.9 22.7578 576 22.1578 574.4 21.3578C563.7 16.2578 555 13.2578 537.5 8.55777C535.3 8.05777 532.5 7.15777 531.2 6.65777C529.9 6.15777 527.4 5.75777 525.5 5.75777C523.6 5.75777 521.9 5.35777 521.6 4.85777C521.3 4.45777 518.7 3.75777 515.8 3.35777C512.9 3.05777 508.3 2.25777 505.5 1.55777C499.6 0.157775 413.3 -0.642225 411 0.657775ZM485 859.658C485 863.458 484.5 867.858 483.9 869.458C482.5 873.158 478.1 877.758 475.9 877.758C474.9 877.758 473.8 878.158 473.5 878.758C473.1 879.358 466.2 879.758 456 879.758C445.8 879.758 438.9 879.358 438.5 878.758C438.2 878.158 437.1 877.758 436.1 877.758C433.9 877.758 429.5 873.158 428.1 869.458C427.5 867.858 427 863.458 427 859.658V852.758H485V859.658Z" fill="url(#paint0_linear)"/>
<path d="M411 0.657775C410.2 1.05777 405.9 2.05777 401.5 2.65777C397.1 3.35777 391.8 4.25777 389.8 4.85777C387.7 5.35777 384.3 6.15777 382.3 6.65777C363.3 11.3578 339.4 19.3578 336.6 21.9578C336 22.3578 334.8 22.7578 333.9 22.7578C332.9 22.7578 332 23.0578 331.8 23.5578C331.7 23.9578 324.3 27.8578 315.5 32.2578C297.7 41.1578 286.2 48.1578 279.6 54.3578C279 54.8578 277.8 55.6578 276.9 55.9578C276 56.3578 269.7 61.0578 262.9 66.5578C251.8 75.5578 235.3 91.5578 223.1 105.258C217.4 111.558 203 130.458 202.2 132.658C201.4 134.758 196.8 141.958 195.4 143.258C192.2 146.058 177.4 175.258 173.6 186.258C172.6 188.958 171.4 192.258 170.9 193.458C170.4 194.758 169.6 196.858 169 198.258C168.5 199.658 167.6 201.858 167 203.258C166.5 204.658 165.6 206.758 165.1 207.958C162.3 214.958 158.9 226.858 157 236.258C156.4 239.558 155.5 244.058 155 246.258C153.8 251.758 152.3 262.358 150.9 274.258C149.6 285.558 150.3 335.458 151.9 350.258C154.6 375.058 160 403.258 163.1 408.958C163.6 409.958 164 411.858 164 413.158C164 414.558 164.5 415.958 165 416.258C165.6 416.558 166 417.758 166 418.858C166 419.858 166.5 421.658 167 422.758C167.6 423.858 168.5 425.658 169 426.758C169.5 427.858 170 429.558 170 430.558C170 431.558 170.4 432.758 170.8 433.258C171.2 433.858 172.4 436.758 173.4 439.758C175.3 445.458 176.6 449.058 178.1 451.958C178.6 452.958 179 454.458 179 455.258C179 456.058 179.4 456.758 179.9 456.758C180.4 456.758 181.1 457.958 181.5 459.458C182.7 464.558 192.7 483.458 196 486.958C197.1 488.158 198 489.458 198 489.858C198 491.958 216.1 519.058 221.7 525.458C223.2 527.158 227.7 532.358 231.5 536.858C245.3 553.058 269.7 576.558 285.9 589.058C302.6 602.058 303.1 602.458 310.7 607.858C320.6 614.858 324.2 619.858 328.6 632.658C330.7 638.658 330.7 639.258 329.2 640.458C328.3 641.158 327 641.758 326.3 641.758C324.2 641.758 308 658.558 308 660.658C308 661.258 307.6 661.758 307.2 661.758C306.7 661.758 305.4 664.658 304.2 668.158C299.5 681.758 302.1 700.958 309.7 709.558C313.6 713.958 313.7 714.758 310.6 717.658C308.4 719.658 305.8 724.358 303.1 731.058C301.6 734.758 301.7 752.958 303.2 758.158C303.8 760.358 305.2 763.458 306.2 764.958C307.2 766.358 308 767.858 308 768.158C308 768.458 309.1 769.858 310.5 771.358C313.5 774.658 313.6 774.758 310.8 777.758C308.1 780.558 305 786.558 303.1 792.258C301.1 798.358 302 817.058 304.4 822.258C307.6 828.858 314.7 838.458 319.3 842.058C331.4 851.858 347.8 855.458 357.8 850.658C363.9 847.658 366 843.858 366 835.558C366 829.358 365.7 828.458 362.8 825.058C358.1 819.658 357.1 819.058 352 818.558C344.7 817.858 340 815.058 337.8 810.058C336 805.858 335.9 805.458 337.6 801.258C341.3 791.358 337 791.758 428.3 791.758H507.2L510.3 789.558C516.9 784.958 518 782.858 518 775.058V767.958L513.2 762.858L508.3 757.758H429.7C346.9 757.758 343.9 757.558 340.2 753.258C339.2 752.158 337.9 749.658 337.2 747.658C335.4 742.358 338.3 735.858 343.6 733.158C347.3 731.358 351.3 731.258 428 730.758C490.3 730.358 509 729.958 510.7 728.958C511.9 728.258 514.1 726.258 515.5 724.358C517.6 721.558 518 720.058 518 714.258C518 708.458 517.6 706.958 515.4 704.058C509.8 696.758 516.6 697.358 426.4 696.758C346.4 696.258 345.1 696.258 342.4 694.158C340.9 693.058 339.3 691.458 338.9 690.658C335.8 684.258 335.7 683.858 337 680.558C337.7 678.758 339 676.458 339.9 675.358C343.8 670.758 343.2 670.758 427.2 670.758C503.5 670.758 506.6 670.658 509.6 668.858C511.4 667.758 513.9 665.358 515.4 663.458C517.6 660.558 518 659.058 518 653.258C518 647.458 517.6 645.958 515.4 643.058C510.4 636.458 514.4 636.758 436.5 636.758H366L365 634.158C364.4 632.758 364 630.558 364 629.358C364 626.658 360.8 616.358 358.3 610.958C352.7 598.658 340.3 585.358 324.9 575.158C319.2 571.358 312.8 566.458 310.5 564.358C308.3 562.158 302.2 557.058 297 552.958C283.3 542.058 256.7 514.358 246.9 500.658C242.3 494.358 238.2 489.058 237.8 488.958C237.4 488.758 237 488.058 237 487.358C237 486.758 236.1 485.558 235 484.758C233.9 483.958 233 482.758 233 482.058C233 481.358 232.6 480.758 232 480.758C231.5 480.758 231 480.058 231 479.258C231 478.458 230.6 477.758 230 477.758C229.5 477.758 229 477.358 229 476.958C229 476.458 226.8 472.158 224.1 467.258C219.3 458.658 211.8 442.558 205.8 427.758C205.2 426.358 204.4 424.458 203.9 423.558C203.4 422.558 203 420.958 203 419.858C203 418.758 202.6 417.758 202 417.558C201.5 417.358 200.4 414.558 199.5 411.258C198.6 407.958 197.4 403.658 196.8 401.758C194.8 394.558 193.8 390.058 192.4 382.258C191.6 377.858 190.5 371.558 189.9 368.258C187.9 356.758 187 347.058 185.9 324.558C184.5 296.858 185.8 273.958 189.8 252.258C192.3 239.058 193.2 235.058 193.9 232.758C194.4 231.358 195.3 228.258 196 225.758C196.7 223.258 197.6 220.358 198 219.258C198.4 218.158 199.3 215.358 200 212.958C200.7 210.658 201.7 208.758 202.2 208.758C202.6 208.758 203 207.658 203 206.258C203 204.858 203.5 203.758 204 203.758C204.6 203.758 205 203.058 205 202.258C205 201.458 207.4 195.758 210.3 189.558C213.3 183.358 216.3 176.758 217.1 174.958C217.8 173.258 218.8 171.758 219.2 171.758C219.7 171.758 220 171.358 220 170.758C220 169.758 230.7 151.558 231.8 150.758C232.2 150.458 234.3 147.758 236.5 144.758C241.1 138.258 257.4 118.258 261.1 114.758C262.5 113.358 267.1 109.058 271.4 105.258C275.7 101.358 281 96.5578 283.3 94.4578C290.6 87.8578 310 74.5578 320.5 69.1578C324.4 67.1578 327.7 65.0578 327.8 64.6578C328 64.1578 329 63.7578 330.1 63.7578C331.1 63.7578 332 63.2578 332 62.7578C332 62.1578 332.6 61.7578 333.4 61.7578C334.2 61.7578 335 61.3578 335.2 60.9578C335.5 60.0578 344.6 55.7578 350 53.7578C354.6 52.1578 357 51.2578 360 49.9578C367.1 46.8578 391.6 40.1578 404.5 37.6578C417.7 35.1578 423.4 34.5578 434.5 34.0578C441.1 33.8578 446.9 33.2578 447.5 32.6578C448 32.1578 451.8 31.7578 456 31.7578C460.2 31.7578 464 32.1578 464.6 32.6578C465.1 33.2578 470.9 33.8578 477.5 34.0578C490.5 34.5578 504.4 36.5578 516.5 39.6578C518.7 40.2578 522.3 41.0578 524.5 41.6578C530.3 42.9578 538.8 45.3578 544.5 47.2578C549.3 48.7578 550.3 49.1578 556 51.5578C557.4 52.0578 560.1 53.1578 562 53.7578C566.2 55.2578 576.3 59.9578 577 60.7578C577.3 61.0578 578.9 61.9578 580.5 62.7578C582.2 63.5578 583.7 64.4578 584 64.7578C584.3 65.0578 586.3 66.2578 588.5 67.4578C597.6 72.3578 600.8 74.1578 609.9 80.2578C615.2 83.7578 621.7 88.5578 624.5 90.9578C633 98.3578 648.4 112.158 651 114.758C654.7 118.358 671 138.358 675.5 144.758C677.7 147.758 679.8 150.458 680.2 150.758C681.3 151.558 692 169.758 692 170.758C692 171.358 692.3 171.758 692.8 171.758C693.2 171.758 694.1 173.258 694.9 174.958C697.3 180.458 703.1 193.058 705.1 196.858C706.2 198.858 707 201.258 707 202.158C707 203.058 707.5 203.758 708 203.758C708.6 203.758 709 204.858 709 206.258C709 207.658 709.4 208.758 709.8 208.758C710.3 208.758 711.3 210.658 712 212.958C712.7 215.358 713.6 218.158 714 219.258C714.4 220.358 715.3 223.258 716 225.758C716.7 228.258 717.6 231.158 718 232.258C718.5 233.358 719.4 237.158 720 240.758C720.7 244.358 721.6 249.458 722.2 252.258C726.2 273.358 727.5 297.658 726.1 324.858C725 347.158 724.1 356.858 722.1 368.258C721.5 371.558 720.4 377.858 719.6 382.258C718.2 390.058 717.2 394.558 715.2 401.758C714.6 403.658 713.4 407.958 712.5 411.258C711.6 414.558 710.5 417.358 710 417.558C709.4 417.758 709 418.758 709 419.858C709 420.958 708.6 422.558 708.1 423.558C707.1 425.358 706.9 425.858 699.5 443.258C696.9 449.258 692.6 458.558 689.8 463.758C682.9 476.558 682.8 476.858 680.8 479.158C679.8 480.258 679 481.658 679 482.258C679 482.858 678.1 483.958 677 484.758C675.9 485.558 675 486.758 675 487.358C675 488.058 674.6 488.758 674.2 488.958C673.8 489.058 669.7 494.458 665.1 500.758C655.3 514.458 628.9 541.858 615 552.858C609.8 557.058 603.7 562.158 601.4 564.358C599.2 566.458 592.1 571.758 585.7 576.158C578.5 580.958 572 586.258 568.8 589.958C565.9 593.258 563 596.458 562.5 597.058C558.4 601.658 551 615.158 551 618.058C551 618.758 550.6 619.758 550.1 620.258C548.4 622.058 546.7 634.058 546.3 647.058C545.9 659.658 545.9 659.758 548.7 663.758C551.8 668.058 556.2 670.358 562.9 671.158C567.3 671.658 571.7 674.058 573.1 676.858C576.7 684.158 576.7 683.358 573.1 690.658C571.7 693.458 567.3 695.858 562.9 696.358C556.2 697.158 551.8 699.458 548.8 703.758C546.4 707.058 546 708.558 546 714.658C546 721.658 546.1 721.758 550.3 726.058C553.9 729.858 555.2 730.558 559.7 731.058C567.9 731.958 571.9 734.358 574.1 739.558C575.8 743.358 575.9 744.558 574.8 747.658C574.1 749.658 572.8 752.158 571.8 753.258C570.1 755.258 563 757.758 558.9 757.758C555.7 757.758 551.8 760.458 548.8 764.758C546.4 768.058 546 769.558 546 775.358C546 781.058 546.4 782.558 548.6 785.458C551.5 789.358 555.8 791.758 559.7 791.758C562.5 791.758 568.4 793.558 570.8 795.158C571.6 795.558 573 797.958 574.1 800.458C577.4 808.258 574 815.158 565.4 817.558C562.4 818.458 539.6 818.758 482.5 818.758H403.7L398.9 823.458L394.1 828.258L394 853.058C394 866.658 394.4 878.558 394.9 879.558C395.4 880.458 397.3 884.358 399.1 888.258C403.3 897.058 410.4 904.258 419.1 908.458L425.6 911.758H486.4L492.9 908.458C496.5 906.758 501.8 902.958 504.5 900.258C509.5 895.258 516 884.158 516 880.658C516 879.558 516.5 878.758 517 878.758C517.6 878.758 518 873.758 518 865.758V852.758H543.8C571.4 852.758 575.5 852.158 585.5 847.358C590 845.058 596.6 839.058 602.1 832.158C603 831.058 605 827.458 606.6 824.158C609.2 818.858 609.5 817.058 609.8 806.958C610.1 799.658 609.7 794.458 609 792.458C606.7 786.558 602.9 778.758 602.2 778.758C601.8 778.758 600.9 777.858 600.2 776.658C599.1 774.858 599.3 774.058 602.6 769.658C608.4 761.658 610 756.358 610 744.258C610 738.558 609.5 732.558 608.9 731.058C606 723.858 603.3 719.058 601.3 717.458C598.4 715.058 598.4 713.558 601.5 710.658C602.8 709.358 604 707.658 604 706.958C604 706.358 604.4 705.758 604.8 705.758C605.3 705.758 606.6 702.958 607.8 699.558C610.9 690.858 610.9 677.058 607.8 668.158C606.6 664.658 605.3 661.758 604.8 661.758C604.4 661.758 604 661.258 604 660.658C604 658.558 587.8 641.758 585.7 641.758C585 641.758 583.7 641.158 582.8 640.458C581.3 639.258 581.3 638.658 583.4 632.658C587.8 619.758 592.1 613.858 601.6 607.658C605.2 605.358 609.4 602.258 610.9 600.858C612.4 599.458 614.9 597.358 616.5 596.258C624.9 590.358 638.4 579.358 645.8 572.358C662.3 556.658 672.7 546.258 674.9 543.258C676.2 541.558 679.6 537.558 682.5 534.258C685.4 530.958 689 526.858 690.4 525.258C696 518.858 714 491.958 714 489.958C714 489.558 715.2 487.858 716.6 486.258C719.4 482.958 731 460.458 731 458.158C731 457.358 731.5 456.758 732 456.758C732.6 456.758 733 456.058 733 455.258C733 454.458 733.9 451.858 734.9 449.458C735.9 447.158 738 441.658 739.5 437.258C742.1 429.258 743.5 425.758 745.1 422.558C745.6 421.558 746 419.858 746 418.858C746 417.758 746.4 416.558 747 416.258C747.6 415.958 748 414.558 748 413.158C748 411.858 748.4 409.958 748.9 408.958C750.1 406.758 752.8 396.458 754.2 388.958C756.6 375.458 757.1 372.958 758 366.758C761.6 342.358 762.9 287.958 760.3 267.758C758.8 256.958 757.3 247.158 756.6 244.258C756.4 243.158 755.6 239.558 755 236.258C754.3 232.958 753.4 229.158 753 227.758C752.6 226.358 751.7 223.258 751 220.758C749.6 215.558 748.2 211.158 746.9 207.958C746.4 206.758 745.6 204.658 745 203.258C744.5 201.858 743.6 199.658 743 198.258C742.5 196.858 741.6 194.758 741.1 193.458C740.6 192.258 738.9 187.858 737.4 183.758C734.4 175.458 721.9 150.458 719.5 147.758C718.7 146.858 718 145.558 718 144.958C718 144.358 717.4 143.458 716.7 143.058C715.9 142.658 713.2 138.658 710.5 134.258C707.9 129.858 704.5 124.658 703.1 122.758C685.9 99.4578 655.5 69.6578 634.6 55.5578C631.3 53.2578 628.3 51.0578 628 50.7578C626.6 48.7578 608.9 38.2578 597.5 32.6578C590.4 29.1578 584.4 25.9578 584.2 25.5578C584 25.1578 583 24.7578 581.9 24.7578C580.9 24.7578 580 24.2578 580 23.7578C580 23.1578 579.4 22.7578 578.7 22.7578C577.9 22.7578 576 22.1578 574.4 21.3578C563.7 16.2578 555 13.2578 537.5 8.55777C535.3 8.05777 532.5 7.15777 531.2 6.65777C529.9 6.15777 527.4 5.75777 525.5 5.75777C523.6 5.75777 521.9 5.35777 521.6 4.85777C521.3 4.45777 518.7 3.75777 515.8 3.35777C512.9 3.05777 508.3 2.25777 505.5 1.55777C499.6 0.157775 413.3 -0.642225 411 0.657775ZM485 859.658C485 863.458 484.5 867.858 483.9 869.458C482.5 873.158 478.1 877.758 475.9 877.758C474.9 877.758 473.8 878.158 473.5 878.758C473.1 879.358 466.2 879.758 456 879.758C445.8 879.758 438.9 879.358 438.5 878.758C438.2 878.158 437.1 877.758 436.1 877.758C433.9 877.758 429.5 873.158 428.1 869.458C427.5 867.858 427 863.458 427 859.658V852.758H485V859.658Z" fill="url(#paint1_linear)"/>
<path d="M110.5 5.05779C103.4 9.15779 101 12.9578 101 20.2578C101 24.5578 101.6 26.7578 103.4 29.4578C105.9 33.1578 107.4 34.4578 127.2 50.2578C133.4 55.1578 139.8 60.5578 141.5 62.2578C152 72.5578 166.8 83.9578 172.1 85.7578C177.4 87.6578 184.2 85.5578 189.2 80.5578C192.8 76.9578 193 76.4578 193 70.1578C193 66.5578 192.5 62.6578 191.9 61.4578C190.6 59.0578 180.1 48.8578 175.5 45.4578C171.9 42.8578 151 25.3578 138.5 14.4578C133.6 10.1578 128.2 6.05779 126.6 5.25779C123.2 3.55779 113.4 3.45779 110.5 5.05779Z" fill="url(#paint2_linear)"/>
<path d="M110.5 5.05779C103.4 9.15779 101 12.9578 101 20.2578C101 24.5578 101.6 26.7578 103.4 29.4578C105.9 33.1578 107.4 34.4578 127.2 50.2578C133.4 55.1578 139.8 60.5578 141.5 62.2578C152 72.5578 166.8 83.9578 172.1 85.7578C177.4 87.6578 184.2 85.5578 189.2 80.5578C192.8 76.9578 193 76.4578 193 70.1578C193 66.5578 192.5 62.6578 191.9 61.4578C190.6 59.0578 180.1 48.8578 175.5 45.4578C171.9 42.8578 151 25.3578 138.5 14.4578C133.6 10.1578 128.2 6.05779 126.6 5.25779C123.2 3.55779 113.4 3.45779 110.5 5.05779Z" fill="url(#paint3_linear)"/>
<path d="M785.3 5.15779C784.1 5.85779 779 9.95779 773.8 14.3578C753.9 31.2578 739.4 43.3578 736.5 45.4578C734.9 46.5578 730.2 50.7578 726.3 54.6578L719 61.7578V69.2578C719 76.6578 719.1 76.8578 722.8 80.5578C727.8 85.5578 734.6 87.6578 739.9 85.7578C745.2 83.9578 760 72.5578 770.5 62.2578C772.2 60.5578 778.6 55.1578 784.8 50.2578C804.6 34.4578 806.1 33.1578 808.6 29.4578C810.3 26.8578 811 24.5578 811 20.8578C811 13.0578 808.3 8.75779 801.2 4.95779C798.2 3.45779 788.2 3.55779 785.3 5.15779Z" fill="url(#paint4_linear)"/>
<path d="M785.3 5.15779C784.1 5.85779 779 9.95779 773.8 14.3578C753.9 31.2578 739.4 43.3578 736.5 45.4578C734.9 46.5578 730.2 50.7578 726.3 54.6578L719 61.7578V69.2578C719 76.6578 719.1 76.8578 722.8 80.5578C727.8 85.5578 734.6 87.6578 739.9 85.7578C745.2 83.9578 760 72.5578 770.5 62.2578C772.2 60.5578 778.6 55.1578 784.8 50.2578C804.6 34.4578 806.1 33.1578 808.6 29.4578C810.3 26.8578 811 24.5578 811 20.8578C811 13.0578 808.3 8.75779 801.2 4.95779C798.2 3.45779 788.2 3.55779 785.3 5.15779Z" fill="url(#paint5_linear)"/>
<path d="M38.6 135.658C38.2 136.258 36.8 136.758 35.4 136.758C34.1 136.758 33 137.058 33 137.558C33 137.958 31.2 140.058 29 142.258C25.2 146.158 25.1 146.458 25 153.058C25 159.758 25.1 159.958 29.3 164.158C32.2 167.058 35.2 168.958 39 170.158C44.4 171.758 47.8 173.158 51.2 174.858C52.2 175.358 53.7 175.758 54.5 175.758C55.3 175.758 56 176.158 56 176.758C56 177.258 56.8 177.758 57.8 177.758C58.9 177.758 61 178.458 62.6 179.258C64.2 180.058 70.3 182.258 76 184.258C81.8 186.258 87.4 188.258 88.5 188.758C89.6 189.258 94.1 190.758 98.5 192.158C102.9 193.658 107.9 195.258 109.7 195.858C113.1 196.958 120 195.258 124.7 192.158C129.9 188.858 132.4 179.058 129.8 173.058C126.4 165.558 121.7 162.758 101 155.858C97.4 154.658 93.6 153.258 92.5 152.758C91.4 152.258 85.6 150.258 79.5 148.258C73.5 146.358 67.7 144.258 66.8 143.758C65.8 143.158 64.1 142.758 63.1 142.758C62 142.758 60.8 142.258 60.5 141.758C60.2 141.158 59 140.758 57.9 140.758C56.9 140.758 56 140.258 56 139.758C56 139.158 54.9 138.758 53.5 138.758C52.1 138.758 51 138.358 51 137.858C51 137.358 49.7 136.758 48 136.358C46.4 136.058 43.7 135.458 42.1 135.158C40.5 134.858 38.9 135.058 38.6 135.658Z" fill="url(#paint6_linear)"/>
<path d="M38.6 135.658C38.2 136.258 36.8 136.758 35.4 136.758C34.1 136.758 33 137.058 33 137.558C33 137.958 31.2 140.058 29 142.258C25.2 146.158 25.1 146.458 25 153.058C25 159.758 25.1 159.958 29.3 164.158C32.2 167.058 35.2 168.958 39 170.158C44.4 171.758 47.8 173.158 51.2 174.858C52.2 175.358 53.7 175.758 54.5 175.758C55.3 175.758 56 176.158 56 176.758C56 177.258 56.8 177.758 57.8 177.758C58.9 177.758 61 178.458 62.6 179.258C64.2 180.058 70.3 182.258 76 184.258C81.8 186.258 87.4 188.258 88.5 188.758C89.6 189.258 94.1 190.758 98.5 192.158C102.9 193.658 107.9 195.258 109.7 195.858C113.1 196.958 120 195.258 124.7 192.158C129.9 188.858 132.4 179.058 129.8 173.058C126.4 165.558 121.7 162.758 101 155.858C97.4 154.658 93.6 153.258 92.5 152.758C91.4 152.258 85.6 150.258 79.5 148.258C73.5 146.358 67.7 144.258 66.8 143.758C65.8 143.158 64.1 142.758 63.1 142.758C62 142.758 60.8 142.258 60.5 141.758C60.2 141.158 59 140.758 57.9 140.758C56.9 140.758 56 140.258 56 139.758C56 139.158 54.9 138.758 53.5 138.758C52.1 138.758 51 138.358 51 137.858C51 137.358 49.7 136.758 48 136.358C46.4 136.058 43.7 135.458 42.1 135.158C40.5 134.858 38.9 135.058 38.6 135.658Z" fill="url(#paint7_linear)"/>
<path d="M866.5 135.758C866.2 136.258 864.8 136.758 863.4 136.758C862.1 136.758 861 137.158 861 137.758C861 138.258 859.9 138.758 858.5 138.758C857.1 138.758 856 139.158 856 139.758C856 140.258 855.1 140.758 854.1 140.758C853 140.758 851.8 141.158 851.5 141.758C851.2 142.258 850 142.758 848.9 142.758C847.9 142.758 846.2 143.158 845.2 143.758C844.3 144.258 839.9 145.858 835.5 147.258C831.1 148.758 826.7 150.358 825.8 150.858C824.8 151.358 823.3 151.758 822.5 151.758C821.7 151.758 820.2 152.158 819.2 152.758C818.3 153.258 814.6 154.658 811 155.858C790.9 162.558 786.6 165.058 782.3 172.558C779.4 177.558 781.6 187.758 786.5 191.558C790.5 194.758 798.8 197.058 801.9 195.858C803.3 195.358 808.3 193.758 813 192.258C817.7 190.858 822.4 189.258 823.5 188.758C824.6 188.258 830.1 186.258 835.8 184.358C841.5 182.358 847.8 180.058 849.8 179.158C851.8 178.258 854.4 177.258 855.5 176.758C857.7 175.958 861.8 174.258 865.3 172.758C866.5 172.258 870 171.058 873 170.158C876.8 168.958 879.8 167.058 882.8 164.158C886.9 159.958 887 159.658 887 153.258C887 146.758 886.9 146.458 882.8 142.058C877 135.958 868.4 132.658 866.5 135.758Z" fill="url(#paint8_linear)"/>
<path d="M866.5 135.758C866.2 136.258 864.8 136.758 863.4 136.758C862.1 136.758 861 137.158 861 137.758C861 138.258 859.9 138.758 858.5 138.758C857.1 138.758 856 139.158 856 139.758C856 140.258 855.1 140.758 854.1 140.758C853 140.758 851.8 141.158 851.5 141.758C851.2 142.258 850 142.758 848.9 142.758C847.9 142.758 846.2 143.158 845.2 143.758C844.3 144.258 839.9 145.858 835.5 147.258C831.1 148.758 826.7 150.358 825.8 150.858C824.8 151.358 823.3 151.758 822.5 151.758C821.7 151.758 820.2 152.158 819.2 152.758C818.3 153.258 814.6 154.658 811 155.858C790.9 162.558 786.6 165.058 782.3 172.558C779.4 177.558 781.6 187.758 786.5 191.558C790.5 194.758 798.8 197.058 801.9 195.858C803.3 195.358 808.3 193.758 813 192.258C817.7 190.858 822.4 189.258 823.5 188.758C824.6 188.258 830.1 186.258 835.8 184.358C841.5 182.358 847.8 180.058 849.8 179.158C851.8 178.258 854.4 177.258 855.5 176.758C857.7 175.958 861.8 174.258 865.3 172.758C866.5 172.258 870 171.058 873 170.158C876.8 168.958 879.8 167.058 882.8 164.158C886.9 159.958 887 159.658 887 153.258C887 146.758 886.9 146.458 882.8 142.058C877 135.958 868.4 132.658 866.5 135.758Z" fill="url(#paint9_linear)"/>
<path d="M332.5 211.858C321.5 215.358 319 216.258 314.5 218.658C311.8 220.058 309.4 221.558 309.2 221.958C309 222.458 308.2 222.758 307.5 222.758C306.8 222.758 306 223.058 305.8 223.558C305.7 223.958 303 226.258 300 228.558C291.9 234.958 282.9 246.458 278.9 255.458C278.2 257.258 277.2 258.758 276.8 258.758C276.3 258.758 276 259.758 276 261.058C276 262.358 275.6 263.758 275.1 264.258C273.2 266.258 272 276.358 272 289.458C272 304.458 273.6 311.958 278.9 322.058C290.5 344.058 308 358.458 329.7 363.858C336.2 365.458 341.2 365.758 365.6 365.758H394V584.058L396.6 587.458C400.1 592.058 403.9 593.758 410.8 593.758C417.5 593.758 422.1 591.358 425.1 586.258C426.7 583.458 426.9 576.258 426.9 474.458L427 365.758H485V584.058L487.6 587.458C491.1 591.958 494.9 593.758 501.5 593.758C508.1 593.758 511.9 591.958 515.4 587.458L518 584.058V365.758H546.4C579.1 365.758 583.9 364.958 598.8 357.558C615.9 349.058 631.5 330.058 638 309.858C641.2 299.658 640.7 272.658 637.1 264.258C635.3 259.958 631.5 252.258 631 251.758C630.7 251.458 629.6 249.658 628.6 247.758C625.2 241.658 618.2 233.358 612.9 229.258C610.1 227.058 607.2 224.658 606.5 223.958C605.7 223.358 604.7 222.758 604.2 222.758C603.6 222.758 603 222.458 602.8 221.958C602.3 220.758 590.8 215.158 586 213.758C583.5 213.058 580.2 212.158 578.6 211.658C573.9 210.258 550.8 210.558 544.8 212.158C533.9 215.058 522 220.158 522 221.958C522 222.358 521.5 222.758 521 222.758C520.4 222.758 518.9 223.658 517.7 224.858C516.5 225.958 514.2 227.858 512.5 229.058C501.4 237.158 492.2 250.658 488.1 264.958C487.5 267.058 486.6 270.258 486 272.058C485.4 273.958 485 287.758 485 303.858V332.258H427.5L426.9 302.758C426.3 272.858 426 269.558 422.1 259.758C416.6 245.958 411.2 238.358 400.5 229.858C396.7 226.858 393.4 223.958 393.2 223.558C393 223.158 392.2 222.758 391.4 222.758C390.6 222.758 390 222.358 390 221.858C390 220.758 379 215.558 373 213.858C370.5 213.058 367.2 212.158 365.6 211.658C361.8 210.458 336.3 210.658 332.5 211.858ZM355.7 245.858C373.9 250.058 380.6 254.958 387.9 269.558C392.9 279.658 393.1 280.858 393.7 309.458L394.1 331.758H370.3C343.7 331.758 337.7 330.858 327.8 325.558C321.5 322.258 311 311.758 311 308.858C311 307.958 310.6 306.758 310.2 306.158C308.1 303.858 306.5 295.558 306.5 287.758C306.6 271.158 314.4 258.258 329 250.758C336.3 246.958 336.9 246.758 339.7 246.658C341.3 246.658 343.4 246.258 344.5 245.758C347.3 244.558 350.2 244.558 355.7 245.858ZM571 246.358C578.3 247.558 586.9 251.958 593 257.658C596.4 260.858 599.1 264.758 601.6 270.258C605.1 277.658 605.3 278.958 605.4 287.758C605.4 293.458 604.9 298.658 604.1 300.758C603.4 302.658 602.5 305.158 602 306.258C599.9 311.758 598.1 314.358 592.9 319.158C581.4 329.858 573.8 331.758 541.7 331.758H517.9L518.3 309.458C518.9 280.858 519.1 279.658 524.1 269.558C531.2 255.258 537.6 250.458 555.5 245.958C559.3 244.958 563.3 245.058 571 246.358Z" fill="url(#paint10_linear)"/>
<path d="M332.5 211.858C321.5 215.358 319 216.258 314.5 218.658C311.8 220.058 309.4 221.558 309.2 221.958C309 222.458 308.2 222.758 307.5 222.758C306.8 222.758 306 223.058 305.8 223.558C305.7 223.958 303 226.258 300 228.558C291.9 234.958 282.9 246.458 278.9 255.458C278.2 257.258 277.2 258.758 276.8 258.758C276.3 258.758 276 259.758 276 261.058C276 262.358 275.6 263.758 275.1 264.258C273.2 266.258 272 276.358 272 289.458C272 304.458 273.6 311.958 278.9 322.058C290.5 344.058 308 358.458 329.7 363.858C336.2 365.458 341.2 365.758 365.6 365.758H394V584.058L396.6 587.458C400.1 592.058 403.9 593.758 410.8 593.758C417.5 593.758 422.1 591.358 425.1 586.258C426.7 583.458 426.9 576.258 426.9 474.458L427 365.758H485V584.058L487.6 587.458C491.1 591.958 494.9 593.758 501.5 593.758C508.1 593.758 511.9 591.958 515.4 587.458L518 584.058V365.758H546.4C579.1 365.758 583.9 364.958 598.8 357.558C615.9 349.058 631.5 330.058 638 309.858C641.2 299.658 640.7 272.658 637.1 264.258C635.3 259.958 631.5 252.258 631 251.758C630.7 251.458 629.6 249.658 628.6 247.758C625.2 241.658 618.2 233.358 612.9 229.258C610.1 227.058 607.2 224.658 606.5 223.958C605.7 223.358 604.7 222.758 604.2 222.758C603.6 222.758 603 222.458 602.8 221.958C602.3 220.758 590.8 215.158 586 213.758C583.5 213.058 580.2 212.158 578.6 211.658C573.9 210.258 550.8 210.558 544.8 212.158C533.9 215.058 522 220.158 522 221.958C522 222.358 521.5 222.758 521 222.758C520.4 222.758 518.9 223.658 517.7 224.858C516.5 225.958 514.2 227.858 512.5 229.058C501.4 237.158 492.2 250.658 488.1 264.958C487.5 267.058 486.6 270.258 486 272.058C485.4 273.958 485 287.758 485 303.858V332.258H427.5L426.9 302.758C426.3 272.858 426 269.558 422.1 259.758C416.6 245.958 411.2 238.358 400.5 229.858C396.7 226.858 393.4 223.958 393.2 223.558C393 223.158 392.2 222.758 391.4 222.758C390.6 222.758 390 222.358 390 221.858C390 220.758 379 215.558 373 213.858C370.5 213.058 367.2 212.158 365.6 211.658C361.8 210.458 336.3 210.658 332.5 211.858ZM355.7 245.858C373.9 250.058 380.6 254.958 387.9 269.558C392.9 279.658 393.1 280.858 393.7 309.458L394.1 331.758H370.3C343.7 331.758 337.7 330.858 327.8 325.558C321.5 322.258 311 311.758 311 308.858C311 307.958 310.6 306.758 310.2 306.158C308.1 303.858 306.5 295.558 306.5 287.758C306.6 271.158 314.4 258.258 329 250.758C336.3 246.958 336.9 246.758 339.7 246.658C341.3 246.658 343.4 246.258 344.5 245.758C347.3 244.558 350.2 244.558 355.7 245.858ZM571 246.358C578.3 247.558 586.9 251.958 593 257.658C596.4 260.858 599.1 264.758 601.6 270.258C605.1 277.658 605.3 278.958 605.4 287.758C605.4 293.458 604.9 298.658 604.1 300.758C603.4 302.658 602.5 305.158 602 306.258C599.9 311.758 598.1 314.358 592.9 319.158C581.4 329.858 573.8 331.758 541.7 331.758H517.9L518.3 309.458C518.9 280.858 519.1 279.658 524.1 269.558C531.2 255.258 537.6 250.458 555.5 245.958C559.3 244.958 563.3 245.058 571 246.358Z" fill="url(#paint11_linear)"/>
<path d="M8 288.558C0.5 292.358 0 293.258 0 303.258V312.258L4.1 316.558L8.2 320.758H98.1L103 315.758L108 310.858V304.058C108 297.858 107.7 296.858 104.9 293.458C99.4 286.758 99.5 286.758 53.1 286.758C15.1 286.758 11.1 286.958 8 288.558Z" fill="url(#paint12_linear)"/>
<path d="M8 288.558C0.5 292.358 0 293.258 0 303.258V312.258L4.1 316.558L8.2 320.758H98.1L103 315.758L108 310.858V304.058C108 297.858 107.7 296.858 104.9 293.458C99.4 286.758 99.5 286.758 53.1 286.758C15.1 286.758 11.1 286.958 8 288.558Z" fill="url(#paint13_linear)"/>
<path d="M812.8 288.658C806 292.158 804 295.558 804 304.258C804 310.858 804 310.858 809 315.758L813.9 320.758H903.8L907.9 316.558L912 312.258V303.258C912 293.258 911.5 292.358 904 288.558C900.9 286.958 896.9 286.758 858.5 286.758C819.6 286.858 816.2 286.958 812.8 288.658Z" fill="url(#paint14_linear)"/>
<path d="M812.8 288.658C806 292.158 804 295.558 804 304.258C804 310.858 804 310.858 809 315.758L813.9 320.758H903.8L907.9 316.558L912 312.258V303.258C912 293.258 911.5 292.358 904 288.558C900.9 286.958 896.9 286.758 858.5 286.758C819.6 286.858 816.2 286.958 812.8 288.658Z" fill="url(#paint15_linear)"/>
<defs>
<linearGradient id="paint0_linear" x1="456" y1="0.00012207" x2="456" y2="911.758" gradientUnits="userSpaceOnUse">
<stop stop-color="#771CD1"/>
<stop offset="1" stop-color="#771CD1" stop-opacity="0"/>
</linearGradient>
<linearGradient id="paint1_linear" x1="456" y1="0.00012207" x2="456" y2="911.758" gradientUnits="userSpaceOnUse">
<stop stop-color="#8E06C2"/>
<stop offset="0.833333" stop-color="#4B44AD"/>
</linearGradient>
<linearGradient id="paint2_linear" x1="456" y1="0.00012207" x2="456" y2="911.758" gradientUnits="userSpaceOnUse">
<stop stop-color="#771CD1"/>
<stop offset="1" stop-color="#771CD1" stop-opacity="0"/>
</linearGradient>
<linearGradient id="paint3_linear" x1="456" y1="0.00012207" x2="456" y2="911.758" gradientUnits="userSpaceOnUse">
<stop stop-color="#8E06C2"/>
<stop offset="0.833333" stop-color="#4B44AD"/>
</linearGradient>
<linearGradient id="paint4_linear" x1="456" y1="0.00012207" x2="456" y2="911.758" gradientUnits="userSpaceOnUse">
<stop stop-color="#771CD1"/>
<stop offset="1" stop-color="#771CD1" stop-opacity="0"/>
</linearGradient>
<linearGradient id="paint5_linear" x1="456" y1="0.00012207" x2="456" y2="911.758" gradientUnits="userSpaceOnUse">
<stop stop-color="#8E06C2"/>
<stop offset="0.833333" stop-color="#4B44AD"/>
</linearGradient>
<linearGradient id="paint6_linear" x1="456" y1="0.00012207" x2="456" y2="911.758" gradientUnits="userSpaceOnUse">
<stop stop-color="#771CD1"/>
<stop offset="1" stop-color="#771CD1" stop-opacity="0"/>
</linearGradient>
<linearGradient id="paint7_linear" x1="456" y1="0.00012207" x2="456" y2="911.758" gradientUnits="userSpaceOnUse">
<stop stop-color="#8E06C2"/>
<stop offset="0.833333" stop-color="#4B44AD"/>
</linearGradient>
<linearGradient id="paint8_linear" x1="456" y1="0.00012207" x2="456" y2="911.758" gradientUnits="userSpaceOnUse">
<stop stop-color="#771CD1"/>
<stop offset="1" stop-color="#771CD1" stop-opacity="0"/>
</linearGradient>
<linearGradient id="paint9_linear" x1="456" y1="0.00012207" x2="456" y2="911.758" gradientUnits="userSpaceOnUse">
<stop stop-color="#8E06C2"/>
<stop offset="0.833333" stop-color="#4B44AD"/>
</linearGradient>
<linearGradient id="paint10_linear" x1="456" y1="0.00012207" x2="456" y2="911.758" gradientUnits="userSpaceOnUse">
<stop stop-color="#771CD1"/>
<stop offset="1" stop-color="#771CD1" stop-opacity="0"/>
</linearGradient>
<linearGradient id="paint11_linear" x1="456" y1="0.00012207" x2="456" y2="911.758" gradientUnits="userSpaceOnUse">
<stop stop-color="#8E06C2"/>
<stop offset="0.833333" stop-color="#4B44AD"/>
</linearGradient>
<linearGradient id="paint12_linear" x1="456" y1="0.00012207" x2="456" y2="911.758" gradientUnits="userSpaceOnUse">
<stop stop-color="#771CD1"/>
<stop offset="1" stop-color="#771CD1" stop-opacity="0"/>
</linearGradient>
<linearGradient id="paint13_linear" x1="456" y1="0.00012207" x2="456" y2="911.758" gradientUnits="userSpaceOnUse">
<stop stop-color="#8E06C2"/>
<stop offset="0.833333" stop-color="#4B44AD"/>
</linearGradient>
<linearGradient id="paint14_linear" x1="456" y1="0.00012207" x2="456" y2="911.758" gradientUnits="userSpaceOnUse">
<stop stop-color="#771CD1"/>
<stop offset="1" stop-color="#771CD1" stop-opacity="0"/>
</linearGradient>
<linearGradient id="paint15_linear" x1="456" y1="0.00012207" x2="456" y2="911.758" gradientUnits="userSpaceOnUse">
<stop stop-color="#8E06C2"/>
<stop offset="0.833333" stop-color="#4B44AD"/>
</linearGradient>
</defs>
</svg>
