<svg width="887" height="882" viewBox="0 0 887 882" fill="none" xmlns="http://www.w3.org/2000/svg">
<path d="M432.1 0.425769C429.9 1.22577 427.8 3.72577 424.7 8.92577L422 13.5258L422.2 121.926L420 124.326C418.8 125.626 417.2 126.726 416.6 126.726C415.9 126.726 414.3 127.726 412.9 129.026C411.5 130.326 408.9 131.926 407 132.726C405.1 133.426 402.8 134.726 401.8 135.626C399.4 137.626 394 140.826 387.1 144.326C384.1 145.926 381.2 147.726 380.6 148.426C380.1 149.126 378 150.426 376.1 151.226C374.2 152.126 370.8 153.926 368.6 155.326C366.4 156.626 363.8 158.026 362.9 158.326C361.9 158.726 361.1 159.326 361.1 159.826C361.1 160.326 360.5 160.726 359.7 160.726C358.9 160.726 358.1 161.126 357.9 161.526C357.8 161.926 355 163.526 351.9 165.026C348.7 166.526 346.1 168.026 346.1 168.526C346.1 168.926 344.5 169.926 342.6 170.626C340.7 171.326 339.1 172.326 339.1 172.826C339.1 173.326 338 174.226 336.6 174.726C335.2 175.226 334.1 176.126 334.1 176.626C334.1 177.126 332.8 177.826 331.1 178.226C329.5 178.626 327.8 179.426 327.4 180.126C326.9 180.826 325.1 181.926 323.4 182.626C321.6 183.426 320.1 184.326 320.1 184.726C320.1 185.226 318.8 186.026 317.1 186.626C315.5 187.126 314.1 188.026 314.1 188.626C314.1 189.126 312.8 189.826 311.2 190.226C309.6 190.526 308 191.426 307.8 192.226C307.5 192.926 305.9 193.826 304.2 194.226C302.5 194.626 301.1 195.326 301.1 195.826C301.1 196.326 299.6 197.326 297.7 198.126C295.9 198.926 294 200.026 293.7 200.626C293.3 201.226 292.1 201.726 291.1 201.726C290 201.726 288.7 202.626 288.1 203.726C287.5 204.826 286.2 205.726 285.1 205.726C284 205.726 282.4 206.526 281.4 207.626C280.4 208.626 278.3 209.726 276.8 210.126C275.3 210.526 274.2 211.126 274.5 211.626C274.8 212.026 273.3 213.026 271.1 213.726C268.9 214.426 267.4 215.426 267.7 215.826C268 216.326 267.1 216.926 265.7 217.326C264.4 217.626 263 218.526 262.7 219.226C262.5 219.926 260.9 220.826 259.3 221.226C257.6 221.526 256 222.526 255.7 223.326C255.4 224.126 254.5 224.726 253.6 224.726C252.8 224.726 251.3 225.526 250.3 226.426C249.4 227.426 246 229.526 242.8 231.126C239.7 232.626 237.1 234.226 237.1 234.626C237.1 235.026 235.4 235.926 233.4 236.626C231.3 237.426 229.4 238.326 229.1 238.726C228.2 240.026 220.4 244.526 218.5 244.926C217.5 245.126 214 247.826 210.9 251.026C205.6 256.326 203.1 261.026 203.1 265.826C203.1 268.026 208 277.026 209.7 278.026C210.5 278.526 212 279.726 213 280.826C214.3 282.226 216.2 282.826 219.7 282.826C229.1 283.026 231 282.726 232.8 280.826C233.8 279.726 236.9 277.726 239.7 276.326C242.5 274.926 245.4 273.026 246.1 272.226C246.8 271.426 248.1 270.726 249 270.726C250 270.726 251.8 269.626 253.1 268.226C254.3 266.926 255.7 266.026 256.1 266.226C256.5 266.526 257.4 266.126 258 265.426C258.6 264.626 260.9 263.426 263.1 262.726C265.2 262.026 266.8 261.026 266.5 260.526C266.2 260.126 266.8 259.426 267.8 259.026C268.8 258.626 272.1 256.726 275.1 254.626C278.1 252.626 282.9 249.726 285.6 248.226C288.4 246.726 291.2 245.026 291.9 244.526C293.3 243.326 298.1 240.526 302.9 238.126C304.6 237.226 306.1 236.126 306.1 235.626C306.1 235.126 306.9 234.726 307.8 234.726C308.7 234.726 310.2 234.126 311 233.326C313.4 231.226 320 227.726 321.6 227.726C322.3 227.726 323.8 226.626 324.9 225.226C326 223.826 327.5 222.726 328.3 222.726C329.1 222.726 330.6 221.926 331.7 220.926C335.5 217.626 340 214.726 341.5 214.726C342.3 214.726 343.6 213.926 344.3 212.926C345 211.926 346.8 210.726 348.3 210.426C349.8 210.026 351.6 209.126 352.3 208.426C353 207.826 355 206.526 356.6 205.826C358.3 205.026 361 203.326 362.6 202.226C364.3 201.026 368.7 198.326 372.4 196.126C376.2 194.026 380.9 191.226 382.9 190.026C385 188.826 387.3 187.526 388.1 187.226C388.9 186.826 390.3 186.126 391.1 185.626C391.9 185.126 394.1 184.126 395.9 183.226C397.7 182.426 399 181.326 398.6 180.726C398.3 180.126 398.9 179.726 400.1 179.726C402 179.726 403.9 178.526 409.9 173.626C410.6 173.126 412.5 172.126 414.1 171.526C415.8 171.026 417.1 170.126 417.1 169.626C417.1 169.126 418.2 168.226 419.5 167.726C420.9 167.226 424.3 165.226 427 163.226C429.8 161.326 433 159.726 434.1 159.726C435.2 159.726 436.1 159.126 436.1 158.326C436.1 155.326 445.5 154.726 447.1 157.726C447.7 158.826 449 159.726 450 159.726C451 159.726 452.8 160.626 454.1 161.726C455.4 162.826 457 163.726 457.8 163.726C458.5 163.726 459.4 164.326 459.7 165.126C460 165.926 461.6 167.026 463.2 167.626C464.8 168.126 466.1 169.126 466.1 169.626C466.1 170.226 466.8 170.726 467.7 170.726C469.4 170.726 479.5 177.026 480.6 178.726C480.9 179.326 482.1 179.726 483.2 179.726C484.3 179.726 485 180.126 484.6 180.626C484 181.726 485.8 183.126 488.3 183.226C489.3 183.326 490.9 184.126 491.9 185.026C492.9 185.926 494.5 186.726 495.4 186.726C496.3 186.726 497.1 187.126 497.1 187.626C497.1 188.126 498.6 189.226 500.4 190.126C502.1 191.026 505.4 192.926 507.6 194.226C509.8 195.626 513.4 197.626 515.6 198.726C517.8 199.926 521.6 202.126 524.1 203.726C526.6 205.226 529.2 206.626 529.9 206.626C530.5 206.726 531.1 207.126 531.1 207.626C531.1 208.126 532.9 209.226 535.1 210.126C537.4 211.026 539.4 212.426 539.7 213.126C540 213.926 541.6 214.926 543.2 215.226C544.8 215.626 546.1 216.326 546.1 216.826C546.1 217.326 546.8 217.726 547.6 217.726C548.3 217.726 549.4 218.326 549.8 218.926C550.8 220.526 554.7 222.726 556.5 222.726C557.3 222.726 558.1 223.426 558.5 224.226C558.8 225.026 561.4 226.826 564.3 228.226C567.2 229.626 571.6 232.126 574.1 233.726C576.6 235.226 579.2 236.626 579.9 236.626C580.5 236.726 581.1 237.126 581.1 237.726C581.1 238.226 583 239.626 585.4 240.726C587.7 241.826 590.8 243.826 592.3 245.226C593.8 246.626 595.6 247.726 596.3 247.726C597 247.726 599.3 248.826 601.3 250.226C603.3 251.626 605.5 252.726 606 252.726C606.6 252.726 607.1 253.126 607.1 253.726C607.1 254.226 607.9 254.726 608.9 254.726C609.8 254.726 611.2 255.626 611.8 256.626C612.5 257.726 614.4 258.826 616 259.226C617.7 259.626 619.4 260.426 619.8 261.026C620.7 262.426 623.6 264.326 627.1 265.826C628.5 266.426 630.4 267.626 631.4 268.526C632.4 269.426 633.9 270.226 634.7 270.326C635.6 270.426 637.1 271.326 638.2 272.326C640.2 274.126 642.1 275.226 647.9 278.226C649.6 279.226 651.1 280.326 651.1 280.826C651.1 281.326 651.4 281.626 651.9 281.526C652.3 281.426 654 281.926 655.6 282.626C657.4 283.426 660.7 283.726 663.9 283.426C668.4 282.926 669.7 282.326 673 278.826C675.2 276.526 677.3 273.826 677.6 272.726C678 271.626 678.7 270.926 679.2 271.226C679.7 271.626 680.1 268.826 680.1 264.726C680.1 260.826 679.7 257.826 679.2 258.126C678.7 258.426 677.6 257.226 676.8 255.426C675.9 253.726 674.2 251.526 673 250.726C671.8 249.926 669.9 248.326 668.7 247.126C667.5 246.026 665.4 244.726 664 244.426C662.6 244.026 660.4 242.926 659.2 241.826C657.9 240.726 654.9 238.826 652.5 237.626C650.1 236.526 648.3 235.226 648.6 234.726C648.9 234.326 647.1 233.426 644.6 232.826C642.1 232.226 640.1 231.326 640.1 230.826C640.1 230.226 639.1 229.526 637.9 229.126C636.6 228.726 635.2 227.826 634.6 227.026C634.1 226.326 632.5 225.526 631.1 225.226C629.7 224.926 628.2 224.226 627.6 223.426C627.1 222.726 625.5 221.626 624.1 220.926C619.7 218.626 617.6 217.226 615.1 214.926C613.8 213.726 611.7 212.726 610.4 212.726C609 212.726 608.2 212.326 608.6 211.826C608.9 211.326 607.6 210.426 605.7 209.726C603.8 209.126 602 208.026 601.7 207.226C601.4 206.426 600.3 205.726 599.3 205.726C598.3 205.726 596.6 204.826 595.6 203.726C594.6 202.626 593 201.726 592.1 201.726C591.1 201.726 589.8 201.026 589.1 200.226C588.4 199.426 587.3 198.726 586.6 198.726C586 198.726 584.6 197.826 583.6 196.726C582.6 195.626 580.9 194.526 579.8 194.126C578.6 193.726 575.6 191.926 573 190.126C570.4 188.326 567.1 186.526 565.7 186.126C564.3 185.826 563.1 185.126 563.1 184.526C563.1 184.026 561.8 183.126 560.1 182.626C558.5 182.026 557.1 181.126 557.1 180.726C557.1 180.226 554.2 178.526 550.7 176.726C547.2 175.026 544 173.026 543.7 172.226C543.4 171.426 542.5 170.726 541.8 170.726C541 170.726 539.3 169.926 538 168.826C536.7 167.826 533.3 165.726 530.4 164.326C527.6 162.826 524.7 160.926 524 160.126C523.4 159.326 522 158.726 521 158.726C519.9 158.726 519.1 158.326 519.1 157.826C519.1 157.326 517.4 156.226 515.4 155.326C510.4 153.126 504.3 149.526 501.4 146.926C500.1 145.826 499.1 145.126 499.1 145.326C499.1 146.026 493 142.526 491.3 141.026C490.6 140.326 488.9 139.426 487.6 139.126C486.2 138.826 484.9 137.626 484.6 136.626C484.2 135.626 483.3 134.726 482.6 134.726C480.4 134.726 474 131.426 471.3 128.926C469.9 127.726 468.1 126.726 467.1 126.726C466.2 126.726 464.4 125.626 463.2 124.326C461 122.026 461 121.926 460.8 77.8258L460.6 33.7258H525.1V43.1258C525.1 48.3258 525.4 53.2258 525.7 54.1258C526.2 55.5258 523.6 55.7258 502.4 55.9258C484 56.1258 478.7 56.5258 478.9 57.4258C479 58.1258 478.4 58.7258 477.6 58.7258C476 58.7258 470.1 64.1258 470.1 65.6258C470.1 66.2258 469.4 67.0258 468.5 67.5258C467.5 68.0258 466.7 70.2258 466.4 73.0258C466 76.7258 466.3 78.1258 468 80.3258C469.1 81.8258 470.1 83.6258 470.1 84.3258C470.1 85.0258 471.1 86.2258 472.4 86.8258C473.6 87.4258 475.6 89.2258 476.9 90.8258L479.2 93.6258H550.5L555.9 88.2258C564.2 79.6258 564.1 80.1258 564.1 45.5258C564.1 12.5258 563.8 10.9258 558.4 4.12577L555.3 0.225769L494.4 0.0257688C461 -0.0742312 432.9 0.125769 432.1 0.425769Z" fill="url(#paint0_linear)"/>
<path d="M432.1 0.425769C429.9 1.22577 427.8 3.72577 424.7 8.92577L422 13.5258L422.2 121.926L420 124.326C418.8 125.626 417.2 126.726 416.6 126.726C415.9 126.726 414.3 127.726 412.9 129.026C411.5 130.326 408.9 131.926 407 132.726C405.1 133.426 402.8 134.726 401.8 135.626C399.4 137.626 394 140.826 387.1 144.326C384.1 145.926 381.2 147.726 380.6 148.426C380.1 149.126 378 150.426 376.1 151.226C374.2 152.126 370.8 153.926 368.6 155.326C366.4 156.626 363.8 158.026 362.9 158.326C361.9 158.726 361.1 159.326 361.1 159.826C361.1 160.326 360.5 160.726 359.7 160.726C358.9 160.726 358.1 161.126 357.9 161.526C357.8 161.926 355 163.526 351.9 165.026C348.7 166.526 346.1 168.026 346.1 168.526C346.1 168.926 344.5 169.926 342.6 170.626C340.7 171.326 339.1 172.326 339.1 172.826C339.1 173.326 338 174.226 336.6 174.726C335.2 175.226 334.1 176.126 334.1 176.626C334.1 177.126 332.8 177.826 331.1 178.226C329.5 178.626 327.8 179.426 327.4 180.126C326.9 180.826 325.1 181.926 323.4 182.626C321.6 183.426 320.1 184.326 320.1 184.726C320.1 185.226 318.8 186.026 317.1 186.626C315.5 187.126 314.1 188.026 314.1 188.626C314.1 189.126 312.8 189.826 311.2 190.226C309.6 190.526 308 191.426 307.8 192.226C307.5 192.926 305.9 193.826 304.2 194.226C302.5 194.626 301.1 195.326 301.1 195.826C301.1 196.326 299.6 197.326 297.7 198.126C295.9 198.926 294 200.026 293.7 200.626C293.3 201.226 292.1 201.726 291.1 201.726C290 201.726 288.7 202.626 288.1 203.726C287.5 204.826 286.2 205.726 285.1 205.726C284 205.726 282.4 206.526 281.4 207.626C280.4 208.626 278.3 209.726 276.8 210.126C275.3 210.526 274.2 211.126 274.5 211.626C274.8 212.026 273.3 213.026 271.1 213.726C268.9 214.426 267.4 215.426 267.7 215.826C268 216.326 267.1 216.926 265.7 217.326C264.4 217.626 263 218.526 262.7 219.226C262.5 219.926 260.9 220.826 259.3 221.226C257.6 221.526 256 222.526 255.7 223.326C255.4 224.126 254.5 224.726 253.6 224.726C252.8 224.726 251.3 225.526 250.3 226.426C249.4 227.426 246 229.526 242.8 231.126C239.7 232.626 237.1 234.226 237.1 234.626C237.1 235.026 235.4 235.926 233.4 236.626C231.3 237.426 229.4 238.326 229.1 238.726C228.2 240.026 220.4 244.526 218.5 244.926C217.5 245.126 214 247.826 210.9 251.026C205.6 256.326 203.1 261.026 203.1 265.826C203.1 268.026 208 277.026 209.7 278.026C210.5 278.526 212 279.726 213 280.826C214.3 282.226 216.2 282.826 219.7 282.826C229.1 283.026 231 282.726 232.8 280.826C233.8 279.726 236.9 277.726 239.7 276.326C242.5 274.926 245.4 273.026 246.1 272.226C246.8 271.426 248.1 270.726 249 270.726C250 270.726 251.8 269.626 253.1 268.226C254.3 266.926 255.7 266.026 256.1 266.226C256.5 266.526 257.4 266.126 258 265.426C258.6 264.626 260.9 263.426 263.1 262.726C265.2 262.026 266.8 261.026 266.5 260.526C266.2 260.126 266.8 259.426 267.8 259.026C268.8 258.626 272.1 256.726 275.1 254.626C278.1 252.626 282.9 249.726 285.6 248.226C288.4 246.726 291.2 245.026 291.9 244.526C293.3 243.326 298.1 240.526 302.9 238.126C304.6 237.226 306.1 236.126 306.1 235.626C306.1 235.126 306.9 234.726 307.8 234.726C308.7 234.726 310.2 234.126 311 233.326C313.4 231.226 320 227.726 321.6 227.726C322.3 227.726 323.8 226.626 324.9 225.226C326 223.826 327.5 222.726 328.3 222.726C329.1 222.726 330.6 221.926 331.7 220.926C335.5 217.626 340 214.726 341.5 214.726C342.3 214.726 343.6 213.926 344.3 212.926C345 211.926 346.8 210.726 348.3 210.426C349.8 210.026 351.6 209.126 352.3 208.426C353 207.826 355 206.526 356.6 205.826C358.3 205.026 361 203.326 362.6 202.226C364.3 201.026 368.7 198.326 372.4 196.126C376.2 194.026 380.9 191.226 382.9 190.026C385 188.826 387.3 187.526 388.1 187.226C388.9 186.826 390.3 186.126 391.1 185.626C391.9 185.126 394.1 184.126 395.9 183.226C397.7 182.426 399 181.326 398.6 180.726C398.3 180.126 398.9 179.726 400.1 179.726C402 179.726 403.9 178.526 409.9 173.626C410.6 173.126 412.5 172.126 414.1 171.526C415.8 171.026 417.1 170.126 417.1 169.626C417.1 169.126 418.2 168.226 419.5 167.726C420.9 167.226 424.3 165.226 427 163.226C429.8 161.326 433 159.726 434.1 159.726C435.2 159.726 436.1 159.126 436.1 158.326C436.1 155.326 445.5 154.726 447.1 157.726C447.7 158.826 449 159.726 450 159.726C451 159.726 452.8 160.626 454.1 161.726C455.4 162.826 457 163.726 457.8 163.726C458.5 163.726 459.4 164.326 459.7 165.126C460 165.926 461.6 167.026 463.2 167.626C464.8 168.126 466.1 169.126 466.1 169.626C466.1 170.226 466.8 170.726 467.7 170.726C469.4 170.726 479.5 177.026 480.6 178.726C480.9 179.326 482.1 179.726 483.2 179.726C484.3 179.726 485 180.126 484.6 180.626C484 181.726 485.8 183.126 488.3 183.226C489.3 183.326 490.9 184.126 491.9 185.026C492.9 185.926 494.5 186.726 495.4 186.726C496.3 186.726 497.1 187.126 497.1 187.626C497.1 188.126 498.6 189.226 500.4 190.126C502.1 191.026 505.4 192.926 507.6 194.226C509.8 195.626 513.4 197.626 515.6 198.726C517.8 199.926 521.6 202.126 524.1 203.726C526.6 205.226 529.2 206.626 529.9 206.626C530.5 206.726 531.1 207.126 531.1 207.626C531.1 208.126 532.9 209.226 535.1 210.126C537.4 211.026 539.4 212.426 539.7 213.126C540 213.926 541.6 214.926 543.2 215.226C544.8 215.626 546.1 216.326 546.1 216.826C546.1 217.326 546.8 217.726 547.6 217.726C548.3 217.726 549.4 218.326 549.8 218.926C550.8 220.526 554.7 222.726 556.5 222.726C557.3 222.726 558.1 223.426 558.5 224.226C558.8 225.026 561.4 226.826 564.3 228.226C567.2 229.626 571.6 232.126 574.1 233.726C576.6 235.226 579.2 236.626 579.9 236.626C580.5 236.726 581.1 237.126 581.1 237.726C581.1 238.226 583 239.626 585.4 240.726C587.7 241.826 590.8 243.826 592.3 245.226C593.8 246.626 595.6 247.726 596.3 247.726C597 247.726 599.3 248.826 601.3 250.226C603.3 251.626 605.5 252.726 606 252.726C606.6 252.726 607.1 253.126 607.1 253.726C607.1 254.226 607.9 254.726 608.9 254.726C609.8 254.726 611.2 255.626 611.8 256.626C612.5 257.726 614.4 258.826 616 259.226C617.7 259.626 619.4 260.426 619.8 261.026C620.7 262.426 623.6 264.326 627.1 265.826C628.5 266.426 630.4 267.626 631.4 268.526C632.4 269.426 633.9 270.226 634.7 270.326C635.6 270.426 637.1 271.326 638.2 272.326C640.2 274.126 642.1 275.226 647.9 278.226C649.6 279.226 651.1 280.326 651.1 280.826C651.1 281.326 651.4 281.626 651.9 281.526C652.3 281.426 654 281.926 655.6 282.626C657.4 283.426 660.7 283.726 663.9 283.426C668.4 282.926 669.7 282.326 673 278.826C675.2 276.526 677.3 273.826 677.6 272.726C678 271.626 678.7 270.926 679.2 271.226C679.7 271.626 680.1 268.826 680.1 264.726C680.1 260.826 679.7 257.826 679.2 258.126C678.7 258.426 677.6 257.226 676.8 255.426C675.9 253.726 674.2 251.526 673 250.726C671.8 249.926 669.9 248.326 668.7 247.126C667.5 246.026 665.4 244.726 664 244.426C662.6 244.026 660.4 242.926 659.2 241.826C657.9 240.726 654.9 238.826 652.5 237.626C650.1 236.526 648.3 235.226 648.6 234.726C648.9 234.326 647.1 233.426 644.6 232.826C642.1 232.226 640.1 231.326 640.1 230.826C640.1 230.226 639.1 229.526 637.9 229.126C636.6 228.726 635.2 227.826 634.6 227.026C634.1 226.326 632.5 225.526 631.1 225.226C629.7 224.926 628.2 224.226 627.6 223.426C627.1 222.726 625.5 221.626 624.1 220.926C619.7 218.626 617.6 217.226 615.1 214.926C613.8 213.726 611.7 212.726 610.4 212.726C609 212.726 608.2 212.326 608.6 211.826C608.9 211.326 607.6 210.426 605.7 209.726C603.8 209.126 602 208.026 601.7 207.226C601.4 206.426 600.3 205.726 599.3 205.726C598.3 205.726 596.6 204.826 595.6 203.726C594.6 202.626 593 201.726 592.1 201.726C591.1 201.726 589.8 201.026 589.1 200.226C588.4 199.426 587.3 198.726 586.6 198.726C586 198.726 584.6 197.826 583.6 196.726C582.6 195.626 580.9 194.526 579.8 194.126C578.6 193.726 575.6 191.926 573 190.126C570.4 188.326 567.1 186.526 565.7 186.126C564.3 185.826 563.1 185.126 563.1 184.526C563.1 184.026 561.8 183.126 560.1 182.626C558.5 182.026 557.1 181.126 557.1 180.726C557.1 180.226 554.2 178.526 550.7 176.726C547.2 175.026 544 173.026 543.7 172.226C543.4 171.426 542.5 170.726 541.8 170.726C541 170.726 539.3 169.926 538 168.826C536.7 167.826 533.3 165.726 530.4 164.326C527.6 162.826 524.7 160.926 524 160.126C523.4 159.326 522 158.726 521 158.726C519.9 158.726 519.1 158.326 519.1 157.826C519.1 157.326 517.4 156.226 515.4 155.326C510.4 153.126 504.3 149.526 501.4 146.926C500.1 145.826 499.1 145.126 499.1 145.326C499.1 146.026 493 142.526 491.3 141.026C490.6 140.326 488.9 139.426 487.6 139.126C486.2 138.826 484.9 137.626 484.6 136.626C484.2 135.626 483.3 134.726 482.6 134.726C480.4 134.726 474 131.426 471.3 128.926C469.9 127.726 468.1 126.726 467.1 126.726C466.2 126.726 464.4 125.626 463.2 124.326C461 122.026 461 121.926 460.8 77.8258L460.6 33.7258H525.1V43.1258C525.1 48.3258 525.4 53.2258 525.7 54.1258C526.2 55.5258 523.6 55.7258 502.4 55.9258C484 56.1258 478.7 56.5258 478.9 57.4258C479 58.1258 478.4 58.7258 477.6 58.7258C476 58.7258 470.1 64.1258 470.1 65.6258C470.1 66.2258 469.4 67.0258 468.5 67.5258C467.5 68.0258 466.7 70.2258 466.4 73.0258C466 76.7258 466.3 78.1258 468 80.3258C469.1 81.8258 470.1 83.6258 470.1 84.3258C470.1 85.0258 471.1 86.2258 472.4 86.8258C473.6 87.4258 475.6 89.2258 476.9 90.8258L479.2 93.6258H550.5L555.9 88.2258C564.2 79.6258 564.1 80.1258 564.1 45.5258C564.1 12.5258 563.8 10.9258 558.4 4.12577L555.3 0.225769L494.4 0.0257688C461 -0.0742312 432.9 0.125769 432.1 0.425769Z" fill="url(#paint1_linear)"/>
<path d="M328.5 265.526C325.7 268.226 323 271.326 322.7 272.526C322.3 273.726 321.5 274.726 321 274.726C320.5 274.726 320.1 294.326 320.1 324.326C320.1 352.126 320.5 373.626 321 373.326C321.4 373.026 323.1 374.726 324.6 377.126C326.1 379.626 328.1 381.826 329 382.126C329.9 382.526 331.7 383.426 333.1 384.226C335.2 385.526 340.9 385.726 369.1 385.426C387.5 385.226 403.4 384.926 404.5 384.626C406.6 384.126 412.1 379.726 412.1 378.526C412.1 378.026 413 376.826 414.1 375.726C416 373.826 416.1 372.426 416.1 323.326V272.926L410 266.826L404 260.726H333.6L328.5 265.526ZM379.2 322.426C379.1 335.826 379.1 347.026 379.1 347.426C379.1 347.926 374.4 348.226 368.6 348.226H358.1V322.926L358.2 297.626L379.2 298.226V322.426Z" fill="url(#paint2_linear)"/>
<path d="M328.5 265.526C325.7 268.226 323 271.326 322.7 272.526C322.3 273.726 321.5 274.726 321 274.726C320.5 274.726 320.1 294.326 320.1 324.326C320.1 352.126 320.5 373.626 321 373.326C321.4 373.026 323.1 374.726 324.6 377.126C326.1 379.626 328.1 381.826 329 382.126C329.9 382.526 331.7 383.426 333.1 384.226C335.2 385.526 340.9 385.726 369.1 385.426C387.5 385.226 403.4 384.926 404.5 384.626C406.6 384.126 412.1 379.726 412.1 378.526C412.1 378.026 413 376.826 414.1 375.726C416 373.826 416.1 372.426 416.1 323.326V272.926L410 266.826L404 260.726H333.6L328.5 265.526ZM379.2 322.426C379.1 335.826 379.1 347.026 379.1 347.426C379.1 347.926 374.4 348.226 368.6 348.226H358.1V322.926L358.2 297.626L379.2 298.226V322.426Z" fill="url(#paint3_linear)"/>
<path d="M475.4 264.526C472.5 266.526 470.2 269.026 470.1 270.026C470.1 271.026 469.5 272.026 468.7 272.326C467.9 272.626 467 273.626 466.7 274.426C466.3 275.326 466.1 297.826 466.1 324.626V373.226L468.6 375.026C470 376.026 470.9 377.226 470.6 377.726C470.3 378.126 472.5 380.026 475.3 381.826L480.6 385.226H549.6L554.2 382.426C556.8 380.926 559.2 378.926 559.5 377.926C559.9 377.026 561 374.626 562.1 372.726C563.9 369.426 564 366.726 564.1 324.126C564.1 291.926 563.8 278.026 562.9 275.626C561.6 271.726 556.6 264.526 555.8 265.326C555.6 265.626 554.1 264.726 552.6 263.326L549.8 260.726H515.2L480.6 260.826L475.4 264.526ZM525.2 347.926H504L503.6 297.726H525.6L525.2 347.926Z" fill="url(#paint4_linear)"/>
<path d="M475.4 264.526C472.5 266.526 470.2 269.026 470.1 270.026C470.1 271.026 469.5 272.026 468.7 272.326C467.9 272.626 467 273.626 466.7 274.426C466.3 275.326 466.1 297.826 466.1 324.626V373.226L468.6 375.026C470 376.026 470.9 377.226 470.6 377.726C470.3 378.126 472.5 380.026 475.3 381.826L480.6 385.226H549.6L554.2 382.426C556.8 380.926 559.2 378.926 559.5 377.926C559.9 377.026 561 374.626 562.1 372.726C563.9 369.426 564 366.726 564.1 324.126C564.1 291.926 563.8 278.026 562.9 275.626C561.6 271.726 556.6 264.526 555.8 265.326C555.6 265.626 554.1 264.726 552.6 263.326L549.8 260.726H515.2L480.6 260.826L475.4 264.526ZM525.2 347.926H504L503.6 297.726H525.6L525.2 347.926Z" fill="url(#paint5_linear)"/>
<path d="M625.5 291.826C621.1 293.826 615.1 299.826 615.1 302.226C615.1 302.926 614.6 303.726 614.1 303.926C613.4 304.126 613.1 378.226 613.1 527.426V750.726L615.2 754.426C617.5 758.626 622 763.726 623.4 763.726C623.9 763.726 625.4 764.626 626.8 765.726C628.2 766.826 630.4 767.726 631.7 767.726C634.5 767.726 639.1 765.726 639.1 764.526C639.1 764.126 639.7 763.726 640.4 763.726C641 763.726 642.9 762.626 644.4 761.326C646 759.926 647.7 758.726 648.1 758.526C648.6 758.326 649.3 756.826 649.8 755.226C650.2 753.526 650.7 651.826 650.8 529.026C651.1 298.326 651.1 297.726 647.4 298.426C646.7 298.626 645.9 297.726 645.6 296.626C644.8 294.326 635.5 289.726 631.9 289.826C630.6 289.826 627.7 290.726 625.5 291.826Z" fill="url(#paint6_linear)"/>
<path d="M625.5 291.826C621.1 293.826 615.1 299.826 615.1 302.226C615.1 302.926 614.6 303.726 614.1 303.926C613.4 304.126 613.1 378.226 613.1 527.426V750.726L615.2 754.426C617.5 758.626 622 763.726 623.4 763.726C623.9 763.726 625.4 764.626 626.8 765.726C628.2 766.826 630.4 767.726 631.7 767.726C634.5 767.726 639.1 765.726 639.1 764.526C639.1 764.126 639.7 763.726 640.4 763.726C641 763.726 642.9 762.626 644.4 761.326C646 759.926 647.7 758.726 648.1 758.526C648.6 758.326 649.3 756.826 649.8 755.226C650.2 753.526 650.7 651.826 650.8 529.026C651.1 298.326 651.1 297.726 647.4 298.426C646.7 298.626 645.9 297.726 645.6 296.626C644.8 294.326 635.5 289.726 631.9 289.826C630.6 289.826 627.7 290.726 625.5 291.826Z" fill="url(#paint7_linear)"/>
<path d="M245.4 305.726C244.1 306.226 243.1 307.126 243.1 307.726C243.1 308.226 242.4 308.726 241.6 308.726C240.8 308.726 238.7 310.826 236.9 313.426L233.6 318.226V754.326L236.1 757.226C237.4 758.926 240.7 761.926 243.4 764.126C248 767.726 248.7 767.926 253 767.326C255.5 767.026 258.1 766.026 258.7 765.226C259.3 764.426 260.2 763.726 260.7 763.726C262 763.726 266.1 759.126 266.1 757.826C266.1 757.126 266.5 756.826 267 757.226C267.6 757.526 268.5 756.926 269 755.826C270.2 753.726 270.6 320.226 269.5 315.926C269.1 314.726 268.2 313.726 267.5 313.726C266.7 313.726 266.1 313.326 266.1 312.726C266.1 312.226 264 310.226 261.5 308.226C257.6 305.326 256 304.726 252.2 304.826C249.7 304.826 246.6 305.226 245.4 305.726Z" fill="url(#paint8_linear)"/>
<path d="M245.4 305.726C244.1 306.226 243.1 307.126 243.1 307.726C243.1 308.226 242.4 308.726 241.6 308.726C240.8 308.726 238.7 310.826 236.9 313.426L233.6 318.226V754.326L236.1 757.226C237.4 758.926 240.7 761.926 243.4 764.126C248 767.726 248.7 767.926 253 767.326C255.5 767.026 258.1 766.026 258.7 765.226C259.3 764.426 260.2 763.726 260.7 763.726C262 763.726 266.1 759.126 266.1 757.826C266.1 757.126 266.5 756.826 267 757.226C267.6 757.526 268.5 756.926 269 755.826C270.2 753.726 270.6 320.226 269.5 315.926C269.1 314.726 268.2 313.726 267.5 313.726C266.7 313.726 266.1 313.326 266.1 312.726C266.1 312.226 264 310.226 261.5 308.226C257.6 305.326 256 304.726 252.2 304.826C249.7 304.826 246.6 305.226 245.4 305.726Z" fill="url(#paint9_linear)"/>
<path d="M13.6 319.626C12.5 320.126 10.6 320.726 9.4 321.226C8.1 321.626 7.1 322.626 7.1 323.326C7.1 324.126 6.4 324.726 5.6 324.726C4.8 324.726 4.1 325.126 4.1 325.726C4.1 326.226 3.5 326.726 2.7 326.726C1.9 326.726 0.999999 327.426 0.699998 328.326C0.399998 329.226 0.0999985 370.026 0.0999985 418.926C0.0999985 506.926 0.199999 512.026 3.2 510.226C3.6 509.926 4.5 510.526 5 511.626C8 517.126 18.4 519.326 24.9 515.826C28.5 513.926 35.1 506.326 35.1 504.026C35.1 503.226 35.6 502.926 36.1 503.226C36.8 503.726 37.1 485.126 36.9 444.526L36.6 385.226H198.6L203.3 381.826C211.6 375.926 214.2 366.926 209.9 359.826C207.3 355.726 203.2 351.826 201.4 351.726C200.7 351.726 200.1 351.126 200.1 350.326C200.1 349.626 199.1 348.726 197.9 348.326C196.6 348.026 160.3 347.726 117.1 347.726C73.9 347.726 38.1 347.726 37.6 347.726C37 347.726 36.7 344.626 37 339.626C37.2 334.126 37 331.726 36.3 332.126C35.7 332.426 35 331.926 34.7 330.926C33.9 328.526 28.4 322.926 25.1 321.226C21.7 319.426 16.1 318.726 13.6 319.626Z" fill="url(#paint10_linear)"/>
<path d="M13.6 319.626C12.5 320.126 10.6 320.726 9.4 321.226C8.1 321.626 7.1 322.626 7.1 323.326C7.1 324.126 6.4 324.726 5.6 324.726C4.8 324.726 4.1 325.126 4.1 325.726C4.1 326.226 3.5 326.726 2.7 326.726C1.9 326.726 0.999999 327.426 0.699998 328.326C0.399998 329.226 0.0999985 370.026 0.0999985 418.926C0.0999985 506.926 0.199999 512.026 3.2 510.226C3.6 509.926 4.5 510.526 5 511.626C8 517.126 18.4 519.326 24.9 515.826C28.5 513.926 35.1 506.326 35.1 504.026C35.1 503.226 35.6 502.926 36.1 503.226C36.8 503.726 37.1 485.126 36.9 444.526L36.6 385.226H198.6L203.3 381.826C211.6 375.926 214.2 366.926 209.9 359.826C207.3 355.726 203.2 351.826 201.4 351.726C200.7 351.726 200.1 351.126 200.1 350.326C200.1 349.626 199.1 348.726 197.9 348.326C196.6 348.026 160.3 347.726 117.1 347.726C73.9 347.726 38.1 347.726 37.6 347.726C37 347.726 36.7 344.626 37 339.626C37.2 334.126 37 331.726 36.3 332.126C35.7 332.426 35 331.926 34.7 330.926C33.9 328.526 28.4 322.926 25.1 321.226C21.7 319.426 16.1 318.726 13.6 319.626Z" fill="url(#paint11_linear)"/>
<path d="M860.9 320.326C856.4 321.726 851.8 326.126 848.5 332.226C846.9 335.326 846.7 344.826 848.2 345.826C849 346.226 849.3 346.926 849 347.226C848.6 347.526 811.9 347.726 767.4 347.726C687.5 347.726 686.4 347.726 684.6 349.726C683.6 350.826 682.3 351.726 681.7 351.726C679.4 351.826 674.5 357.426 673.3 361.426C670.7 370.126 672.8 376.726 679.9 381.826L684.6 385.226L847.6 385.826L847.4 627.726C847.1 856.626 847.2 869.826 848.9 871.826C849.8 873.026 852.2 875.726 854.2 877.926L857.9 881.726H866.5C873.8 881.726 875.4 881.426 877.1 879.726C878.2 878.626 879.9 877.726 881 877.726C882.1 877.726 883.5 876.426 884.5 874.326C886 871.226 886.1 847.726 886.1 601.326C886.1 403.426 885.8 331.126 885 329.326C884.3 327.926 882.4 326.126 880.7 325.226C879 324.326 876.3 322.826 874.6 321.726C870.2 319.126 866.2 318.626 860.9 320.326Z" fill="url(#paint12_linear)"/>
<path d="M860.9 320.326C856.4 321.726 851.8 326.126 848.5 332.226C846.9 335.326 846.7 344.826 848.2 345.826C849 346.226 849.3 346.926 849 347.226C848.6 347.526 811.9 347.726 767.4 347.726C687.5 347.726 686.4 347.726 684.6 349.726C683.6 350.826 682.3 351.726 681.7 351.726C679.4 351.826 674.5 357.426 673.3 361.426C670.7 370.126 672.8 376.726 679.9 381.826L684.6 385.226L847.6 385.826L847.4 627.726C847.1 856.626 847.2 869.826 848.9 871.826C849.8 873.026 852.2 875.726 854.2 877.926L857.9 881.726H866.5C873.8 881.726 875.4 881.426 877.1 879.726C878.2 878.626 879.9 877.726 881 877.726C882.1 877.726 883.5 876.426 884.5 874.326C886 871.226 886.1 847.726 886.1 601.326C886.1 403.426 885.8 331.126 885 329.326C884.3 327.926 882.4 326.126 880.7 325.226C879 324.326 876.3 322.826 874.6 321.726C870.2 319.126 866.2 318.626 860.9 320.326Z" fill="url(#paint13_linear)"/>
<path d="M103.1 435.726C103.1 436.126 101.4 437.226 99.3 438.026C97.3 438.826 93.4 441.526 90.8 444.026L86.1 448.626V469.226C86.1 489.526 86.7 493.726 89.5 493.726C90.2 493.726 91.3 494.826 91.9 496.226C92.5 497.626 93.6 498.726 94.4 498.726C95.1 498.726 96.4 499.626 97.4 500.726C98.7 502.326 100.3 502.726 105.3 502.726C110.7 502.726 111.9 502.326 114 500.226C115.3 498.826 116.9 497.726 117.7 497.726C118.5 497.726 119.1 497.226 119.1 496.626C119.1 496.026 120.2 494.226 121.6 492.526C123.8 489.926 124.1 488.626 124.1 481.926V474.226H145.1V508.726C145.2 527.726 145.5 545.026 146 547.326C146.6 550.326 147.9 552.526 151.1 555.326C157 560.726 158.9 561.626 164.4 561.726C169.5 561.726 170.3 561.326 176.1 555.426C184 547.326 183.3 553.026 183.2 498.926L183.1 450.426L179.3 445.826C177.2 443.326 173.7 440.326 171.4 439.226C169.2 438.126 166.7 436.626 165.8 435.926C164.7 434.926 157.3 434.726 133.7 434.726C116.9 434.826 103.1 435.226 103.1 435.726Z" fill="url(#paint14_linear)"/>
<path d="M103.1 435.726C103.1 436.126 101.4 437.226 99.3 438.026C97.3 438.826 93.4 441.526 90.8 444.026L86.1 448.626V469.226C86.1 489.526 86.7 493.726 89.5 493.726C90.2 493.726 91.3 494.826 91.9 496.226C92.5 497.626 93.6 498.726 94.4 498.726C95.1 498.726 96.4 499.626 97.4 500.726C98.7 502.326 100.3 502.726 105.3 502.726C110.7 502.726 111.9 502.326 114 500.226C115.3 498.826 116.9 497.726 117.7 497.726C118.5 497.726 119.1 497.226 119.1 496.626C119.1 496.026 120.2 494.226 121.6 492.526C123.8 489.926 124.1 488.626 124.1 481.926V474.226H145.1V508.726C145.2 527.726 145.5 545.026 146 547.326C146.6 550.326 147.9 552.526 151.1 555.326C157 560.726 158.9 561.626 164.4 561.726C169.5 561.726 170.3 561.326 176.1 555.426C184 547.326 183.3 553.026 183.2 498.926L183.1 450.426L179.3 445.826C177.2 443.326 173.7 440.326 171.4 439.226C169.2 438.126 166.7 436.626 165.8 435.926C164.7 434.926 157.3 434.726 133.7 434.726C116.9 434.826 103.1 435.226 103.1 435.726Z" fill="url(#paint15_linear)"/>
<path d="M337.1 435.626C337.1 436.126 334.9 437.526 332.2 438.726C328.8 440.326 326.6 442.126 325 444.926C323.7 447.126 322 449.526 321.4 450.226C319.8 451.926 319.5 547.726 321.1 547.726C321.6 547.726 322.7 549.226 323.5 550.926C325.6 555.626 328.2 558.326 331.4 559.126C332.9 559.426 333.9 560.226 333.6 560.726C333.3 561.226 347.1 561.626 368.6 561.726C391.7 561.726 404.1 561.426 404.1 560.726C404.1 560.226 405.2 559.526 406.4 559.126C407.7 558.826 410.4 556.426 412.4 553.826L416.1 549.026V449.126L413.6 445.626C410.5 441.526 407.2 438.826 405 438.726C404.2 438.726 402.5 437.826 401.3 436.726C399.3 434.826 397.8 434.726 368.1 434.726C349.9 434.726 337.1 435.126 337.1 435.626ZM379.1 498.826L379.2 524.226L358.2 524.826L358.1 499.526V474.226L367.2 474.526C372.7 474.726 376.8 474.426 377.4 473.826C378 473.226 378.6 472.926 378.8 473.026C378.9 473.226 379.1 484.826 379.1 498.826Z" fill="url(#paint16_linear)"/>
<path d="M337.1 435.626C337.1 436.126 334.9 437.526 332.2 438.726C328.8 440.326 326.6 442.126 325 444.926C323.7 447.126 322 449.526 321.4 450.226C319.8 451.926 319.5 547.726 321.1 547.726C321.6 547.726 322.7 549.226 323.5 550.926C325.6 555.626 328.2 558.326 331.4 559.126C332.9 559.426 333.9 560.226 333.6 560.726C333.3 561.226 347.1 561.626 368.6 561.726C391.7 561.726 404.1 561.426 404.1 560.726C404.1 560.226 405.2 559.526 406.4 559.126C407.7 558.826 410.4 556.426 412.4 553.826L416.1 549.026V449.126L413.6 445.626C410.5 441.526 407.2 438.826 405 438.726C404.2 438.726 402.5 437.826 401.3 436.726C399.3 434.826 397.8 434.726 368.1 434.726C349.9 434.726 337.1 435.126 337.1 435.626ZM379.1 498.826L379.2 524.226L358.2 524.826L358.1 499.526V474.226L367.2 474.526C372.7 474.726 376.8 474.426 377.4 473.826C378 473.226 378.6 472.926 378.8 473.026C378.9 473.226 379.1 484.826 379.1 498.826Z" fill="url(#paint17_linear)"/>
<path d="M483.2 436.826C482 438.026 480.7 438.626 480.4 438.326C479.4 437.326 474.4 440.526 471.7 443.926C467.9 448.626 467.6 449.126 466.8 450.426C466.4 451.126 466.1 473.126 466.1 499.426C466.1 545.526 466.2 547.226 468.1 549.226C469.2 550.426 470.1 551.926 470.1 552.626C470.1 554.326 475 558.626 477.8 559.326C479 559.726 479.8 560.326 479.5 560.826C479.2 561.326 494.2 561.726 515.1 561.726C537.1 561.726 551 561.326 550.6 560.826C550.3 560.326 551 559.626 552.1 559.226C553.2 558.926 554.1 558.126 554.1 557.526C554.1 557.026 554.7 556.726 555.3 556.926C556.7 557.426 562.1 550.526 562.1 548.226C562.1 547.426 562.6 546.726 563.1 546.726C563.8 546.726 564.1 530.426 564.1 499.726C564.1 453.926 564 452.726 562 449.026C558.6 442.826 554 438.826 550.1 438.526C549.8 438.526 548.4 437.626 546.9 436.626C544.5 434.826 542.1 434.726 514.9 434.726C486.4 434.726 485.4 434.826 483.2 436.826ZM516.1 474.626C521.7 474.326 525.1 474.626 525.1 475.226C525.1 475.726 525.2 487.126 525.3 500.526L525.6 524.726H503.6L503.8 499.526C504 485.626 504.1 473.826 504.1 473.326C504.1 472.826 504.8 473.026 505.6 473.726C506.6 474.526 510 474.826 516.1 474.626Z" fill="url(#paint18_linear)"/>
<path d="M483.2 436.826C482 438.026 480.7 438.626 480.4 438.326C479.4 437.326 474.4 440.526 471.7 443.926C467.9 448.626 467.6 449.126 466.8 450.426C466.4 451.126 466.1 473.126 466.1 499.426C466.1 545.526 466.2 547.226 468.1 549.226C469.2 550.426 470.1 551.926 470.1 552.626C470.1 554.326 475 558.626 477.8 559.326C479 559.726 479.8 560.326 479.5 560.826C479.2 561.326 494.2 561.726 515.1 561.726C537.1 561.726 551 561.326 550.6 560.826C550.3 560.326 551 559.626 552.1 559.226C553.2 558.926 554.1 558.126 554.1 557.526C554.1 557.026 554.7 556.726 555.3 556.926C556.7 557.426 562.1 550.526 562.1 548.226C562.1 547.426 562.6 546.726 563.1 546.726C563.8 546.726 564.1 530.426 564.1 499.726C564.1 453.926 564 452.726 562 449.026C558.6 442.826 554 438.826 550.1 438.526C549.8 438.526 548.4 437.626 546.9 436.626C544.5 434.826 542.1 434.726 514.9 434.726C486.4 434.726 485.4 434.826 483.2 436.826ZM516.1 474.626C521.7 474.326 525.1 474.626 525.1 475.226C525.1 475.726 525.2 487.126 525.3 500.526L525.6 524.726H503.6L503.8 499.526C504 485.626 504.1 473.826 504.1 473.326C504.1 472.826 504.8 473.026 505.6 473.726C506.6 474.526 510 474.826 516.1 474.626Z" fill="url(#paint19_linear)"/>
<path d="M715.2 451.826C709.9 453.926 704.3 459.626 702.3 465.026C700.5 469.826 700.3 473.226 700.2 508.726C700.1 529.926 700.5 550.626 701 554.826C702.6 567.226 706 571.626 717.1 575.926C723.6 578.526 774.2 578.626 781.6 576.126C788.9 573.626 795.5 567.526 797.1 561.726C798.6 556.326 798.4 470.126 796.8 465.726C794.8 459.926 791.6 456.426 785.9 453.426L780.4 450.726L749 450.826C731.1 450.826 716.6 451.226 715.2 451.826ZM760.4 488.626C761.4 488.726 761.3 491.726 760.2 491.726C758.7 491.726 758.8 533.626 760.2 535.326C761.9 537.426 758.4 539.926 755.8 538.526C753.8 537.526 743.7 537.826 741.1 539.026C739.8 539.626 739.6 536.526 739.6 514.026V488.226L749.6 488.426C755.1 488.526 759.9 488.626 760.4 488.626Z" fill="url(#paint20_linear)"/>
<path d="M715.2 451.826C709.9 453.926 704.3 459.626 702.3 465.026C700.5 469.826 700.3 473.226 700.2 508.726C700.1 529.926 700.5 550.626 701 554.826C702.6 567.226 706 571.626 717.1 575.926C723.6 578.526 774.2 578.626 781.6 576.126C788.9 573.626 795.5 567.526 797.1 561.726C798.6 556.326 798.4 470.126 796.8 465.726C794.8 459.926 791.6 456.426 785.9 453.426L780.4 450.726L749 450.826C731.1 450.826 716.6 451.226 715.2 451.826ZM760.4 488.626C761.4 488.726 761.3 491.726 760.2 491.726C758.7 491.726 758.8 533.626 760.2 535.326C761.9 537.426 758.4 539.926 755.8 538.526C753.8 537.526 743.7 537.826 741.1 539.026C739.8 539.626 739.6 536.526 739.6 514.026V488.226L749.6 488.426C755.1 488.526 759.9 488.626 760.4 488.626Z" fill="url(#paint21_linear)"/>
<path d="M63.3 525.426C62 525.626 60.7 526.526 60.4 527.326C60.1 528.126 59 528.726 58 528.726C56.9 528.726 55.3 529.626 54.4 530.726C53.4 531.826 52.2 532.726 51.6 532.726C51 532.726 49.5 533.826 48.3 535.226C47.1 536.626 45.5 537.726 44.8 537.726C44 537.726 42.9 538.826 42.3 540.226C41.7 541.626 40.7 542.726 40.3 542.726C39.8 542.726 38.1 544.626 36.6 546.926C35 549.326 33.2 551.626 32.4 552.026C31.7 552.426 31.1 553.626 31.1 554.526C31.1 555.526 30.7 556.726 30.2 557.226C28.6 558.926 22.1 572.526 22.1 574.226C22.1 575.126 21.7 575.526 21.1 575.226C20.5 574.826 20.1 575.726 20.1 577.226C20.1 578.626 19.2 581.626 18.1 583.926C17 586.126 15.9 589.826 15.5 592.126C15.2 594.326 14.6 596.426 14.2 596.726C13.3 597.426 10.9 603.126 11.2 604.326C11.7 607.226 11 614.026 10.2 612.926C9.1 611.126 8.3 614.126 7.6 623.626C7.3 627.526 6.5 632.026 5.9 633.526C5.3 635.026 4.7 639.626 4.5 643.726C4.1 651.126 2.8 657.526 1 660.926C0.5 661.926 0.1 680.026 0 701.326C0 739.326 0 739.926 2 741.426C3.2 742.226 4.1 743.726 4.1 744.726C4.1 745.726 5.2 748.726 6.6 751.326C8 753.926 9.1 756.626 9.1 757.426C9.1 758.226 9.5 758.526 10.1 758.226C10.6 757.926 11.1 758.226 11.1 758.926C11.1 761.226 27.7 779.726 29.8 779.726C30.5 779.726 31.1 780.126 31.1 780.526C31.1 781.626 38.9 786.726 40.6 786.726C41.3 786.726 43 787.626 44.3 788.726C45.7 789.826 48.4 790.826 50.2 791.126C57.1 792.026 56.6 789.126 56.3 828.726L56 864.726L58.5 870.026C59.8 872.926 62.6 876.726 64.6 878.626C67.7 881.326 69.1 881.926 72.9 881.926C83.6 881.926 86.2 881.726 85.6 880.726C85.3 880.126 85.4 879.726 85.8 879.726C88 879.726 93.1 873.626 93.1 871.126C93.1 869.626 93.8 867.526 94.8 866.526C95.7 865.526 96 864.726 95.4 864.726C94.8 864.726 94.5 863.526 94.7 861.926C95.3 857.026 95.2 798.526 94.7 797.926C92.4 795.626 95.7 791.726 100 791.726C102.3 791.726 105.1 790.526 110.6 787.226C112.8 785.826 115.5 784.326 116.6 783.826C117.8 783.326 119.3 782.226 120 781.326C120.7 780.426 121.9 779.726 122.5 779.726C123.2 779.726 124.7 778.726 125.9 777.426C127 776.226 129.8 773.526 132 771.326C134.2 769.226 136.3 766.626 136.6 765.626C137 764.526 137.7 763.726 138.2 763.726C138.7 763.726 139.1 763.026 139.1 762.226C139.1 761.426 139.6 760.726 140.1 760.726C140.7 760.726 141.7 759.526 142.3 757.926C143 756.426 144.3 754.126 145.3 752.826C146.3 751.526 148 747.226 149.2 743.326C150.4 739.426 151.7 735.726 152.2 735.126C153.6 733.426 152.5 684.826 150.8 668.726C149.9 660.726 148.9 651.226 148.7 647.426C148.4 643.726 147.7 639.926 147.2 638.826C146.6 637.826 146 634.526 145.8 631.526C145.5 628.426 145.1 625.526 144.8 625.026C144.2 624.126 142 612.826 141.5 608.226C141.4 606.526 140.1 601.926 138.6 597.826C137.2 593.726 135.8 588.826 135.7 586.926C135.5 584.926 134.7 582.926 133.9 582.326C133.1 581.726 132.1 579.926 131.7 578.226C131.3 576.626 130.1 573.426 129 571.026C128 568.726 127.1 566.526 127.1 566.226C127.1 565.826 126.2 564.426 125.1 563.026C124 561.626 123.1 559.626 123.1 558.626C123.1 557.526 122.6 556.726 122.1 556.726C121.5 556.726 120.6 555.726 120 554.426C118.4 550.826 114.3 545.626 108.5 539.826C105.6 536.926 103.1 534.026 103.1 533.626C103.1 533.126 102.5 532.726 101.7 532.726C101 532.726 99.2 531.826 97.8 530.726C96.4 529.626 94.5 528.726 93.6 528.726C92.7 528.726 92.2 528.326 92.5 527.826C92.8 527.326 92.3 526.626 91.3 526.226C89.3 525.326 66.7 524.626 63.3 525.426ZM82.5 565.126C86.9 569.926 88.1 571.526 88.1 572.726C88.1 573.326 88.7 574.026 89.5 574.326C90.3 574.626 91.2 576.326 91.5 578.226C91.9 580.026 92.8 582.026 93.6 582.726C94.4 583.426 95.1 584.526 95.1 585.326C95.1 586.026 95.7 588.126 96.5 589.926C97.3 591.726 98.4 595.726 99.1 598.726C99.8 601.726 100.7 604.626 101.1 605.226C101.5 605.726 102.4 609.826 103.1 614.226C103.7 618.626 104.7 622.726 105.2 623.426C106.3 624.726 109.9 646.426 111.1 658.726C111.5 663.426 112.6 672.526 113.5 679.026C114.7 687.626 115.1 695.926 114.9 710.026C114.5 733.226 113.5 736.826 105.1 745.626C99.1 751.926 94.2 754.426 82.4 757.226C75.6 758.826 74.9 758.826 69.4 757.226C56.8 753.526 52.8 751.426 47.1 745.626C42.6 741.126 41.1 738.626 39.2 732.926C36.9 726.026 36.8 725.326 37.5 703.026C38.6 670.826 40.6 650.226 43.7 639.926C44.7 636.826 45.5 633.126 45.6 631.726C46 624.526 46.4 621.426 46.8 622.926C47.5 625.526 49.3 625.126 49 622.426C48.5 618.526 50.2 606.726 51.4 605.426C52.1 604.826 52.7 602.926 52.8 601.226C52.9 597.626 55.2 590.726 56.1 590.726C56.5 590.726 57.2 589.226 57.5 587.426C57.8 585.626 59 582.326 60.1 580.226C61.2 578.026 62.1 575.526 62.1 574.526C62.1 573.526 62.5 572.726 63 572.726C63.5 572.726 64.4 571.526 65 569.926C66.6 566.326 72.9 561.826 76.5 561.726C78.4 561.726 80.3 562.726 82.5 565.126Z" fill="url(#paint22_linear)"/>
<path d="M63.3 525.426C62 525.626 60.7 526.526 60.4 527.326C60.1 528.126 59 528.726 58 528.726C56.9 528.726 55.3 529.626 54.4 530.726C53.4 531.826 52.2 532.726 51.6 532.726C51 532.726 49.5 533.826 48.3 535.226C47.1 536.626 45.5 537.726 44.8 537.726C44 537.726 42.9 538.826 42.3 540.226C41.7 541.626 40.7 542.726 40.3 542.726C39.8 542.726 38.1 544.626 36.6 546.926C35 549.326 33.2 551.626 32.4 552.026C31.7 552.426 31.1 553.626 31.1 554.526C31.1 555.526 30.7 556.726 30.2 557.226C28.6 558.926 22.1 572.526 22.1 574.226C22.1 575.126 21.7 575.526 21.1 575.226C20.5 574.826 20.1 575.726 20.1 577.226C20.1 578.626 19.2 581.626 18.1 583.926C17 586.126 15.9 589.826 15.5 592.126C15.2 594.326 14.6 596.426 14.2 596.726C13.3 597.426 10.9 603.126 11.2 604.326C11.7 607.226 11 614.026 10.2 612.926C9.1 611.126 8.3 614.126 7.6 623.626C7.3 627.526 6.5 632.026 5.9 633.526C5.3 635.026 4.7 639.626 4.5 643.726C4.1 651.126 2.8 657.526 1 660.926C0.5 661.926 0.1 680.026 0 701.326C0 739.326 0 739.926 2 741.426C3.2 742.226 4.1 743.726 4.1 744.726C4.1 745.726 5.2 748.726 6.6 751.326C8 753.926 9.1 756.626 9.1 757.426C9.1 758.226 9.5 758.526 10.1 758.226C10.6 757.926 11.1 758.226 11.1 758.926C11.1 761.226 27.7 779.726 29.8 779.726C30.5 779.726 31.1 780.126 31.1 780.526C31.1 781.626 38.9 786.726 40.6 786.726C41.3 786.726 43 787.626 44.3 788.726C45.7 789.826 48.4 790.826 50.2 791.126C57.1 792.026 56.6 789.126 56.3 828.726L56 864.726L58.5 870.026C59.8 872.926 62.6 876.726 64.6 878.626C67.7 881.326 69.1 881.926 72.9 881.926C83.6 881.926 86.2 881.726 85.6 880.726C85.3 880.126 85.4 879.726 85.8 879.726C88 879.726 93.1 873.626 93.1 871.126C93.1 869.626 93.8 867.526 94.8 866.526C95.7 865.526 96 864.726 95.4 864.726C94.8 864.726 94.5 863.526 94.7 861.926C95.3 857.026 95.2 798.526 94.7 797.926C92.4 795.626 95.7 791.726 100 791.726C102.3 791.726 105.1 790.526 110.6 787.226C112.8 785.826 115.5 784.326 116.6 783.826C117.8 783.326 119.3 782.226 120 781.326C120.7 780.426 121.9 779.726 122.5 779.726C123.2 779.726 124.7 778.726 125.9 777.426C127 776.226 129.8 773.526 132 771.326C134.2 769.226 136.3 766.626 136.6 765.626C137 764.526 137.7 763.726 138.2 763.726C138.7 763.726 139.1 763.026 139.1 762.226C139.1 761.426 139.6 760.726 140.1 760.726C140.7 760.726 141.7 759.526 142.3 757.926C143 756.426 144.3 754.126 145.3 752.826C146.3 751.526 148 747.226 149.2 743.326C150.4 739.426 151.7 735.726 152.2 735.126C153.6 733.426 152.5 684.826 150.8 668.726C149.9 660.726 148.9 651.226 148.7 647.426C148.4 643.726 147.7 639.926 147.2 638.826C146.6 637.826 146 634.526 145.8 631.526C145.5 628.426 145.1 625.526 144.8 625.026C144.2 624.126 142 612.826 141.5 608.226C141.4 606.526 140.1 601.926 138.6 597.826C137.2 593.726 135.8 588.826 135.7 586.926C135.5 584.926 134.7 582.926 133.9 582.326C133.1 581.726 132.1 579.926 131.7 578.226C131.3 576.626 130.1 573.426 129 571.026C128 568.726 127.1 566.526 127.1 566.226C127.1 565.826 126.2 564.426 125.1 563.026C124 561.626 123.1 559.626 123.1 558.626C123.1 557.526 122.6 556.726 122.1 556.726C121.5 556.726 120.6 555.726 120 554.426C118.4 550.826 114.3 545.626 108.5 539.826C105.6 536.926 103.1 534.026 103.1 533.626C103.1 533.126 102.5 532.726 101.7 532.726C101 532.726 99.2 531.826 97.8 530.726C96.4 529.626 94.5 528.726 93.6 528.726C92.7 528.726 92.2 528.326 92.5 527.826C92.8 527.326 92.3 526.626 91.3 526.226C89.3 525.326 66.7 524.626 63.3 525.426ZM82.5 565.126C86.9 569.926 88.1 571.526 88.1 572.726C88.1 573.326 88.7 574.026 89.5 574.326C90.3 574.626 91.2 576.326 91.5 578.226C91.9 580.026 92.8 582.026 93.6 582.726C94.4 583.426 95.1 584.526 95.1 585.326C95.1 586.026 95.7 588.126 96.5 589.926C97.3 591.726 98.4 595.726 99.1 598.726C99.8 601.726 100.7 604.626 101.1 605.226C101.5 605.726 102.4 609.826 103.1 614.226C103.7 618.626 104.7 622.726 105.2 623.426C106.3 624.726 109.9 646.426 111.1 658.726C111.5 663.426 112.6 672.526 113.5 679.026C114.7 687.626 115.1 695.926 114.9 710.026C114.5 733.226 113.5 736.826 105.1 745.626C99.1 751.926 94.2 754.426 82.4 757.226C75.6 758.826 74.9 758.826 69.4 757.226C56.8 753.526 52.8 751.426 47.1 745.626C42.6 741.126 41.1 738.626 39.2 732.926C36.9 726.026 36.8 725.326 37.5 703.026C38.6 670.826 40.6 650.226 43.7 639.926C44.7 636.826 45.5 633.126 45.6 631.726C46 624.526 46.4 621.426 46.8 622.926C47.5 625.526 49.3 625.126 49 622.426C48.5 618.526 50.2 606.726 51.4 605.426C52.1 604.826 52.7 602.926 52.8 601.226C52.9 597.626 55.2 590.726 56.1 590.726C56.5 590.726 57.2 589.226 57.5 587.426C57.8 585.626 59 582.326 60.1 580.226C61.2 578.026 62.1 575.526 62.1 574.526C62.1 573.526 62.5 572.726 63 572.726C63.5 572.726 64.4 571.526 65 569.926C66.6 566.326 72.9 561.826 76.5 561.726C78.4 561.726 80.3 562.726 82.5 565.126Z" fill="url(#paint23_linear)"/>
<path d="M436.2 612.526L304.9 612.726L301.7 614.826C300 616.026 297.1 618.626 295.3 620.626C292 624.026 291.9 624.426 292.3 631.326C292.5 636.326 293.1 638.926 294.4 640.126C295.3 641.126 296.1 642.326 296.1 642.826C296.1 643.326 297.2 644.226 298.6 644.926C299.9 645.526 300.8 646.326 300.6 646.826C299.7 648.226 307.1 649.826 313.6 649.626L320.1 649.426L320.4 718.526C320.5 764.126 320.3 787.726 319.6 787.726C319.1 787.726 289.5 787.726 253.9 787.726C212.5 787.726 189 788.126 188.6 788.726C188.3 789.326 187.3 789.726 186.5 789.726C184.6 789.726 177.1 795.826 177.1 797.426C177.1 798.126 176.4 799.026 175.5 799.526C173.1 800.826 173.1 811.626 175.5 812.926C176.4 813.426 177.1 814.726 177.1 815.726C177.1 816.826 177.6 817.726 178.1 817.726C178.7 817.726 180.1 818.826 181.3 820.226C182.5 821.626 184.5 822.726 185.8 822.726C187.1 822.726 188.1 823.126 188.1 823.726C188.1 826.726 197.8 826.826 444.2 826.526C679.4 826.226 693 826.126 694.8 824.426C695.9 823.526 697.5 822.726 698.4 822.726C701.5 822.726 707.8 815.326 708.6 810.926C709.4 805.726 708.3 797.926 706.4 796.426C705.5 795.726 703.7 794.026 702.3 792.426C700.8 790.926 698.9 789.726 698 789.726C697.2 789.726 696.2 789.526 696 789.326C695.7 789.026 666.1 788.626 630.1 788.326C594.1 788.026 564.4 787.726 564.1 787.726C563.8 787.726 563.7 757.926 563.9 721.526C564.1 680.026 563.8 654.326 563.2 652.526L562.2 649.726H579.7L584 645.826C588.5 641.826 592.1 635.226 592.1 631.326C592.1 630.126 591.4 627.026 590.5 624.426C588.2 617.626 581.7 613.026 573.6 612.626C570.3 612.426 508.5 612.326 436.2 612.526ZM422.2 674.726C422.2 688.426 422.2 700.126 422.1 700.626C422.1 701.126 421.1 701.926 419.9 702.226C415.5 703.626 408.1 714.226 408.1 719.126C408.1 722.026 413.3 731.626 415.2 732.226C416.2 732.626 417.1 733.426 417.1 734.226C417.1 734.926 418.3 735.826 419.9 736.126L422.6 736.826L422.4 787.726L390.2 788.026L358.1 788.226V649.226L422.2 649.626V674.726ZM525.1 718.726L525.2 787.826H493.4C475.9 787.726 461.4 787.726 461.1 787.726C460.8 787.726 460.6 776.226 460.6 762.226C460.6 738.226 460.7 736.726 462.4 736.726C464.4 736.726 472 729.626 473.9 726.026C474.6 724.826 475.1 721.526 475.1 718.626C475.1 714.126 474.6 712.726 471.1 708.126C468 704.026 466.3 702.626 463.6 702.126C459.9 701.426 459.5 700.426 461 696.426C461.6 695.026 461.7 693.726 461.5 693.426C460.9 692.826 461 650.726 461.5 649.826C461.7 649.526 476.1 649.326 493.5 649.426L525.1 649.626V718.726Z" fill="url(#paint24_linear)"/>
<path d="M436.2 612.526L304.9 612.726L301.7 614.826C300 616.026 297.1 618.626 295.3 620.626C292 624.026 291.9 624.426 292.3 631.326C292.5 636.326 293.1 638.926 294.4 640.126C295.3 641.126 296.1 642.326 296.1 642.826C296.1 643.326 297.2 644.226 298.6 644.926C299.9 645.526 300.8 646.326 300.6 646.826C299.7 648.226 307.1 649.826 313.6 649.626L320.1 649.426L320.4 718.526C320.5 764.126 320.3 787.726 319.6 787.726C319.1 787.726 289.5 787.726 253.9 787.726C212.5 787.726 189 788.126 188.6 788.726C188.3 789.326 187.3 789.726 186.5 789.726C184.6 789.726 177.1 795.826 177.1 797.426C177.1 798.126 176.4 799.026 175.5 799.526C173.1 800.826 173.1 811.626 175.5 812.926C176.4 813.426 177.1 814.726 177.1 815.726C177.1 816.826 177.6 817.726 178.1 817.726C178.7 817.726 180.1 818.826 181.3 820.226C182.5 821.626 184.5 822.726 185.8 822.726C187.1 822.726 188.1 823.126 188.1 823.726C188.1 826.726 197.8 826.826 444.2 826.526C679.4 826.226 693 826.126 694.8 824.426C695.9 823.526 697.5 822.726 698.4 822.726C701.5 822.726 707.8 815.326 708.6 810.926C709.4 805.726 708.3 797.926 706.4 796.426C705.5 795.726 703.7 794.026 702.3 792.426C700.8 790.926 698.9 789.726 698 789.726C697.2 789.726 696.2 789.526 696 789.326C695.7 789.026 666.1 788.626 630.1 788.326C594.1 788.026 564.4 787.726 564.1 787.726C563.8 787.726 563.7 757.926 563.9 721.526C564.1 680.026 563.8 654.326 563.2 652.526L562.2 649.726H579.7L584 645.826C588.5 641.826 592.1 635.226 592.1 631.326C592.1 630.126 591.4 627.026 590.5 624.426C588.2 617.626 581.7 613.026 573.6 612.626C570.3 612.426 508.5 612.326 436.2 612.526ZM422.2 674.726C422.2 688.426 422.2 700.126 422.1 700.626C422.1 701.126 421.1 701.926 419.9 702.226C415.5 703.626 408.1 714.226 408.1 719.126C408.1 722.026 413.3 731.626 415.2 732.226C416.2 732.626 417.1 733.426 417.1 734.226C417.1 734.926 418.3 735.826 419.9 736.126L422.6 736.826L422.4 787.726L390.2 788.026L358.1 788.226V649.226L422.2 649.626V674.726ZM525.1 718.726L525.2 787.826H493.4C475.9 787.726 461.4 787.726 461.1 787.726C460.8 787.726 460.6 776.226 460.6 762.226C460.6 738.226 460.7 736.726 462.4 736.726C464.4 736.726 472 729.626 473.9 726.026C474.6 724.826 475.1 721.526 475.1 718.626C475.1 714.126 474.6 712.726 471.1 708.126C468 704.026 466.3 702.626 463.6 702.126C459.9 701.426 459.5 700.426 461 696.426C461.6 695.026 461.7 693.726 461.5 693.426C460.9 692.826 461 650.726 461.5 649.826C461.7 649.526 476.1 649.326 493.5 649.426L525.1 649.626V718.726Z" fill="url(#paint25_linear)"/>
<path d="M714 628.626C712.5 628.926 710.3 630.026 709 631.026C707.7 632.026 706 633.126 705.4 633.526C704.7 633.926 704 635.226 703.8 636.226C703.6 637.326 702.7 639.826 701.9 641.726C700.6 644.726 700.3 651.726 700.3 688.226C700.2 726.526 700.4 731.826 702 736.726C703.8 742.426 706.3 745.726 711.8 749.526C714.9 751.726 715.5 751.726 748.9 751.726H782.9L787.1 749.326C791.5 746.826 794.1 743.626 796.6 737.826C798.6 733.326 798.8 648.426 796.9 641.226C795.5 635.926 789.8 630.126 784.8 628.626C781.3 627.626 718.2 627.626 714 628.626ZM761.1 665.426C761.1 666.026 760.7 666.926 760.1 667.226C759.5 667.626 759.1 676.026 759.1 689.226C759.1 702.426 759.5 710.826 760.1 711.226C760.7 711.526 761.1 712.526 761.1 713.326C761.1 714.426 759 714.726 750.4 714.726H739.6V664.226H750.4C758 664.226 761.1 664.526 761.1 665.426Z" fill="url(#paint26_linear)"/>
<path d="M714 628.626C712.5 628.926 710.3 630.026 709 631.026C707.7 632.026 706 633.126 705.4 633.526C704.7 633.926 704 635.226 703.8 636.226C703.6 637.326 702.7 639.826 701.9 641.726C700.6 644.726 700.3 651.726 700.3 688.226C700.2 726.526 700.4 731.826 702 736.726C703.8 742.426 706.3 745.726 711.8 749.526C714.9 751.726 715.5 751.726 748.9 751.726H782.9L787.1 749.326C791.5 746.826 794.1 743.626 796.6 737.826C798.6 733.326 798.8 648.426 796.9 641.226C795.5 635.926 789.8 630.126 784.8 628.626C781.3 627.626 718.2 627.626 714 628.626ZM761.1 665.426C761.1 666.026 760.7 666.926 760.1 667.226C759.5 667.626 759.1 676.026 759.1 689.226C759.1 702.426 759.5 710.826 760.1 711.226C760.7 711.526 761.1 712.526 761.1 713.326C761.1 714.426 759 714.726 750.4 714.726H739.6V664.226H750.4C758 664.226 761.1 664.526 761.1 665.426Z" fill="url(#paint27_linear)"/>
<path d="M129.1 846.726C127.7 847.826 126.3 848.726 125.9 848.726C124.6 848.726 120.8 852.826 117.9 857.126C114.5 862.126 114.1 868.326 117.1 871.726C118.2 872.926 119.3 874.726 119.6 875.626C119.9 876.526 121.7 878.226 123.6 879.426L127.1 881.726H758.6L760.4 879.426C761.3 878.226 763.2 875.826 764.6 874.126C765.9 872.426 766.8 870.726 766.4 870.326C766.1 870.026 766.4 869.726 767.1 869.726C768.9 869.726 767.7 858.626 765.8 857.526C765 857.126 763.8 855.426 763.2 853.926C762.5 852.326 760.8 850.326 759.3 849.626C757.8 848.826 756 847.426 755.3 846.426C754.1 844.826 738 844.726 442.8 844.726C135.5 844.726 131.6 844.826 129.1 846.726Z" fill="url(#paint28_linear)"/>
<path d="M129.1 846.726C127.7 847.826 126.3 848.726 125.9 848.726C124.6 848.726 120.8 852.826 117.9 857.126C114.5 862.126 114.1 868.326 117.1 871.726C118.2 872.926 119.3 874.726 119.6 875.626C119.9 876.526 121.7 878.226 123.6 879.426L127.1 881.726H758.6L760.4 879.426C761.3 878.226 763.2 875.826 764.6 874.126C765.9 872.426 766.8 870.726 766.4 870.326C766.1 870.026 766.4 869.726 767.1 869.726C768.9 869.726 767.7 858.626 765.8 857.526C765 857.126 763.8 855.426 763.2 853.926C762.5 852.326 760.8 850.326 759.3 849.626C757.8 848.826 756 847.426 755.3 846.426C754.1 844.826 738 844.726 442.8 844.726C135.5 844.726 131.6 844.826 129.1 846.726Z" fill="url(#paint29_linear)"/>
<defs>
<linearGradient id="paint0_linear" x1="443.05" y1="-0.000244141" x2="443.05" y2="881.926" gradientUnits="userSpaceOnUse">
<stop stop-color="#771CD1"/>
<stop offset="1" stop-color="#771CD1" stop-opacity="0"/>
</linearGradient>
<linearGradient id="paint1_linear" x1="443.05" y1="-0.000244141" x2="443.05" y2="881.926" gradientUnits="userSpaceOnUse">
<stop stop-color="#8E06C2"/>
<stop offset="0.833333" stop-color="#4B44AD"/>
</linearGradient>
<linearGradient id="paint2_linear" x1="443.05" y1="-0.000244141" x2="443.05" y2="881.926" gradientUnits="userSpaceOnUse">
<stop stop-color="#771CD1"/>
<stop offset="1" stop-color="#771CD1" stop-opacity="0"/>
</linearGradient>
<linearGradient id="paint3_linear" x1="443.05" y1="-0.000244141" x2="443.05" y2="881.926" gradientUnits="userSpaceOnUse">
<stop stop-color="#8E06C2"/>
<stop offset="0.833333" stop-color="#4B44AD"/>
</linearGradient>
<linearGradient id="paint4_linear" x1="443.05" y1="-0.000244141" x2="443.05" y2="881.926" gradientUnits="userSpaceOnUse">
<stop stop-color="#771CD1"/>
<stop offset="1" stop-color="#771CD1" stop-opacity="0"/>
</linearGradient>
<linearGradient id="paint5_linear" x1="443.05" y1="-0.000244141" x2="443.05" y2="881.926" gradientUnits="userSpaceOnUse">
<stop stop-color="#8E06C2"/>
<stop offset="0.833333" stop-color="#4B44AD"/>
</linearGradient>
<linearGradient id="paint6_linear" x1="443.05" y1="-0.000244141" x2="443.05" y2="881.926" gradientUnits="userSpaceOnUse">
<stop stop-color="#771CD1"/>
<stop offset="1" stop-color="#771CD1" stop-opacity="0"/>
</linearGradient>
<linearGradient id="paint7_linear" x1="443.05" y1="-0.000244141" x2="443.05" y2="881.926" gradientUnits="userSpaceOnUse">
<stop stop-color="#8E06C2"/>
<stop offset="0.833333" stop-color="#4B44AD"/>
</linearGradient>
<linearGradient id="paint8_linear" x1="443.05" y1="-0.000244141" x2="443.05" y2="881.926" gradientUnits="userSpaceOnUse">
<stop stop-color="#771CD1"/>
<stop offset="1" stop-color="#771CD1" stop-opacity="0"/>
</linearGradient>
<linearGradient id="paint9_linear" x1="443.05" y1="-0.000244141" x2="443.05" y2="881.926" gradientUnits="userSpaceOnUse">
<stop stop-color="#8E06C2"/>
<stop offset="0.833333" stop-color="#4B44AD"/>
</linearGradient>
<linearGradient id="paint10_linear" x1="443.05" y1="-0.000244141" x2="443.05" y2="881.926" gradientUnits="userSpaceOnUse">
<stop stop-color="#771CD1"/>
<stop offset="1" stop-color="#771CD1" stop-opacity="0"/>
</linearGradient>
<linearGradient id="paint11_linear" x1="443.05" y1="-0.000244141" x2="443.05" y2="881.926" gradientUnits="userSpaceOnUse">
<stop stop-color="#8E06C2"/>
<stop offset="0.833333" stop-color="#4B44AD"/>
</linearGradient>
<linearGradient id="paint12_linear" x1="443.05" y1="-0.000244141" x2="443.05" y2="881.926" gradientUnits="userSpaceOnUse">
<stop stop-color="#771CD1"/>
<stop offset="1" stop-color="#771CD1" stop-opacity="0"/>
</linearGradient>
<linearGradient id="paint13_linear" x1="443.05" y1="-0.000244141" x2="443.05" y2="881.926" gradientUnits="userSpaceOnUse">
<stop stop-color="#8E06C2"/>
<stop offset="0.833333" stop-color="#4B44AD"/>
</linearGradient>
<linearGradient id="paint14_linear" x1="443.05" y1="-0.000244141" x2="443.05" y2="881.926" gradientUnits="userSpaceOnUse">
<stop stop-color="#771CD1"/>
<stop offset="1" stop-color="#771CD1" stop-opacity="0"/>
</linearGradient>
<linearGradient id="paint15_linear" x1="443.05" y1="-0.000244141" x2="443.05" y2="881.926" gradientUnits="userSpaceOnUse">
<stop stop-color="#8E06C2"/>
<stop offset="0.833333" stop-color="#4B44AD"/>
</linearGradient>
<linearGradient id="paint16_linear" x1="443.05" y1="-0.000244141" x2="443.05" y2="881.926" gradientUnits="userSpaceOnUse">
<stop stop-color="#771CD1"/>
<stop offset="1" stop-color="#771CD1" stop-opacity="0"/>
</linearGradient>
<linearGradient id="paint17_linear" x1="443.05" y1="-0.000244141" x2="443.05" y2="881.926" gradientUnits="userSpaceOnUse">
<stop stop-color="#8E06C2"/>
<stop offset="0.833333" stop-color="#4B44AD"/>
</linearGradient>
<linearGradient id="paint18_linear" x1="443.05" y1="-0.000244141" x2="443.05" y2="881.926" gradientUnits="userSpaceOnUse">
<stop stop-color="#771CD1"/>
<stop offset="1" stop-color="#771CD1" stop-opacity="0"/>
</linearGradient>
<linearGradient id="paint19_linear" x1="443.05" y1="-0.000244141" x2="443.05" y2="881.926" gradientUnits="userSpaceOnUse">
<stop stop-color="#8E06C2"/>
<stop offset="0.833333" stop-color="#4B44AD"/>
</linearGradient>
<linearGradient id="paint20_linear" x1="443.05" y1="-0.000244141" x2="443.05" y2="881.926" gradientUnits="userSpaceOnUse">
<stop stop-color="#771CD1"/>
<stop offset="1" stop-color="#771CD1" stop-opacity="0"/>
</linearGradient>
<linearGradient id="paint21_linear" x1="443.05" y1="-0.000244141" x2="443.05" y2="881.926" gradientUnits="userSpaceOnUse">
<stop stop-color="#8E06C2"/>
<stop offset="0.833333" stop-color="#4B44AD"/>
</linearGradient>
<linearGradient id="paint22_linear" x1="443.05" y1="-0.000244141" x2="443.05" y2="881.926" gradientUnits="userSpaceOnUse">
<stop stop-color="#771CD1"/>
<stop offset="1" stop-color="#771CD1" stop-opacity="0"/>
</linearGradient>
<linearGradient id="paint23_linear" x1="443.05" y1="-0.000244141" x2="443.05" y2="881.926" gradientUnits="userSpaceOnUse">
<stop stop-color="#8E06C2"/>
<stop offset="0.833333" stop-color="#4B44AD"/>
</linearGradient>
<linearGradient id="paint24_linear" x1="443.05" y1="-0.000244141" x2="443.05" y2="881.926" gradientUnits="userSpaceOnUse">
<stop stop-color="#771CD1"/>
<stop offset="1" stop-color="#771CD1" stop-opacity="0"/>
</linearGradient>
<linearGradient id="paint25_linear" x1="443.05" y1="-0.000244141" x2="443.05" y2="881.926" gradientUnits="userSpaceOnUse">
<stop stop-color="#8E06C2"/>
<stop offset="0.833333" stop-color="#4B44AD"/>
</linearGradient>
<linearGradient id="paint26_linear" x1="443.05" y1="-0.000244141" x2="443.05" y2="881.926" gradientUnits="userSpaceOnUse">
<stop stop-color="#771CD1"/>
<stop offset="1" stop-color="#771CD1" stop-opacity="0"/>
</linearGradient>
<linearGradient id="paint27_linear" x1="443.05" y1="-0.000244141" x2="443.05" y2="881.926" gradientUnits="userSpaceOnUse">
<stop stop-color="#8E06C2"/>
<stop offset="0.833333" stop-color="#4B44AD"/>
</linearGradient>
<linearGradient id="paint28_linear" x1="443.05" y1="-0.000244141" x2="443.05" y2="881.926" gradientUnits="userSpaceOnUse">
<stop stop-color="#771CD1"/>
<stop offset="1" stop-color="#771CD1" stop-opacity="0"/>
</linearGradient>
<linearGradient id="paint29_linear" x1="443.05" y1="-0.000244141" x2="443.05" y2="881.926" gradientUnits="userSpaceOnUse">
<stop stop-color="#8E06C2"/>
<stop offset="0.833333" stop-color="#4B44AD"/>
</linearGradient>
</defs>
</svg>
