<svg width="855" height="855" viewBox="0 0 855 855" fill="none" xmlns="http://www.w3.org/2000/svg">
<g clip-path="url(#clip0_12_165)">
<path d="M39 1C39 1.5 38.4 2 37.8 2C36.3 2 26.6 6.8 23.5 9C16.5 14.1 7.7 24.7 4 32.3L0 40.5V435.9L3.6 438.8C5.5 440.4 8.8 442.2 10.9 442.9C16.5 444.5 112 444.3 121.5 442.6C131.5 440.8 139.2 437 145.4 430.7C150.7 425.2 156 416 156 412.2C156 411.1 156.5 409.8 157 409.5C158.6 408.5 158.2 391.8 156.5 387.4C151.9 376.1 148.2 371.7 135.3 362.5C126.6 356.4 119.5 347.8 118.4 342.1C118 340.4 117.3 338.7 116.9 338.4C115.6 337.7 115.8 318 117 318C117.6 318 118 317.1 118 316C118 310.2 131.6 295.9 140 292.9C141.4 292.4 143.4 291.6 144.5 291.1C151.2 288.2 156.4 287.5 171 287.5C186.3 287.5 190.7 288.2 198.7 291.6C200.4 292.4 202.1 293 202.5 293C204.6 293 216.3 302.6 219.2 306.7C226.6 316.9 228.1 330.6 223.2 342.7C219.5 351.9 216 356 207 362.3C198.1 368.4 190.8 375.5 188.9 379.9C188.1 381.6 187.2 383 186.8 383C186.3 383 186 384.1 186 385.4C186 386.8 185.6 388.2 185 388.5C184.4 388.8 184 393.7 184 399.5C184 405.3 184.4 410.2 185 410.5C185.6 410.8 186 411.9 186 412.8C186 415.7 191.3 425 195.8 430.1C201.2 436.1 210.5 440.8 220.3 442.6C225.8 443.6 248.9 443.9 319.5 443.9L411.5 444L410.5 634L408 636.4C406.6 637.9 403.8 639.2 401.4 639.6C397.8 640.1 396.9 639.9 393.7 637C391.6 635.2 390 633.4 390 632.8C390 631.6 385.6 625.6 380.6 620.2C371.6 610.5 358.2 602.6 344.5 598.9C338 597.1 316.9 597.1 311.5 598.8C303.5 601.4 296.4 604.7 292.3 607.7C290.6 609 288.9 610 288.6 610C288.3 610 285.5 612.4 282.4 615.3C276.3 621 267.3 633.2 264.5 639.5C263.6 641.7 262.4 644.4 261.9 645.5C259.9 650.1 258 656.7 258 659.1C258 660.5 257.4 662.2 256.8 662.8C255.1 664.5 255 703 256.6 705.1C257.2 705.9 258 707.8 258.3 709.5C259.2 714.5 261 721 261.9 722.8C262.4 723.7 263.6 726.3 264.6 728.5C267.4 735 275.8 746.6 281.8 752.1C291.3 760.9 303.3 767.5 311.6 768.7C314 769 316.3 769.7 316.6 770.1C317.3 771.3 336.5 771.2 340.4 770.1C356.6 765.3 357.3 765 367.5 758.7C373.2 755.2 386.5 742.2 387.5 739.1C387.8 737.9 388.6 737 389.1 737C389.6 737 390 736.4 390 735.7C390 735 391.3 733.2 392.8 731.7C396.4 728.2 404.1 727.9 408 731.1C410.8 733.5 410.6 728.7 411.2 798.8L411.5 825L229.7 824.8C97.4 824.6 47.7 824.2 47.2 823.4C46.8 822.8 45.6 822 44.5 821.6C41.1 820.6 36.2 815.7 33.3 810.5L30.5 805.5L30 642.5C29.5 483.7 29.4 479.3 27.6 476.5C24.9 472.4 22.4 470.6 17.6 469.1C12.8 467.7 8.5 469 3.1 473.6L0 476.2V814.5L4 822.7C7.7 830.3 16.5 840.9 23.5 846C26.6 848.2 36.3 853 37.8 853C38.4 853 39 853.4 39 854C39 854.7 105.7 855 237.1 855H435.2L438.5 851.7C440.3 849.9 442.3 846.6 442.9 844.5C443.6 841.8 444 823.7 444 790.6C444 742.4 443.5 731.2 440.8 725C437.4 717.2 436 715 431 710C422.2 701.3 411.4 697 398.1 697C393.7 697 389.9 697.4 389.6 697.9C389.3 698.3 387.7 699 386 699.3C379.4 700.7 369.5 709 363.7 718.2C361.8 721.1 358.9 724.9 357.3 726.6C353.6 730.7 343.7 737 341.1 737C340 737 338.8 737.4 338.5 738C337.7 739.2 319.6 739.3 317.2 738.1C316.3 737.6 313.7 736.4 311.6 735.4C305.8 732.6 295 721.5 295 718.3C295 717.6 294.6 717 294.2 717C293.7 717 292.5 714.4 291.5 711.2C290.5 708.1 289.2 704.4 288.6 703.1C287 699.6 287.1 666.5 288.8 664.8C289.4 664.2 290 662.7 290 661.6C290 660.4 291.3 656.7 293 653.2C300.5 637.3 312.4 629 327.8 629C343.2 629 354.8 635.8 363.7 650C369.8 659.6 377 665.5 388 669.6C392.3 671.3 406.9 671.4 410.7 669.9C412.2 669.2 415.1 668.1 417 667.3C423.9 664.5 425.5 663.4 431 658C436 653 437.5 650.7 440.8 643C443.8 635.9 444.1 623.8 443.8 534.2L443.5 444H537.5C589.2 444 632.4 444.3 633.5 444.6C636.7 445.5 639.3 449.9 639.4 454.7C639.5 459.5 637.5 461.9 629 467.4C623.3 471 611.1 483.4 608.5 488.3C607.4 490.3 606.2 492 605.8 492C605.3 492 605 492.5 605 493.1C605 494.1 604.3 495.9 600.9 503.5C598.9 508.1 597 519 597 526.5C597 534.5 599.8 550 601.2 550C601.7 550 602 550.6 602 551.4C602 553 606.7 562.5 608.8 565.2C613.2 570.7 627.2 584 628.6 584C628.9 584 630.6 585.1 632.4 586.5C634.2 587.9 636 589 636.3 589C636.7 589 639.1 590 641.8 591.3C644.4 592.5 649.4 594.4 653 595.4C656.6 596.3 661.3 597.7 663.5 598.3C668.8 599.9 699.2 599.9 704.5 598.3C706.7 597.7 711.4 596.3 715 595.4C718.6 594.4 723.6 592.5 726.2 591.3C728.9 590 731.4 589 732 589C732.5 589 733 588.7 733 588.2C733 587.8 734.3 586.9 735.8 586.2C743.8 582.7 759.4 566.7 763.1 558.3C763.9 556.5 764.8 555 765.1 555C765.5 555 766.1 553.3 766.5 551.2C766.9 549.2 767.5 547 768 546.5C769.6 544.5 770.3 538.2 770.3 527C770.2 514.8 769.4 507.3 767.9 506.4C767.4 506.1 767 505.1 767 504.2C767 501.4 760.8 489.8 755.9 483.5C750.4 476.4 745 471.3 739.1 467.6C730.8 462.3 729 460.1 729 455.2C729 450.1 731.4 445.4 734.4 444.6C735.6 444.3 756.4 444 780.8 444H825L824.5 805.5L821.7 810.5C818.8 815.7 813.9 820.6 810.5 821.6C809.4 822 808.2 822.8 807.8 823.4C807.3 824.2 762.2 824.6 643.3 825C521.3 825.4 479 825.8 477.5 826.7C474.4 828.5 470.4 833.2 469 836.8C467.4 841 469.1 847 473.4 851.7L476.3 855H646.2C758.7 855 816 854.7 816 854C816 853.4 816.7 853 817.5 853C819.1 853 826.5 849 832.7 844.9C838.3 841 846.7 831.5 849.3 826C850.5 823.5 851.8 821.3 852.2 821.2C852.6 821 853 820 853 819C853 818 853.4 816.8 854 816.5C854.7 816.1 855 748.7 855 617.5V419.1L851.4 416.2C849.5 414.6 846.2 412.8 844.1 412.1C838.5 410.5 743 410.7 733.5 412.4C723.5 414.2 715.8 418 709.6 424.3C704.3 429.8 699 439 699 442.8C699 443.9 698.5 445.2 698 445.5C696.4 446.5 696.8 463.2 698.5 467.6C703.1 478.9 706.8 483.3 719.7 492.5C728.4 498.6 735.5 507.2 736.6 512.9C737 514.6 737.7 516.3 738.1 516.6C739.3 517.3 739.2 535.7 738 536.5C737.5 536.8 737 538 737 539.1C737 540.2 735.4 543.5 733.5 546.5C728.7 554.1 719.2 560.8 708.2 564.6C700.1 567.3 698.7 567.5 683.5 567.5C668.4 567.5 667.1 567.3 659.5 564.6C638.9 557.1 628.3 543.4 629.3 525.3C629.8 516.5 629.8 516.3 632.8 509.6C635.8 503 639.9 498.5 648.9 492.1C657.7 485.9 664.2 479.4 666.1 475C666.9 473.4 667.8 472 668.2 472C668.7 472 669 470.9 669 469.6C669 468.2 669.5 466.8 670 466.5C671.3 465.7 671.3 445.3 670 444.5C669.5 444.2 669 443.2 669 442.4C669 439.5 663.5 429.6 659.2 424.9C653.8 418.9 644.5 414.1 634.7 412.4C629.2 411.4 606.1 411.1 535.5 411.1L443.5 411L444.5 221L447 218.6C448.4 217.1 451.2 215.8 453.6 215.4C457.2 214.9 458.1 215.1 461.3 218C463.4 219.8 465 221.6 465 222.2C465 223.4 469.4 229.4 474.4 234.8C483.4 244.5 496.8 252.4 510.5 256.1C517.1 257.9 537.1 257.9 543 256.1C563.8 249.8 579.5 236.7 589.2 217.5C595.4 205.1 596.9 200.2 599.1 184C600.2 176 599.5 151.3 598.1 149.5C597.6 149 597 147.1 596.7 145.5C595.8 140.5 594 134 593.1 132.2C592.6 131.3 591.4 128.7 590.4 126.5C582.4 108 559.7 88.6 543.4 86.3C541 86 538.7 85.3 538.4 84.9C537.7 83.7 518.5 83.8 514.6 84.9C503.8 88 499.9 89.4 495 91.8C492 93.3 488.7 95.3 487.6 96.2C486.5 97.2 485.2 98 484.7 98C483.1 98 468.3 113.5 467.5 115.9C467.2 117 466.4 118 465.9 118C465.4 118 465 118.5 465 119.2C465 119.9 463.8 121.7 462.3 123.2C460 125.6 458.8 126 454.6 126C450.9 125.9 448.8 125.3 447 123.9C444.2 121.5 444.4 126.3 443.8 56.2L443.5 30L806.5 30.5L810.9 33.4C817.1 37.4 818.5 38.9 821.7 44.5L824.5 49.5L825 212.5C825.5 371.3 825.6 375.7 827.4 378.5C830.1 382.7 832.6 384.4 837.7 386C841 386.9 842.4 387 843.3 386.1C843.9 385.5 845.1 385 846 385C846.8 385 849.2 383.6 851.3 381.9L855 378.9V209C855 96.8 854.7 38.9 854 38.5C853.5 38.2 853 37 853 35.9C853 34.9 852.7 34 852.3 34C851.8 34 850.7 32 849.7 29.5C848 25.4 836.9 13 831.5 9C828.4 6.8 818.7 2 817.3 2C816.6 2 816 1.5 816 1C816 0.3 749.3 0 617.9 0H419.8L416.5 3.3C414.7 5.1 412.7 8.4 412.1 10.5C411.4 13.2 411 31.3 411 64.4C411 112.6 411.5 123.8 414.2 130C417.6 137.8 419 140 424 145C432.8 153.7 443.6 158 456.9 158C461.3 158 465.1 157.6 465.4 157.1C465.7 156.7 467.3 156 469 155.7C475.6 154.3 485.5 146 491.4 136.7C497.8 126.7 508.3 118 514 118C515 118 516.2 117.5 516.5 117C517.3 115.8 535.4 115.7 537.8 116.9C538.7 117.4 541.3 118.6 543.4 119.6C549.2 122.4 560 133.5 560 136.7C560 137.4 560.4 138 560.8 138C561.3 138 562.5 140.6 563.5 143.7C564.5 146.9 565.8 150.6 566.4 151.9C568 155.4 567.9 188.5 566.3 190.2C565.6 190.8 565 192.2 565 193.3C565 194.3 563.7 198.1 562 201.6C554.6 217.6 542.6 226 527.2 226C511.8 226 500.3 219.3 491.3 205C482.3 190.9 470.6 184 455.3 184C450.8 184 445.8 184.5 444.3 185.1C442.8 185.8 439.9 186.9 438 187.7C431.1 190.5 429.5 191.6 424 197C419 202 417.5 204.3 414.2 212C411.2 219.1 410.9 231.2 411.2 320.8L411.5 411H222L218.9 408.2C216.2 405.8 215.7 404.6 215.6 400.8C215.5 395.4 217 393.3 225 388.3C231.5 384.2 243.7 372 246.5 366.7C247.6 364.7 248.8 363 249.2 363C249.7 363 250 362.5 250 361.9C250 360.9 250.7 359.1 254.1 351.5C256.1 346.9 258 336 258 328.5C258 320.5 255.2 305 253.8 305C253.3 305 253 304.4 253 303.6C253 302 248.3 292.5 246.2 289.8C243.9 287 231.6 274.6 229.5 273C226.2 270.5 219.1 266 218.5 266C218.2 266 215.9 265 213.2 263.7C210.6 262.5 205.6 260.6 202 259.6C198.4 258.7 193.7 257.3 191.5 256.7C189.2 256 180.7 255.5 171 255.5C161.3 255.5 152.8 256 150.5 256.7C148.3 257.3 143.6 258.7 140 259.6C136.4 260.6 131.4 262.5 128.8 263.7C126.1 265 123.8 266 123.5 266C122.8 266 115.2 271 112 273.5C104.4 279.6 93 292.5 93 294.9C93 295.5 92.6 296 92 296C91.5 296 91 296.9 91 298C91 299.1 90.6 300 90 300C89.5 300 88.8 301.7 88.4 303.7C88 305.8 87.4 307.9 87 308.5C85.4 310.6 84.7 316.9 84.7 328C84.8 340.2 85.6 347.7 87.1 348.6C87.6 348.9 88 349.9 88 350.7C88 353.6 94.3 365.3 99.1 371.5C104.7 378.6 110.1 383.8 115.9 387.4C124.2 392.7 126 394.9 126 399.8C126 404.9 123.6 409.6 120.6 410.4C119.4 410.7 98.6 411 74.2 411H30L30.5 49.5L33.3 44.5C36.5 38.9 37.9 37.4 44.1 33.4L48.5 30.5L212 30C333.7 29.6 376 29.2 377.5 28.3C381 26.3 384.7 21.6 386 17.8C387.4 13.1 385.9 8.1 381.6 3.2L378.7 0H208.8C96.3 0 39 0.3 39 1Z" fill="url(#paint0_linear_12_165)"/>
<path d="M39 1C39 1.5 38.4 2 37.8 2C36.3 2 26.6 6.8 23.5 9C16.5 14.1 7.7 24.7 4 32.3L0 40.5V435.9L3.6 438.8C5.5 440.4 8.8 442.2 10.9 442.9C16.5 444.5 112 444.3 121.5 442.6C131.5 440.8 139.2 437 145.4 430.7C150.7 425.2 156 416 156 412.2C156 411.1 156.5 409.8 157 409.5C158.6 408.5 158.2 391.8 156.5 387.4C151.9 376.1 148.2 371.7 135.3 362.5C126.6 356.4 119.5 347.8 118.4 342.1C118 340.4 117.3 338.7 116.9 338.4C115.6 337.7 115.8 318 117 318C117.6 318 118 317.1 118 316C118 310.2 131.6 295.9 140 292.9C141.4 292.4 143.4 291.6 144.5 291.1C151.2 288.2 156.4 287.5 171 287.5C186.3 287.5 190.7 288.2 198.7 291.6C200.4 292.4 202.1 293 202.5 293C204.6 293 216.3 302.6 219.2 306.7C226.6 316.9 228.1 330.6 223.2 342.7C219.5 351.9 216 356 207 362.3C198.1 368.4 190.8 375.5 188.9 379.9C188.1 381.6 187.2 383 186.8 383C186.3 383 186 384.1 186 385.4C186 386.8 185.6 388.2 185 388.5C184.4 388.8 184 393.7 184 399.5C184 405.3 184.4 410.2 185 410.5C185.6 410.8 186 411.9 186 412.8C186 415.7 191.3 425 195.8 430.1C201.2 436.1 210.5 440.8 220.3 442.6C225.8 443.6 248.9 443.9 319.5 443.9L411.5 444L410.5 634L408 636.4C406.6 637.9 403.8 639.2 401.4 639.6C397.8 640.1 396.9 639.9 393.7 637C391.6 635.2 390 633.4 390 632.8C390 631.6 385.6 625.6 380.6 620.2C371.6 610.5 358.2 602.6 344.5 598.9C338 597.1 316.9 597.1 311.5 598.8C303.5 601.4 296.4 604.7 292.3 607.7C290.6 609 288.9 610 288.6 610C288.3 610 285.5 612.4 282.4 615.3C276.3 621 267.3 633.2 264.5 639.5C263.6 641.7 262.4 644.4 261.9 645.5C259.9 650.1 258 656.7 258 659.1C258 660.5 257.4 662.2 256.8 662.8C255.1 664.5 255 703 256.6 705.1C257.2 705.9 258 707.8 258.3 709.5C259.2 714.5 261 721 261.9 722.8C262.4 723.7 263.6 726.3 264.6 728.5C267.4 735 275.8 746.6 281.8 752.1C291.3 760.9 303.3 767.5 311.6 768.7C314 769 316.3 769.7 316.6 770.1C317.3 771.3 336.5 771.2 340.4 770.1C356.6 765.3 357.3 765 367.5 758.7C373.2 755.2 386.5 742.2 387.5 739.1C387.8 737.9 388.6 737 389.1 737C389.6 737 390 736.4 390 735.7C390 735 391.3 733.2 392.8 731.7C396.4 728.2 404.1 727.9 408 731.1C410.8 733.5 410.6 728.7 411.2 798.8L411.5 825L229.7 824.8C97.4 824.6 47.7 824.2 47.2 823.4C46.8 822.8 45.6 822 44.5 821.6C41.1 820.6 36.2 815.7 33.3 810.5L30.5 805.5L30 642.5C29.5 483.7 29.4 479.3 27.6 476.5C24.9 472.4 22.4 470.6 17.6 469.1C12.8 467.7 8.5 469 3.1 473.6L0 476.2V814.5L4 822.7C7.7 830.3 16.5 840.9 23.5 846C26.6 848.2 36.3 853 37.8 853C38.4 853 39 853.4 39 854C39 854.7 105.7 855 237.1 855H435.2L438.5 851.7C440.3 849.9 442.3 846.6 442.9 844.5C443.6 841.8 444 823.7 444 790.6C444 742.4 443.5 731.2 440.8 725C437.4 717.2 436 715 431 710C422.2 701.3 411.4 697 398.1 697C393.7 697 389.9 697.4 389.6 697.9C389.3 698.3 387.7 699 386 699.3C379.4 700.7 369.5 709 363.7 718.2C361.8 721.1 358.9 724.9 357.3 726.6C353.6 730.7 343.7 737 341.1 737C340 737 338.8 737.4 338.5 738C337.7 739.2 319.6 739.3 317.2 738.1C316.3 737.6 313.7 736.4 311.6 735.4C305.8 732.6 295 721.5 295 718.3C295 717.6 294.6 717 294.2 717C293.7 717 292.5 714.4 291.5 711.2C290.5 708.1 289.2 704.4 288.6 703.1C287 699.6 287.1 666.5 288.8 664.8C289.4 664.2 290 662.7 290 661.6C290 660.4 291.3 656.7 293 653.2C300.5 637.3 312.4 629 327.8 629C343.2 629 354.8 635.8 363.7 650C369.8 659.6 377 665.5 388 669.6C392.3 671.3 406.9 671.4 410.7 669.9C412.2 669.2 415.1 668.1 417 667.3C423.9 664.5 425.5 663.4 431 658C436 653 437.5 650.7 440.8 643C443.8 635.9 444.1 623.8 443.8 534.2L443.5 444H537.5C589.2 444 632.4 444.3 633.5 444.6C636.7 445.5 639.3 449.9 639.4 454.7C639.5 459.5 637.5 461.9 629 467.4C623.3 471 611.1 483.4 608.5 488.3C607.4 490.3 606.2 492 605.8 492C605.3 492 605 492.5 605 493.1C605 494.1 604.3 495.9 600.9 503.5C598.9 508.1 597 519 597 526.5C597 534.5 599.8 550 601.2 550C601.7 550 602 550.6 602 551.4C602 553 606.7 562.5 608.8 565.2C613.2 570.7 627.2 584 628.6 584C628.9 584 630.6 585.1 632.4 586.5C634.2 587.9 636 589 636.3 589C636.7 589 639.1 590 641.8 591.3C644.4 592.5 649.4 594.4 653 595.4C656.6 596.3 661.3 597.7 663.5 598.3C668.8 599.9 699.2 599.9 704.5 598.3C706.7 597.7 711.4 596.3 715 595.4C718.6 594.4 723.6 592.5 726.2 591.3C728.9 590 731.4 589 732 589C732.5 589 733 588.7 733 588.2C733 587.8 734.3 586.9 735.8 586.2C743.8 582.7 759.4 566.7 763.1 558.3C763.9 556.5 764.8 555 765.1 555C765.5 555 766.1 553.3 766.5 551.2C766.9 549.2 767.5 547 768 546.5C769.6 544.5 770.3 538.2 770.3 527C770.2 514.8 769.4 507.3 767.9 506.4C767.4 506.1 767 505.1 767 504.2C767 501.4 760.8 489.8 755.9 483.5C750.4 476.4 745 471.3 739.1 467.6C730.8 462.3 729 460.1 729 455.2C729 450.1 731.4 445.4 734.4 444.6C735.6 444.3 756.4 444 780.8 444H825L824.5 805.5L821.7 810.5C818.8 815.7 813.9 820.6 810.5 821.6C809.4 822 808.2 822.8 807.8 823.4C807.3 824.2 762.2 824.6 643.3 825C521.3 825.4 479 825.8 477.5 826.7C474.4 828.5 470.4 833.2 469 836.8C467.4 841 469.1 847 473.4 851.7L476.3 855H646.2C758.7 855 816 854.7 816 854C816 853.4 816.7 853 817.5 853C819.1 853 826.5 849 832.7 844.9C838.3 841 846.7 831.5 849.3 826C850.5 823.5 851.8 821.3 852.2 821.2C852.6 821 853 820 853 819C853 818 853.4 816.8 854 816.5C854.7 816.1 855 748.7 855 617.5V419.1L851.4 416.2C849.5 414.6 846.2 412.8 844.1 412.1C838.5 410.5 743 410.7 733.5 412.4C723.5 414.2 715.8 418 709.6 424.3C704.3 429.8 699 439 699 442.8C699 443.9 698.5 445.2 698 445.5C696.4 446.5 696.8 463.2 698.5 467.6C703.1 478.9 706.8 483.3 719.7 492.5C728.4 498.6 735.5 507.2 736.6 512.9C737 514.6 737.7 516.3 738.1 516.6C739.3 517.3 739.2 535.7 738 536.5C737.5 536.8 737 538 737 539.1C737 540.2 735.4 543.5 733.5 546.5C728.7 554.1 719.2 560.8 708.2 564.6C700.1 567.3 698.7 567.5 683.5 567.5C668.4 567.5 667.1 567.3 659.5 564.6C638.9 557.1 628.3 543.4 629.3 525.3C629.8 516.5 629.8 516.3 632.8 509.6C635.8 503 639.9 498.5 648.9 492.1C657.7 485.9 664.2 479.4 666.1 475C666.9 473.4 667.8 472 668.2 472C668.7 472 669 470.9 669 469.6C669 468.2 669.5 466.8 670 466.5C671.3 465.7 671.3 445.3 670 444.5C669.5 444.2 669 443.2 669 442.4C669 439.5 663.5 429.6 659.2 424.9C653.8 418.9 644.5 414.1 634.7 412.4C629.2 411.4 606.1 411.1 535.5 411.1L443.5 411L444.5 221L447 218.6C448.4 217.1 451.2 215.8 453.6 215.4C457.2 214.9 458.1 215.1 461.3 218C463.4 219.8 465 221.6 465 222.2C465 223.4 469.4 229.4 474.4 234.8C483.4 244.5 496.8 252.4 510.5 256.1C517.1 257.9 537.1 257.9 543 256.1C563.8 249.8 579.5 236.7 589.2 217.5C595.4 205.1 596.9 200.2 599.1 184C600.2 176 599.5 151.3 598.1 149.5C597.6 149 597 147.1 596.7 145.5C595.8 140.5 594 134 593.1 132.2C592.6 131.3 591.4 128.7 590.4 126.5C582.4 108 559.7 88.6 543.4 86.3C541 86 538.7 85.3 538.4 84.9C537.7 83.7 518.5 83.8 514.6 84.9C503.8 88 499.9 89.4 495 91.8C492 93.3 488.7 95.3 487.6 96.2C486.5 97.2 485.2 98 484.7 98C483.1 98 468.3 113.5 467.5 115.9C467.2 117 466.4 118 465.9 118C465.4 118 465 118.5 465 119.2C465 119.9 463.8 121.7 462.3 123.2C460 125.6 458.8 126 454.6 126C450.9 125.9 448.8 125.3 447 123.9C444.2 121.5 444.4 126.3 443.8 56.2L443.5 30L806.5 30.5L810.9 33.4C817.1 37.4 818.5 38.9 821.7 44.5L824.5 49.5L825 212.5C825.5 371.3 825.6 375.7 827.4 378.5C830.1 382.7 832.6 384.4 837.7 386C841 386.9 842.4 387 843.3 386.1C843.9 385.5 845.1 385 846 385C846.8 385 849.2 383.6 851.3 381.9L855 378.9V209C855 96.8 854.7 38.9 854 38.5C853.5 38.2 853 37 853 35.9C853 34.9 852.7 34 852.3 34C851.8 34 850.7 32 849.7 29.5C848 25.4 836.9 13 831.5 9C828.4 6.8 818.7 2 817.3 2C816.6 2 816 1.5 816 1C816 0.3 749.3 0 617.9 0H419.8L416.5 3.3C414.7 5.1 412.7 8.4 412.1 10.5C411.4 13.2 411 31.3 411 64.4C411 112.6 411.5 123.8 414.2 130C417.6 137.8 419 140 424 145C432.8 153.7 443.6 158 456.9 158C461.3 158 465.1 157.6 465.4 157.1C465.7 156.7 467.3 156 469 155.7C475.6 154.3 485.5 146 491.4 136.7C497.8 126.7 508.3 118 514 118C515 118 516.2 117.5 516.5 117C517.3 115.8 535.4 115.7 537.8 116.9C538.7 117.4 541.3 118.6 543.4 119.6C549.2 122.4 560 133.5 560 136.7C560 137.4 560.4 138 560.8 138C561.3 138 562.5 140.6 563.5 143.7C564.5 146.9 565.8 150.6 566.4 151.9C568 155.4 567.9 188.5 566.3 190.2C565.6 190.8 565 192.2 565 193.3C565 194.3 563.7 198.1 562 201.6C554.6 217.6 542.6 226 527.2 226C511.8 226 500.3 219.3 491.3 205C482.3 190.9 470.6 184 455.3 184C450.8 184 445.8 184.5 444.3 185.1C442.8 185.8 439.9 186.9 438 187.7C431.1 190.5 429.5 191.6 424 197C419 202 417.5 204.3 414.2 212C411.2 219.1 410.9 231.2 411.2 320.8L411.5 411H222L218.9 408.2C216.2 405.8 215.7 404.6 215.6 400.8C215.5 395.4 217 393.3 225 388.3C231.5 384.2 243.7 372 246.5 366.7C247.6 364.7 248.8 363 249.2 363C249.7 363 250 362.5 250 361.9C250 360.9 250.7 359.1 254.1 351.5C256.1 346.9 258 336 258 328.5C258 320.5 255.2 305 253.8 305C253.3 305 253 304.4 253 303.6C253 302 248.3 292.5 246.2 289.8C243.9 287 231.6 274.6 229.5 273C226.2 270.5 219.1 266 218.5 266C218.2 266 215.9 265 213.2 263.7C210.6 262.5 205.6 260.6 202 259.6C198.4 258.7 193.7 257.3 191.5 256.7C189.2 256 180.7 255.5 171 255.5C161.3 255.5 152.8 256 150.5 256.7C148.3 257.3 143.6 258.7 140 259.6C136.4 260.6 131.4 262.5 128.8 263.7C126.1 265 123.8 266 123.5 266C122.8 266 115.2 271 112 273.5C104.4 279.6 93 292.5 93 294.9C93 295.5 92.6 296 92 296C91.5 296 91 296.9 91 298C91 299.1 90.6 300 90 300C89.5 300 88.8 301.7 88.4 303.7C88 305.8 87.4 307.9 87 308.5C85.4 310.6 84.7 316.9 84.7 328C84.8 340.2 85.6 347.7 87.1 348.6C87.6 348.9 88 349.9 88 350.7C88 353.6 94.3 365.3 99.1 371.5C104.7 378.6 110.1 383.8 115.9 387.4C124.2 392.7 126 394.9 126 399.8C126 404.9 123.6 409.6 120.6 410.4C119.4 410.7 98.6 411 74.2 411H30L30.5 49.5L33.3 44.5C36.5 38.9 37.9 37.4 44.1 33.4L48.5 30.5L212 30C333.7 29.6 376 29.2 377.5 28.3C381 26.3 384.7 21.6 386 17.8C387.4 13.1 385.9 8.1 381.6 3.2L378.7 0H208.8C96.3 0 39 0.3 39 1Z" fill="url(#paint1_linear_12_165)"/>
</g>
<defs>
<linearGradient id="paint0_linear_12_165" x1="-967.118" y1="-4637.53" x2="-967.118" y2="855" gradientUnits="userSpaceOnUse">
<stop stop-color="#26B6CA"/>
<stop offset="1" stop-color="#26B6CA" stop-opacity="0"/>
</linearGradient>
<linearGradient id="paint1_linear_12_165" x1="0" y1="427.5" x2="855" y2="427.5" gradientUnits="userSpaceOnUse">
<stop offset="0.49069" stop-color="#26B6CA"/>
<stop offset="0.56019" stop-color="#30B9C7"/>
<stop offset="0.68036" stop-color="#4DBFBE"/>
<stop offset="0.83676" stop-color="#7ACBAF"/>
<stop offset="1" stop-color="#B1D89E"/>
</linearGradient>
<clipPath id="clip0_12_165">
<rect width="855" height="855" fill="white"/>
</clipPath>
</defs>
</svg>
